<svg xmlns="http://www.w3.org/2000/svg" xmlns:xlink="http://www.w3.org/1999/xlink" viewBox="0 0 702.58 991.02"><defs><style>.cls-1{fill:none;}.cls-2{fill:#50bfa5;}.cls-3{fill:#3c8f7c;}.cls-4{fill:#f7cc7f;}.cls-5{fill:#96d9c9;}.cls-6{fill:#466eb6;}.cls-7{fill:#9bc1f9;}.cls-8{fill:#f79c8d;}.cls-9{fill:#86b1f2;}.cls-10{fill:#355389;}.cls-11{fill:#fae0b2;}.cls-12{fill:#f47458;}.cls-13{fill:#fff;}.cls-14{fill:#f48c7f;}.cls-15{fill:#a7a9ac;}.cls-16{fill:#6d6e71;}.cls-17{fill:#f1f2f2;}.cls-18{fill:#231f20;opacity:0.1;}.cls-19{fill:#ebc531;}.cls-20{fill:#b75742;}.cls-21{fill:#184655;}.cls-22{clip-path:url(#clip-path);}.cls-23{fill:#fcaa86;}.cls-24{fill:#efefef;}.cls-25{fill:#78788e;}.cls-26{fill:#f9cebb;}.cls-27{fill:#90bab6;}.cls-28{fill:#dd7c5e;}.cls-29{fill:#8298a0;}.cls-30{fill:#a37a52;}.cls-31{fill:#936e50;}.cls-32{fill:#ced67f;}.cls-33{fill:#a2ad36;}.cls-34{fill:#f7ba84;}.cls-35{fill:#f9ab70;}.cls-36{fill:#e0b2a0;}.cls-37{fill:#d16739;}.cls-38{fill:#8dc63f;}.cls-39{fill:#56ad37;}.cls-40{opacity:0.23;}.cls-41{fill:#878787;}.cls-42{fill:#f5f5f5;}.cls-43{opacity:0.25;}.cls-44{fill:#d9d9d9;}.cls-45{fill:#b0b0b0;}.cls-46{fill:#7cbfae;}.cls-47{fill:#9eebff;}.cls-48{fill:#414042;}.cls-49{fill:#a7d964;}.cls-50{fill:#72a133;}.cls-51{fill:#4f7024;}.cls-52{fill:#008bc6;}.cls-52,.cls-53,.cls-54,.cls-55,.cls-56,.cls-57,.cls-58,.cls-59,.cls-62,.cls-63,.cls-64,.cls-66,.cls-67,.cls-68,.cls-69,.cls-70,.cls-71,.cls-72,.cls-73,.cls-75,.cls-76,.cls-77,.cls-78,.cls-79,.cls-80,.cls-82{fill-rule:evenodd;}.cls-53{fill:#00a4d5;}.cls-54{fill:#77d3ee;}.cls-55{fill:#76c4df;}.cls-56{fill:#98dbf1;}.cls-57{fill:#fdfdfd;}.cls-58{fill:#ba0002;}.cls-59{fill:#18282c;}.cls-60,.cls-66{fill:#d5161c;}.cls-61{fill:#37d7e0;}.cls-62{fill:#87e4ec;}.cls-63{fill:#2a383d;}.cls-64{fill:#ffc900;}.cls-65,.cls-78{fill:#39474b;}.cls-67{fill:#677980;}.cls-68{fill:#f2af00;}.cls-69{fill:#009a00;}.cls-70{fill:#00a752;}.cls-71{fill:#ebebeb;}.cls-72,.cls-74{fill:#d8d9d9;}.cls-73{fill:#aeb0b1;}.cls-75{fill:#743d09;}.cls-76{fill:#804a19;}.cls-77{fill:#8f542c;}.cls-79{fill:#8ca4ad;}.cls-80{fill:#ff7f00;}.cls-81{fill:#e86a00;}.cls-82{fill:#afcad7;}</style><clipPath id="clip-path" transform="translate(-48.71)"><rect class="cls-1" y="362.36" width="800" height="394"/></clipPath></defs><g id="Layer_2" data-name="Layer 2"><g id="Layer_1-2" data-name="Layer 1"><path class="cls-2" d="M143.44,270.54s-1.61,4.44,2,7.41,13.5-3.35,16.78-4.58,4.39,0,4.39,0S160.49,258,149.25,259.5C142.54,260.4,141.86,265.24,143.44,270.54Z" transform="translate(-48.71)"/><path class="cls-3" d="M158.4,272.55c-1.1-.26-3.77-1.06-4.75-1.95A95.49,95.49,0,0,1,164,272c-1.69-.53-3.87-1.12-6.23-1.62.3-1.49,3.2-1.8,3.23-1.8a.16.16,0,0,0,0-.31c-.14,0-3.15.34-3.5,2.05-1.06-.23-2.17-.43-3.27-.61.55-2.65,4.64-3.71,4.68-3.72a.15.15,0,0,0-.07-.3c-.18,0-4.35,1.13-4.91,4-1.17-.18-2.34-.32-3.48-.41.25-3.42,5.07-5.56,5.12-5.58s.06-.37-.12-.29-5.05,2.24-5.3,5.84a28.7,28.7,0,0,0-4,0c-.24-3.47,3.55-6.46,3.59-6.49a.15.15,0,1,0-.18-.24c-.17.13-4,3.12-3.71,6.76a11.85,11.85,0,0,0-1.52.21c-5.29,1.09-6.21-2.76-6.49-3.16a.61.61,0,0,0-.7-.38c-1.28.31.41,3.11,1.74,4.14,2.29,1.67,4.21,1.11,6.76.7a7.45,7.45,0,0,0,4.71,4.8h0a.14.14,0,0,0,.16-.11.16.16,0,0,0-.11-.19,7.17,7.17,0,0,1-4.48-4.55,20.36,20.36,0,0,1,3-.26c1,2.33,5.21,3.3,5.4,3.34h0a.14.14,0,0,0,.16-.12.15.15,0,0,0-.11-.18s-4.09-.94-5.13-3c1.28,0,2.61,0,4,.11,1,1.28,4.94,2.24,5.12,2.28a.15.15,0,0,0,.07-.3Z" transform="translate(-48.71)"/><polygon class="cls-4" points="357.59 61.54 345.34 58.71 342.1 67.44 329.92 65.06 325.5 73.02 316.12 72.42 316.08 76.18 328.62 76.99 332.81 69.45 345.48 71.92 348.67 63.34 359.77 65.9 357.59 61.54"/><path class="cls-5" d="M621.76,68.78l.44-4.12L619.06,62a.57.57,0,0,1,.25-1l4.06-.85L625,56.3a.57.57,0,0,1,1-.07l2.06,3.6,4.13.33a.57.57,0,0,1,.38,1l-2.78,3.08,1,4a.57.57,0,0,1-.79.65l-3.78-1.69-3.54,2.15A.57.57,0,0,1,621.76,68.78Z" transform="translate(-48.71)"/><path class="cls-4" d="M204,182.75l-.06-7.76-6.44-4.36a1.06,1.06,0,0,1,.26-1.89l7.37-2.46,2.15-7.47a1.07,1.07,0,0,1,1.89-.34l4.62,6.25,7.76-.26a1.07,1.07,0,0,1,.9,1.69l-4.51,6.32,2.64,7.3a1.07,1.07,0,0,1-1.32,1.39l-7.41-2.35-6.13,4.78A1.07,1.07,0,0,1,204,182.75Z" transform="translate(-48.71)"/><polygon class="cls-6" points="392.95 26.44 412.1 52.72 424.78 38.85 392.95 26.44"/><polygon class="cls-7" points="426.5 31.59 424.78 38.85 392.95 26.44 426.5 31.59"/><polygon class="cls-7" points="424.78 41.63 392.95 26.44 422.54 52.72 424.78 41.63"/><path class="cls-4" d="M492.83,73.13c-.23,0-5.83-.6-12.92-5S470.13,56,470.13,54.7a.86.86,0,0,1,1.71,0,21.2,21.2,0,0,0,9,12A31.85,31.85,0,0,0,493,71.42a.85.85,0,0,1,.78.93A.87.87,0,0,1,492.83,73.13Zm-21-18.44h0Z" transform="translate(-48.71)"/><path class="cls-4" d="M527.62,80.9A89.37,89.37,0,0,1,499.41,70c-7.25-4.31-13.09-10.89-20.48-14.54a.86.86,0,0,1,.76-1.54c7.65,3.78,13.45,10.35,20.6,14.61A87.83,87.83,0,0,0,528,79.22a53.47,53.47,0,0,0,12.6.78.86.86,0,1,1,.07,1.72A56.21,56.21,0,0,1,527.62,80.9Z" transform="translate(-48.71)"/><polygon class="cls-2" points="185.16 97 172.63 98.28 168.37 78.36 149.83 77.96 144.19 63.57 136.91 66.42 144.45 85.66 162.01 86.04 166.46 106.76 185.3 104.85 185.16 97"/><polygon class="cls-8" points="641.37 221.75 632.92 211.45 626.63 217.69 623.63 214.68 633.25 205.14 641.64 215.38 648.92 207.91 656.75 217.13 665.3 210.48 667.91 213.83 656.15 222.98 648.71 214.22 641.37 221.75"/><circle class="cls-7" cx="425.71" cy="365.33" r="225.26" transform="translate(-182.35 408.03) rotate(-45)"/><path class="cls-9" d="M502.83,153.63A225.1,225.1,0,0,1,609.16,345c0,124.41-100.85,225.26-225.26,225.26a224.74,224.74,0,0,1-77.12-13.55,224.2,224.2,0,0,0,118.93,33.92C550.12,590.59,651,489.74,651,365.33,651,268,589.26,185.12,502.83,153.63Z" transform="translate(-48.71)"/><path class="cls-6" d="M209.81,300.87c9.43,18.39,38.4,35.6,49.28,35.6,12.09,0,23.44,18.31,23.44,18.31h4.76c4.76,0-1.46,18.31-4,32.6s13.37,19.22,22,27.83.91,46,8.05,53.1,25.82,20.33,28.2,17.95-8.05-24.17-1.1-35.16,11.72-23.07,19.42-36.62,24.9-11.72,26.73-30.4-23.8-22-38.82-22-16.48-13.19-29.67-18.32-27.83,7-31.37,7-11.48-17.58-18.43-21.24-19.05-1.47-22-11,17.21-10.62,34.43-10.62,18.31-4,18.31-14.28,19.41-15.75,35.52-31.86-1.46-33.33-11.35-30.4-34.79,8-30.4-2.2S330.14,220,330.14,220l9.89-5.12c9.89-5.13-26.37-9.07-29.3-9.07s5.49-10,1.46-14S302.31,201,295.35,201s-17.58,2.56-26,4.76a4.28,4.28,0,0,1-2.38-.19A225.27,225.27,0,0,0,209.81,300.87Z" transform="translate(-48.71)"/><path class="cls-6" d="M295,194.73c10.62-5.49,1.83-11.35,1.83-11.35s-1.45,0-3.78-.1q-8.71,6.36-16.78,13.52C282.69,198,289.57,197.53,295,194.73Z" transform="translate(-48.71)"/><path class="cls-6" d="M331.24,188.51s-15.75,11.35-11.72,11.35,15.93,2.38,23.44,9.89,7.69,6.59,5.49,14.65,32.41-3.85,27.47-8.79l-4.94-5a23.83,23.83,0,0,1-8.24-13.24C360.9,188.87,331.24,188.51,331.24,188.51Z" transform="translate(-48.71)"/><path class="cls-6" d="M388.74,170.93s-30,1.46-30,8.42v7s14.88,0,17.69,8.06l2.82,8s9.34,9.89,7.41,23.08-1.55,19.77,9.43,19.77,22-27.1,35.89-30.76,16.85-9.89,19.05-26S388.74,170.93,388.74,170.93Z" transform="translate(-48.71)"/><path class="cls-6" d="M560.41,299.14s-93.22,38-104,48.8-1.83,22-1.83,35.52S491.17,393,497,387.12s10.62,6.23,16.12,26.37S500,471,511.68,473.22s54.57-37,64.46-65.22,11.72-56-6.22-69.95S560.41,299.14,560.41,299.14Z" transform="translate(-48.71)"/><path class="cls-6" d="M581.77,202.9c-14.9,1.88-29.88,4.88-30.79,9.41-1.81,9.09-1.83,9.16-1.83,9.16H514.36c-12.45,0-22,11.35-22,18.31s20.33,7.14,15.39,12.09-24.72,4.21-29.67,9.15l-4.94,5s-11.91,20-19.6,24.35-10.25,1.83-7.69,4.4,23.07,5.86,31.5-2.57c0,0,14.92-9.52,19.23-10.25s4.85,2.47,7.6,3.39,8.24,2.56,8.24,4.12-1.19,4.39-.37,4.39,3.94-5,3.94-5.86-2.66-1.83-2.66-1.83l3.57.37v-.74s-4.94-.82-6.13-2-1.65-3-2.75-4.12,1.83-5.68,3-5.68,8.15,7.88,11.36,7.88h3.2A36.35,36.35,0,0,1,536,286.2l4.76,3.11s10.62,8.52,10.62,11.91S556.6,329,563,327.66s20.75-13,29-17.44,11-5.13,29.3-3.17c6.19.66,14.37,2.3,23,3.53A225.09,225.09,0,0,0,581.77,202.9Z" transform="translate(-48.71)"/><path class="cls-10" d="M281.87,263.09s9.51-11.43,17.16-8.17,8.91-2.63,12.91-.69,9,6.82,9,6.82Z" transform="translate(-48.71)"/><path class="cls-11" d="M293.81,199.45a.86.86,0,1,1-.86-.86A.87.87,0,0,1,293.81,199.45Z" transform="translate(-48.71)"/><path class="cls-12" d="M354.18,34.22,313.69,43a4.45,4.45,0,0,1-5.29-3.39L302.86,14.2a4.44,4.44,0,0,1,3.4-5.28L346.75.1A4.45,4.45,0,0,1,352,3.5l5.54,25.44A4.44,4.44,0,0,1,354.18,34.22Z" transform="translate(-48.71)"/><polygon class="cls-12" points="258.39 26.43 247.12 44.65 264.42 37.21 258.39 26.43"/><path class="cls-13" d="M319.83,21.35l4.39-1.07s4.62-5.4,4.46-6.91-1.77-4.4-1-5a3,3,0,0,1,4.12.38C333,10,333.42,15.29,334,15.51a23.17,23.17,0,0,0,4.76-.83,3.36,3.36,0,0,1,3.3,1.08h0a1.78,1.78,0,0,1,.07,2.24l-.8,1,1,.85a1.79,1.79,0,0,1,.22,2.51l-.64.76.66.49a1.78,1.78,0,0,1,.27,2.64l-.58.64.15.17a1.78,1.78,0,0,1-.05,2.41l-.59.62L330.09,33a8.17,8.17,0,0,1-3.34.12l-4.28.33a.93.93,0,0,1-1-.72l-2.34-10.27A.92.92,0,0,1,319.83,21.35Z" transform="translate(-48.71)"/><polygon class="cls-2" points="513.88 88.8 517.85 88.92 519.66 85.31 524.1 85.75 524.84 81.3 529.88 81.59 531.06 77.57 535.96 77.06 536.16 78.91 532.5 79.3 531.25 83.53 526.4 83.26 525.65 87.79 520.75 87.29 518.99 90.82 515.31 90.71 514.64 93.28 512.83 92.8 513.88 88.8"/><path class="cls-9" d="M554.12,130.46C553,139,562,145.84,569.91,145.31c8.78-.6,16.23-7.8,17.51-16.43,1.39-9.34-4.22-16.81-12.9-17.49-8.46-.67-13.86,6.86-11.42,14.45,1.75,5.44,6.72,7.47,9.22,6a2.49,2.49,0,0,0-.53-4.65,2.44,2.44,0,0,0-2.42,1.05c-2.07-.82-4-4.58-2.7-8.65,1.7-5.19,8.26-5.49,12.34-3.06,5.19,3.08,6,9.71,4.1,15a16,16,0,0,1-13.39,10.34,12.42,12.42,0,0,1-13.17-11.37A1.22,1.22,0,0,0,554.12,130.46Z" transform="translate(-48.71)"/><path class="cls-14" d="M170.35,361.48a8,8,0,0,1,5.14-4.53,6.17,6.17,0,0,1,7.78,4.28c1.14,3.78-.83,9.25-8.27,15.73-9.77-1.3-14.44-4.77-15.57-8.56a6.17,6.17,0,0,1,4.13-7.86A8,8,0,0,1,170.35,361.48Z" transform="translate(-48.71)"/><path class="cls-14" d="M141.61,371.75a83,83,0,0,0,9.26-1.73c.92-.23,2.58-.35,3-1.29a1,1,0,0,0-.31-1.33c-.87-.6-2.18,0-3.11.27-2.82.69-6.05,1.34-9.36,1.81a1.18,1.18,0,0,0-.88,1.39,1.19,1.19,0,0,0,1.38.88Z" transform="translate(-48.71)"/><path class="cls-14" d="M190.6,367.42c1.36-.31,2.71-.64,4.06-1a12.63,12.63,0,0,0,4-1.2,1,1,0,0,0-.42-1.88,12.36,12.36,0,0,0-4.09.78c-1.36.33-2.71.66-4.06,1a1.16,1.16,0,0,0,.51,2.26Z" transform="translate(-48.71)"/><path class="cls-14" d="M158.42,386.42c1-3.26,2.86-4.64,4.17-6.12a.94.94,0,0,0-1.06-1.51c-2.73,1.13-4.52,4.26-5.32,7a1.16,1.16,0,0,0,2.21.67Z" transform="translate(-48.71)"/><path class="cls-14" d="M175.75,389.78a10.25,10.25,0,0,1-.31-4.23c.12-.88,1.2-3.49-.5-3.53s-1.8,2.63-1.9,3.76a12.28,12.28,0,0,0,.44,4.51c.42,1.43,2.68.94,2.27-.51Z" transform="translate(-48.71)"/><path class="cls-14" d="M185.17,378.48l2.65,1.09c.89.36,1.8,1,2.74.54a1,1,0,0,0,.43-1.35c-.34-.88-1.67-1.13-2.48-1.46l-2.66-1.08a1.18,1.18,0,1,0-.68,2.26Z" transform="translate(-48.71)"/><path class="cls-14" d="M159,355.43c-4.55-6.22-4.5-6.27-5.22-6.7a1,1,0,0,0-1.52,1.09c.2.85.18.7,5,7.23a1.2,1.2,0,0,0,1.68.07,1.23,1.23,0,0,0,.07-1.69Z" transform="translate(-48.71)"/><path class="cls-14" d="M171.36,352.37a17.79,17.79,0,0,0,.11-3.79c-.09-1.18-.07-3-1.32-3.53a.89.89,0,0,0-.88.21c-.8.88-.23,2.38-.15,3.46a20.15,20.15,0,0,1-.07,3.56,1.17,1.17,0,0,0,1.11,1.2,1.19,1.19,0,0,0,1.2-1.11Z" transform="translate(-48.71)"/><path class="cls-14" d="M189.07,349.29a1,1,0,0,0-1-1.05c-1-.14-2,1.06-2.7,1.71a20.09,20.09,0,0,0-2.13,2.47,1.17,1.17,0,0,0,.37,1.6,1.2,1.2,0,0,0,1.61-.38C187.82,350.43,188.88,350.71,189.07,349.29Z" transform="translate(-48.71)"/><polygon class="cls-15" points="486.11 285.29 483.04 285.29 483.63 244.18 485.52 244.18 486.11 285.29"/><rect class="cls-16" x="479.89" y="284.89" width="8.92" height="2.82"/><path class="cls-17" d="M533.28,241.39s-4.38,5.23,0-31.74C537.66,246.62,533.28,241.39,533.28,241.39Z" transform="translate(-48.71)"/><path class="cls-18" d="M533.28,209.65v31.74S528.9,246.62,533.28,209.65Z" transform="translate(-48.71)"/><path class="cls-17" d="M534.72,243.37s-2.78-6.23,28.54,13.92C528.11,245,534.72,243.37,534.72,243.37Z" transform="translate(-48.71)"/><path class="cls-18" d="M563.26,257.29l-28.54-13.92S531.94,237.14,563.26,257.29Z" transform="translate(-48.71)"/><path class="cls-17" d="M531.91,243.5s2.78-6.23-28.54,13.91C538.53,245.14,531.91,243.5,531.91,243.5Z" transform="translate(-48.71)"/><path class="cls-18" d="M503.37,257.41l28.54-13.91S534.69,237.27,503.37,257.41Z" transform="translate(-48.71)"/><path class="cls-19" d="M534.82,242.89a1.63,1.63,0,1,1-1.63-1.63A1.63,1.63,0,0,1,534.82,242.89Z" transform="translate(-48.71)"/><polygon class="cls-15" points="541.6 285.29 538.53 285.29 539.12 244.18 541.02 244.18 541.6 285.29"/><rect class="cls-16" x="535.39" y="284.89" width="8.92" height="2.82"/><path class="cls-17" d="M588.78,241.39s-4.38,5.23,0-31.74C593.16,246.62,588.78,241.39,588.78,241.39Z" transform="translate(-48.71)"/><path class="cls-18" d="M588.78,209.65v31.74S584.4,246.62,588.78,209.65Z" transform="translate(-48.71)"/><path class="cls-17" d="M590.22,243.37s-2.78-6.23,28.53,13.92C583.6,245,590.22,243.37,590.22,243.37Z" transform="translate(-48.71)"/><path class="cls-18" d="M618.75,257.29l-28.53-13.92S587.44,237.14,618.75,257.29Z" transform="translate(-48.71)"/><path class="cls-17" d="M587.4,243.5s2.78-6.23-28.53,13.91C594,245.14,587.4,243.5,587.4,243.5Z" transform="translate(-48.71)"/><path class="cls-18" d="M558.87,257.41,587.4,243.5S590.18,237.27,558.87,257.41Z" transform="translate(-48.71)"/><path class="cls-19" d="M590.31,242.89a1.63,1.63,0,1,1-1.62-1.63A1.63,1.63,0,0,1,590.31,242.89Z" transform="translate(-48.71)"/><path class="cls-20" d="M296.26,219.09A.34.34,0,0,1,296,219a.33.33,0,0,1,.06-.46,10.1,10.1,0,0,1,10.32-.39.33.33,0,0,1,.15.44.33.33,0,0,1-.44.16c-5.58-2.71-9.46.19-9.62.31A.31.31,0,0,1,296.26,219.09Z" transform="translate(-48.71)"/><path class="cls-11" d="M301.05,220.35a10.54,10.54,0,0,1-4.95-1.3.33.33,0,0,1-.14-.45.34.34,0,0,1,.45-.14c5.48,2.9,9.44-.18,9.6-.31a.33.33,0,1,1,.42.52A9.31,9.31,0,0,1,301.05,220.35Z" transform="translate(-48.71)"/><path class="cls-11" d="M296.48,219.13l-.6-.35c-.44-.26-4.37-2.63-4.5-4.44a1.27,1.27,0,0,1,.51-1.11,1.83,1.83,0,0,1,1.88-.43c1.88.74,2.54,5.15,2.61,5.65Zm-3.28-5.77a1.47,1.47,0,0,0-.89.39.57.57,0,0,0-.26.54c.07,1.06,2.21,2.66,3.55,3.53-.29-1.51-1-4-2.08-4.4A.87.87,0,0,0,293.2,213.36Z" transform="translate(-48.71)"/><path class="cls-11" d="M292.28,223.17a.91.91,0,0,1-.81-.51,1.24,1.24,0,0,1-.11-1.09c.54-1.45,3.67-2.54,4-2.66l.81-.27-.42.75c-.35.63-2.15,3.75-3.48,3.78Zm2.43-3.29c-1,.45-2.45,1.19-2.72,1.92a.56.56,0,0,0,.05.52c.11.18.2.18.25.18C292.86,222.49,293.92,221.15,294.71,219.88Z" transform="translate(-48.71)"/><path class="cls-21" d="M319.76,158.61c-2.21,11.72-9.26,36.36-20.74,36-.56-16.07-1.35-29.89-2.45-34.25a22.64,22.64,0,0,0-.91-2.63c7.15.63,11.45-10.28,13.1-18-1.47,4.88-4.79,12.69-9.15,15.3a5.42,5.42,0,0,1-5,.53c-4.15-7.73-12-12.91-15.78-17.51-1.51-1.85-1.77-6.49-1.57-11.24h-.41a45.2,45.2,0,0,0-.06,7.05c.58,6.25,3.81,6.64,11.19,15,5.91,6.62,8,10.19,8.18,35.55a11.22,11.22,0,0,1-1.63.21c-6.06.11-11.62-5.77-14.7-10.91,2.43,4.67,6.75,10,11.82,11.58a11.51,11.51,0,0,0,2.88.5,11.2,11.2,0,0,0,1.64-.1c.13,2.23.81,45.79.21,73.94,1.79,0,1.46-.81,3.22-.67-.07-7.63.32-36.14-.49-61.16C312.53,197.29,318.15,172.5,319.76,158.61Z" transform="translate(-48.71)"/><path class="cls-4" d="M304.85,259.08h1.37v-54a.68.68,0,0,0-.68-.69h0a.69.69,0,0,0-.69.69Z" transform="translate(-48.71)"/><path class="cls-2" d="M283.11,135.09a7.08,7.08,0,0,0,4.42-7.07c-.38-5.28-13.11-9.44-16.62-11.42s-3.39-3.87-3.39-3.87S259.9,129.16,269.8,138C275.7,143.2,280.09,140.3,283.11,135.09Z" transform="translate(-48.71)"/><path class="cls-3" d="M273.18,120.5c.63,1.15,2.05,4.07,2.1,5.58a118.37,118.37,0,0,1-6.86-10.14c.88,1.87,2.1,4.21,3.52,6.65-1.42.81-3.91-1.51-3.94-1.54a.17.17,0,1,0-.22.25c.11.11,2.71,2.52,4.34,1.59.64,1.1,1.33,2.22,2,3.32-2.54,1.43-6.55-1.41-6.59-1.44a.17.17,0,0,0-.24,0,.18.18,0,0,0,.05.24c.18.13,4.26,3,7,1.45.76,1.16,1.55,2.29,2.35,3.35-2.92,2.25-8.36-.44-8.41-.47a.17.17,0,1,0-.14.31c.24.12,5.69,2.82,8.77.44A33.93,33.93,0,0,0,280,133.7c-2.6,2.72-7.91,1.54-8,1.52a.17.17,0,0,0-.2.13.19.19,0,0,0,.14.21c.24.06,5.58,1.24,8.28-1.61.45.43.9.82,1.34,1.18,5,3.86,2.59,7.44,2.49,8a.72.72,0,0,0,.24.89c1.23.9,2.17-2.61,2-4.52-.43-3.21-2.37-4.5-4.67-6.44a8.67,8.67,0,0,0,.21-7.6l0,0a.17.17,0,0,0-.21,0,.16.16,0,0,0-.07.23,8.29,8.29,0,0,1-.18,7.22,25.58,25.58,0,0,1-2.55-2.48c1.09-2.56-1.38-7-1.5-7.15v0a.18.18,0,0,0-.22,0,.16.16,0,0,0-.06.23s2.4,4.27,1.53,6.7c-1-1.11-2-2.3-3-3.55.26-1.79-2-5.95-2.12-6.14a.18.18,0,0,0-.23-.08A.16.16,0,0,0,273.18,120.5Z" transform="translate(-48.71)"/><path class="cls-2" d="M318.79,166.68s-3.58-2.58-2.39-6.75,12.18-4.53,15.35-5.3,3.38-2.32,3.38-2.32,3.42,15.07-6.05,19.83C323.44,175,320.36,171.61,318.79,166.68Z" transform="translate(-48.71)"/><path class="cls-3" d="M329.26,157.25a13.35,13.35,0,0,0-2.63,4,86.21,86.21,0,0,0,7.24-6.57c-1,1.3-2.4,2.91-3.95,4.54,1,1,3.41-.3,3.44-.31a.14.14,0,0,1,.14.25c-.11.06-2.62,1.4-3.78.26-.71.74-1.45,1.48-2.21,2.19,1.82,1.76,5.54.42,5.58.4a.16.16,0,0,1,.18.09.14.14,0,0,1-.08.18c-.17.07-3.95,1.43-5.89-.47-.8.75-1.63,1.48-2.46,2.14,2,2.51,6.84,1.62,6.89,1.61a.15.15,0,0,1,.06.29c-.22,0-5.08.93-7.17-1.72a25.9,25.9,0,0,1-3.09,2.15c1.64,2.81,6.14,3.11,6.19,3.11a.15.15,0,0,1,.13.16.14.14,0,0,1-.14.13c-.21,0-4.72-.32-6.43-3.26a13.88,13.88,0,0,1-1.28.64c-4.66,2-3.34,5.4-3.35,5.85a.57.57,0,0,1-.34.67c-1.15.43-1.32-2.62-.83-4.12.88-2.49,2.66-3.07,4.84-4.09a7,7,0,0,1,1.11-6.19v0a.15.15,0,0,1,.19,0,.14.14,0,0,1,0,.2,6.69,6.69,0,0,0-1.06,5.87,17.51,17.51,0,0,0,2.48-1.4c-.45-2.32,2.28-5.28,2.4-5.42h0a.14.14,0,0,1,.18,0,.13.13,0,0,1,0,.2s-2.65,2.88-2.35,5.05c1-.66,2-1.39,3-2.17.09-1.5,2.63-4.33,2.74-4.45a.14.14,0,0,1,.21.19Z" transform="translate(-48.71)"/><path class="cls-2" d="M301,145.13s-4.42.18-6.06-3.83,6.78-11.09,8.8-13.66,1.22-3.91,1.22-3.91,12,9.73,7.5,19.33C309.73,148.78,305.22,148,301,145.13Z" transform="translate(-48.71)"/><path class="cls-3" d="M303.35,131.24a13.24,13.24,0,0,0,.41,4.77,89.83,89.83,0,0,0,1.64-9.63c0,1.65-.1,3.76-.31,6,1.4.15,2.5-2.34,2.51-2.37s.34-.06.26.11-1.18,2.72-2.8,2.54c-.1,1-.23,2.05-.38,3.09,2.51.25,4.61-3.09,4.63-3.13a.15.15,0,0,1,.2,0,.14.14,0,0,1,0,.2c-.09.15-2.22,3.56-4.92,3.26-.17,1.09-.37,2.17-.61,3.21,3.12.74,6.38-2.95,6.41-3s.35,0,.22.18-3.41,3.87-6.69,3.09a25.84,25.84,0,0,1-1.11,3.6c3,1.19,6.76-1.35,6.79-1.38a.17.17,0,0,1,.21,0,.14.14,0,0,1,0,.2c-.16.12-3.9,2.67-7.06,1.41a12.88,12.88,0,0,1-.62,1.29c-2.46,4.41.72,6.31,1,6.67a.56.56,0,0,1,.14.73c-.63,1.06-2.66-1.24-3.2-2.72-.84-2.5.19-4.06,1.28-6.21a7,7,0,0,1-2.95-5.54v0a.15.15,0,0,1,.15-.11.14.14,0,0,1,.13.15,6.71,6.71,0,0,0,2.8,5.28,19.6,19.6,0,0,0,1.08-2.64c-1.79-1.55-1.47-5.56-1.45-5.74v0a.13.13,0,0,1,.15-.11.14.14,0,0,1,.13.15c0,.05-.31,3.91,1.27,5.43.38-1.14.71-2.33,1-3.55-.86-1.24-.61-5-.59-5.2a.14.14,0,1,1,.28,0Z" transform="translate(-48.71)"/><g class="cls-22"><path class="cls-23" d="M445,578a16.48,16.48,0,0,0-.53,2.36l.69,26v.16L448.58,787h-50s3.63-128.84.63-180.45v-.16c0-1,.61-1.9.59-2.8,0-.53.3-1.06.28-1.57s.15-.81.13-1.22c0-.89,0-1.75,0-2.58-.17-4.14-.34-7.41-.61-9.6a17.66,17.66,0,0,0-.4-2.42c-2.38-8.45-15.64-23.11-19.65-30.92-9.92-19.29-16.31-21.85-22-33.37-1-2-.17-6.42,5.18-7,4.82-.51,9.77,3.5,12.44,7.83C381.78,533.43,391,534.9,391,534.9a2.13,2.13,0,0,0,3.48-1.34c1.85-13.58,2.24-54.58,2.92-68.75.42-8.71,10.59-9.21,10.09,1.17-.64,13.15,4,42.4,3.78,50.12,0,.56,1.34.27,1.34-.26,0-12.62,1.52-41.65,2.29-57,.36-7.08,9.35-5.72,9.73-.7.59,7.72.51,23.36,1.93,57.51,0,.5,1.39.57,1.44.08.65-6.32.67-40.38,1.92-53.52.57-5.9,8.61-5.26,9.06.53.5,6.44,1.14,31.25,2.38,53.41.06.93,1.55.6,1.61.18.71-4.65,2-21.81,3-36,.31-4.23,7.17-3.57,7.06,1.06-.18,7.62.51,11.2.44,19.85-.07,10.7,1.08,31.25.29,39.22C452.86,550,447,570.93,445,578Z" transform="translate(-48.71)"/><polygon class="cls-24" points="401.74 628.96 345.14 628.96 346.28 590.96 400.6 590.96 401.74 628.96"/><polygon class="cls-25" points="409.85 964.96 335.88 964.96 344.13 603.25 402.75 603.25 409.85 964.96"/><path class="cls-26" d="M658.13,582.58c-.19,1.54-.39,2.45-.39,2.45l4.51,25.64,0,.16,31.87,177.56-49.41,7.79s-16.37-127.76-26.61-178.39l0-.16c-.15-1-.1-1.91-.27-2.8-.09-.52-.08-1.06-.17-1.56s-.09-.81-.17-1.2c-.17-.88-.3-1.73-.47-2.54-.81-4.07-1.52-7.27-2.12-9.39a17.22,17.22,0,0,0-.79-2.32c-3.66-8-19.05-20.4-24.23-27.49-12.8-17.51-19.51-19.05-26.92-29.54-1.31-1.85-1.17-6.31,4-7.69,4.67-1.26,10.19,1.93,13.5,5.79,8.22,9.55,17.56,9.56,17.56,9.56a2.13,2.13,0,0,0,3.23-1.87c-.29-13.69-6.28-54.25-7.82-68.36-.94-8.67,9-10.75,10.15-.41,1.42,13.09,10.59,41.26,11.54,48.92.07.55,1.36,0,1.28-.47-1.93-12.47-5-41.38-6.61-56.66-.75-7.05,8.34-7.1,9.5-2.21,1.79,7.54,4.14,23,10.86,56.51.1.5,1.46.35,1.44-.15-.35-6.33-5.63-40-6.43-53.16-.37-5.91,7.67-6.53,9-.88,1.49,6.28,6,30.68,10.66,52.39.2.91,1.62.35,1.62-.08,0-4.7-1.41-21.85-2.6-36.07-.35-4.22,6.53-4.64,7.14,0,1,7.55,2.24,11,3.53,19.54,1.59,10.57,5.92,30.69,6.38,38.69C661.51,553.72,659,575.33,658.13,582.58Z" transform="translate(-48.71)"/><polygon class="cls-24" points="622.6 631.37 566.69 640.18 562.08 603.58 615.73 595.13 622.6 631.37"/><polygon class="cls-27" points="702.58 979.51 629.51 991.02 561.8 615.68 619.71 606.56 702.58 979.51"/><path class="cls-28" d="M569.81,667c-.19,1.54-.38,2.45-.38,2.45l4.51,25.64,0,.16,31.88,177.56-49.42,7.79s-16.37-127.76-26.61-178.39l0-.16c-.15-.95-.11-1.91-.28-2.8-.09-.52-.07-1-.17-1.56s-.08-.81-.17-1.2c-.17-.88-.3-1.73-.47-2.54-.81-4.07-1.51-7.27-2.12-9.39a19.06,19.06,0,0,0-.78-2.32c-3.67-8-19.06-20.4-24.24-27.49-12.79-17.51-19.51-19-26.92-29.54-1.3-1.85-1.16-6.31,4-7.69,4.67-1.26,10.19,1.93,13.51,5.79,8.22,9.55,17.55,9.56,17.55,9.56A2.13,2.13,0,0,0,513,631c-.28-13.7-6.28-54.26-7.81-68.37-.94-8.67,9-10.75,10.14-.41,1.42,13.09,10.6,41.26,11.54,48.92.07.55,1.37.06,1.29-.47-1.93-12.46-5-41.38-6.62-56.66-.74-7,8.35-7.1,9.51-2.21,1.78,7.54,4.14,23,10.86,56.51.09.5,1.45.35,1.43-.15-.35-6.33-5.62-40-6.43-53.16-.36-5.91,7.68-6.53,9-.88,1.5,6.28,6,30.68,10.66,52.39.2.91,1.62.35,1.62-.08,0-4.7-1.41-21.85-2.6-36.07-.34-4.22,6.53-4.64,7.14,0,1,7.55,2.25,11,3.53,19.54,1.59,10.57,5.92,30.69,6.39,38.69C573.2,638.14,570.7,659.75,569.81,667Z" transform="translate(-48.71)"/><polygon class="cls-24" points="534.28 715.79 478.38 724.6 473.76 688 527.42 679.54 534.28 715.79"/><polygon class="cls-29" points="577.73 935.76 504.67 947.27 473.49 700.1 531.39 690.98 577.73 935.76"/><path class="cls-30" d="M155,591.28c.05,1.55.15,2.47.15,2.47l-7,25.09,0,.16L99.37,792.67l48.44,12.5s28.59-125.59,43.65-175l0-.16c.24-.93.29-1.89.55-2.76.14-.5.17-1,.32-1.53s.16-.8.28-1.18c.25-.86.47-1.69.71-2.49,1.2-4,2.21-7.08,3-9.14a17.84,17.84,0,0,1,1-2.23c4.42-7.59,20.93-18.47,26.77-25,14.42-16.19,21.25-17.08,29.64-26.81,1.47-1.72,1.76-6.18-3.28-8.05-4.53-1.7-10.33.94-14,4.46-9.11,8.72-18.4,7.83-18.4,7.83a2.13,2.13,0,0,1-3-2.16c1.6-13.61,11.47-53.41,14.35-67.3,1.77-8.54-8-11.56-10.06-1.39-2.67,12.9-14.51,40-16.19,47.59-.12.54-1.36-.08-1.23-.59,3.12-12.23,8.94-40.71,12-55.77,1.42-6.94-7.62-7.87-9.24-3.11-2.51,7.34-6.34,22.5-16.25,55.2-.14.49-1.48.21-1.41-.28C188,529,196.52,496,198.59,483c.93-5.85-7-7.24-8.9-1.74-2.1,6.1-8.91,30-15.66,51.12-.28.88-1.64.19-1.6-.23.48-4.68,3.5-21.62,6.06-35.66.75-4.17-6.06-5.24-7.1-.73-1.73,7.42-3.29,10.71-5.4,19.11-2.6,10.37-8.85,30-10.08,37.9C154.44,562.23,154.85,584,155,591.28Z" transform="translate(-48.71)"/><path class="cls-31" d="M155.17,593.49l-7,24.84,43,11.09c.29-1.08.46-1.6.71-2.46.14-.51.26-.9.4-1.39s.21-.72.32-1.11c.25-.86.5-1.65.74-2.45,1.2-4,2.23-7.11,3-9.19-22.68-7-33.57-8-41.32-21.67C155.11,592.7,155.17,593.49,155.17,593.49Z" transform="translate(-48.71)"/><polygon class="cls-24" points="88.51 638.57 143.31 652.72 151.43 616.73 98.83 603.15 88.51 638.57"/><polygon class="cls-32" points="0 938.03 71.62 956.52 150.53 628.8 93.78 614.15 0 938.03"/><path class="cls-33" d="M181,649.26a3.49,3.49,0,1,0,4.25-2.51A3.49,3.49,0,0,0,181,649.26Z" transform="translate(-48.71)"/><path class="cls-33" d="M184.24,636.71a3.49,3.49,0,1,0,4.25-2.51A3.49,3.49,0,0,0,184.24,636.71Z" transform="translate(-48.71)"/><path class="cls-34" d="M259.25,661.81c.19,1.54.38,2.45.38,2.45l-4.5,25.64,0,.16L223.23,867.62l49.41,7.78S289,747.64,299.25,697l0-.15c.15-1,.1-1.92.27-2.8.09-.52.07-1.06.17-1.56s.09-.81.17-1.21c.17-.87.3-1.72.47-2.54.81-4.06,1.52-7.26,2.12-9.39a17.73,17.73,0,0,1,.79-2.32c3.66-8,19.05-20.39,24.23-27.48,12.8-17.51,19.51-19,26.92-29.54,1.31-1.85,1.17-6.32-4-7.7-4.67-1.25-10.19,1.93-13.5,5.79-8.22,9.55-17.56,9.57-17.56,9.57a2.13,2.13,0,0,1-3.23-1.87c.29-13.7,6.28-54.26,7.81-68.36,1-8.67-9-10.75-10.14-.42-1.42,13.1-10.59,41.26-11.54,48.92-.07.55-1.37.06-1.28-.46,1.93-12.47,5-41.38,6.61-56.67.75-7-8.34-7.1-9.5-2.2-1.79,7.54-4.14,23-10.86,56.5-.1.5-1.46.35-1.44-.14.35-6.34,5.62-40,6.43-53.17.36-5.91-7.68-6.53-9-.88-1.49,6.29-6,30.69-10.66,52.39-.2.91-1.62.35-1.62-.07,0-4.7,1.41-21.86,2.6-36.07.35-4.23-6.53-4.64-7.14,0-1,7.55-2.24,11-3.53,19.54-1.59,10.58-5.92,30.7-6.38,38.7C255.87,633,258.36,654.55,259.25,661.81Z" transform="translate(-48.71)"/><path class="cls-35" d="M259.6,664l-4.54,25.39,43.83,6.9c.19-1.1.3-1.63.47-2.51.09-.52.17-.92.26-1.42s.14-.74.22-1.14c.16-.87.33-1.69.49-2.5.81-4.1,1.54-7.3,2.15-9.45-23.24-4.75-34.18-4.77-43.21-17.59C259.46,663.22,259.6,664,259.6,664Z" transform="translate(-48.71)"/><polygon class="cls-24" points="197.36 710.6 253.27 719.4 257.88 682.8 204.23 674.35 197.36 710.6"/><polygon class="cls-36" points="153.91 930.57 226.98 942.08 258.15 694.91 200.25 685.78 153.91 930.57"/><path class="cls-37" d="M290.67,717a3.49,3.49,0,1,0,4-2.9A3.49,3.49,0,0,0,290.67,717Z" transform="translate(-48.71)"/><path class="cls-37" d="M292.69,704.22a3.49,3.49,0,1,0,4-2.91A3.49,3.49,0,0,0,292.69,704.22Z" transform="translate(-48.71)"/></g><polygon class="cls-15" points="514.55 293.34 510.68 293.34 511.42 241.5 513.81 241.5 514.55 293.34"/><rect class="cls-16" x="506.71" y="292.84" width="11.25" height="3.56"/><path class="cls-17" d="M561.32,238s-5.52,6.59,0-40C566.85,244.58,561.32,238,561.32,238Z" transform="translate(-48.71)"/><path class="cls-18" d="M561.32,198v40S555.8,244.58,561.32,198Z" transform="translate(-48.71)"/><path class="cls-17" d="M563.14,240.48s-3.5-7.85,36,17.55C554.8,242.55,563.14,240.48,563.14,240.48Z" transform="translate(-48.71)"/><path class="cls-18" d="M599.12,258l-36-17.55S559.64,232.63,599.12,258Z" transform="translate(-48.71)"/><path class="cls-17" d="M559.59,240.64s3.5-7.85-36,17.55C567.93,242.72,559.59,240.64,559.59,240.64Z" transform="translate(-48.71)"/><path class="cls-18" d="M523.61,258.19l36-17.55S563.09,232.79,523.61,258.19Z" transform="translate(-48.71)"/><path class="cls-19" d="M563.26,239.87a2,2,0,1,1-2-2.05A2.05,2.05,0,0,1,563.26,239.87Z" transform="translate(-48.71)"/><path class="cls-38" d="M557.08,345.58q0,6.12.11,12.24H545.7a7.4,7.4,0,0,1-4.47-3.89,7.49,7.49,0,0,1,1.92-8.27Z" transform="translate(-48.71)"/><path class="cls-39" d="M540.2,353.36l-7.48-12.65s-.66-.76.43-2.72l2.72-4.87L532.73,331l11.17-.44,5.77,10.16-3.84-1.87c-1.93,3.3-3.5,6-4.75,8.16a8,8,0,0,0-1.22,3.4A7.55,7.55,0,0,0,540.2,353.36Z" transform="translate(-48.71)"/><path class="cls-38" d="M551,331.71l-10.6-6.12,5.82-9.91a7.41,7.41,0,0,1,5.62-1.87,7.49,7.49,0,0,1,6.15,5.85Z" transform="translate(-48.71)"/><path class="cls-39" d="M552.82,313.22l14.7,0s1-.18,2.12,1.75,2.81,4.82,2.81,4.82l3.43-1.64L570.59,328l-11.69-.18,3.56-2.36c-1.86-3.33-3.42-6.07-4.62-8.24a8,8,0,0,0-2.31-2.77A7.46,7.46,0,0,0,552.82,313.22Z" transform="translate(-48.71)"/><path class="cls-38" d="M566.48,333.19,577,326.93l5.79,9.93a7.36,7.36,0,0,1-1.11,5.82,7.48,7.48,0,0,1-8.11,2.5Z" transform="translate(-48.71)"/><path class="cls-39" d="M581.7,343.86l-7.16,12.83s-.33.95-2.57,1l-5.58.1-.24,3.78-6-9.43L566,342l.32,4.25c3.82,0,7,0,9.45,0a7.76,7.76,0,0,0,3.54-.66A7.45,7.45,0,0,0,581.7,343.86Z" transform="translate(-48.71)"/><polygon class="cls-40" points="249.81 399.34 266.77 398.19 275.81 394.31 243.59 379.78 233.22 379.32 225.37 384.43 249.81 399.34"/><polygon class="cls-41" points="257.54 393.94 233.22 379.9 225.37 384.43 224.68 384.25 224.68 384.83 249.81 399.34 258.35 394.41 258.35 393.83 257.54 393.94"/><polygon class="cls-42" points="224.68 384.25 249.81 398.76 258.35 393.83 233.22 379.32 224.68 384.25"/><polygon class="cls-43" points="257.32 394.42 243.36 386.52 244.52 385.84 258.35 393.83 257.32 394.42"/><polygon class="cls-44" points="248.84 393.51 246.75 392.3 246.75 372.16 248.84 373.37 248.84 393.51"/><polygon class="cls-45" points="249.97 392.85 248.84 393.51 248.84 382.64 249.97 381.99 249.97 392.85"/><polygon class="cls-44" points="234.92 386.18 232.82 384.97 232.82 364.83 234.92 366.04 234.92 386.18"/><polygon class="cls-45" points="236.05 385.52 234.92 386.18 234.92 375.31 236.05 374.66 236.05 385.52"/><path class="cls-46" d="M310,373.24V374l-2.18,2.67c-.18.22-.37.44-.54.66l-2.8,3.41-.55.68-2.87,3.5c-.18.23-.36.45-.55.67-.75.92-1.49,1.84-2.25,2.75L290.91,384l-.85-.5L284,379.9c-.28-.18-.57-.34-.85-.5-1.95-1.17-3.9-2.32-5.85-3.47l-.85-.5-4.22-2.5v-.76l.57.13,2-2.18c.2-.21.4-.42.59-.64,1-1.12,2.05-2.25,3.08-3.38.2-.21.39-.43.58-.64l3-3.3c.19-.21.38-.43.58-.64l1.67-1.84,4,2.26.88.49,6,3.32.87.49c2.06,1.14,4.13,2.29,6.19,3.45l.87.48,5.91,3.29Z" transform="translate(-48.71)"/><path class="cls-47" d="M310,373.24l-2.19,2.68c-.14.16-.27.33-.4.49l-.18.21c-.12.15-.24.31-.37.45-.86,1.05-1.71,2.1-2.58,3.15a2.75,2.75,0,0,1-.22.26l-.36.46a1.24,1.24,0,0,0-.18.22l-2.86,3.49h0l-.54.67,0,0c-.59.74-1.2,1.47-1.81,2.21l-6.88-4.08-.86-.5-6.06-3.59-.85-.5h0l-5.85-3.46-.85-.52-4.66-2.75c.61-.66,1.21-1.33,1.81-2l.3-.33c.11-.11.22-.24.32-.35l.26-.29,3-3.29.08-.09.54-.59,0-.05,3-3.3.13-.15c.16-.16.31-.33.46-.49l.16-.19,2-2.13,4.5,2.51.87.49,6,3.32.87.48,6.19,3.44.87.49Z" transform="translate(-48.71)"/><path class="cls-46" d="M303.56,369.66l-.44.51L301,372.56l-.57.65-2.94,3.34-.58.65-3,3.42-.58.65-2,2.22-.45.5-.85-.5.44-.5,2-2.23.57-.66,3-3.41.57-.65,2.94-3.34.57-.65,2.1-2.36.44-.52Z" transform="translate(-48.71)"/><path class="cls-46" d="M296.5,365.73l-.44.51-1.94,2.2-.57.64-2.94,3.33-.57.65-3,3.43-.58.64-2,2.27-.44.5c-.28-.18-.57-.34-.85-.5l.44-.5h0l2-2.27.57-.65,3-3.42.57-.66,2.94-3.32.57-.65,1.92-2.18.44-.5Z" transform="translate(-48.71)"/><path class="cls-46" d="M277.3,375.93l.44-.49,2-2.31.57-.65,3-3.42.57-.65,2.94-3.33.58-.65,1.76-2,.44-.5-.87-.49-.45.5-1.74,2-.57.65-2.94,3.34-.57.65-3,3.42-.58.65-2,2.3-.44.51Z" transform="translate(-48.71)"/><path class="cls-46" d="M307.84,375.94l-.57.71-.06,0-.38-.23-6.08-3.54-.75-.44-.11-.06-.79-.47-5.29-3.09-.86-.5-.26-.15-.91-.52-4.71-2.76-.86-.49-.62-.37-.9-.52L282.18,362l-.46-.27c.16-.16.31-.33.46-.49l.16-.19.46.27,2.48,1.45.91.53.63.36.86.51,4.7,2.74.9.53.27.16.86.5,5.29,3.07.8.48.1.06.76.44,6,3.52.39.24Z" transform="translate(-48.71)"/><path class="cls-46" d="M300.81,384.75l-.57.72-.19-.11-.25-.16-6.57-3.83-.62-.37-.23-.14-.67-.38-5.43-3.17-.85-.49-.13-.08-.9-.52-4.85-2.84-.86-.5-.48-.28-.91-.52-2.8-1.64-.46-.26.3-.33c.11-.11.22-.24.32-.35l.45.26,2.78,1.62.91.53.5.29.85.5,4.85,2.82.89.53.14.08.86.5,5.41,3.15.67.4.24.13.63.36,6.53,3.82.27.16Z" transform="translate(-48.71)"/><path class="cls-46" d="M304.37,380.29l-.57.71-.12-.06-.33-.19L297,377.07l-.68-.41-.18-.1-.73-.43L290.09,373l-.86-.49-.19-.12-.91-.52-4.79-2.79-.85-.5-.56-.33-.89-.52-2.66-1.55-.46-.26.08-.09.54-.59.46.26,2.63,1.53.9.53.57.33.86.5,4.76,2.78.92.53.2.11.86.51,5.35,3.12.74.43.16.1.69.4,6.28,3.66.34.19Z" transform="translate(-48.71)"/><polygon class="cls-43" points="248.84 393.51 254.53 396.03 255.87 395.26 249.97 392.85 248.84 393.51"/><polygon class="cls-43" points="234.92 386.18 246.75 390.71 246.75 389.62 236.05 385.52 234.92 386.18"/><polygon class="cls-40" points="279.78 415.9 296.75 414.75 305.79 410.87 273.57 396.35 263.2 395.88 255.35 401 279.78 415.9"/><polygon class="cls-41" points="287.52 410.5 263.2 396.46 255.35 401 254.66 400.82 254.66 401.39 279.78 415.9 288.33 410.97 288.33 410.39 287.52 410.5"/><polygon class="cls-42" points="254.66 400.82 279.78 415.32 288.33 410.39 263.2 395.88 254.66 400.82"/><polygon class="cls-43" points="287.3 410.99 273.33 403.08 274.5 402.41 288.33 410.39 287.3 410.99"/><polygon class="cls-44" points="278.82 410.07 276.72 408.86 276.72 388.73 278.82 389.94 278.82 410.07"/><polygon class="cls-45" points="279.95 409.42 278.82 410.07 278.82 399.2 279.95 398.55 279.95 409.42"/><polygon class="cls-44" points="264.9 402.74 262.8 401.53 262.8 381.4 264.9 382.61 264.9 402.74"/><polygon class="cls-45" points="266.03 402.09 264.9 402.74 264.9 391.87 266.03 391.22 266.03 402.09"/><path class="cls-46" d="M340,389.8v.75l-2.18,2.67q-.28.33-.54.66l-2.8,3.42c-.18.22-.37.44-.55.67L331,401.48c-.18.22-.37.44-.55.67l-2.25,2.74-7.33-4.34-.85-.5L314,396.46l-.85-.5c-2-1.16-3.9-2.32-5.85-3.46l-.85-.51q-2.12-1.25-4.22-2.5v-.76l.57.13,2-2.17c.2-.21.39-.43.58-.65l3.09-3.38c.2-.21.38-.42.58-.64l3-3.3c.19-.21.38-.43.58-.64l1.67-1.83,4.05,2.25.88.49,6,3.33.87.48c2.06,1.15,4.12,2.29,6.18,3.45l.87.48L339,390Z" transform="translate(-48.71)"/><path class="cls-47" d="M340,389.8l-2.19,2.68c-.14.16-.27.33-.4.49l-.18.21c-.12.16-.25.31-.37.46l-2.59,3.14a2.47,2.47,0,0,1-.21.27c-.12.15-.25.3-.36.45s-.13.15-.19.22l-2.85,3.49,0,0-.55.66,0,0c-.6.74-1.2,1.48-1.81,2.21l-6.88-4.07-.86-.51L314.42,396l-.85-.51h0L307.72,392l-.86-.51-4.65-2.76c.61-.66,1.21-1.33,1.81-2,.1-.11.2-.21.29-.32l.33-.36.26-.29,3-3.29.08-.09.54-.59.05-.05,3-3.3.13-.14.45-.5.17-.18,1.95-2.14,4.5,2.51.87.49,6,3.32.87.49,6.19,3.44.87.49Z" transform="translate(-48.71)"/><path class="cls-46" d="M333.54,386.23l-.45.5-2.11,2.4-.57.65-2.94,3.33-.58.65-3,3.42-.57.65-2,2.23-.45.49-.85-.5.44-.5,2-2.23.57-.65,3-3.42.58-.65,2.94-3.33.57-.65,2.09-2.37.45-.51Z" transform="translate(-48.71)"/><path class="cls-46" d="M326.48,382.3l-.44.5L324.1,385l-.57.64L320.59,389l-.57.65-3,3.43-.58.64-2,2.28-.44.49-.85-.5.43-.5h0l2-2.27.58-.65,3-3.42.57-.66,2.94-3.32.57-.65,1.92-2.17.44-.51Z" transform="translate(-48.71)"/><path class="cls-46" d="M307.28,392.5l.44-.5,2-2.31.57-.65,3-3.42.58-.65,2.94-3.33.58-.65,1.76-2,.44-.5-.87-.49-.45.5-1.74,2-.57.65-2.94,3.33-.57.65-3,3.42-.58.65-2,2.31-.43.5Z" transform="translate(-48.71)"/><path class="cls-46" d="M337.81,392.5l-.56.71-.06,0-.38-.22-6.08-3.55L330,389l-.11-.06-.79-.47-5.29-3.09-.86-.5-.26-.15-.91-.52-4.71-2.75-.86-.5-.62-.37-.9-.52-2.52-1.47-.45-.26.45-.5.17-.18.46.26,2.48,1.45.91.53.62.37.87.5,4.7,2.75.9.52.27.16.86.5,5.28,3.08.81.47.09.06.76.45,6.05,3.52.39.23Z" transform="translate(-48.71)"/><path class="cls-46" d="M330.79,401.31l-.57.72-.19-.11-.25-.15-6.57-3.84-.62-.36-.24-.14-.66-.39-5.43-3.16-.85-.5-.14-.08-.89-.52L309.53,390l-.86-.51-.48-.28-.92-.52-2.8-1.64-.45-.26c.1-.11.2-.21.29-.32l.33-.36.45.26,2.78,1.62.91.53.5.29.85.5,4.84,2.83.9.52.14.08.86.51,5.41,3.15.67.39.24.13.63.37,6.53,3.81.27.16Z" transform="translate(-48.71)"/><path class="cls-46" d="M334.34,396.85l-.57.72-.11-.07-.33-.19L327,393.63l-.68-.4-.18-.11-.73-.43-5.35-3.12-.86-.5L319,389l-.9-.52-4.79-2.79-.85-.5-.56-.32-.9-.53-2.66-1.55-.45-.26.08-.09.54-.59.46.26,2.63,1.54.9.52.56.33.87.51,4.76,2.77.91.53.21.11.86.51L326,392l.74.44.16.09.69.4,6.28,3.66.33.19Z" transform="translate(-48.71)"/><polygon class="cls-43" points="278.82 410.07 284.51 412.6 285.85 411.82 279.95 409.42 278.82 410.07"/><polygon class="cls-43" points="264.9 402.74 276.72 407.27 276.72 406.18 266.03 402.09 264.9 402.74"/><path class="cls-4" d="M339.63,362.05a6.56,6.56,0,1,1,7,6.1A6.55,6.55,0,0,1,339.63,362.05Z" transform="translate(-48.71)"/><path class="cls-4" d="M350.76,380.59a43.48,43.48,0,0,0-1.28-5.78,1.5,1.5,0,0,0-2.9.6,47.06,47.06,0,0,0,1.24,6.21,1.57,1.57,0,0,0,2,1,1.6,1.6,0,0,0,.95-2Z" transform="translate(-48.71)"/><path class="cls-4" d="M362,372.46a67.51,67.51,0,0,1-6.08-4.39,1.5,1.5,0,0,0-2,2.26,28.7,28.7,0,0,0,6.63,5,1.6,1.6,0,0,0,1.42-2.86Z" transform="translate(-48.71)"/><path class="cls-4" d="M357.89,360.71a1.12,1.12,0,0,0-.29,1.51c.74,1.33,2.6,1.27,3.93,1.22a13.9,13.9,0,0,0,4.08-.77,1.59,1.59,0,0,0-1.06-3C360.75,361,359.32,359.56,357.89,360.71Z" transform="translate(-48.71)"/><path class="cls-4" d="M355.8,347.94c-1.91,2.8-3.47,3.74-3.23,5.28a1.32,1.32,0,0,0,1.72,1.13c1-.23,1.58-1.32,2.2-2.08s1.17-1.47,1.7-2.25a1.64,1.64,0,0,0-.16-2.23,1.59,1.59,0,0,0-2.23.15Z" transform="translate(-48.71)"/><path class="cls-4" d="M348.35,347.46c-.61-1.7-.74-2.31-1.53-3.1a1.38,1.38,0,0,0-2.24.76c-.12,1.18.13,1.61.77,3.39a1.63,1.63,0,0,0,2,1,1.61,1.61,0,0,0,1-2Z" transform="translate(-48.71)"/><path class="cls-4" d="M340.31,351.56c-2.75-2.1-3.31-2.69-4.39-2.57a1.31,1.31,0,0,0-1.21,1.39c.26,1.32,1,1.68,3.56,3.53a1.6,1.6,0,0,0,2.2-.16,1.56,1.56,0,0,0-.16-2.19Z" transform="translate(-48.71)"/><path class="cls-4" d="M329.25,361.15a1.45,1.45,0,0,0,.53,2.6c1.12.15,1.56,0,7-1a1.63,1.63,0,0,0,1.47-1.69,1.59,1.59,0,0,0-1.69-1.48C330.91,360.57,330.34,360.57,329.25,361.15Z" transform="translate(-48.71)"/><path class="cls-4" d="M337.82,370.09c-3,2.9-3.44,2.39-4.62,4.16a1.34,1.34,0,0,0,1.29,1.93c1.21-.22,1.54-.42,3.11-1.67a33.94,33.94,0,0,0,2.63-2.31,1.61,1.61,0,0,0-.15-2.26,1.64,1.64,0,0,0-2.26.15Z" transform="translate(-48.71)"/><path class="cls-48" d="M481.05,408.75h2.5a0,0,0,0,1,0,0v1.76a0,0,0,0,1,0,0h-2.5a.88.88,0,0,1-.88-.88v0A.88.88,0,0,1,481.05,408.75Z"/><path class="cls-48" d="M554.77,408.75h2.5a0,0,0,0,1,0,0v1.76a0,0,0,0,1,0,0h-2.5a.88.88,0,0,1-.88-.88v0A.88.88,0,0,1,554.77,408.75Z" transform="translate(1062.44 819.26) rotate(-180)"/><rect class="cls-48" x="482.8" y="433.97" width="23.77" height="2.08"/><path class="cls-38" d="M555.12,405.15l-.07,1.5-1.24,28c0,.08,0,.16,0,.23A2.78,2.78,0,0,1,551,437.4H535.6a2.78,2.78,0,0,1-2.77-2.55,1.69,1.69,0,0,1,0-.23l-1.69-28-.09-1.5Z" transform="translate(-48.71)"/><path class="cls-49" d="M555.08,405.15h-24a2.21,2.21,0,0,1-2.2-2.2h0a2.2,2.2,0,0,1,2.2-2.2h24a2.2,2.2,0,0,1,2.2,2.2h0A2.21,2.21,0,0,1,555.08,405.15Z" transform="translate(-48.71)"/><path class="cls-50" d="M553.8,434.85A2.78,2.78,0,0,1,551,437.4H535.6a2.78,2.78,0,0,1-2.77-2.55Z" transform="translate(-48.71)"/><rect class="cls-16" x="506.41" y="431.92" width="1.98" height="5.86"/><rect class="cls-16" x="480.82" y="431.92" width="1.98" height="5.86"/><path class="cls-38" d="M557.1,434.36a.65.65,0,0,1,0,1.3Z" transform="translate(-48.71)"/><path class="cls-38" d="M529.53,434.36a.65.65,0,0,0,0,1.3Z" transform="translate(-48.71)"/><polygon class="cls-50" points="506.41 405.15 506.34 406.65 482.42 406.65 482.33 405.15 506.41 405.15"/><path class="cls-38" d="M554.06,399.64h-22a.59.59,0,0,0-.59.59v.52h23.15v-.52A.6.6,0,0,0,554.06,399.64Z" transform="translate(-48.71)"/><path class="cls-50" d="M551.49,396.47H534.67a1.77,1.77,0,0,0-1.77,1.77v1.4h20.37v-1.4A1.78,1.78,0,0,0,551.49,396.47Z" transform="translate(-48.71)"/><path class="cls-51" d="M546.67,398.92h-7.18v0a1.75,1.75,0,0,1,1.76-1.75h3.66a1.75,1.75,0,0,1,1.76,1.75Z" transform="translate(-48.71)"/><path class="cls-13" d="M541.91,422.15h-2.14a.07.07,0,0,1-.06,0l-.48-4.39a.05.05,0,0,1,0,0l0,0h3.11l0,0s0,0,0,0l-.48,4.39A0,0,0,0,1,541.91,422.15Zm-2.1-.1h2.05l.47-4.28h-3Z" transform="translate(-48.71)"/><path class="cls-13" d="M540.36,422.15s-.05,0-.05,0l-.29-4.39a.06.06,0,0,1,.05-.06,0,0,0,0,1,0,0l.3,4.39a0,0,0,0,1,0,0Z" transform="translate(-48.71)"/><path class="cls-13" d="M540.84,422.15a.06.06,0,0,1-.06,0v-4.39a.06.06,0,0,1,.06,0,0,0,0,0,1,0,0v4.39A0,0,0,0,1,540.84,422.15Z" transform="translate(-48.71)"/><path class="cls-13" d="M541.35,422.15h0a0,0,0,0,1-.05,0l.37-4.39a0,0,0,0,1,.05,0,.06.06,0,0,1,0,.06l-.36,4.39A.07.07,0,0,1,541.35,422.15Z" transform="translate(-48.71)"/><path class="cls-13" d="M542.3,418.5h-2.9a.05.05,0,0,1,0-.1h2.9a.05.05,0,1,1,0,.1Z" transform="translate(-48.71)"/><path class="cls-13" d="M542.2,419.22h-2.74a.05.05,0,1,1,0-.1h2.74a0,0,0,0,1,0,.1Z" transform="translate(-48.71)"/><path class="cls-13" d="M542.13,419.92h-2.61a.06.06,0,0,1,0-.06,0,0,0,0,1,0-.05h2.61a0,0,0,0,1,0,.05A.06.06,0,0,1,542.13,419.92Z" transform="translate(-48.71)"/><path class="cls-13" d="M542,420.55H539.6a.05.05,0,0,1,0-.1H542a.05.05,0,1,1,0,.1Z" transform="translate(-48.71)"/><path class="cls-13" d="M542,421.14h-2.3a0,0,0,0,1,0-.1H542a.05.05,0,0,1,0,.1Z" transform="translate(-48.71)"/><path class="cls-13" d="M542,421.64h-2.22a0,0,0,0,1,0-.1H542a.05.05,0,0,1,0,.1Z" transform="translate(-48.71)"/><path class="cls-13" d="M540.37,417.1a1.81,1.81,0,0,1-.44-.06l0,0-.55-1.07a.06.06,0,0,1,0-.06.07.07,0,0,1,.06,0,1.7,1.7,0,0,0,.41.05.86.86,0,0,0,.41-.08c.16-.07.23-.24.31-.44a1.53,1.53,0,0,1,.41-.61,1,1,0,0,1,.61-.23.9.9,0,0,1,.32.06l0,0,.56,1.07s0,.05,0,.06,0,0-.06,0a.73.73,0,0,0-.28,0,.82.82,0,0,0-.54.21,1.4,1.4,0,0,0-.37.57.87.87,0,0,1-.37.5A1.08,1.08,0,0,1,540.37,417.1ZM540,417a2.19,2.19,0,0,0,.39,0,.86.86,0,0,0,.41-.08c.17-.07.24-.24.32-.44a1.4,1.4,0,0,1,.4-.61,1,1,0,0,1,.61-.23l.2,0-.49-.94a.61.61,0,0,0-.26,0,.8.8,0,0,0-.54.21,1.3,1.3,0,0,0-.38.58.88.88,0,0,1-.37.49,1,1,0,0,1-.45.09,2.5,2.5,0,0,1-.33,0Z" transform="translate(-48.71)"/><path class="cls-13" d="M543.37,422.16l2-3.57.92,3.57.66-5.42h-2.64Z" transform="translate(-48.71)"/><path class="cls-13" d="M544.3,416.56l2.6-.2s-.17-1.86-1.15-2.44H540.9a8.68,8.68,0,0,1,2.68,1.11A3.54,3.54,0,0,1,544.3,416.56Z" transform="translate(-48.71)"/><circle class="cls-13" cx="496.03" cy="412.61" r="0.97"/><path class="cls-13" d="M543.08,423.91a6.76,6.76,0,1,1,4.77-2A6.69,6.69,0,0,1,543.08,423.91Zm0-13.35a6.61,6.61,0,1,0,6.61,6.6A6.62,6.62,0,0,0,543.08,410.56Z" transform="translate(-48.71)"/><path class="cls-13" d="M536.76,428.42v-2.2h.79a1.37,1.37,0,0,1,.36,0,.67.67,0,0,1,.27.11.51.51,0,0,1,.17.19.6.6,0,0,1,.06.27.61.61,0,0,1,0,.14.84.84,0,0,1-.06.14.44.44,0,0,1-.09.11.53.53,0,0,1-.15.08.44.44,0,0,1,.17.07.57.57,0,0,1,.11.11.35.35,0,0,1,.06.14.77.77,0,0,1,0,.15.56.56,0,0,1-.21.48,1,1,0,0,1-.62.17Zm.53-1.28h.27a.34.34,0,0,0,.25-.07.21.21,0,0,0,.07-.18.22.22,0,0,0-.08-.2.4.4,0,0,0-.25-.06h-.26Zm0,.34V428h.34l.14,0a.19.19,0,0,0,.09-.05.18.18,0,0,0,0-.08.18.18,0,0,0,0-.1.37.37,0,0,0,0-.11.19.19,0,0,0,0-.09.2.2,0,0,0-.09-.06l-.13,0Z" transform="translate(-48.71)"/><path class="cls-13" d="M540,428h-.73l-.13.41h-.56l.8-2.2h.5l.81,2.2h-.57Zm-.6-.41h.47l-.24-.76Z" transform="translate(-48.71)"/><path class="cls-13" d="M542.39,426.63h-.65v1.79h-.53v-1.79h-.65v-.41h1.83Z" transform="translate(-48.71)"/><path class="cls-13" d="M544.36,426.63h-.66v1.79h-.52v-1.79h-.65v-.41h1.83Z" transform="translate(-48.71)"/><path class="cls-13" d="M546,427.49h-.83V428h1v.41h-1.51v-2.2h1.51v.41h-1v.46H546Z" transform="translate(-48.71)"/><path class="cls-13" d="M547.13,427.64h-.29v.78h-.53v-2.2h.87a1.21,1.21,0,0,1,.34,0,.69.69,0,0,1,.26.12.56.56,0,0,1,.17.21.65.65,0,0,1,.06.29.73.73,0,0,1,0,.22.45.45,0,0,1-.08.17.37.37,0,0,1-.12.13l-.16.1.46.88v0h-.56Zm-.29-.41h.34a.26.26,0,0,0,.22-.08.29.29,0,0,0,.08-.22.33.33,0,0,0-.08-.22.29.29,0,0,0-.22-.08h-.34Z" transform="translate(-48.71)"/><path class="cls-13" d="M549.06,427.17l.4-.95H550l-.7,1.41v.79h-.54v-.79l-.71-1.41h.57Z" transform="translate(-48.71)"/><path class="cls-52" d="M264.72,233.92c7.33,16.39,16.81,25.72,16.81,34.3,0,23.11-33.61,23.11-33.61,0,0-8.58,9.87-18.55,16.8-34.3Z" transform="translate(-48.71)"/><path class="cls-53" d="M264.72,233.92c7.33,16.39,16.81,25.72,16.81,34.3a19.45,19.45,0,0,1-.19,2.8c-6.76,14.78-32.17,12.11-32.17-8v-.57c2.89-7.35,10.13-16.16,15.55-28.48Z" transform="translate(-48.71)"/><path class="cls-54" d="M268.48,244.64c3.67,5.88,7.67,11.64,10.26,18.09.85,2-1.14,2.55-1.88.87-2.06-5.73-5.39-12.71-8.38-19Z" transform="translate(-48.71)"/><path class="cls-55" d="M250.57,259.34s.06,0,.09.08.21.13.15,0,0-.11-.09-.31v0c.15-.3.29-.57.46-.87.22,0,0,.22,0,.33.19.32.35.11.35.35s-.27.06-.46.13-.25,0-.24.15.13,0,.17,0c.26-.11.59.35.63.11.16-.07.09-.07.29,0s.31,0,.33.09c.06.22.35-.18.39-.2s.11,0,0-.13c-.15-.28-.41-.13-.37-.35s.09,0,.13-.09,0-.15-.21-.13-.12.25-.33.07-.33-.07-.31-.29a.38.38,0,0,0,.2-.1c.08-.05.11-.22-.13-.22s-.31,0-.29-.14,0-.06,0-.1a.56.56,0,0,1,.07-.13c.06.08.11.19.19.11s0-.22-.1-.27a.23.23,0,0,1,.06-.09h0s0,.11.22.21.27,0,.38.24-.27.09-.13.29a.26.26,0,0,1,.15,0c.08,0,.24.13.22,0s-.29-.16,0-.37c.07-.05,0-.14-.1-.16-.36-.15-.11-.08-.35-.28A.73.73,0,0,1,252,257c.13,0,.29.06.29.19,0,.42.34.23.5.36s.17,0,.26.11.24,0,.37.1.07-.28-.15-.28-.42-.13-.42-.2-.06,0-.24-.11-.09,0-.13-.22.09-.23.24-.23.16.15.42.17l.13.06c.22.07.09,0,.26.11,0,0,.31.11.22,0s-.66-.15-.41-.31a.52.52,0,0,1,.32,0,.57.57,0,0,0,.46,0c.13-.11.31-.07.5-.09s.24.11.44,0a3,3,0,0,1,1-.07,7.26,7.26,0,0,0,.85,0c.07,0,.13,0,.11.15s-.26,0-.44.09-.2,0-.46.15c-.06,0-.48.2-.54.2s.11.28-.31.26c-.13,0-.28.15-.44.22s.2.26-.11.28-.17-.11-.17-.21c0-.25-.29,0-.2-.4,0-.2-.18-.2-.35-.24s-.15,0-.11.09.24,0,.28.24.27.22.12.3.17.22.21.22.11.16-.15.16c-.06,0-.15,0-.17,0s-.25-.07-.11-.29-.07-.24-.18-.28-.15-.28-.3-.06.13.17.13.26.08,0,0,.13.37.28,0,.26c-.18,0,.1-.08-.22-.08-.13,0,.11.21-.09.21s0-.19-.15-.21-.11,0-.14,0-.34-.46-.34-.13.37.08.34.32a.4.4,0,0,1-.3.05s-.17-.07-.17,0,.06.23.1.23c.2,0,0,.25.11.42s.16.26.31.05c0,0,0-.11.17-.05s.13.11.11.11c-.17,0,0,.24.11.24.31,0,.27.05.4-.2,0-.06,0-.19-.05-.22s-.2.09-.39-.08-.13,0-.15-.18c0-.32.32,0,.3-.24s.53-.19.31.07.13.24.19.11.09-.13.12-.22.28-.09.28,0,.07.19.19,0,.22-.05.25-.05c.33,0,.13.05.24.24s.17.05.32,0,.24-.07.35.09,0,0,.07.08.41.26.29.33-.07.18.21.11c0,0,.22.2.51.13.13,0,.32.16.15.26s0,.24-.2.22-.26-.3-.68-.24c-.08,0,.05.2.29.22.06,0,0,.09.11.11s.17.29,0,.29-.11-.25-.4-.18.24.37-.06.3-.07-.28-.38-.35-.13-.06-.24-.12-.23,0-.23,0-.31.08-.27,0a1.13,1.13,0,0,1,.31-.06c.11,0,0-.13.09-.14a1,1,0,0,0,.21-.21c0-.09-.37-.38-.37-.18s.09.16-.11.11,0-.19,0-.19-.11-.05-.12-.16-.19-.22-.3-.11-.15.07-.17.16-.35-.16-.38-.16,0,.2.07.22,0,.13,0,.26-.18.33-.24.18-.18,0-.18,0,0,.19.24.2c.07,0,.12.17.31.23,0,0,.22.2-.06.18-.09,0-.22-.28-.31-.09s0,0,0,.07-.2,0-.27,0-.26-.09-.09-.12-.26-.3-.26-.24c0,.27.24.18-.1.27-.12,0-.11,0-.14.15s-.35-.09-.37.07-.19.11-.19.34c0,0,0,.11,0,.12s-.14.19,0,.28.21-.17.19.15c0,0,.22.18.26.09s.2,0,.24,0,.22,0,.29.14.3.13.31.06.3,0,.32.13.09,0,.09.11.06,0,0,.16.31.21.31.39.26.11.26,0c0-.33-.09-.18-.2-.5,0-.05.07-.14.2-.14s.09,0,.26-.21.13-.11,0-.2-.35-.09-.13-.28.11.06,0-.13a.33.33,0,0,1,0-.29c0-.07,0-.17-.18-.11s-.11-.13,0-.13.31,0,.33,0,0,.13.18.11,0-.13.2-.11,0,.13.26.24.26-.09.24.13,0,.15,0,.37c0,.07.11.05.22.07s.11-.09.24-.16,0-.06.13-.13,0-.11.24-.08-.08.3.09.39.06.11.2.29.48,0,.44.26c0,.06-.33.19,0,.19.12,0,0-.13.28.05s0,.15.07.28-.22,0-.07.31c0,.07.2.3.22.07,0-.07.21,0,.17.15s0,.26-.15.24,0,.17-.31.06c-.11,0-.17,0-.32-.06s-.16,0-.12-.13.05,0,.09-.13.09-.07.09-.13.22-.31,0-.31-.09.19-.22.26a.87.87,0,0,1-.31,0c-.17-.13-.3,0-.48,0s-.26,0-.44.21a.43.43,0,0,0-.13.29s.18,0,.24-.05.27,0,.36-.28c0,0,.21-.08.08.18s.07.15.16.26.56-.05.26.28c-.07.07-.07,0-.15.09s-.07,0-.12.17-.37.05-.37.05.2-.11.07-.29-.26,0-.26,0-.31,0-.31.13,0,.17.11.35-.24.07-.28.09-.16-.07-.29.19a.24.24,0,0,0-.09.07c.07.13-.19.2-.19.29s.28.17,0,.39c-.14.11.11.2-.22.37-.11.06-.27.07-.33.2s0,.22-.26.24c-.05,0-.05.22,0,.3a.47.47,0,0,1,.11.33c0,.18,0,.13.06.28s.09.33-.2.18c-.08-.06,0-.15-.06-.26s0-.22-.18-.37c-.06,0-.06-.27-.19-.22s0,.33-.16,0c-.06-.09-.43-.15-.45-.05s.11.27-.13.23c-.05,0-.12-.11-.29-.09s0-.14-.44,0-.32,0-.21.28c0,0,0,.33,0,.35s0,.24-.11.38.24.34.15.48.11.22.15.39a.33.33,0,0,0,.24.11s.18-.15.26-.09.13,0,.13,0a2.85,2.85,0,0,1,.11-.39c.09-.07.22,0,.31-.12a.13.13,0,0,1,.17.07c.07.18-.13.09-.1.35v0c.06.4-.05.13-.11.42s.24.06.11.2.06.15.21,0,.25.09.31.09c.29,0,0,.31,0,.42,0,.3.24.09.14.43,0,.07.08.09.1.22s.22.16.29-.06c0,0,.2,0,.24.06s.28.18.28,0c0-.32,0-.1.13-.34,0,0,.33.08.35-.14s.16-.15.16,0,0,.15.08.11-.06-.24.25-.09c.11.05,0,.29.15.26,0,0,.15-.1.2,0s.3.11.3,0,.16-.2.2-.09.24.11.24,0,.11.09.13.15,0,.28.28.35.22.33.29.33c.2.17.33,0,.44.19a1.43,1.43,0,0,0,.32.27.3.3,0,0,1,0,.43s-.1.2.09.18c0,0,.22.07.22.15s.22,0,.29,0c.23.15,0,.08.13.28s.24.13.24.09.33.17.39,0,.22,0,.22.07.3.39.35.32.15.07.19.09,0,.18,0,.26-.13.48-.15.48-.25.4-.29.42a.07.07,0,0,0,0,.06c0,.18-.11,0-.13.33a4.08,4.08,0,0,0-.18.6c0,.21-.08.06,0,.39s-.31.22-.48.55c-.07.15-.39,0-.64.24s-.08.08-.26.45-.09.38-.15.66c0,.07-.26.05-.29.2a3.64,3.64,0,0,1-.11.39l0,0c-.05.33-.5-.07-.5.22a.64.64,0,0,1-.12.41c-.06.09-.17,0-.3.18s-.44-.13-.29.26-.35,0-.35.39c0,.51,0,.14-.17.4s.26.43.06.54c0,.14-.21.14-.11.36s-.1.23.14.43-.07.33-.2.13-.41,0-.42-.41-.3-.27-.3-.59,0-.33-.11-.59c0-.07.07-.38.07-.57a1.58,1.58,0,0,1,.23-1.12,1.66,1.66,0,0,0,0-.83c-.08-.13,0-.19,0-.43s.06-.12.06-.27a2.27,2.27,0,0,0,.11-1.13c0-.09-.06-.35-.18-.38-.5-.17-.41-.43-.78-.68-.16-.11,0-.48-.11-.63s-.16-.33-.37-.54a.83.83,0,0,1-.14-.35c0-.12-.1-.09.05-.27a4.29,4.29,0,0,0,0-.55c0-.24-.19-.15.2-.54a.54.54,0,0,1,.28-.27c0-.08.09-.21.09-.28s0-.2-.06-.3,0-.05-.05-.11,0-.05-.09-.11a.09.09,0,0,0-.17,0,.71.71,0,0,1-.09.17c-.2,0,0,0-.2-.1s-.08-.11-.19-.11-.13-.05-.2-.11,0-.22-.28-.35c0,0-.09-.09-.13-.13s-.07-.11-.16-.13,0,0-.1,0c-.23-.24-.29.07-.42-.28,0-.11-.07-.11-.2-.14-.3-.12-.11.12-.55-.08-.19-.09-.32,0-.54-.2-.05-.06-.16-.09-.29-.19s-.13-.09-.13-.31a.91.91,0,0,0,0-.2c0-.26-.16-.28-.25-.5,0,0-.1-.09-.13-.18l0,0c-.07-.15-.3-.17-.33-.31s-.08,0-.08-.24-.29-.24-.31-.39-.28-.44-.28-.26.15.2.15.35.09.17.11.28.15.22.17.37.07.05.07.29c0,.06,0,.11,0,.15a.59.59,0,0,1-.14-.26c0-.13-.46-.2-.44-.39s.38-.09,0-.4c-.11-.08-.09-.19-.09-.32s.11-.07-.09-.2,0-.18-.42-.35c-.23-.09-.1-.35-.28-.57s0-.2-.17-.29a1.65,1.65,0,0,1-.11-.19,30,30,0,0,1,2-4.81Zm6.08-2.13c.17,0-.18-.26.19-.24.09,0,.12-.11.42-.17.09,0,.13-.28.28-.06a2.6,2.6,0,0,0,.55,0c.26,0,.15-.3.74,0s.51-.2.64-.24c.65-.13.37.37,1.2-.09.16-.09.18.05.55.05s1.16-.05,1.16.22.11.1.35.15a1,1,0,0,0,.63,0c.09,0,.9,0,.51.29,0,0-.7.15-.71.3-.21.07-.34,0-.08.22.08,0-.07.2-.07.31s-.11,0-.11.24-.81,0-.37.33c.07.06-.07.09,0,.19s.09.27-.28.11c-.18-.1-.4-.32-.37,0,0,.13.7.22.21.35-.13,0,0,0-.26.06-.39,0-.24.11-.35.18s-.54-.22-.54,0-.18.29-.44.29c-.44,0-.24.08-.38.24s.07.17-.12.22-.07.45-.18.59.07.21-.28.15c-.09,0,.06-.13-.2-.24s-.35.22-.62-.33c-.15-.31-.28,0-.26-.57,0-.08-.37-.43,0-.48.1,0,.19-.22-.11-.39s0-.24-.33-.22c-.11,0-.05-.33-.15-.44-.22-.28-.36-.15-.73-.28s-.19.13-.61-.05c-.09,0-.22.11-.63-.17-.07-.05-.27-.05-.05-.2s.35.18.68-.06c0,0,.05-.14.09-.14Zm5.69,2.37c0,.08.19-.09.24,0s.28,0,.56,0a2.16,2.16,0,0,1,.31,0c.13,0,.28.11.15.22s.07.09-.19.17-.22.26-.35.26-.14-.11-.4-.13c0,0-.17-.06-.11-.13s-.48-.08-.22-.26h0Zm4.3,2.18c.11,0,0-.06.18-.06s-.13-.31-.13-.33a.32.32,0,0,1,.28-.31c.07,0,0,0,0,.13s-.21.35.13.36c0,0,.07-.11.18-.14s-.07-.39-.07-.48-.06-.3-.19-.19-.22,0-.29.19-.3.11-.37-.08a.26.26,0,0,1-.06-.22s0-.05,0-.07c0-.39-.2-.37.35-.63.28-.13,0-.11.31-.13,0,0,.37-.33.45-.37.33-.22-.1-.64.4-.57,0,0,.15.15.26.06.29-.24.83.05.88-.22s.22,0,.41,0c1,0,.31.18.68.26s.22-.09.66.22c.19.13.34-.2.34.37a1.28,1.28,0,0,1-.8-.17c-.16-.07-.59-.05-.24.24.08.06.24-.05.35.15s.37.38.35.09c0-.07.28,0,.46-.15s.13.08.24-.24c0,0,.41.3.24-.18-.05-.17.19-.24.19,0s0,.14.29.14-.07-.09.28-.07,0-.29.51-.28c.15,0-.14.26.32.1s.5.09.64,0-.09-.22-.11-.31c.17-.15.37.2.67.22s.46,0,.58.09.15-.53.06-.64.41-.47.53-.21c.06.09-.38.44,0,.92.09.11-.15.24-.2.24s-.33,0,0,.15.22-.2.39-.35-.35-.48.12-.68c0,0,.15-.39.24,0s.19-.2.23-.22.33,0,.38.11.15.28.2.28c.39,0-.18-.54.06-.61s.33,0,.33-.15c.22-.11.43,0,.66,0,1.83,3.35,3.1,6.35,3.36,9.24-.17,0-.31,0-.35.17s-.08.11-.2.18-.23-.09-.19.26c0,.19-.05,0,0,.24,0,0-.2.11-.18-.13s.24-.16,0-.38c0,0-.26-.11-.28,0,0,.35-.29.14-.16.44s-.08.11.14.26a.74.74,0,0,1,.11.16s0,.09.1.09.07,0,.07.13a.74.74,0,0,0,.06.37c.07.11-.06.3-.19.35a.42.42,0,0,0-.16.28s-.08.11-.15.11c-.26,0-.08.31-.26-.11-.06-.17-.13-.06-.15-.33s-.29-.37-.35-.1.06.17-.13.3c0,0,0,.15,0,.2s.13.33.26.46.28.19.26.41-.06.13,0,.33,0,.2,0,.09-.41-.35-.46-.59,0-.24-.2-.38c0,0,0-.34,0-.41a1.08,1.08,0,0,0-.09-.68c-.09-.22.17-.59-.07-.57s-.13.35-.3.18,0,0,0-.07c-.32-.26-.06-.52-.3-.78s0-.27-.15-.46c0,0-.13,0-.16.1s0,.27-.15.22.06-.1-.22-.1c-.11,0,.05.23-.2.28s0,.37-.52.57c-.28.11-.17.08-.24.3s-.18,0-.07.31l0,0c0,.11,0,.13,0,.22a.41.41,0,0,0-.06.24.19.19,0,0,1,0,.15s.15.09.15.27v.19s0,.26,0,.26-.05,0-.09-.06,0,0-.07-.15a1.54,1.54,0,0,1-.12-.13s.08-.29,0-.29,0,.09-.21.07a.5.5,0,0,1-.11-.16c0-.19-.16-.1-.13-.35a.45.45,0,0,0-.07-.28c-.11-.06-.13-.33-.22-.42a.25.25,0,0,1-.07-.26c.05-.11,0-.26.07-.43s.05-.35-.09-.4-.06,0-.08.07,0,.19-.09.19c-.26,0,0,0-.24-.17s0-.07,0-.24-.24-.11-.29-.29-.32,0-.35,0a.55.55,0,0,0-.35-.06s0,0,0,0-.15,0-.22,0-.15-.07-.3-.05a.19.19,0,0,1-.12-.2c0-.11-.19-.24-.17-.1s-.2.15-.3.12c-.4-.26,0-.21-.4-.48,0,0-.15-.26-.35-.26,0,0-.15.24,0,.4a1.05,1.05,0,0,1,.15.3c0,.16.16.29.25.44s.26.11.3,0,.09-.08.15-.21.22-.2.22-.07-.08.24,0,.26c.33.05.15.13.35.26s0,.2,0,.27,0,0,0,0a.48.48,0,0,0-.07.3c0,.05-.26.14-.28.22l-.13.13c-.07.14-.33.05-.39.33,0,.07-.49.25-.59.31s0,0-.11.11-.16,0-.25.09a.22.22,0,0,1-.19,0,.29.29,0,0,1-.11-.22c0-.31.06-.2-.07-.52-.06-.11-.06,0-.08-.2s-.13-.31-.16-.35-.21-.24-.21-.3c0-.22-.2-.25-.22-.58,0-.17-.18-.35-.29-.45s-.2-.11-.2,0,0,.13.12.37a.68.68,0,0,1,.1.35c0,.15.25.63.25.67a3.07,3.07,0,0,0,.34.75l0,0a.93.93,0,0,1,.29.46c0,.07.2.42.28.35s.22,0,.36-.15.28-.13.35-.05c.26.18.12.14,0,.35a1.39,1.39,0,0,1-.09.44,1,1,0,0,1-.09.18c-.09.21-.05.48-.33.57,0,0-.26.35-.33.37s-.06.15-.08.15c0,.24-.53.57-.53,1.11a1.07,1.07,0,0,0,.09.64,1,1,0,0,1,0,.83c-.11.2,0,.46-.53.66-.41.15.25,1-.24,1-.11,0-.15.15-.17.26s-.2.48-.31.65-.2.55-.46.66-.17.2-.5.11-.35.41-.81-.18c-.13-.15,0-.67-.35-1.09-.17-.22.05-.79-.18-1.07-.08-.09-.28-.59-.19-.7a6.57,6.57,0,0,0,.22-1.27v-.41s0-.13-.11-.24,0-.07-.13-.14-.14-.35-.26-.45a.38.38,0,0,1-.2-.35c0-.2.11-.24.13-.49s.11-.46-.26-.45c-.05,0-.14.13-.25,0s-.24,0-.24-.22-.26-.13-.34,0a2.14,2.14,0,0,1-.22.13s-.13,0-.24.11-.22.07-.25,0-.28-.09-.39,0-.33.13-.41,0c-.25-.41-.37-.26-.59-.48s.08-.28-.14-.42a2,2,0,0,0-.35-.32s0-.27,0-.33a.74.74,0,0,0,0-.26.75.75,0,0,1,.09-.6s0,0,0,0-.24-.31-.2-.44c.09-.28.22-.21.31-.48s.07-.09.09-.33.13-.37.41-.45.18-.18.24-.36c.11-.37-.17-.24.29-.48.06,0,0,0,.06-.08a1.35,1.35,0,0,1,.16-.29s.08-.26,0-.26-.23,0-.25,0c-.17-.18-.13-.09-.11-.35a2.36,2.36,0,0,0,0-.26c0-.22-.14-.77.35-.6.17,0,0,.18.39.14a1,1,0,0,0,.18-.09c.08,0,.13-.11.23-.16s-.1-.17-.12-.22a.54.54,0,0,0-.2-.28,1.91,1.91,0,0,0-.22-.17c0-.05.15-.26.26-.11a.18.18,0,0,0,.24,0c.07-.08.24,0,.26-.23s.37-.16.38-.09c.11.3.48.15.26,0s-.16-.07-.18-.18.11,0,.11-.24.29-.06.35-.09Zm-1.9-.59s0-.19,0-.24c.22-.17.16-.19.51-.21.06,0-.13.15-.13.26,0,.35.11-.16.1.37,0,.06.27.26.29.42s.41.28.15.37,0,.15-.41.15c-.05,0-.4.17-.4.07s.11-.12.05-.25.28-.13.22-.41a.28.28,0,0,0-.25-.16s-.08-.12-.17-.06,0,.42-.07.48-.08,0-.19.07-.13.13-.18,0,.07-.08,0-.33.45-.28.47-.34a.35.35,0,0,0-.06-.14Zm4.18-.37c0,.05-.2-.08-.24.13,0,0-.13.09.1.05,0,0,.12-.11.11.11s-.21,0-.24,0c-.3,0-.19.15-.19.33s0,.08,0,.13,0,0-.21,0-.33,0-.36.11c-.13.25-.21,0-.47,0s.06-.11,0-.21.24-.07.3-.16.2,0,.14-.26c0-.07-.14-.11.1-.28.07,0,.38,0,.14-.18l-.14-.13c-.08-.2.11-.35.31-.37s.13-.46.48-.46c.11,0,.44-.07.33.09s-.59.43-.59.46a.52.52,0,0,0,0,.21c0,.22.28.31.5.24s0,0,.17-.1a.48.48,0,0,1,.29,0c.37.15-.07.22-.26.24l-.22,0Zm3.15,2.65c-.07,0-.2-.2,0-.27.44-.12.33-.35.74-.3.13,0,.09.22-.08.28l-.16.13c0,.2-.11.27.13.49s.36.1.14.22.11.39.11.39.1.37-.09.37-.24,0-.5-.15-.16-.22-.09-.38.24-.13-.05-.41c-.11-.09-.11-.35-.19-.37Zm-2.56.06c.08-.11.33-.63.52-.33.09.12.15.12.35.16s-.06-.18.16-.26.41-.24.24.06.26.31.32.39.14,0,.14.2.24.33-.35.33c-.16,0-.07.07-.29-.11a.44.44,0,0,0-.26-.11c-.29-.06-.13,0-.37.05,0,0-.07.06-.14.08s-.32-.13-.3-.28,0-.13,0-.18Zm-2.91,1.27s-.26,0-.31,0a.61.61,0,0,0-.54.07c-.07.08-.16.08-.24.11s-.22,0-.24.1-.33,0-.33-.11l0-.12h0c.09-.14.26,0,.44-.11s.06,0,.13-.11c.17-.27-.31-.2.08-.36a1.76,1.76,0,0,0,.4-.56c0-.11.26-.14.41,0s.13,0,.16,0a1.5,1.5,0,0,1,.22-.23c.32-.05.17.21.26.3.28.33.46.17.65.39s.07.36-.08.36-.13.19.09.19.1-.2.12-.28,0-.22.14-.18.13-.15-.13-.22-.13-.21-.42-.37-.17-.09-.15-.26.33-.11.43,0,.38.31.4.44a4.58,4.58,0,0,1,.2.46c0,.17,0,.26.23.31s0,.22.22.21c0,0,.09-.26.11-.3s-.24-.31.11-.46c.09,0,0-.09.24,0s0,.33,0,.39,0,.28.09.35.17,0,.28.09a.07.07,0,0,0,.14,0c.06-.2.22,0,.33,0s.06.06.17,0h0c.09.08.2-.18.3.11a1.74,1.74,0,0,1-.12.5.6.6,0,0,1-.05.24.19.19,0,0,1-.24.11c-.09,0-.24-.22-.37,0s0,.15-.29.15a1.18,1.18,0,0,1-.41-.22,2.48,2.48,0,0,0-.46-.24c-.07,0-.07,0-.18.08s-.06.36-.11.4-.37,0-.39-.11a.63.63,0,0,0-.39-.29c-.11,0-.11.09-.35-.08,0,0-.2-.16-.22-.2s.2-.24.07-.39,0-.31-.31-.13c0,0-.11,0-.11.06Zm5,9.89c.07-.22-.13-.13-.06-.44,0-.15,0-.15.23-.18s.27-.32.44-.48.37-.08.22.18a1.1,1.1,0,0,0-.11.52,1.4,1.4,0,0,1-.15.6,6,6,0,0,1-.17.58c0,.11,0,.16-.11.29s0,.2-.25,0a1.63,1.63,0,0,1-.24-.68c0-.13.16-.24.2-.35Zm7-4.33c.07.19.14.13.24.48a1.64,1.64,0,0,0,.46.7c.12.13.4.79.75.92.17.06.66.33.72.32a.91.91,0,0,1,.28,0c0-.07,0-.14.05-.24a2.79,2.79,0,0,0-.63-.22c-.12,0-.46,0-.46-.11,0-.37.23-.18-.12-.66-.1-.13-.12-.26-.32-.39a1.35,1.35,0,0,0-.29-.33c-.37-.24-.15-.35-.54-.57-.13-.07-.18,0-.14.09Zm2,.57c-.14,0-.16.45,0,.54s-.18.42.5.4c0,0,.05,0,.07,0,.09-.51.17-1.05.22-1.6-.18.42-.16.05-.42.46-.17.24-.13,0-.37.22,0,0,0,0,0,0Zm-7.86-12.36c-.06,0,.16-.4.44-.46.09,0,.16-.22.44-.24a3.41,3.41,0,0,1,.68-.13c.11,0,.43,0,.48-.11s.46.35-.18.35c0,0-.24,0-.37,0a1.15,1.15,0,0,0-.83.26c-.42.4.13.57-.26.53a1.12,1.12,0,0,1-.4-.24Zm-5.29-1.05-.39-.18c-.09-.21,0-.24.22-.28s.54.11.76,0a2.11,2.11,0,0,1,.51,0c.26,0,.39,0,.65,0,.07,0,0,.26-.61.22-.13,0-.22,0-.13.15s.33.11.17.16-.32-.13-.56,0-.07.27-.46,0l-.16-.09Z" transform="translate(-48.71)"/><path class="cls-56" d="M250.57,259.34s.06,0,.09.08.21.13.15,0,0-.11-.09-.31v0c.15-.3.29-.57.46-.87.22,0,0,.22,0,.33.19.32.35.11.35.35s-.27.06-.46.13-.25,0-.24.15.13,0,.17,0c.26-.11.59.35.63.11.16-.07.09-.07.29,0s.31,0,.33.09c.06.22.35-.18.39-.2s.11,0,0-.13c-.15-.28-.41-.13-.37-.35s.09,0,.13-.09,0-.15-.21-.13-.12.25-.33.07-.33-.07-.31-.29a.38.38,0,0,0,.2-.1c.08-.05.11-.22-.13-.22s-.31,0-.29-.14,0-.06,0-.1a.56.56,0,0,1,.07-.13c.06.08.11.19.19.11s0-.22-.1-.27a.23.23,0,0,1,.06-.09h0s0,.11.22.21.27,0,.38.24-.27.09-.13.29a.26.26,0,0,1,.15,0c.08,0,.24.13.22,0s-.29-.16,0-.37c.07-.05,0-.14-.1-.16-.36-.15-.11-.08-.35-.28A.73.73,0,0,1,252,257c.13,0,.29.06.29.19,0,.42.34.23.5.36s.17,0,.26.11.24,0,.37.1.07-.28-.15-.28-.42-.13-.42-.2-.06,0-.24-.11-.09,0-.13-.22.09-.23.24-.23.16.15.42.17l.13.06c.22.07.09,0,.26.11,0,0,.31.11.22,0s-.66-.15-.41-.31a.52.52,0,0,1,.32,0,.57.57,0,0,0,.46,0c.13-.11.31-.07.5-.09s.24.11.44,0a3,3,0,0,1,1-.07,7.26,7.26,0,0,0,.85,0c.07,0,.13,0,.11.15s-.26,0-.44.09-.2,0-.46.15c-.06,0-.48.2-.54.2s.11.28-.31.26c-.13,0-.28.15-.44.22s.2.26-.11.28-.17-.11-.17-.21c0-.25-.29,0-.2-.4,0-.2-.18-.2-.35-.24s-.15,0-.11.09.24,0,.28.24.27.22.12.3.17.22.21.22.11.16-.15.16c-.06,0-.15,0-.17,0s-.25-.07-.11-.29-.07-.24-.18-.28-.15-.28-.3-.06.13.17.13.26.08,0,0,.13.37.28,0,.26c-.18,0,.1-.08-.22-.08-.13,0,.11.21-.09.21s0-.19-.15-.21-.11,0-.14,0-.34-.46-.34-.13.37.08.34.32a.4.4,0,0,1-.3.05s-.17-.07-.17,0,.06.23.1.23c.2,0,0,.25.11.42s.16.26.31.05c0,0,0-.11.17-.05s.13.11.11.11c-.17,0,0,.24.11.24.31,0,.27.05.4-.2,0-.06,0-.19-.05-.22s-.2.09-.39-.08-.13,0-.15-.18c0-.32.32,0,.3-.24s.53-.19.31.07.13.24.19.11.09-.13.12-.22.28-.09.28,0,.07.19.19,0,.22-.05.25-.05c.33,0,.13.05.24.24s.17.05.32,0,.24-.07.35.09,0,0,.07.08.41.26.29.33-.07.18.21.11c0,0,.22.2.51.13.13,0,.32.16.15.26s0,.24-.2.22-.26-.3-.68-.24c-.08,0,.05.2.29.22.06,0,0,.09.11.11s.17.29,0,.29-.11-.25-.4-.18.24.37-.06.3-.07-.28-.38-.35-.13-.06-.24-.12-.23,0-.23,0-.31.08-.27,0a1.13,1.13,0,0,1,.31-.06c.11,0,0-.13.09-.14a1,1,0,0,0,.21-.21c0-.09-.37-.38-.37-.18s.09.16-.11.11,0-.19,0-.19-.11-.05-.12-.16-.19-.22-.3-.11-.15.07-.17.16-.35-.16-.38-.16,0,.2.07.22,0,.13,0,.26-.18.33-.24.18-.18,0-.18,0,0,.19.24.2c.07,0,.12.17.31.23,0,0,.22.2-.06.18-.09,0-.22-.28-.31-.09s0,0,0,.07-.2,0-.27,0-.26-.09-.09-.12-.26-.3-.26-.24c0,.27.24.18-.1.27-.12,0-.11,0-.14.15s-.35-.09-.37.07-.19.11-.19.34c0,0,0,.11,0,.12s-.14.19,0,.28.21-.17.19.15c0,0,.22.18.26.09s.2,0,.24,0,.22,0,.29.14.3.13.31.06.3,0,.32.13.09,0,.09.11.06,0,0,.16.31.21.31.39.26.11.26,0c0-.33-.09-.18-.2-.5,0-.05.07-.14.2-.14s.09,0,.26-.21.13-.11,0-.2-.35-.09-.13-.28.11.06,0-.13a.33.33,0,0,1,0-.29c0-.07,0-.17-.18-.11s-.11-.13,0-.13.31,0,.33,0,0,.13.18.11,0-.13.2-.11,0,.13.26.24.26-.09.24.13,0,.15,0,.37c0,.07.11.05.22.07s.11-.09.24-.16,0-.06.13-.13,0-.11.24-.08-.08.3.09.39.06.11.2.29.48,0,.44.26c0,.06-.33.19,0,.19.12,0,0-.13.28.05s0,.15.07.28-.22,0-.07.31c0,.07.2.3.22.07,0-.07.21,0,.17.15s0,.26-.15.24,0,.17-.31.06c-.11,0-.17,0-.32-.06s-.16,0-.12-.13.05,0,.09-.13.09-.07.09-.13.22-.31,0-.31-.09.19-.22.26a.87.87,0,0,1-.31,0c-.17-.13-.3,0-.48,0s-.26,0-.44.21a.43.43,0,0,0-.13.29s.18,0,.24-.05.27,0,.36-.28c0,0,.21-.08.08.18s.07.15.16.26.56-.05.26.28c-.07.07-.07,0-.15.09s-.07,0-.12.17-.37.05-.37.05.2-.11.07-.29-.26,0-.26,0-.31,0-.31.13,0,.17.11.35-.24.07-.28.09-.16-.07-.29.19a.24.24,0,0,0-.09.07c.07.13-.19.2-.19.29s.28.17,0,.39c-.14.11.11.2-.22.37-.11.06-.27.07-.33.2s0,.22-.26.24c-.05,0-.05.22,0,.3a.47.47,0,0,1,.11.33c0,.18,0,.13.06.28s.09.33-.2.18c-.08-.06,0-.15-.06-.26s0-.22-.18-.37c-.06,0-.06-.27-.19-.22s0,.33-.16,0c-.06-.09-.43-.15-.45-.05s.11.27-.13.23c-.05,0-.12-.11-.29-.09s0-.14-.44,0-.32,0-.21.28c0,0,0,.33,0,.35s0,.24-.11.38.24.34.15.48.11.22.15.39a.33.33,0,0,0,.24.11s.18-.15.26-.09.13,0,.13,0a2.85,2.85,0,0,1,.11-.39c.09-.07.22,0,.31-.12a.13.13,0,0,1,.17.07c.07.18-.13.09-.1.35v0c.06.4-.05.13-.11.42s.24.06.11.2.06.15.21,0,.25.09.31.09c.29,0,0,.31,0,.42,0,.3.24.09.14.43,0,.07.08.09.1.22s.22.16.29-.06c0,0,.2,0,.24.06s.28.18.28,0c0-.32,0-.1.13-.34,0,0,.33.08.35-.14s.16-.15.16,0,0,.15.08.11-.06-.24.25-.09c.11.05,0,.29.15.26,0,0,.15-.1.2,0s.3.11.3,0,.16-.2.2-.09.24.11.24,0,.11.09.13.15,0,.28.28.35.22.33.29.33c.2.17.33,0,.44.19a1.43,1.43,0,0,0,.32.27.3.3,0,0,1,0,.43s-.1.2.09.18c0,0,.22.07.22.15s.22,0,.29,0c.23.15,0,.08.13.28s.24.13.24.09.33.17.39,0,.22,0,.22.07.3.39.35.32.15.07.19.09,0,.18,0,.26-.13.48-.15.48-.25.4-.29.42a.07.07,0,0,0,0,.06c0,.18-.11,0-.13.33a4.08,4.08,0,0,0-.18.6c0,.21-.08.06,0,.39s-.31.22-.48.55c-.07.15-.39,0-.64.24s-.08.08-.26.45-.09.38-.15.66c0,.07-.26.05-.29.2a3.64,3.64,0,0,1-.11.39l0,0c-.05.33-.5-.07-.5.22a.64.64,0,0,1-.12.41c0,.07-.13,0-.24.11-.5-.3-1-.61-1.48-.94a1.46,1.46,0,0,0,0-.59c-.08-.13,0-.19,0-.43s.06-.12.06-.27a2.27,2.27,0,0,0,.11-1.13c0-.09-.06-.35-.18-.38-.5-.17-.41-.43-.78-.68-.16-.11,0-.48-.11-.63s-.16-.33-.37-.54a.83.83,0,0,1-.14-.35c0-.12-.1-.09.05-.27a4.29,4.29,0,0,0,0-.55c0-.24-.19-.15.2-.54a.54.54,0,0,1,.28-.27c0-.08.09-.21.09-.28s0-.2-.06-.3,0-.05-.05-.11,0-.05-.09-.11a.09.09,0,0,0-.17,0,.71.71,0,0,1-.09.17c-.2,0,0,0-.2-.1s-.08-.11-.19-.11-.13-.05-.2-.11,0-.22-.28-.35c0,0-.09-.09-.13-.13s-.07-.11-.16-.13,0,0-.1,0c-.23-.24-.29.07-.42-.28,0-.11-.07-.11-.2-.14-.3-.12-.11.12-.55-.08-.19-.09-.32,0-.54-.2-.05-.06-.16-.09-.29-.19s-.13-.09-.13-.31a.91.91,0,0,0,0-.2c0-.26-.16-.28-.25-.5,0,0-.1-.09-.13-.18l0,0c-.07-.15-.3-.17-.33-.31s-.08,0-.08-.24-.29-.24-.31-.39-.28-.44-.28-.26.15.2.15.35.09.17.11.28.15.22.17.37.07.05.07.29c0,.06,0,.11,0,.15a.59.59,0,0,1-.14-.26c0-.13-.46-.2-.44-.39s.38-.09,0-.4c-.11-.08-.09-.19-.09-.32s.11-.07-.09-.2-.09-.18-.26-.27c-.07-.74-.11-1.52-.11-2.31v-.57c.41-1,.87-2,1.4-3.06ZM281.36,271c-.13.28-.28.56-.41.81-.42,0-.18-.31-.31-.38s-.18-.55,0-.54,0,.06,0,0c.24-.17.2,0,.37-.22.26-.41.24,0,.42-.46,0,.24-.05.5-.07.75Zm-.7,1.33-.17.3-.44-.21c-.35-.13-.63-.79-.75-.92a1.64,1.64,0,0,1-.46-.7c-.1-.35-.17-.29-.24-.48s0-.16.14-.09c.39.22.17.33.54.57a1.35,1.35,0,0,1,.29.33c.2.13.22.26.32.39.35.48.12.29.12.66,0,.13.34.11.46.11l.19,0Zm-24-15.14c.17,0-.18-.26.19-.24.09,0,.12-.11.42-.17.09,0,.13-.28.28-.06a2.6,2.6,0,0,0,.55,0c.26,0,.15-.3.74,0s.51-.2.64-.24c.65-.13.37.37,1.2-.09.16-.09.18.05.55.05s1.16-.05,1.16.22.11.1.35.15a1,1,0,0,0,.63,0c.09,0,.9,0,.51.29,0,0-.7.15-.71.3-.21.07-.34,0-.08.22.08,0-.07.2-.07.31s-.11,0-.11.24-.81,0-.37.33c.07.06-.07.09,0,.19s.09.27-.28.11c-.18-.1-.4-.32-.37,0,0,.13.7.22.21.35-.13,0,0,0-.26.06-.39,0-.24.11-.35.18s-.54-.22-.54,0-.18.29-.44.29c-.44,0-.24.08-.38.24s.07.17-.12.22-.07.45-.18.59.07.21-.28.15c-.09,0,.06-.13-.2-.24s-.35.22-.62-.33c-.15-.31-.28,0-.26-.57,0-.08-.37-.43,0-.48.1,0,.19-.22-.11-.39s0-.24-.33-.22c-.11,0-.05-.33-.15-.44-.22-.28-.36-.15-.73-.28s-.19.13-.61-.05c-.09,0-.22.11-.63-.17-.07-.05-.27-.05-.05-.2s.35.18.68-.06c0,0,.05-.14.09-.14Zm5.69,2.37c0,.08.19-.09.24,0s.28,0,.56,0a2.16,2.16,0,0,1,.31,0c.13,0,.28.11.15.22s.07.09-.19.17-.22.26-.35.26-.14-.11-.4-.13c0,0-.17-.06-.11-.13s-.48-.08-.22-.26h0Zm4.3,2.18c.11,0,0-.06.18-.06s-.13-.31-.13-.33a.32.32,0,0,1,.28-.31c.07,0,0,0,0,.13s-.21.35.13.36c0,0,.07-.11.18-.14s-.07-.39-.07-.48-.06-.3-.19-.19-.22,0-.29.19-.3.11-.37-.08a.26.26,0,0,1-.06-.22s0-.05,0-.07c0-.39-.2-.37.35-.63.28-.13,0-.11.31-.13,0,0,.37-.33.45-.37.33-.22-.1-.64.4-.57,0,0,.15.15.26.06.29-.24.83.05.88-.22s.22,0,.41,0c1,0,.31.18.68.26s.22-.09.66.22c.19.13.34-.2.34.37a1.28,1.28,0,0,1-.8-.17c-.16-.07-.59-.05-.24.24.08.06.24-.05.35.15s.37.38.35.09c0-.07.28,0,.46-.15s.13.08.24-.24c0,0,.41.3.24-.18-.05-.17.19-.24.19,0s0,.14.29.14-.07-.09.28-.07,0-.29.51-.28c.15,0-.14.26.32.1s.5.09.64,0-.09-.22-.11-.31c.17-.15.37.2.67.22s.46,0,.58.09.15-.53.06-.64.41-.47.53-.21c.06.09-.38.44,0,.92.09.11-.15.24-.2.24s-.33,0,0,.15.22-.2.39-.35-.35-.48.12-.68c0,0,.15-.39.24,0s.19-.2.23-.22.33,0,.38.11.15.28.2.28c.39,0-.18-.54.06-.61s.33,0,.33-.15c.22-.11.43,0,.66,0,1.83,3.35,3.1,6.35,3.36,9.24-.17,0-.31,0-.35.17s-.08.11-.2.18-.23-.09-.19.26c0,.19-.05,0,0,.24,0,0-.2.11-.18-.13s.24-.16,0-.38c0,0-.26-.11-.28,0,0,.35-.29.14-.16.44s-.08.11.14.26a.74.74,0,0,1,.11.16s0,.09.1.09.07,0,.07.13a.74.74,0,0,0,.06.37c.07.11-.06.3-.19.35a.42.42,0,0,0-.16.28s-.08.11-.15.11c-.26,0-.08.31-.26-.11-.06-.17-.13-.06-.15-.33s-.29-.37-.35-.1.06.17-.13.3c0,0,0,.15,0,.2s.13.33.26.46.28.19.26.41-.06.13,0,.33,0,.2,0,.09-.41-.35-.46-.59,0-.24-.2-.38c0,0,0-.34,0-.41a1.08,1.08,0,0,0-.09-.68c-.09-.22.17-.59-.07-.57s-.13.35-.3.18,0,0,0-.07c-.32-.26-.06-.52-.3-.78s0-.27-.15-.46c0,0-.13,0-.16.1s0,.27-.15.22.06-.1-.22-.1c-.11,0,.05.23-.2.28s0,.37-.52.57c-.28.11-.17.08-.24.3s-.18,0-.07.31l0,0c0,.11,0,.13,0,.22a.41.41,0,0,0-.06.24.19.19,0,0,1,0,.15s.15.09.15.27v.19s0,.26,0,.26-.05,0-.09-.06,0,0-.07-.15a1.54,1.54,0,0,1-.12-.13s.08-.29,0-.29,0,.09-.21.07a.5.5,0,0,1-.11-.16c0-.19-.16-.1-.13-.35a.45.45,0,0,0-.07-.28c-.11-.06-.13-.33-.22-.42a.25.25,0,0,1-.07-.26c.05-.11,0-.26.07-.43s.05-.35-.09-.4-.06,0-.08.07,0,.19-.09.19c-.26,0,0,0-.24-.17s0-.07,0-.24-.24-.11-.29-.29-.32,0-.35,0a.55.55,0,0,0-.35-.06s0,0,0,0-.15,0-.22,0-.15-.07-.3-.05a.19.19,0,0,1-.12-.2c0-.11-.19-.24-.17-.1s-.2.15-.3.12c-.4-.26,0-.21-.4-.48,0,0-.15-.26-.35-.26,0,0-.15.24,0,.4a1.05,1.05,0,0,1,.15.3c0,.16.16.29.25.44s.26.11.3,0,.09-.08.15-.21.22-.2.22-.07-.08.24,0,.26c.33.05.15.13.35.26s0,.2,0,.27,0,0,0,0a.48.48,0,0,0-.07.3c0,.05-.26.14-.28.22l-.13.13c-.07.14-.33.05-.39.33,0,.07-.49.25-.59.31s0,0-.11.11-.16,0-.25.09a.22.22,0,0,1-.19,0,.29.29,0,0,1-.11-.22c0-.31.06-.2-.07-.52-.06-.11-.06,0-.08-.2s-.13-.31-.16-.35-.21-.24-.21-.3c0-.22-.2-.25-.22-.58,0-.17-.18-.35-.29-.45s-.2-.11-.2,0,0,.13.12.37a.68.68,0,0,1,.1.35c0,.15.25.63.25.67a3.07,3.07,0,0,0,.34.75l0,0a.93.93,0,0,1,.29.46c0,.07.2.42.28.35s.22,0,.36-.15.28-.13.35-.05c.26.18.12.14,0,.35a1.39,1.39,0,0,1-.09.44,1,1,0,0,1-.09.18c-.09.21-.05.48-.33.57,0,0-.26.35-.33.37s-.06.15-.08.15c0,.24-.53.57-.53,1.11a1.07,1.07,0,0,0,.09.64,1,1,0,0,1,0,.83c-.11.2,0,.46-.53.66-.41.15.25,1-.24,1-.11,0-.15.15-.17.26s-.2.48-.31.65-.2.55-.46.66-.17.2-.5.11-.35.41-.81-.18c-.13-.15,0-.67-.35-1.09-.17-.22.05-.79-.18-1.07-.08-.09-.28-.59-.19-.7a6.57,6.57,0,0,0,.22-1.27v-.41s0-.13-.11-.24,0-.07-.13-.14-.14-.35-.26-.45a.38.38,0,0,1-.2-.35c0-.2.11-.24.13-.49s.11-.46-.26-.45c-.05,0-.14.13-.25,0s-.24,0-.24-.22-.26-.13-.34,0a2.14,2.14,0,0,1-.22.13s-.13,0-.24.11-.22.07-.25,0-.28-.09-.39,0-.33.13-.41,0c-.25-.41-.37-.26-.59-.48s.08-.28-.14-.42a2,2,0,0,0-.35-.32s0-.27,0-.33a.74.74,0,0,0,0-.26.75.75,0,0,1,.09-.6s0,0,0,0-.24-.31-.2-.44c.09-.28.22-.21.31-.48s.07-.09.09-.33.13-.37.41-.45.18-.18.24-.36c.11-.37-.17-.24.29-.48.06,0,0,0,.06-.08a1.35,1.35,0,0,1,.16-.29s.08-.26,0-.26-.23,0-.25,0c-.17-.18-.13-.09-.11-.35a2.36,2.36,0,0,0,0-.26c0-.22-.14-.77.35-.6.17,0,0,.18.39.14a1,1,0,0,0,.18-.09c.08,0,.13-.11.23-.16s-.1-.17-.12-.22a.54.54,0,0,0-.2-.28,1.91,1.91,0,0,0-.22-.17c0-.05.15-.26.26-.11a.18.18,0,0,0,.24,0c.07-.08.24,0,.26-.23s.37-.16.38-.09c.11.3.48.15.26,0s-.16-.07-.18-.18.11,0,.11-.24.29-.06.35-.09Zm-1.9-.59s0-.19,0-.24c.22-.17.16-.19.51-.21.06,0-.13.15-.13.26,0,.35.11-.16.1.37,0,.06.27.26.29.42s.41.28.15.37,0,.15-.41.15c-.05,0-.4.17-.4.07s.11-.12.05-.25.28-.13.22-.41a.28.28,0,0,0-.25-.16s-.08-.12-.17-.06,0,.42-.07.48-.08,0-.19.07-.13.13-.18,0,.07-.08,0-.33.45-.28.47-.34a.35.35,0,0,0-.06-.14Zm4.18-.37c0,.05-.2-.08-.24.13,0,0-.13.09.1.05,0,0,.12-.11.11.11s-.21,0-.24,0c-.3,0-.19.15-.19.33s0,.08,0,.13,0,0-.21,0-.33,0-.36.11c-.13.25-.21,0-.47,0s.06-.11,0-.21.24-.07.3-.16.2,0,.14-.26c0-.07-.14-.11.1-.28.07,0,.38,0,.14-.18l-.14-.13c-.08-.2.11-.35.31-.37s.13-.46.48-.46c.11,0,.44-.07.33.09s-.59.43-.59.46a.52.52,0,0,0,0,.21c0,.22.28.31.5.24s0,0,.17-.1a.48.48,0,0,1,.29,0c.37.15-.07.22-.26.24l-.22,0Zm3.15,2.65c-.07,0-.2-.2,0-.27.44-.12.33-.35.74-.3.13,0,.09.22-.08.28l-.16.13c0,.2-.11.27.13.49s.36.1.14.22.11.39.11.39.1.37-.09.37-.24,0-.5-.15-.16-.22-.09-.38.24-.13-.05-.41c-.11-.09-.11-.35-.19-.37Zm-2.56.06c.08-.11.33-.63.52-.33.09.12.15.12.35.16s-.06-.18.16-.26.41-.24.24.06.26.31.32.39.14,0,.14.2.24.33-.35.33c-.16,0-.07.07-.29-.11a.44.44,0,0,0-.26-.11c-.29-.06-.13,0-.37.05,0,0-.07.06-.14.08s-.32-.13-.3-.28,0-.13,0-.18Zm-2.91,1.27s-.26,0-.31,0a.61.61,0,0,0-.54.07c-.07.08-.16.08-.24.11s-.22,0-.24.1-.33,0-.33-.11l0-.12h0c.09-.14.26,0,.44-.11s.06,0,.13-.11c.17-.27-.31-.2.08-.36a1.76,1.76,0,0,0,.4-.56c0-.11.26-.14.41,0s.13,0,.16,0a1.5,1.5,0,0,1,.22-.23c.32-.05.17.21.26.3.28.33.46.17.65.39s.07.36-.08.36-.13.19.09.19.1-.2.12-.28,0-.22.14-.18.13-.15-.13-.22-.13-.21-.42-.37-.17-.09-.15-.26.33-.11.43,0,.38.31.4.44a4.58,4.58,0,0,1,.2.46c0,.17,0,.26.23.31s0,.22.22.21c0,0,.09-.26.11-.3s-.24-.31.11-.46c.09,0,0-.09.24,0s0,.33,0,.39,0,.28.09.35.17,0,.28.09a.07.07,0,0,0,.14,0c.06-.2.22,0,.33,0s.06.06.17,0h0c.09.08.2-.18.3.11a1.74,1.74,0,0,1-.12.5.6.6,0,0,1-.05.24.19.19,0,0,1-.24.11c-.09,0-.24-.22-.37,0s0,.15-.29.15a1.18,1.18,0,0,1-.41-.22,2.48,2.48,0,0,0-.46-.24c-.07,0-.07,0-.18.08s-.06.36-.11.4-.37,0-.39-.11a.63.63,0,0,0-.39-.29c-.11,0-.11.09-.35-.08,0,0-.2-.16-.22-.2s.2-.24.07-.39,0-.31-.31-.13c0,0-.11,0-.11.06Zm5,9.89c.07-.22-.13-.13-.06-.44,0-.15,0-.15.23-.18s.27-.32.44-.48.37-.08.22.18a1.1,1.1,0,0,0-.11.52,1.4,1.4,0,0,1-.15.6,6,6,0,0,1-.17.58c0,.11,0,.16-.11.29s0,.2-.25,0a1.63,1.63,0,0,1-.24-.68c0-.13.16-.24.2-.35Zm1.09-16.12c-.06,0,.16-.4.44-.46.09,0,.16-.22.44-.24a3.41,3.41,0,0,1,.68-.13c.11,0,.43,0,.48-.11s.46.35-.18.35c0,0-.24,0-.37,0a1.15,1.15,0,0,0-.83.26c-.42.4.13.57-.26.53a1.12,1.12,0,0,1-.4-.24Zm-5.29-1.05-.39-.18c-.09-.21,0-.24.22-.28s.54.11.76,0a2.11,2.11,0,0,1,.51,0c.26,0,.39,0,.65,0,.07,0,0,.26-.61.22-.13,0-.22,0-.13.15s.33.11.17.16-.32-.13-.56,0-.07.27-.46,0l-.16-.09Z" transform="translate(-48.71)"/><path class="cls-57" d="M276.73,258.33c.74,1.44,1.4,2.91,2,4.4.85,2-1.14,2.55-1.88.87-.51-1.42-1.1-2.91-1.75-4.46.06-.06.13-.55,0-.64s.41-.47.53-.21c.06.09-.38.44,0,.92.09.11-.15.24-.2.24s-.33,0,0,.15.22-.2.39-.35-.35-.48.12-.68c0,0,.15-.39.24,0s.19-.2.23-.22a.43.43,0,0,1,.23,0Zm-2.11-.37a1.27,1.27,0,0,1-.11-.26.6.6,0,0,0,.27-.09c.17-.17.46.35-.16.35Z" transform="translate(-48.71)"/><path class="cls-58" d="M321.74,432.79h18.79a2.11,2.11,0,0,1,2.1,2.1v38.93h-23V434.89a2.11,2.11,0,0,1,2.1-2.1Z" transform="translate(-48.71)"/><path class="cls-59" d="M317.9,473.82h26.47a.37.37,0,0,1,.35.35v2.44a.37.37,0,0,1-.35.37H317.9a.37.37,0,0,1-.35-.37v-2.44a.36.36,0,0,1,.35-.35Z" transform="translate(-48.71)"/><rect class="cls-60" x="273.91" y="432.79" width="17.03" height="41.03"/><path class="cls-57" d="M325.05,436.05h12.17a.56.56,0,0,1,.56.56v8.59a.56.56,0,0,1-.56.56H325.05a.55.55,0,0,1-.56-.56v-8.59a.55.55,0,0,1,.56-.56Z" transform="translate(-48.71)"/><rect class="cls-61" x="276.75" y="437.02" width="11.34" height="7.77"/><polygon class="cls-62" points="279.8 437.02 282.25 437.02 280.37 444.79 277.89 444.79 279.8 437.02"/><polygon class="cls-62" points="286.02 437.02 287.21 437.02 285.32 444.79 284.13 444.79 286.02 437.02"/><path class="cls-63" d="M320.52,473.82h21.23a.37.37,0,0,1,.35.35v2.44a.37.37,0,0,1-.35.37H320.52a.37.37,0,0,1-.35-.37v-2.44a.36.36,0,0,1,.35-.35Z" transform="translate(-48.71)"/><polygon class="cls-64" points="284.74 451.43 279.86 460.91 282.85 460.91 280.51 469.89 287.59 459.33 283.73 459.33 284.74 451.43"/><path class="cls-65" d="M342.63,450.09h.71a2.56,2.56,0,0,1,1.81.74h0a2.64,2.64,0,0,1,.75,1.82v14.17a1.29,1.29,0,0,0,2.21.91,1.27,1.27,0,0,0,.37-.91V447.15h1.37v19.67a2.62,2.62,0,0,1-.79,1.87,2.57,2.57,0,0,1-1.87.79,2.62,2.62,0,0,1-1.87-.79,2.71,2.71,0,0,1-.75-1.52h0V452.65a1.2,1.2,0,0,0-.35-.86h0a1.24,1.24,0,0,0-.84-.36h-.71Z" transform="translate(-48.71)"/><path class="cls-58" d="M347.51,444.86h3.33a.29.29,0,0,1,.3.3v1.67a.31.31,0,0,1-.3.32h-3.33a.33.33,0,0,1-.32-.32v-1.67a.31.31,0,0,1,.32-.3Z" transform="translate(-48.71)"/><path class="cls-66" d="M347.51,444.86h3.33a.29.29,0,0,1,.3.3v.6a4.09,4.09,0,0,1-2,.47,4.21,4.21,0,0,1-2-.47v-.6a.31.31,0,0,1,.32-.3Z" transform="translate(-48.71)"/><path class="cls-67" d="M350.21,442.39h0a.34.34,0,0,1,.33.34v2.13h-.65v-2.13a.33.33,0,0,1,.32-.34Zm-2.08,0h0a.33.33,0,0,1,.33.34v2.13h-.65v-2.13a.33.33,0,0,1,.32-.34Z" transform="translate(-48.71)"/><path class="cls-68" d="M506.46,332.71c0,14-8.52,9.81-8.52,24.46a2.27,2.27,0,0,1-2.22,2.3H478.83a2.26,2.26,0,0,1-2.2-2.3c0-14.65-8.55-10.46-8.55-24.46,0-26.14,38.38-26.14,38.38,0Z" transform="translate(-48.71)"/><path class="cls-64" d="M506.46,332.71c0,.86,0,1.64-.07,2.37a16.41,16.41,0,1,1-18.23-21.95c9.31.4,18.3,6.92,18.3,19.58Z" transform="translate(-48.71)"/><path class="cls-69" d="M491.52,340.1c.45-5.35,3.25-7.91,9.48-7.91.37,6.58-4.05,9.78-9.48,7.91Zm-6.22,6.44c1-4.81-2.56-9.52-7.06-11.81-2.58,4.45-1.8,13,7.06,11.81Zm3-14.58c-.66-2.85-3.1-3.65-5.82-3.91-.41,4.45,3.14,6.42,5.82,3.91Zm1.4-3.7c-3.48-1.23-4.15-5.37-2.54-8.17,3,1.85,4.15,4.9,2.54,8.17Z" transform="translate(-48.71)"/><path class="cls-70" d="M491.52,340.1c.45-5.35,3.25-7.91,9.48-7.91.37,6.58-4.05,9.78-9.48,7.91Zm-6.06,4.62A16.63,16.63,0,0,1,477.1,338a10.37,10.37,0,0,1,1.14-3.24c3.93,2,7.13,5.84,7.22,10ZM488.28,332c-.66-2.85-3.1-3.65-5.82-3.91-.41,4.45,3.14,6.42,5.82,3.91Zm1.4-3.7c-3.48-1.23-4.15-5.37-2.54-8.17,3,1.85,4.15,4.9,2.54,8.17Z" transform="translate(-48.71)"/><path class="cls-71" d="M478.83,359.47h16.89v3.67a1.32,1.32,0,0,1-1.31,1.3H480.14a1.32,1.32,0,0,1-1.31-1.3Z" transform="translate(-48.71)"/><path class="cls-72" d="M480.51,364.44H494v6.61a4.54,4.54,0,0,1-4.54,4.54h-4.43a4.55,4.55,0,0,1-4.55-4.54Z" transform="translate(-48.71)"/><path class="cls-73" d="M489.87,375.59a2.47,2.47,0,0,1-2.58,1.59c-1.35,0-2.47-.71-2.61-1.59h5.19Z" transform="translate(-48.71)"/><rect class="cls-74" x="430.12" y="359.47" width="16.88" height="1.33"/><path class="cls-71" d="M480.51,368.32l13.52-.64a.43.43,0,0,1,.43.43v.5a.47.47,0,0,1-.43.45q-6.73.29-13.52.61a.38.38,0,0,1-.42-.4v-.5a.47.47,0,0,1,.42-.45Zm0,2.16,13.52-.64a.4.4,0,0,1,.43.4v.5a.44.44,0,0,1-.43.45l-13.52.64a.41.41,0,0,1-.42-.4v-.5a.44.44,0,0,1,.42-.45Zm0-4.31,13.52-.62a.4.4,0,0,1,.43.41v.49a.46.46,0,0,1-.43.45l-13.52.62a.39.39,0,0,1-.42-.4v-.5a.46.46,0,0,1,.42-.45Z" transform="translate(-48.71)"/><path class="cls-75" d="M486.48,357.6A25.84,25.84,0,0,1,486,348c-2.6-3.34-6.56-5.61-7-10.58,1.77,4.45,4.71,6.46,7.29,9.18.87-4.64,2.67-8.57,3-13.49-2-1.61-4.62-1.09-5.83-4,1.31,2.09,4,1.87,5.88,3.06a26.31,26.31,0,0,0-1.35-9.05c3.38,6.68,3.05,12.05,2.1,17,4.9-.64,4.1-4.72,8.65-6.09-3.11,1.45-3.08,6.7-8.93,7.36-1.14,5.31-2.72,10.11-.62,15.54l-2.72.78Z" transform="translate(-48.71)"/><path class="cls-76" d="M480.8,342.09a9.29,9.29,0,0,1-1.82-4.71,18.53,18.53,0,0,0,4.54,6.51,16.23,16.23,0,0,1-2.72-1.8Zm5.78,3c.94-4,2.41-7.6,2.72-12-2-1.61-4.62-1.09-5.83-4,1.31,2.09,4,1.87,5.88,3.06a26.31,26.31,0,0,0-1.35-9.05c3.38,6.68,3.05,12.05,2.1,17,4.9-.64,4.1-4.72,8.65-6.09-3.11,1.45-3.08,6.7-8.93,7.36-.31,1.47-.64,2.87-.95,4.27a14.31,14.31,0,0,1-2.29-.48Z" transform="translate(-48.71)"/><path class="cls-77" d="M496.92,359.11a2.26,2.26,0,0,1-1.2.36H478.83a2.19,2.19,0,0,1-1.18-.36c1.68-2.72,5.37-4.59,9.64-4.59s7.93,1.87,9.63,4.59Z" transform="translate(-48.71)"/><path class="cls-78" d="M389.24,181.85h44.7a.54.54,0,0,1,.55.55v3.07a.54.54,0,0,1-.55.55h-44.7a.54.54,0,0,1-.55-.55V182.4a.54.54,0,0,1,.55-.55Z" transform="translate(-48.71)"/><path class="cls-67" d="M391.83,181.85h7.66V181a.27.27,0,0,0-.27-.27h-7.11a.27.27,0,0,0-.28.27Z" transform="translate(-48.71)"/><path class="cls-79" d="M393.77,180.72h3.76v-3.56a.5.5,0,0,0-.51-.51h-2.73a.51.51,0,0,0-.52.51Z" transform="translate(-48.71)"/><path class="cls-67" d="M423.69,181.85h7.66V181a.27.27,0,0,0-.28-.27H424a.27.27,0,0,0-.27.27Z" transform="translate(-48.71)"/><path class="cls-79" d="M425.65,180.72h3.76v-3.56a.51.51,0,0,0-.52-.51h-2.73a.5.5,0,0,0-.51.51Z" transform="translate(-48.71)"/><path class="cls-80" d="M389.79,186h43.6v23.1a.71.71,0,0,1-.7.71h-42.2a.71.71,0,0,1-.7-.71Z" transform="translate(-48.71)"/><path class="cls-78" d="M433.39,205.5v3.62a.71.71,0,0,1-.7.71h-42.2a.71.71,0,0,1-.7-.71V205.5Z" transform="translate(-48.71)"/><rect class="cls-81" x="341.08" y="186.02" width="43.6" height="1.91"/><path class="cls-82" d="M396.42,177.35h0a.42.42,0,0,1,.41.43v2.94H396v-2.94a.43.43,0,0,1,.43-.43Z" transform="translate(-48.71)"/><path class="cls-82" d="M428.21,177.35h0a.42.42,0,0,1,.42.43v2.94h-.84v-2.94a.42.42,0,0,1,.42-.43Z" transform="translate(-48.71)"/><polygon class="cls-57" points="362.27 189.61 359.81 196.45 362.73 196.45 360.6 203.88 365.94 195.47 362.34 195.47 365.89 189.63 362.27 189.61"/><path class="cls-57" d="M397.69,192.52a4.23,4.23,0,1,1-4.23,4.22,4.21,4.21,0,0,1,4.23-4.22Z" transform="translate(-48.71)"/><rect class="cls-65" x="346.42" y="196.16" width="5.13" height="1.19"/><path class="cls-57" d="M425,192.52a4.23,4.23,0,1,1-4.24,4.22,4.22,4.22,0,0,1,4.24-4.22Z" transform="translate(-48.71)"/><polygon class="cls-78" points="373.71 196.16 375.67 196.16 375.63 194.2 376.82 194.16 376.85 196.16 378.84 196.16 378.84 197.34 376.88 197.34 376.92 199.3 375.73 199.33 375.7 197.34 373.71 197.34 373.71 196.16"/></g></g></svg>