<svg width="1433" height="263" viewBox="0 0 1433 263" fill="none" xmlns="http://www.w3.org/2000/svg">
<path d="M22 21.1748C51.3333 8.50817 118 11.1748 174 45.1748C284.002 111.962 476 249.175 672 211.175C868 173.175 924 47.1749 1068 21.1748C1212 -4.82519 1330 127.175 1286 211.175C1242 295.175 1032 276.157 1032 153.175C1032 30.1929 1358 39.1748 1432 67.1748" stroke="#B7C0EB" stroke-linecap="square" stroke-dasharray="8 8"/>
<path d="M11.1279 0.174805C7.0814 12.9888 0 42.6632 0 42.6632L19.2209 24.4539L11.1279 0.174805Z" fill="#B7C0EB"/>
<path d="M20.2326 25.4656L1.01172 43.6749L43.5001 32.547L20.2326 25.4656Z" fill="#437FEC"/>
</svg>
