<?xml version="1.0" encoding="utf-8"?>
<!-- Generator: Adobe Illustrator 25.0.0, SVG Export Plug-In . SVG Version: 6.00 Build 0)  -->
<svg version="1.1" id="Layer_1" xmlns="http://www.w3.org/2000/svg" xmlns:xlink="http://www.w3.org/1999/xlink" x="0px" y="0px"
	 viewBox="0 0 228 228" style="enable-background:new 0 0 228 228;" xml:space="preserve">
<style type="text/css">
	.st0{fill:#EDF3FC;}
	.st1{fill:#2C79E6;}
	.st2{fill:#00C3FF;}
	.st3{fill:#0160E7;}
	.st4{fill:#4592EC;}
	.st5{fill:#FFFFFF;}
</style>
<g>
	<path class="st0" d="M119.19,199.54c-74.26,13.34-60.09-22.48-73-39c-18.76-24-43.17-71.34-21.74-106.17
		c14.49-23.56,44.82-11.97,85,0c40.18,11.97,43-15.17,78.03,0c33.65,14.57,13.86,35.94,13.86,61.17c0,36.35,23.76,51.09,0,69.66
		C173.45,207,145.49,194.82,119.19,199.54z"/>
	<path class="st1" d="M140.7,67.56c0-1.08-0.05-2.15-0.14-3.21l3.61-0.63l-1.22-6.9l-3.6,0.63c-0.56-2.07-1.3-4.09-2.2-6.03
		l3.17-1.83l-3.5-6.07l-3.18,1.84c-1.24-1.75-2.62-3.39-4.13-4.91l2.37-2.82l-5.37-4.5l-2.36,2.82c-1.76-1.23-3.62-2.3-5.56-3.22
		l1.25-3.45l-6.58-2.4l-1.25,3.44c-2.07-0.55-4.19-0.92-6.33-1.11v-3.66h-7v3.66c-2.14,0.19-4.25,0.57-6.33,1.11l-1.25-3.44
		l-6.58,2.39l1.25,3.45c-1.94,0.92-3.79,1.99-5.56,3.22l-2.36-2.82l-5.36,4.51l2.37,2.82c-1.51,1.52-2.89,3.16-4.13,4.92l-3.18-1.84
		l-3.5,6.07l3.17,1.83c-0.9,1.94-1.64,3.96-2.2,6.03l-3.61-0.63l-1.22,6.89l3.61,0.63c-0.09,1.06-0.13,2.13-0.13,3.21
		c0,1.08,0.05,2.15,0.13,3.21l-3.61,0.64l1.22,6.9l3.61-0.64c0.56,2.07,1.3,4.09,2.2,6.03l-3.17,1.83l3.5,6.07l3.18-1.84
		c1.24,1.75,2.62,3.39,4.13,4.91l-2.37,2.82l5.37,4.5l2.36-2.82c1.76,1.23,3.62,2.3,5.56,3.22l-1.25,3.44l6.58,2.4l1.25-3.44
		c2.07,0.55,4.19,0.92,6.33,1.11v3.66h7v-3.66c2.14-0.19,4.25-0.57,6.33-1.11l1.25,3.44l6.58-2.4l-1.25-3.45
		c1.94-0.92,3.8-1.99,5.56-3.22l2.36,2.82l5.37-4.5l-2.37-2.82c1.51-1.52,2.89-3.17,4.13-4.91l3.18,1.84l3.5-6.07l-3.17-1.83
		c0.9-1.94,1.64-3.97,2.2-6.04l3.6,0.64l1.22-6.9l-3.6-0.63C140.65,69.71,140.7,68.64,140.7,67.56z M102.18,88.57
		c-11.6,0-21.01-9.41-21.01-21.01c0-11.6,9.4-21.01,21.01-21.01c11.6,0,21.01,9.41,21.01,21.01
		C123.18,79.16,113.78,88.56,102.18,88.57z"/>
	<path class="st2" d="M172.78,122.2c0.07-0.68,0.11-1.35,0.12-2.01l2.29-0.17l-0.32-4.38l-2.29,0.16c-0.22-1.33-0.55-2.64-0.99-3.91
		l2.1-0.94l-1.8-4.01l-2.1,0.94c-0.66-1.17-1.42-2.29-2.26-3.33l1.66-1.61l-3.06-3.15l-1.66,1.61c-1.02-0.88-2.11-1.67-3.26-2.37
		l1-2.07l-3.96-1.92l-1,2.07c-1.26-0.48-2.56-0.84-3.88-1.1l0.23-2.29l-4.37-0.45L149,95.56c-1.35-0.01-2.69,0.08-4.02,0.29
		l-0.56-2.23l-4.27,1.07l0.56,2.23c-1.27,0.45-2.5,1-3.68,1.65l-1.29-1.91l-3.64,2.47l1.3,1.91c-1.04,0.85-2.01,1.79-2.9,2.8
		l-1.87-1.35l-2.58,3.56l1.86,1.35c-0.69,1.16-1.28,2.37-1.76,3.63l-2.21-0.63l-1.2,4.23l2.21,0.63c-0.12,0.66-0.22,1.32-0.29,2
		c-0.07,0.68-0.11,1.35-0.12,2.01l-2.29,0.17l0.32,4.38l2.29-0.17c0.22,1.33,0.55,2.64,0.99,3.91l-2.1,0.94l1.8,4.01l2.1-0.94
		c0.66,1.17,1.42,2.29,2.26,3.33l-1.66,1.61l3.06,3.15l1.66-1.61c1.02,0.88,2.11,1.67,3.26,2.37l-1,2.07l3.96,1.92l1-2.07
		c1.26,0.48,2.56,0.84,3.88,1.1l-0.23,2.29l4.37,0.45l0.24-2.29c1.35,0.01,2.69-0.08,4.02-0.29l0.56,2.23l4.26-1.07l-0.56-2.23
		c1.27-0.45,2.5-1,3.68-1.65l1.29,1.91l3.64-2.47l-1.3-1.91c1.04-0.85,2.01-1.79,2.9-2.8l1.87,1.35l2.58-3.56l-1.86-1.35
		c0.69-1.16,1.28-2.37,1.76-3.63l2.21,0.63l1.2-4.23l-2.21-0.63C172.61,123.54,172.71,122.88,172.78,122.2z M147.37,132.85
		c-7.24-0.74-12.52-7.22-11.77-14.47c0.74-7.24,7.22-12.52,14.47-11.77c7.25,0.74,12.52,7.22,11.77,14.47
		C161.09,128.32,154.62,133.58,147.37,132.85z"/>
</g>
</svg>
