<?xml version="1.0" encoding="utf-8"?>
<!-- Generator: Adobe Illustrator 25.0.0, SVG Export Plug-In . SVG Version: 6.00 Build 0)  -->
<svg version="1.1" id="Layer_1" xmlns="http://www.w3.org/2000/svg" xmlns:xlink="http://www.w3.org/1999/xlink" x="0px" y="0px"
	 viewBox="0 0 228 228" style="enable-background:new 0 0 228 228;" xml:space="preserve">
<style type="text/css">
	.st0{fill:#EDF3FC;}
	.st1{fill:#2C79E6;}
	.st2{fill:#00C3FF;}
	.st3{fill:#0160E7;}
	.st4{fill:#4592EC;}
	.st5{fill:#FFFFFF;}
</style>
<g>
	<path class="st0" d="M37.67,87.47c0-45.19,53.59-69.39,74.56-69.39c67.57-5.55,39.61,29.84,102.52,69.39
		c23.42,14.72,1.55,35.39-32.62,59.68c-34.17,24.29-24.08,48.57-59.03,59.68c-34.95,11.1-33.4-4.16-59.8-29.14
		C36.9,152.7,3.5,171.75,3.5,141.59C3.5,115.22,37.67,108.29,37.67,87.47z"/>
	<path class="st2" d="M94.25,73H119v24.75H94.25v16.5H119V139H94.25v16.5h33c4.56,0,8.25-3.69,8.25-8.25v-33h24.75v-16.5H135.5V73
		h-0.13v-5.87c0-5.87-4.76-10.63-10.63-10.63H94.25V73z"/>
	<path class="st3" d="M86,64.75c0-4.56-3.69-8.25-8.25-8.25c-4.56,0-8.25,3.69-8.25,8.25c0,4.56,3.69,8.25,8.25,8.25
		C82.3,73,86,69.3,86,64.75z"/>
	<path class="st4" d="M86,106c0-4.56-3.69-8.25-8.25-8.25c-4.56,0-8.25,3.69-8.25,8.25c0,4.56,3.69,8.25,8.25,8.25
		C82.3,114.25,86,110.56,86,106z"/>
	<path class="st3" d="M86,147.25c0-4.56-3.69-8.25-8.25-8.25c-4.56,0-8.25,3.69-8.25,8.25c0,4.56,3.69,8.25,8.25,8.25
		C82.3,155.5,86,151.81,86,147.25z"/>
	
		<rect x="169.75" y="97.25" transform="matrix(0.7071 -0.7071 0.7071 0.7071 -22.5695 157.0155)" class="st4" width="17" height="17"/>
</g>
</svg>
