<?xml version="1.0" encoding="utf-8"?>
<!-- Generator: Adobe Illustrator 25.0.0, SVG Export Plug-In . SVG Version: 6.00 Build 0)  -->
<svg version="1.1" id="Layer_1" xmlns="http://www.w3.org/2000/svg" xmlns:xlink="http://www.w3.org/1999/xlink" x="0px" y="0px"
	 viewBox="0 0 228 228" style="enable-background:new 0 0 228 228;" xml:space="preserve">
<style type="text/css">
	.st0{fill:#EDF3FC;}
	.st1{fill:#2C79E6;}
	.st2{fill:#00C3FF;}
	.st3{fill:#0160E7;}
	.st4{fill:#4592EC;}
	.st5{fill:#FFFFFF;}
</style>
<g>
	<path class="st0" d="M119,188.75c-38.47,12.17-49.3-8.25-62.69-24.49c-47.17-49.02-36.56-58.39-26-91.78
		C38.3,47.23,58,41.27,97.43,53.22c39.43,11.95,41.4-22.12,71.77-1.68c30.37,20.43,25.9,26.64,24.65,62.03
		c-1.25,35.39,26.29,51.58,4.43,69.6C179.16,198.93,137.82,182.8,119,188.75z"/>
	<path class="st2" d="M165.04,121.02c19.09-20.41,18.11-52.5-2.19-71.7c-20.3-19.19-52.23-18.21-71.32,2.2
		c-8.57,9.16-13.44,21.18-13.69,33.75l-9.74,24.48c-0.97,2.45,0.08,5.24,2.43,6.42l7.3,3.67v22.23c0,2.8,2.26,5.07,5.05,5.07h27.16
		l3.65,7.34c0.85,1.72,2.6,2.8,4.51,2.8h50.46c2.79,0,5.04-2.27,5.04-5.07c0-0.47-0.07-0.94-0.19-1.4L165.04,121.02z"/>
	<path class="st5" d="M143.83,55.84h10.15v30.43h-10.15V55.84z"/>
	<path class="st5" d="M103.25,91.34h10.14v30.43h-10.15L103.25,91.34L103.25,91.34z"/>
	<path class="st3" d="M118.47,86.27c-8.4,0-15.22-6.81-15.22-15.22c0-8.4,6.81-15.22,15.22-15.22s15.22,6.81,15.22,15.22
		C133.67,79.46,126.87,86.26,118.47,86.27z M118.47,65.99c-2.8,0-5.07,2.27-5.07,5.07c0,2.8,2.27,5.07,5.07,5.07
		s5.07-2.27,5.07-5.07C123.54,68.26,121.26,65.99,118.47,65.99z"/>
	<path class="st4" d="M138.75,121.78c-8.4,0-15.22-6.81-15.22-15.22s6.81-15.22,15.22-15.22c8.4,0,15.22,6.81,15.22,15.22
		C153.96,114.96,147.15,121.77,138.75,121.78z M138.75,101.49c-2.8,0-5.07,2.27-5.07,5.07c0,2.8,2.27,5.07,5.07,5.07
		c2.8,0,5.07-2.27,5.07-5.07C143.82,103.76,141.56,101.49,138.75,101.49z"/>
</g>
</svg>
