<svg width="869" height="802" viewBox="0 0 869 802" fill="none" xmlns="http://www.w3.org/2000/svg">
<path d="M233.564 303.024C379.879 246.214 344.897 137.751 416.109 124.674C503.269 108.669 529.814 210.737 698.355 288.82C763.565 319.03 684.688 435.644 609.708 453.199C528.059 472.315 546.575 630 446.928 630C391.714 630 367.695 598.202 295.934 529.392C242.717 478.364 172.666 496.811 151.701 435.644C130.735 374.478 177.617 324.747 233.564 303.024Z" fill="url(#paint0_linear)"/>
<path d="M126.123 232C240.6 133 286.487 23.374 396.148 3.53966C530.369 -20.7368 571.247 134.076 830.788 252.509C931.207 298.332 809.741 475.208 694.278 501.834C568.544 530.829 574.543 701.811 445.6 785C414.6 805 269.681 830 126.123 705C41.1108 630.978 12.6184 551 2.12329 461C-8.37181 371 56.3552 292.336 126.123 232Z" stroke="#EEF2F4"/>
<defs>
<linearGradient id="paint0_linear" x1="678.46" y1="389.382" x2="157.746" y2="342.725" gradientUnits="userSpaceOnUse">
<stop stop-color="#EDF3FC"/>
<stop offset="1" stop-color="#EDF3FC" stop-opacity="0"/>
</linearGradient>
</defs>
</svg>
