<svg width="234" height="75" viewBox="0 0 234 75" fill="none" xmlns="http://www.w3.org/2000/svg">
<path d="M69.1832 39.091C69.7259 39.091 70.1989 39.025 70.6022 38.893C71.0055 38.7537 71.3392 38.5593 71.6032 38.31C71.8745 38.0533 72.0762 37.7453 72.2082 37.386C72.3402 37.0193 72.4062 36.6123 72.4062 36.165C72.4062 35.7397 72.3402 35.3547 72.2082 35.01C72.0762 34.6653 71.8782 34.372 71.6142 34.13C71.3502 33.888 71.0165 33.7047 70.6132 33.58C70.2099 33.448 69.7332 33.382 69.1832 33.382H66.9722V39.091H69.1832ZM69.1832 31.094C70.2465 31.094 71.1669 31.2187 71.9442 31.468C72.7215 31.7173 73.3632 32.0657 73.8692 32.513C74.3752 32.9603 74.7492 33.4957 74.9912 34.119C75.2405 34.7423 75.3652 35.4243 75.3652 36.165C75.3652 36.935 75.2369 37.6427 74.9802 38.288C74.7235 38.926 74.3385 39.476 73.8252 39.938C73.3119 40.4 72.6665 40.7593 71.8892 41.016C71.1192 41.2727 70.2172 41.401 69.1832 41.401H66.9722V47H64.0132V31.094H69.1832ZM84.9211 40.994L82.9851 35.703C82.8898 35.4683 82.7908 35.1897 82.6881 34.867C82.5854 34.5443 82.4828 34.196 82.3801 33.822C82.2848 34.196 82.1858 34.548 82.0831 34.878C81.9804 35.2007 81.8814 35.483 81.7861 35.725L79.8611 40.994H84.9211ZM90.1461 47H87.8581C87.6014 47 87.3924 46.9377 87.2311 46.813C87.0698 46.681 86.9488 46.5197 86.8681 46.329L85.6801 43.084H79.0911L77.9031 46.329C77.8444 46.4977 77.7308 46.6517 77.5621 46.791C77.3934 46.9303 77.1844 47 76.9351 47H74.6251L80.8841 31.094H83.8981L90.1461 47ZM96.5995 38.662C97.1568 38.662 97.6408 38.5923 98.0515 38.453C98.4695 38.3137 98.8105 38.123 99.0745 37.881C99.3458 37.6317 99.5475 37.3383 99.6795 37.001C99.8115 36.6637 99.8775 36.2933 99.8775 35.89C99.8775 35.0833 99.6098 34.4637 99.0745 34.031C98.5465 33.5983 97.7362 33.382 96.6435 33.382H94.7515V38.662H96.5995ZM104.212 47H101.539C101.033 47 100.666 46.802 100.438 46.406L97.0945 41.313C96.9698 41.1223 96.8305 40.9867 96.6765 40.906C96.5298 40.8253 96.3098 40.785 96.0165 40.785H94.7515V47H91.7925V31.094H96.6435C97.7215 31.094 98.6455 31.2077 99.4155 31.435C100.193 31.655 100.827 31.9667 101.319 32.37C101.817 32.7733 102.184 33.2573 102.419 33.822C102.653 34.3793 102.771 34.9953 102.771 35.67C102.771 36.2053 102.69 36.7113 102.529 37.188C102.375 37.6647 102.147 38.0973 101.847 38.486C101.553 38.8747 101.187 39.2157 100.746 39.509C100.314 39.8023 99.8188 40.0333 99.2615 40.202C99.4522 40.312 99.6282 40.444 99.7895 40.598C99.9508 40.7447 100.097 40.9207 100.229 41.126L104.212 47ZM116.631 33.525H111.835V47H108.876V33.525H104.08V31.094H116.631V33.525ZM132.121 31.094V47H130.603C130.369 47 130.171 46.9633 130.009 46.89C129.855 46.8093 129.705 46.6773 129.558 46.494L121.253 35.89C121.297 36.374 121.319 36.8213 121.319 37.232V47H118.712V31.094H120.263C120.388 31.094 120.494 31.1013 120.582 31.116C120.678 31.1233 120.758 31.1453 120.824 31.182C120.898 31.2113 120.967 31.259 121.033 31.325C121.099 31.3837 121.173 31.4643 121.253 31.567L129.591 42.215C129.569 41.9583 129.551 41.7053 129.536 41.456C129.522 41.2067 129.514 40.9757 129.514 40.763V31.094H132.121ZM138.634 33.448V37.859H144.2V40.136H138.634V44.635H145.696V47H135.664V31.094H145.696V33.448H138.634ZM153.125 38.662C153.682 38.662 154.166 38.5923 154.577 38.453C154.995 38.3137 155.336 38.123 155.6 37.881C155.871 37.6317 156.073 37.3383 156.205 37.001C156.337 36.6637 156.403 36.2933 156.403 35.89C156.403 35.0833 156.135 34.4637 155.6 34.031C155.072 33.5983 154.262 33.382 153.169 33.382H151.277V38.662H153.125ZM160.737 47H158.064C157.558 47 157.191 46.802 156.964 46.406L153.62 41.313C153.495 41.1223 153.356 40.9867 153.202 40.906C153.055 40.8253 152.835 40.785 152.542 40.785H151.277V47H148.318V31.094H153.169C154.247 31.094 155.171 31.2077 155.941 31.435C156.718 31.655 157.353 31.9667 157.844 32.37C158.343 32.7733 158.709 33.2573 158.944 33.822C159.179 34.3793 159.296 34.9953 159.296 35.67C159.296 36.2053 159.215 36.7113 159.054 37.188C158.9 37.6647 158.673 38.0973 158.372 38.486C158.079 38.8747 157.712 39.2157 157.272 39.509C156.839 39.8023 156.344 40.0333 155.787 40.202C155.978 40.312 156.154 40.444 156.315 40.598C156.476 40.7447 156.623 40.9207 156.755 41.126L160.737 47ZM170.925 33.987C170.837 34.141 170.741 34.2547 170.639 34.328C170.543 34.394 170.422 34.427 170.276 34.427C170.122 34.427 169.953 34.372 169.77 34.262C169.594 34.1447 169.381 34.0163 169.132 33.877C168.882 33.7377 168.589 33.613 168.252 33.503C167.922 33.3857 167.529 33.327 167.075 33.327C166.664 33.327 166.305 33.3783 165.997 33.481C165.689 33.5763 165.428 33.712 165.216 33.888C165.01 34.064 164.856 34.2767 164.754 34.526C164.651 34.768 164.6 35.0357 164.6 35.329C164.6 35.703 164.702 36.0147 164.908 36.264C165.12 36.5133 165.399 36.726 165.744 36.902C166.088 37.078 166.481 37.2357 166.921 37.375C167.361 37.5143 167.812 37.6647 168.274 37.826C168.736 37.98 169.187 38.1633 169.627 38.376C170.067 38.5813 170.459 38.8453 170.804 39.168C171.148 39.4833 171.423 39.872 171.629 40.334C171.841 40.796 171.948 41.357 171.948 42.017C171.948 42.7357 171.823 43.4103 171.574 44.041C171.332 44.6643 170.972 45.2107 170.496 45.68C170.026 46.142 169.451 46.5087 168.769 46.78C168.087 47.044 167.306 47.176 166.426 47.176C165.92 47.176 165.421 47.1247 164.93 47.022C164.438 46.9267 163.965 46.7873 163.511 46.604C163.063 46.4207 162.642 46.2007 162.246 45.944C161.85 45.6873 161.498 45.4013 161.19 45.086L162.059 43.667C162.132 43.5643 162.227 43.48 162.345 43.414C162.462 43.3407 162.587 43.304 162.719 43.304C162.902 43.304 163.1 43.381 163.313 43.535C163.525 43.6817 163.778 43.8467 164.072 44.03C164.365 44.2133 164.706 44.382 165.095 44.536C165.491 44.6827 165.964 44.756 166.514 44.756C167.357 44.756 168.01 44.558 168.472 44.162C168.934 43.7587 169.165 43.183 169.165 42.435C169.165 42.017 169.058 41.676 168.846 41.412C168.64 41.148 168.365 40.928 168.021 40.752C167.676 40.5687 167.284 40.4147 166.844 40.29C166.404 40.1653 165.956 40.0297 165.502 39.883C165.047 39.7363 164.6 39.5603 164.16 39.355C163.72 39.1497 163.327 38.882 162.983 38.552C162.638 38.222 162.359 37.8113 162.147 37.32C161.941 36.8213 161.839 36.209 161.839 35.483C161.839 34.9037 161.952 34.339 162.18 33.789C162.414 33.239 162.752 32.7513 163.192 32.326C163.632 31.9007 164.174 31.5597 164.82 31.303C165.465 31.0463 166.206 30.918 167.042 30.918C167.98 30.918 168.846 31.0647 169.638 31.358C170.43 31.6513 171.104 32.062 171.662 32.59L170.925 33.987Z" fill="#437FEC"/>
<rect x="1" y="1" width="231.779" height="73" stroke="#437FEC" stroke-width="2"/>
</svg>
