<svg width="348" height="332" viewBox="0 0 348 332" fill="none" xmlns="http://www.w3.org/2000/svg">
<path d="M161.196 331.064C151.019 329.802 141.029 327.557 131.649 323.441C93.941 307.12 70.7723 278.872 62.4709 238.699C61.8612 235.753 61.4391 232.713 61.1577 229.72C60.7356 225.137 63.2213 223.36 67.4893 225.137C74.3836 227.943 81.4186 230.188 88.6882 231.684C116.781 237.483 143.515 233.648 169.075 220.787C169.826 220.413 170.623 220.039 171.326 219.571C173.249 218.309 175.032 218.543 177.001 219.618C187.882 225.558 199.42 229.72 211.614 232.058C235.298 236.641 258.28 234.21 280.604 225.184C285.107 223.36 287.498 224.996 287.029 229.813C285.576 244.779 281.355 258.949 273.991 272.091C257.435 301.835 232.531 321.945 199.373 330.082C186.897 332.654 170.998 332.28 161.196 331.064Z" fill="#7572EB"/>
<path d="M0 113.363C1.68841 69.5889 20.683 35.7295 59.3757 14.3569C91.9245 -3.64844 125.833 -4.39671 160.071 10.2882C164.479 12.1589 164.854 15.152 161.056 18.1451C136.105 37.7873 120.909 63.2286 115.468 94.469C114.624 99.4263 113.921 104.477 114.015 109.528C114.061 112.615 112.936 114.439 110.309 116.122C83.4356 133.239 65.848 157.184 57.359 187.816C55.9989 192.774 55.0609 197.824 54.4043 202.875C53.8884 206.944 50.9337 208.347 47.6507 205.962C23.028 188.237 7.97305 164.433 2.06361 134.829C1.45391 131.883 1.12561 128.843 0.703504 125.85C0.0938006 121.734 0.187601 117.619 0 113.363Z" fill="#4CD9ED"/>
<path d="M234.549 0.234375C290.595 0.234375 339.043 41.1556 346.735 96.6215C352.925 141.144 337.308 177.529 301.663 205.215C300.679 205.963 299.694 206.805 298.427 207.039C296.082 207.46 294.159 205.823 293.831 202.923C292.705 193.149 290.22 183.655 286.562 174.536C276.572 149.515 260.157 129.826 237.222 115.609C235.206 114.346 234.362 112.803 234.268 110.511C232.626 72.5364 216.774 41.7168 187.039 18.0059C183.522 15.1999 183.803 12.16 187.837 10.3828C202.657 3.69514 218.228 0.327909 234.549 0.234375Z" fill="#437FEC"/>
<path d="M234.596 227.943C217.852 227.616 201.812 224.295 186.617 217.234C182.396 215.269 182.161 212.136 185.866 209.283C210.208 190.576 225.356 166.164 231.407 136.093C231.969 133.333 232.345 130.574 232.72 127.815C233.236 123.98 236.19 122.53 239.38 124.775C251.245 133.006 261.141 143.108 269.067 155.127C280.417 172.29 286.89 191.091 288.109 211.668C288.25 213.726 287.687 214.848 285.717 215.784C271.694 222.612 256.92 226.681 241.302 227.522C239.098 227.663 236.847 227.803 234.596 227.943Z" fill="#ACAAEF"/>
<path d="M120.862 103.309C121.66 91.8976 124.661 80.5799 129.164 69.6832C134.979 55.7466 143.327 43.4468 154.021 32.7371C159.274 27.4992 164.995 22.8693 171.186 18.707C173.203 17.3507 174.985 17.3975 177.002 18.7538C191.682 28.5749 203.454 41.1085 212.318 56.3546C219.681 68.9817 224.418 82.5442 226.622 96.9952C226.951 99.1465 226.998 101.345 227.373 103.449C227.701 105.32 227.373 106.863 225.872 108.032C224.371 109.201 222.823 108.827 221.229 108.126C213.584 104.759 205.611 102.327 197.403 100.737C178.503 97.1355 159.789 97.6967 141.264 103.075C136.48 104.478 131.743 105.974 127.147 107.985C122.973 109.903 120.768 108.313 120.862 103.309Z" fill="#99E5F2"/>
<path d="M106.697 227.007C96.004 226.96 79.4482 223.266 63.8305 215.549C60.9695 214.146 60.6412 213.024 60.8757 209.75C61.4854 201.192 63.1739 192.867 65.7065 184.683C69.8337 171.401 76.2121 159.288 84.7949 148.345C91.0795 140.348 98.3022 133.333 106.463 127.253C107.26 126.645 108.104 125.99 108.995 125.569C111.763 124.166 114.483 125.616 114.858 128.656C117.625 150.824 126.114 170.7 139.809 188.331C146.094 196.375 153.363 203.53 161.571 209.657C164.478 211.808 164.15 215.222 160.961 216.672C145.859 223.64 130.007 227.054 106.697 227.007Z" fill="#97D2EB"/>
</svg>
