<svg width="40" height="40" viewBox="0 0 40 40" fill="none" xmlns="http://www.w3.org/2000/svg">
<g clip-path="url(#clip0)">
<path d="M26.6654 10.0003H23.332V5.00027H16.6654V10.0003H13.332V3.33363C13.332 2.41316 14.0782 1.66699 14.9987 1.66699H24.9987C25.9191 1.66699 26.6653 2.41316 26.6653 3.33363V10.0003H26.6654Z" fill="#3B70E8"/>
<path d="M1.66664 8.33301H38.3333C39.2537 8.33301 39.9999 9.07918 39.9999 9.99965V36.6663C39.9999 37.5868 39.2537 38.3329 38.3333 38.3329H1.66664C0.746172 38.333 0 37.5868 0 36.6663V9.99965C0 9.07918 0.746172 8.33301 1.66664 8.33301Z" fill="#60E4FF"/>
<path d="M0.5 8.83301C0.807734 8.51895 1.22703 8.33926 1.66664 8.33301C1.22703 8.33926 0.807734 8.51895 0.5 8.83301Z" fill="#34CDFA"/>
<path d="M0 9.99965C0.00625 9.56004 0.185938 9.14066 0.5 8.83301C0.185938 9.14066 0.00625 9.56004 0 9.99965Z" fill="#34CDFA"/>
<path d="M3.33336 33.3334V15H0V36.6666C0 37.5871 0.746172 38.3333 1.66664 38.3333H38.3333C39.2538 38.3333 39.9999 37.5871 39.9999 36.6666V35H5C4.07953 35 3.33336 34.2538 3.33336 33.3334Z" fill="#3B70E8"/>
<path d="M3.33336 8.33301H1.66664C0.746172 8.33301 0 9.07918 0 9.99965V14.9996H3.33336V8.33301Z" fill="#3B2E85"/>
<path d="M6.66539 14.9996C7.58586 14.9996 8.33203 14.2535 8.33203 13.333V8.33301H3.33203V14.9996H6.66539Z" fill="#3B70E8"/>
<path d="M38.3346 8.33301H31.668V13.333C31.668 14.2535 32.4141 14.9996 33.3346 14.9996H40.0012V9.99965C40.0012 9.07918 39.2551 8.33301 38.3346 8.33301Z" fill="#3B70E8"/>
</g>
<defs>
<clipPath id="clip0">
<rect width="40" height="40" fill="white"/>
</clipPath>
</defs>
</svg>
