<svg width="40" height="40" viewBox="0 0 40 40" fill="none" xmlns="http://www.w3.org/2000/svg">
<g clip-path="url(#clip0)">
<path d="M1.66542 20C1.66542 19.485 1.68792 18.9752 1.72979 18.471L0.0131264 18.1683L0.591877 14.8856L2.3075 15.1875C2.57568 14.2023 2.92636 13.2415 3.35583 12.3152L1.84479 11.4427L3.51146 8.55604L5.02646 9.43104C5.61613 8.59859 6.27365 7.81634 6.99229 7.09229L5.86625 5.75042L8.41958 3.60771L9.54459 4.94833C10.3819 4.36515 11.2665 3.85282 12.189 3.41667L11.5921 1.77708L14.7246 0.636042L15.3202 2.2725C16.3076 2.01197 17.3151 1.83489 18.3321 1.74312V0H21.6654V1.74312C22.6825 1.83489 23.6901 2.01197 24.6775 2.2725L25.2729 0.63625L28.4054 1.77604L27.8085 3.41667C28.7311 3.85279 29.6156 4.36512 30.4529 4.94833L31.5779 3.60771L34.1313 5.75L33.0052 7.09188C33.7239 7.81612 34.3814 8.59858 34.971 9.43125L36.486 8.55625L38.1527 11.4429L36.6417 12.3154C37.0711 13.2416 37.4218 14.2024 37.69 15.1875L39.4054 14.8856L39.9844 18.1683L38.2677 18.471C38.3096 18.9752 38.3321 19.485 38.3321 20C38.3321 20.515 38.3096 21.0248 38.2677 21.529L39.9844 21.8317L39.4054 25.1144L37.69 24.8119C37.4218 25.797 37.0711 26.7579 36.6417 27.6842L38.1527 28.5567L36.486 31.4433L34.971 30.5683C34.3814 31.4008 33.7239 32.183 33.0052 32.9071L34.1313 34.25L31.5777 36.3929L30.4527 35.0523C29.6154 35.6353 28.731 36.1474 27.8085 36.5833L28.4054 38.2231L25.2729 39.3629L24.6775 37.7267C23.6901 37.9875 22.6825 38.1648 21.6654 38.2569V40H18.3321V38.2569C17.3151 38.1651 16.3076 37.988 15.3202 37.7275L14.7246 39.364L11.5921 38.2237L12.189 36.5842C11.2664 36.1477 10.3819 35.6351 9.54459 35.0517L8.41958 36.3923L5.86625 34.25L6.99229 32.9081C6.27365 32.1841 5.61613 31.4018 5.02646 30.5694L3.51146 31.4444L1.84479 28.5577L3.35583 27.6852C2.92636 26.7589 2.57568 25.7981 2.3075 24.8129L0.591877 25.1154L0.0131264 21.8327L1.72979 21.53C1.68792 21.0248 1.66542 20.515 1.66542 20ZM19.9988 30C21.9766 30 23.91 29.4135 25.5545 28.3147C27.1989 27.2159 28.4807 25.6541 29.2375 23.8268C29.9944 21.9996 30.1925 19.9889 29.8066 18.0491C29.4208 16.1093 28.4683 14.3275 27.0698 12.9289C25.6713 11.5304 23.8895 10.578 21.9497 10.1921C20.0098 9.80629 17.9992 10.0043 16.1719 10.7612C14.3447 11.5181 12.7829 12.7998 11.6841 14.4443C10.5852 16.0888 9.99875 18.0222 9.99875 20C10.0017 22.6513 11.0562 25.1931 12.9309 27.0678C14.8056 28.9426 17.3475 29.9971 19.9988 30Z" fill="#3B70E8"/>
</g>
<defs>
<clipPath id="clip0">
<rect width="40" height="40" fill="white" transform="matrix(-1 0 0 1 40 0)"/>
</clipPath>
</defs>
</svg>
