<?xml version="1.0" encoding="utf-8"?>
<!-- Generator: Adobe Illustrator 25.0.0, SVG Export Plug-In . SVG Version: 6.00 Build 0)  -->
<svg version="1.1" id="Layer_1" xmlns="http://www.w3.org/2000/svg" xmlns:xlink="http://www.w3.org/1999/xlink" x="0px" y="0px"
	 viewBox="0 0 46 46" style="enable-background:new 0 0 46 46;" xml:space="preserve">
<style type="text/css">
	.st0{fill:#3B2E85;}
	.st1{fill:#3B70E8;}
	.st2{fill:#60E4FF;}
</style>
<g>
	<path class="st0" d="M22.9,17.9l-5.3,5l5.3,5l5.3-5L22.9,17.9z"/>
	<path class="st1" d="M5.5,18l-5.3,5l5.3,5l5.3-5L5.5,18z"/>
	<path class="st2" d="M40.5,18l-5.3,5l5.3,5l5.3-5L40.5,18z"/>
	<path class="st1" d="M14.2,9.7l-5.3,5l5.3,5l5.3-5L14.2,9.7z"/>
	<path class="st1" d="M14.2,26.2l-5.3,5l5.3,5l5.3-5L14.2,26.2z"/>
	<path class="st2" d="M34.9,6.7l5.3,5l5.3-5l-5.3-5L34.9,6.7z"/>
	<path class="st2" d="M26.2,14.8l5.3,5l5.3-5l-5.3-5L26.2,14.8z"/>
	<path class="st2" d="M26.4,31.2l5.3,5l5.3-5l-5.3-5L26.4,31.2z"/>
	<path class="st2" d="M35,39.4l5.3,5l5.3-5l-5.3-5L35,39.4z"/>
	<path class="st2" d="M0.2,6.6l5.3,5l5.3-5l-5.3-5L0.2,6.6z"/>
	<path class="st2" d="M0.1,39.4l5.3,5l5.3-5l-5.3-5L0.1,39.4z"/>
</g>
</svg>
