<?xml version="1.0" encoding="utf-8"?>
<!-- Generator: Adobe Illustrator 25.0.0, SVG Export Plug-In . SVG Version: 6.00 Build 0)  -->
<svg version="1.1" id="Layer_1" xmlns="http://www.w3.org/2000/svg" xmlns:xlink="http://www.w3.org/1999/xlink" x="0px" y="0px"
	 viewBox="0 0 46 46" style="enable-background:new 0 0 46 46;" xml:space="preserve">
<style type="text/css">
	.st0{fill:#3B2E85;}
	.st1{fill:#3B70E8;}
	.st2{fill:#60E4FF;}
	.st3{clip-path:url(#SVGID_2_);}
	.st4{fill:#437FEC;}
	.st5{fill-rule:evenodd;clip-rule:evenodd;fill:#3B70E8;}
	.st6{fill-rule:evenodd;clip-rule:evenodd;fill:#FFFFFF;}
	.st7{fill:#FFFFFF;}
</style>
<g>
	<path class="st5" d="M38,14.3c0.5,1,1.6,1.5,2.7,1.5l0,0c0.1,0.3,0.3,0.7,0.4,1c3.4,10-2,20.9-12,24.2c-7.3,2.5-15.4,0.3-20.5-5.5
		c-0.5,0.7-1.3,1.3-2.2,1.5c7.8,9.1,21.5,10.2,30.7,2.4c6.8-5.8,9.4-15.3,6.4-23.8c-0.1-0.4-0.3-0.7-0.4-1.1l0,0
		c1-1.3,0.8-3.2-0.5-4.3c-1.3-1-3.2-0.8-4.3,0.5C37.5,11.9,37.5,13.2,38,14.3L38,14.3z"/>
	<path class="st5" d="M7.9,31.7c0.8,1.5,0.3,3.3-1.1,4.2c-1.5,0.8-3.3,0.3-4.2-1.1c-0.6-1.1-0.5-2.4,0.2-3.4l0,0
		c-0.1-0.3-0.3-0.7-0.4-1.1c-4-11.3,2-23.8,13.3-27.8c8.5-3,17.9-0.4,23.7,6.4c-0.9,0.3-1.6,0.8-2.2,1.5c-7-7.9-19-8.7-27-1.8
		c-5.8,5.1-8,13.2-5.5,20.5c0.1,0.3,0.2,0.7,0.4,1l0,0C6.4,30.1,7.4,30.7,7.9,31.7z"/>
	<path class="st6" d="M5.3,31.7c0.9,0,1.6,0.7,1.6,1.6c0,0.9-0.7,1.6-1.6,1.6s-1.6-0.7-1.6-1.6l0,0C3.7,32.4,4.5,31.7,5.3,31.7z"/>
	<path class="st6" d="M40.7,14.3c-0.9,0-1.6-0.7-1.6-1.6c0-0.9,0.7-1.6,1.6-1.6c0.9,0,1.6,0.7,1.6,1.6l0,0
		C42.3,13.6,41.6,14.3,40.7,14.3z"/>
	<path class="st2" d="M5.3,36.6c-1.9,0-3.4-1.5-3.4-3.4s1.5-3.4,3.4-3.4s3.4,1.5,3.4,3.4S7.2,36.6,5.3,36.6z M5.3,31.6
		c-0.9,0-1.6,0.7-1.6,1.6s0.7,1.6,1.6,1.6s1.6-0.7,1.6-1.6S6.2,31.6,5.3,31.6z"/>
	<path class="st2" d="M40.7,16.1c-1.9,0-3.4-1.5-3.4-3.4s1.5-3.4,3.4-3.4s3.4,1.5,3.4,3.4S42.6,16.1,40.7,16.1z M40.7,11.2
		c-0.9,0-1.6,0.7-1.6,1.6s0.7,1.6,1.6,1.6c0.9,0,1.6-0.7,1.6-1.6C42.3,11.9,41.6,11.2,40.7,11.2z"/>
	<path class="st1" d="M33.2,22.4l0.1-11L22.9,9.8l-10.2,1.6v11.4c0,4.5,2.3,8.7,6.1,11.1l4.3,2.7l4.2-2.7c3.8-2.4,6-6.6,6-11.1l0,0
		V22.4z"/>
	<path class="st0" d="M23.8,17.3h-2.5c-0.4,0-0.7-0.3-0.7-0.7s0.3-0.7,0.7-0.7h2.5c0.4,0,0.7,0.3,0.7,0.7S24.2,17.3,23.8,17.3z"/>
	<path class="st2" d="M23.1,19.8h-4.8c-0.4,0-0.7-0.3-0.7-0.7c0-0.4,0.3-0.7,0.7-0.7h4.8c0.4,0,0.7,0.3,0.7,0.7
		C23.8,19.5,23.5,19.8,23.1,19.8z"/>
	<path class="st7" d="M26.5,19.8h-0.8c-0.4,0-0.7-0.3-0.7-0.7c0-0.4,0.3-0.7,0.7-0.7h0.8c0.4,0,0.7,0.3,0.7,0.7
		C27.2,19.5,26.9,19.8,26.5,19.8z"/>
	<path class="st7" d="M17,22.7h-0.7c-0.4,0-0.7-0.3-0.7-0.7c0-0.4,0.3-0.7,0.7-0.7H17c0.4,0,0.7,0.3,0.7,0.7
		C17.7,22.4,17.4,22.7,17,22.7z"/>
	<path class="st2" d="M19.3,25.6h-1.4c-0.4,0-0.7-0.3-0.7-0.7c0-0.4,0.3-0.7,0.7-0.7h1.4c0.4,0,0.7,0.3,0.7,0.7
		C20,25.3,19.7,25.6,19.3,25.6z"/>
	<path class="st0" d="M23.8,28.6h-2.5c-0.4,0-0.7-0.3-0.7-0.7s0.3-0.7,0.7-0.7h2.5c0.4,0,0.7,0.3,0.7,0.7S24.2,28.6,23.8,28.6z"/>
	<path class="st0" d="M22.7,22.7h-2.9c-0.4,0-0.7-0.3-0.7-0.7c0-0.4,0.3-0.7,0.7-0.7h2.9c0.4,0,0.7,0.3,0.7,0.7
		C23.4,22.4,23.1,22.7,22.7,22.7z"/>
	<path class="st2" d="M29.7,22.7h-2.8c-0.4,0-0.7-0.3-0.7-0.7c0-0.4,0.3-0.7,0.7-0.7h2.8c0.4,0,0.7,0.3,0.7,0.7
		C30.4,22.4,30.1,22.7,29.7,22.7z"/>
	<path class="st7" d="M27.9,25.6h-5.7c-0.4,0-0.7-0.3-0.7-0.7c0-0.4,0.3-0.7,0.7-0.7h5.7c0.4,0,0.7,0.3,0.7,0.7
		C28.7,25.3,28.3,25.6,27.9,25.6z"/>
</g>
</svg>
