<svg width="1024" height="620" viewBox="0 0 1024 620" fill="none" xmlns="http://www.w3.org/2000/svg">
<path d="M976.909 130.289C927.21 142.924 892.127 107.686 855.533 81.9794C804.761 46.3083 760.458 -5.24135 690.341 0.431084C634.065 4.98274 591.3 47.4351 570.742 93.4792C556.698 124.935 544.207 159.113 512.249 178.3C476.799 199.586 434.994 205.81 396.821 221.084C362.147 234.956 336.762 260.934 314.379 287.591C278.06 330.842 218.928 328.869 169.345 348.607C124.187 366.585 72.2308 412.277 82.5128 463.385C87.232 486.841 108.92 522.28 97.2875 546.29C87.0859 567.343 49.5381 584.334 29.442 595.565C17.2938 602.356 6.96401 610.153 0 619.999H1019.06C1037.81 619.999 1053 605.712 1053 588.087V96.6031C1024.82 106.124 995.147 125.651 976.909 130.289Z" fill="#F5F8FF"/>
</svg>
