<svg width="240" height="244" viewBox="0 0 240 244" fill="none" xmlns="http://www.w3.org/2000/svg">
<g filter="url(#filter0_d)">
<g filter="url(#filter1_d)">
<circle cx="120" cy="109" r="105" fill="url(#paint0_linear)"/>
</g>
</g>
<path d="M129.712 71.3119H110.288C109.665 71.3119 109.077 71.0445 108.666 70.5819C106.189 67.7878 104.826 64.1972 104.826 60.4721C104.826 52.1056 111.633 45.2959 120 45.2959C128.367 45.2959 135.174 52.1042 135.174 60.4721C135.174 64.1957 133.811 67.7863 131.334 70.5819C130.924 71.0459 130.335 71.3119 129.712 71.3119Z" fill="url(#paint1_linear)"/>
<path d="M120 40.8161C118.802 40.8161 117.832 39.8461 117.832 38.6478V34.1682C117.832 32.9699 118.802 32 120 32C121.198 32 122.168 32.9699 122.168 34.1682V38.6493C122.168 39.8461 121.198 40.8161 120 40.8161Z" fill="url(#paint2_linear)"/>
<path d="M103.142 46.6748L100.077 43.6089C99.2298 42.7618 99.2298 41.3901 100.077 40.543C100.924 39.696 102.295 39.696 103.142 40.543L106.208 43.6089C107.055 44.456 107.055 45.8277 106.208 46.6748C105.361 47.5219 103.988 47.5219 103.142 46.6748Z" fill="url(#paint3_linear)"/>
<path d="M133.794 46.6748C132.947 45.8277 132.947 44.456 133.794 43.6089L136.859 40.543C137.706 39.696 139.078 39.696 139.925 40.543C140.772 41.3901 140.772 42.7618 139.925 43.6089L136.859 46.6748C136.012 47.5219 134.641 47.5219 133.794 46.6748Z" fill="url(#paint4_linear)"/>
<path d="M146.013 62.6402H141.677C140.479 62.6402 139.509 61.6703 139.509 60.472C139.509 59.2736 140.479 58.3037 141.677 58.3037H146.013C147.211 58.3037 148.181 59.2736 148.181 60.472C148.181 61.6703 147.211 62.6402 146.013 62.6402Z" fill="url(#paint5_linear)"/>
<path d="M98.3238 62.6402H93.9879C92.7897 62.6402 91.8199 61.6703 91.8199 60.472C91.8199 59.2736 92.7897 58.3037 93.9879 58.3037H98.3238C99.5219 58.3037 100.492 59.2736 100.492 60.472C100.492 61.6703 99.5219 62.6402 98.3238 62.6402Z" fill="url(#paint6_linear)"/>
<path d="M153.31 88.6561L143.989 86.4878L152.226 84.3196L148.28 68.623C148.02 67.6689 147.153 66.9751 146.156 66.9751H132.745L131.119 71.3116L128.365 66.9751H111.633L108.923 71.3116L107.254 66.9751H93.843C92.8458 66.9751 91.9786 67.6689 91.7185 68.623L87.8162 84.3196L96.0095 86.4878L86.7322 88.6561L83.0481 103.312C82.918 103.962 83.0481 104.656 83.4817 105.177C83.8719 105.697 84.5223 106.001 85.1727 106.001H102.354L105.064 101.664L106.734 106.001H133.266L134.892 101.664L137.646 106.001H154.827C155.478 106.001 156.128 105.697 156.518 105.177C156.952 104.656 157.082 103.962 156.952 103.312L153.31 88.6561Z" fill="url(#paint7_linear)"/>
<path d="M135.478 88.6561L137.646 105.999H133.267L131.099 88.6561H108.902L106.734 105.999H102.355L104.523 88.6561H86.7339L87.8179 84.3196H105.086L107.254 66.9766H111.633L109.466 84.3196H130.535L128.367 66.9766H132.746L134.914 84.3196H152.227L153.311 88.6561H135.478Z" fill="url(#paint8_linear)"/>
<path d="M154.501 128C156.276 128 157.715 129.427 157.715 131.188V147.391H151.286V131.188C151.286 129.427 152.725 128 154.501 128Z" fill="#0160E7"/>
<path d="M159.857 166.25H164.143V179H159.857V166.25Z" fill="white"/>
<path d="M169.5 128C171.275 128 172.714 129.427 172.714 131.188V147.391H166.286V131.188C166.286 129.427 167.725 128 169.5 128Z" fill="#0160E7"/>
<path d="M174.856 145H149.142C147.959 145 147 145.952 147 147.125V157.75C147.007 163.615 151.799 168.369 157.714 168.376H166.285C172.2 168.369 176.993 163.616 177 157.75V147.125C177 145.952 176.041 145 174.856 145Z" fill="white"/>
<path d="M172.714 164.125H164.143C158.228 164.119 153.436 159.365 153.428 153.5V145H149.142C147.959 145 147 145.952 147 147.125V157.75C147.007 163.615 151.799 168.369 157.714 168.376H166.285C169.767 168.375 173.03 166.694 175.035 163.871C174.273 164.04 173.494 164.124 172.714 164.125Z" fill="#4592EC"/>
<path d="M147 151.375H177V155.626H147V151.375Z" fill="url(#paint9_linear)"/>
<path d="M112.962 133.963V171H88.6393V139.164L92.9556 133.963H98.0098V145.953L107.904 133.963H112.962Z" fill="#00C3FF"/>
<path d="M88.6395 139.164V171H64.3167V149.966L77.4674 133.963H82.5265V146.531L88.6395 139.164Z" fill="white"/>
<path d="M67.3959 156.185H76.0163V159.888H67.3959V156.185Z" fill="#00C3FF"/>
<path d="M79.7106 156.185H87.1V159.888H79.7106V156.185Z" fill="#00C3FF"/>
<path d="M90.7952 156.185H98.1846V159.888H90.7952V156.185Z" fill="#0160E7"/>
<path d="M101.879 156.185H109.268V159.888H101.879V156.185Z" fill="#0160E7"/>
<path d="M64.7469 121H59.5157H53.9905L50 171H59.5157H70.0668L64.7469 121Z" fill="white"/>
<path d="M65.5352 128.408H59.5157H53.399L53.1039 132.112H59.5157H65.9288L65.5352 128.408Z" fill="#186BE8"/>
<defs>
<filter id="filter0_d" x="0" y="4" width="240" height="240" filterUnits="userSpaceOnUse" color-interpolation-filters="sRGB">
<feFlood flood-opacity="0" result="BackgroundImageFix"/>
<feColorMatrix in="SourceAlpha" type="matrix" values="0 0 0 0 0 0 0 0 0 0 0 0 0 0 0 0 0 0 127 0"/>
<feOffset dy="15"/>
<feGaussianBlur stdDeviation="7.5"/>
<feColorMatrix type="matrix" values="0 0 0 0 0.262745 0 0 0 0 0.498039 0 0 0 0 0.92549 0 0 0 0.25 0"/>
<feBlend mode="normal" in2="BackgroundImageFix" result="effect1_dropShadow"/>
<feBlend mode="normal" in="SourceGraphic" in2="effect1_dropShadow" result="shape"/>
</filter>
<filter id="filter1_d" x="7" y="0" width="226" height="226" filterUnits="userSpaceOnUse" color-interpolation-filters="sRGB">
<feFlood flood-opacity="0" result="BackgroundImageFix"/>
<feColorMatrix in="SourceAlpha" type="matrix" values="0 0 0 0 0 0 0 0 0 0 0 0 0 0 0 0 0 0 127 0"/>
<feOffset dy="4"/>
<feGaussianBlur stdDeviation="4"/>
<feColorMatrix type="matrix" values="0 0 0 0 0 0 0 0 0 0 0 0 0 0 0 0 0 0 0.15 0"/>
<feBlend mode="normal" in2="BackgroundImageFix" result="effect1_dropShadow"/>
<feBlend mode="normal" in="SourceGraphic" in2="effect1_dropShadow" result="shape"/>
</filter>
<linearGradient id="paint0_linear" x1="205" y1="46" x2="41" y2="170" gradientUnits="userSpaceOnUse">
<stop stop-color="#4CD9ED"/>
<stop offset="1" stop-color="#437FEC"/>
</linearGradient>
<linearGradient id="paint1_linear" x1="120.001" y1="71.3116" x2="120.001" y2="45.2953" gradientUnits="userSpaceOnUse">
<stop stop-color="white"/>
</linearGradient>
<linearGradient id="paint2_linear" x1="120.001" y1="40.8145" x2="120.001" y2="31.9979" gradientUnits="userSpaceOnUse">
<stop stop-color="white"/>
</linearGradient>
<linearGradient id="paint3_linear" x1="103.142" y1="47.3087" x2="103.142" y2="39.9069" gradientUnits="userSpaceOnUse">
<stop stop-color="white"/>
</linearGradient>
<linearGradient id="paint4_linear" x1="136.86" y1="47.3087" x2="136.86" y2="39.9069" gradientUnits="userSpaceOnUse">
<stop stop-color="white"/>
</linearGradient>
<linearGradient id="paint5_linear" x1="143.846" y1="62.6393" x2="143.846" y2="58.3033" gradientUnits="userSpaceOnUse">
<stop stop-color="white"/>
</linearGradient>
<linearGradient id="paint6_linear" x1="96.1565" y1="62.6393" x2="96.1565" y2="58.3033" gradientUnits="userSpaceOnUse">
<stop stop-color="white"/>
</linearGradient>
<linearGradient id="paint7_linear" x1="120.001" y1="106" x2="120.001" y2="66.9752" gradientUnits="userSpaceOnUse">
<stop stop-color="#0160E7"/>
<stop offset="1" stop-color="#00C3FF"/>
</linearGradient>
<linearGradient id="paint8_linear" x1="120.023" y1="106" x2="120.023" y2="66.9752" gradientUnits="userSpaceOnUse">
<stop stop-color="white"/>
</linearGradient>
<linearGradient id="paint9_linear" x1="153.427" y1="161.998" x2="170.426" y2="144.856" gradientUnits="userSpaceOnUse">
<stop stop-color="#0160E7"/>
<stop offset="1" stop-color="#437FEC"/>
</linearGradient>
</defs>
</svg>
