<svg width="240" height="244" viewBox="0 0 240 244" fill="none" xmlns="http://www.w3.org/2000/svg">
<g filter="url(#filter0_d)">
<g filter="url(#filter1_d)">
<circle cx="120" cy="109" r="105" fill="url(#paint0_linear)"/>
</g>
</g>
<path d="M129.713 71.3116H110.288C109.665 71.3116 109.077 71.0442 108.666 70.5817C106.189 67.7875 104.826 64.1969 104.826 60.4719C104.826 52.1054 111.634 45.2957 120 45.2957C128.367 45.2957 135.175 52.1039 135.175 60.4719C135.175 64.1955 133.812 67.7861 131.334 70.5817C130.924 71.0457 130.336 71.3116 129.713 71.3116Z" fill="url(#paint1_linear)"/>
<path d="M120 40.8161C118.802 40.8161 117.832 39.8461 117.832 38.6478V34.1682C117.832 32.9699 118.802 32 120 32C121.198 32 122.168 32.9699 122.168 34.1682V38.6493C122.168 39.8461 121.198 40.8161 120 40.8161Z" fill="url(#paint2_linear)"/>
<path d="M103.142 46.6747L100.077 43.6088C99.2297 42.7617 99.2297 41.3899 100.077 40.5429C100.924 39.6958 102.295 39.6958 103.142 40.5429L106.208 43.6088C107.055 44.4558 107.055 45.8276 106.208 46.6747C105.361 47.5217 103.988 47.5217 103.142 46.6747Z" fill="url(#paint3_linear)"/>
<path d="M133.793 46.6747C132.946 45.8276 132.946 44.4558 133.793 43.6088L136.859 40.5429C137.706 39.6958 139.077 39.6958 139.924 40.5429C140.771 41.3899 140.771 42.7617 139.924 43.6088L136.859 46.6747C136.012 47.5217 134.64 47.5217 133.793 46.6747Z" fill="url(#paint4_linear)"/>
<path d="M146.014 62.6402H141.678C140.48 62.6402 139.51 61.6703 139.51 60.472C139.51 59.2736 140.48 58.3037 141.678 58.3037H146.014C147.212 58.3037 148.182 59.2736 148.182 60.472C148.182 61.6703 147.212 62.6402 146.014 62.6402Z" fill="url(#paint5_linear)"/>
<path d="M98.3241 62.6402H93.9883C92.7901 62.6402 91.8203 61.6703 91.8203 60.472C91.8203 59.2736 92.7901 58.3037 93.9883 58.3037H98.3241C99.5223 58.3037 100.492 59.2736 100.492 60.472C100.492 61.6703 99.5223 62.6402 98.3241 62.6402Z" fill="url(#paint6_linear)"/>
<path d="M153.31 88.6561L143.989 86.4879L152.226 84.3196L148.28 68.623C148.02 67.669 147.153 66.9752 146.156 66.9752H132.745L131.119 71.3116L128.365 66.9752H111.633L108.923 71.3116L107.254 66.9752H93.843C92.8458 66.9752 91.9786 67.669 91.7185 68.623L87.8162 84.3196L96.0095 86.4879L86.7322 88.6561L83.0481 103.312C82.918 103.962 83.0481 104.656 83.4817 105.177C83.8719 105.697 84.5223 106.001 85.1727 106.001H102.354L105.064 101.664L106.734 106.001H133.266L134.892 101.664L137.646 106.001H154.827C155.478 106.001 156.128 105.697 156.518 105.177C156.952 104.656 157.082 103.962 156.952 103.312L153.31 88.6561Z" fill="url(#paint7_linear)"/>
<path d="M135.478 88.6561L137.646 105.999H133.267L131.099 88.6561H108.902L106.734 105.999H102.355L104.523 88.6561H86.7344L87.8183 84.3196H105.087L107.255 66.9766H111.634L109.466 84.3196H130.536L128.368 66.9766H132.747L134.915 84.3196H152.228L153.312 88.6561H135.478Z" fill="url(#paint8_linear)"/>
<path d="M154.501 128C156.276 128 157.716 129.427 157.716 131.188V147.391H151.287V131.188C151.287 129.427 152.725 128 154.501 128Z" fill="#0160E7"/>
<path d="M159.857 166.25H164.143V179H159.857V166.25Z" fill="white"/>
<path d="M169.499 128C171.274 128 172.714 129.427 172.714 131.188V147.391H166.285V131.188C166.285 129.427 167.725 128 169.499 128Z" fill="#0160E7"/>
<path d="M174.856 145H149.142C147.959 145 147 145.952 147 147.125V157.75C147.007 163.615 151.799 168.369 157.714 168.376H166.285C172.2 168.369 176.993 163.616 177 157.75V147.125C177 145.952 176.041 145 174.856 145Z" fill="white"/>
<path d="M172.714 164.125H164.143C158.228 164.118 153.436 159.365 153.428 153.5V145H149.142C147.959 145 147 145.952 147 147.125V157.75C147.007 163.615 151.799 168.369 157.714 168.376H166.285C169.767 168.375 173.03 166.694 175.035 163.871C174.273 164.04 173.494 164.124 172.714 164.125Z" fill="#4592EC"/>
<path d="M147 151.375H177V155.626H147V151.375Z" fill="url(#paint9_linear)"/>
<path d="M112.962 133.964V171H88.6387V139.164L92.955 133.964H98.0092V145.953L107.904 133.964H112.962Z" fill="#00C3FF"/>
<path d="M88.6393 139.164V171H64.3164V149.966L77.4672 133.964H82.5263V146.531L88.6393 139.164Z" fill="white"/>
<path d="M67.3965 156.185H76.0169V159.888H67.3965V156.185Z" fill="#00C3FF"/>
<path d="M79.7109 156.185H87.1004V159.888H79.7109V156.185Z" fill="#00C3FF"/>
<path d="M90.7949 156.185H98.1844V159.888H90.7949V156.185Z" fill="#0160E7"/>
<path d="M101.879 156.185H109.268V159.888H101.879V156.185Z" fill="#0160E7"/>
<path d="M64.7469 121H59.5157H53.9905L50 171H59.5157H70.0668L64.7469 121Z" fill="white"/>
<path d="M65.5349 128.408H59.5153H53.3987L53.1035 132.112H59.5153H65.9284L65.5349 128.408Z" fill="#186BE8"/>
<defs>
<filter id="filter0_d" x="0" y="4" width="240" height="240" filterUnits="userSpaceOnUse" color-interpolation-filters="sRGB">
<feFlood flood-opacity="0" result="BackgroundImageFix"/>
<feColorMatrix in="SourceAlpha" type="matrix" values="0 0 0 0 0 0 0 0 0 0 0 0 0 0 0 0 0 0 127 0"/>
<feOffset dy="15"/>
<feGaussianBlur stdDeviation="7.5"/>
<feColorMatrix type="matrix" values="0 0 0 0 0.262745 0 0 0 0 0.498039 0 0 0 0 0.92549 0 0 0 0.25 0"/>
<feBlend mode="normal" in2="BackgroundImageFix" result="effect1_dropShadow"/>
<feBlend mode="normal" in="SourceGraphic" in2="effect1_dropShadow" result="shape"/>
</filter>
<filter id="filter1_d" x="7" y="0" width="226" height="226" filterUnits="userSpaceOnUse" color-interpolation-filters="sRGB">
<feFlood flood-opacity="0" result="BackgroundImageFix"/>
<feColorMatrix in="SourceAlpha" type="matrix" values="0 0 0 0 0 0 0 0 0 0 0 0 0 0 0 0 0 0 127 0"/>
<feOffset dy="4"/>
<feGaussianBlur stdDeviation="4"/>
<feColorMatrix type="matrix" values="0 0 0 0 0 0 0 0 0 0 0 0 0 0 0 0 0 0 0.15 0"/>
<feBlend mode="normal" in2="BackgroundImageFix" result="effect1_dropShadow"/>
<feBlend mode="normal" in="SourceGraphic" in2="effect1_dropShadow" result="shape"/>
</filter>
<linearGradient id="paint0_linear" x1="205" y1="46" x2="41" y2="170" gradientUnits="userSpaceOnUse">
<stop stop-color="#4CD9ED"/>
<stop offset="1" stop-color="#437FEC"/>
</linearGradient>
<linearGradient id="paint1_linear" x1="120.001" y1="71.3114" x2="120.001" y2="45.2951" gradientUnits="userSpaceOnUse">
<stop stop-color="white"/>
</linearGradient>
<linearGradient id="paint2_linear" x1="120.001" y1="40.8145" x2="120.001" y2="31.9979" gradientUnits="userSpaceOnUse">
<stop stop-color="white"/>
</linearGradient>
<linearGradient id="paint3_linear" x1="103.142" y1="47.3085" x2="103.142" y2="39.9068" gradientUnits="userSpaceOnUse">
<stop stop-color="white"/>
</linearGradient>
<linearGradient id="paint4_linear" x1="136.86" y1="47.3085" x2="136.86" y2="39.9068" gradientUnits="userSpaceOnUse">
<stop stop-color="white"/>
</linearGradient>
<linearGradient id="paint5_linear" x1="143.847" y1="62.6393" x2="143.847" y2="58.3033" gradientUnits="userSpaceOnUse">
<stop stop-color="white"/>
</linearGradient>
<linearGradient id="paint6_linear" x1="96.1568" y1="62.6393" x2="96.1568" y2="58.3033" gradientUnits="userSpaceOnUse">
<stop stop-color="white"/>
</linearGradient>
<linearGradient id="paint7_linear" x1="120.001" y1="106" x2="120.001" y2="66.9753" gradientUnits="userSpaceOnUse">
<stop stop-color="#0160E7"/>
<stop offset="1" stop-color="#00C3FF"/>
</linearGradient>
<linearGradient id="paint8_linear" x1="120.024" y1="106" x2="120.024" y2="66.9753" gradientUnits="userSpaceOnUse">
<stop stop-color="white"/>
</linearGradient>
<linearGradient id="paint9_linear" x1="153.427" y1="161.998" x2="170.426" y2="144.856" gradientUnits="userSpaceOnUse">
<stop stop-color="#0160E7"/>
<stop offset="1" stop-color="#437FEC"/>
</linearGradient>
</defs>
</svg>
