<svg width="230" height="245" viewBox="0 0 230 245" fill="none" xmlns="http://www.w3.org/2000/svg">
<g filter="url(#filter0_d)">
<g filter="url(#filter1_d)">
<circle cx="115" cy="115" r="100" fill="url(#paint0_linear)"/>
</g>
</g>
<path d="M124.25 79.1067H105.751C105.157 79.1067 104.597 78.852 104.206 78.4115C101.847 75.7504 100.549 72.3308 100.549 68.7832C100.549 60.815 107.032 54.3296 115 54.3296C122.969 54.3296 129.452 60.8137 129.452 68.7832C129.452 72.3294 128.154 75.7491 125.795 78.4115C125.404 78.8534 124.844 79.1067 124.25 79.1067Z" fill="url(#paint1_linear)"/>
<path d="M115 50.0632C113.859 50.0632 112.936 49.1395 112.936 47.9983V43.732C112.936 42.5907 113.859 41.667 115 41.667C116.141 41.667 117.065 42.5907 117.065 43.732V47.9996C117.065 49.1395 116.141 50.0632 115 50.0632Z" fill="url(#paint2_linear)"/>
<path d="M98.9454 55.6426L96.0259 52.7227C95.2192 51.916 95.2192 50.6095 96.0259 49.8028C96.8325 48.9961 98.1387 48.9961 98.9454 49.8028L101.865 52.7227C102.671 53.5294 102.671 54.8359 101.865 55.6426C101.058 56.4493 99.7506 56.4493 98.9454 55.6426Z" fill="url(#paint3_linear)"/>
<path d="M128.138 55.6426C127.332 54.8359 127.332 53.5294 128.138 52.7227L131.058 49.8028C131.864 48.9961 133.171 48.9961 133.977 49.8028C134.784 50.6095 134.784 51.916 133.977 52.7227L131.058 55.6426C130.251 56.4493 128.945 56.4493 128.138 55.6426Z" fill="url(#paint4_linear)"/>
<path d="M139.774 70.8478H135.645C134.504 70.8478 133.58 69.924 133.58 68.7828C133.58 67.6415 134.504 66.7178 135.645 66.7178H139.774C140.915 66.7178 141.839 67.6415 141.839 68.7828C141.839 69.924 140.915 70.8478 139.774 70.8478Z" fill="url(#paint5_linear)"/>
<path d="M94.3562 70.8478H90.2268C89.0857 70.8478 88.1621 69.924 88.1621 68.7828C88.1621 67.6415 89.0857 66.7178 90.2268 66.7178H94.3562C95.4973 66.7178 96.4209 67.6415 96.4209 68.7828C96.4209 69.924 95.4973 70.8478 94.3562 70.8478Z" fill="url(#paint6_linear)"/>
<path d="M146.723 95.6246L137.847 93.5596L145.691 91.4946L141.933 76.5455C141.685 75.6369 140.86 74.9761 139.91 74.9761H127.138L125.589 79.1061L122.967 74.9761H107.031L104.451 79.1061L102.861 74.9761H90.0884C89.1387 74.9761 88.3128 75.6369 88.065 76.5455L84.3485 91.4946L92.1518 93.5596L83.3162 95.6246L79.8075 109.583C79.6837 110.202 79.8075 110.863 80.2205 111.358C80.5921 111.854 81.2116 112.143 81.831 112.143H98.1945L100.775 108.013L102.365 112.143H127.634L129.183 108.013L131.805 112.143H148.169C148.788 112.143 149.408 111.854 149.779 111.358C150.192 110.863 150.316 110.202 150.192 109.583L146.723 95.6246Z" fill="url(#paint7_linear)"/>
<path d="M129.74 95.6247L131.805 112.142H127.634L125.57 95.6247H104.43L102.365 112.142H98.1943L100.259 95.6247H83.3174L84.3497 91.4947H100.796L102.861 74.9775H107.031L104.967 91.4947H125.033L122.968 74.9775H127.139L129.203 91.4947H145.692L146.725 95.6247H129.74Z" fill="url(#paint8_linear)"/>
<g clip-path="url(#clip0)">
<path d="M147.858 133.095C149.548 133.095 150.919 134.455 150.919 136.131V151.563H144.797V136.131C144.797 134.455 146.167 133.095 147.858 133.095Z" fill="#0160E7"/>
<path d="M152.96 169.524H157.042V181.667H152.96V169.524Z" fill="white"/>
<path d="M162.143 133.095C163.834 133.095 165.204 134.455 165.204 136.131V151.563H159.082V136.131C159.082 134.455 160.453 133.095 162.143 133.095Z" fill="#0160E7"/>
<path d="M167.245 149.286H142.755C141.628 149.286 140.715 150.192 140.715 151.31V161.429C140.722 167.015 145.286 171.542 150.919 171.548H159.082C164.715 171.542 169.28 167.016 169.286 161.429V151.31C169.286 150.192 168.373 149.286 167.245 149.286Z" fill="white"/>
<path d="M165.204 167.5H157.042C151.408 167.494 146.844 162.967 146.837 157.381V149.286H142.755C141.628 149.286 140.715 150.192 140.715 151.31V161.429C140.722 167.015 145.286 171.542 150.919 171.548H159.082C162.398 171.547 165.506 169.947 167.415 167.259C166.689 167.419 165.948 167.499 165.204 167.5Z" fill="#4592EC"/>
<path d="M140.715 155.357H169.286V159.405H140.715V155.357Z" fill="url(#paint9_linear)"/>
</g>
<path d="M108.298 138.774V174.047H85.1338V143.728L89.2446 138.774H94.0581V150.193L103.481 138.774H108.298Z" fill="#00C3FF"/>
<path d="M85.1344 143.728V174.047H61.9697V154.015L74.4943 138.774H79.3125V150.744L85.1344 143.728Z" fill="white"/>
<path d="M64.9014 159.938H73.1113V163.465H64.9014V159.938Z" fill="#00C3FF"/>
<path d="M76.6309 159.938H83.6684V163.465H76.6309V159.938Z" fill="#00C3FF"/>
<path d="M87.1865 159.938H94.2241V163.465H87.1865V159.938Z" fill="#0160E7"/>
<path d="M97.7432 159.938H104.781V163.465H97.7432V159.938Z" fill="#0160E7"/>
<path d="M62.3787 126.429H57.3965H52.1344L48.334 174.048H57.3965H67.4452L62.3787 126.429Z" fill="white"/>
<path d="M63.1294 133.483H57.3965H51.5711L51.29 137.011H57.3965H63.5042L63.1294 133.483Z" fill="#186BE8"/>
<defs>
<filter id="filter0_d" x="0" y="15" width="230" height="230" filterUnits="userSpaceOnUse" color-interpolation-filters="sRGB">
<feFlood flood-opacity="0" result="BackgroundImageFix"/>
<feColorMatrix in="SourceAlpha" type="matrix" values="0 0 0 0 0 0 0 0 0 0 0 0 0 0 0 0 0 0 127 0"/>
<feOffset dy="15"/>
<feGaussianBlur stdDeviation="7.5"/>
<feColorMatrix type="matrix" values="0 0 0 0 0.262745 0 0 0 0 0.498039 0 0 0 0 0.92549 0 0 0 0.25 0"/>
<feBlend mode="normal" in2="BackgroundImageFix" result="effect1_dropShadow"/>
<feBlend mode="normal" in="SourceGraphic" in2="effect1_dropShadow" result="shape"/>
</filter>
<filter id="filter1_d" x="7" y="11" width="216" height="216" filterUnits="userSpaceOnUse" color-interpolation-filters="sRGB">
<feFlood flood-opacity="0" result="BackgroundImageFix"/>
<feColorMatrix in="SourceAlpha" type="matrix" values="0 0 0 0 0 0 0 0 0 0 0 0 0 0 0 0 0 0 127 0"/>
<feOffset dy="4"/>
<feGaussianBlur stdDeviation="4"/>
<feColorMatrix type="matrix" values="0 0 0 0 0 0 0 0 0 0 0 0 0 0 0 0 0 0 0.15 0"/>
<feBlend mode="normal" in2="BackgroundImageFix" result="effect1_dropShadow"/>
<feBlend mode="normal" in="SourceGraphic" in2="effect1_dropShadow" result="shape"/>
</filter>
<linearGradient id="paint0_linear" x1="195.952" y1="55" x2="39.7619" y2="173.095" gradientUnits="userSpaceOnUse">
<stop stop-color="#4CD9ED"/>
<stop offset="1" stop-color="#437FEC"/>
</linearGradient>
<linearGradient id="paint1_linear" x1="115.001" y1="79.1064" x2="115.001" y2="54.329" gradientUnits="userSpaceOnUse">
<stop stop-color="white"/>
</linearGradient>
<linearGradient id="paint2_linear" x1="115.001" y1="50.0617" x2="115.001" y2="41.665" gradientUnits="userSpaceOnUse">
<stop stop-color="white"/>
</linearGradient>
<linearGradient id="paint3_linear" x1="98.9453" y1="56.2463" x2="98.9453" y2="49.197" gradientUnits="userSpaceOnUse">
<stop stop-color="white"/>
</linearGradient>
<linearGradient id="paint4_linear" x1="131.058" y1="56.2463" x2="131.058" y2="49.197" gradientUnits="userSpaceOnUse">
<stop stop-color="white"/>
</linearGradient>
<linearGradient id="paint5_linear" x1="137.711" y1="70.8469" x2="137.711" y2="66.7174" gradientUnits="userSpaceOnUse">
<stop stop-color="white"/>
</linearGradient>
<linearGradient id="paint6_linear" x1="92.2921" y1="70.8469" x2="92.2921" y2="66.7174" gradientUnits="userSpaceOnUse">
<stop stop-color="white"/>
</linearGradient>
<linearGradient id="paint7_linear" x1="115.001" y1="112.142" x2="115.001" y2="74.9762" gradientUnits="userSpaceOnUse">
<stop stop-color="#0160E7"/>
<stop offset="1" stop-color="#00C3FF"/>
</linearGradient>
<linearGradient id="paint8_linear" x1="115.021" y1="112.142" x2="115.021" y2="74.9763" gradientUnits="userSpaceOnUse">
<stop stop-color="white"/>
</linearGradient>
<linearGradient id="paint9_linear" x1="146.836" y1="165.474" x2="163.026" y2="149.148" gradientUnits="userSpaceOnUse">
<stop stop-color="#0160E7"/>
<stop offset="1" stop-color="#437FEC"/>
</linearGradient>
<clipPath id="clip0">
<rect width="28.5714" height="48.5714" fill="white" transform="translate(140.715 133.095)"/>
</clipPath>
</defs>
</svg>
