<svg width="240" height="244" viewBox="0 0 240 244" fill="none" xmlns="http://www.w3.org/2000/svg">
<g filter="url(#filter0_d)">
<g filter="url(#filter1_d)">
<circle cx="120" cy="109" r="105" fill="url(#paint0_linear)"/>
</g>
</g>
<path d="M164.918 116.385H157.08V124.269H164.918V116.385Z" fill="#4592EC"/>
<path d="M163.543 110.229H158.453V115.348H163.543V110.229Z" fill="#437FEC"/>
<path d="M164.747 111.157H157.257C156.939 111.157 156.682 110.898 156.682 110.578V108.42C156.682 108.101 156.939 107.842 157.257 107.842H164.747C165.065 107.842 165.322 108.101 165.322 108.42V110.578C165.322 110.898 165.065 111.157 164.747 111.157Z" fill="white"/>
<path d="M169.954 107.842H152.046C150.992 107.842 150.137 106.981 150.137 105.921C150.137 104.861 150.992 104 152.046 104H169.954C171.008 104 171.864 104.861 171.864 105.921C171.864 106.981 171.008 107.842 169.954 107.842Z" fill="#0160E7"/>
<path d="M166.267 117.44H155.731C155.414 117.44 155.156 117.181 155.156 116.861V114.705C155.156 114.385 155.414 114.126 155.731 114.126H166.267C166.585 114.126 166.842 114.385 166.842 114.705V116.863C166.842 117.181 166.585 117.44 166.267 117.44Z" fill="white"/>
<path d="M150.358 131.335H148.488C147.853 131.335 147.338 130.817 147.338 130.178V119.23C147.338 118.591 147.853 118.073 148.488 118.073H150.358C150.993 118.073 151.508 118.591 151.508 119.23V130.178C151.508 130.817 150.993 131.335 150.358 131.335Z" fill="#4CD9ED"/>
<path d="M173.942 131.335H172.072C171.437 131.335 170.922 130.817 170.922 130.178V119.23C170.922 118.591 171.437 118.073 172.072 118.073H173.942C174.577 118.073 175.092 118.591 175.092 119.23V130.178C175.092 130.817 174.577 131.335 173.942 131.335Z" fill="#4CD9ED"/>
<path d="M167.11 130.155H154.888C154.57 130.155 154.312 129.896 154.312 129.576V119.757C154.312 119.437 154.57 119.178 154.888 119.178H167.11C167.428 119.178 167.685 119.437 167.685 119.757V129.576C167.685 129.896 167.428 130.155 167.11 130.155Z" fill="#00C3FF"/>
<path d="M132.379 133.883V155.29H141.007V136.776C141.007 133.98 143.26 131.714 146.039 131.714H178.393C181.172 131.714 183.426 133.98 183.426 136.776V155.29H192.053V133.883C192.053 127.893 187.225 123.036 181.269 123.036H143.163C137.207 123.036 132.379 127.893 132.379 133.883Z" fill="#FAFAFA"/>
<path d="M141.085 155.006H129.15C128.515 155.006 128 154.488 128 153.849V150.956C128 150.317 128.515 149.799 129.15 149.799H141.085C141.721 149.799 142.236 150.317 142.236 150.956V153.849C142.236 154.488 141.721 155.006 141.085 155.006Z" fill="#0160E7"/>
<path d="M192.851 155.151H180.916C180.28 155.151 179.766 154.633 179.766 153.994V151.101C179.766 150.462 180.28 149.944 180.916 149.944H192.851C193.486 149.944 194.001 150.462 194.001 151.101V153.994C194.001 154.633 193.486 155.151 192.851 155.151Z" fill="#0160E7"/>
<path d="M135.903 46.0875C135.368 45.4333 134.454 45.2391 133.703 45.6224L125.249 49.9378L118.709 30.1307C118.396 29.1783 117.376 28.6638 116.433 28.9807C115.945 29.1443 115.55 29.5123 115.348 29.9893L105.382 53.4611L98.1101 48.7657C97.3052 48.2461 96.2387 48.4522 95.6801 49.2342C92.43 53.7899 90 62.3969 90 67.0514C90 81.1802 100.851 90.6765 117 90.6765C133.149 90.6765 144 81.1819 144 67.0514C144 61.1532 140.217 51.357 135.903 46.0875Z" fill="white"/>
<path d="M106.201 76.1351C106.201 70.1126 117.001 57.9619 117.001 57.9619C117.001 57.9619 127.801 70.1126 127.801 76.1351C127.801 82.1577 122.966 87.0388 117.001 87.0388C111.036 87.0388 106.201 82.1577 106.201 76.1351Z" fill="url(#paint1_linear)"/>
<path d="M38.918 130.543H58.2262V142.051H38.918V130.543Z" fill="#4CD9ED"/>
<path d="M81.2422 130.543H100.55V142.051H81.2422V130.543Z" fill="#4CD9ED"/>
<path d="M84.0147 107.849L72.9911 115.199H71.6523V109.445H69.7343H67.8163V115.199H66.4788L55.4539 107.849L53.3262 111.04L63.9802 118.144V130.543H69.7343H75.4884V118.145L86.1424 111.042L84.0147 107.849Z" fill="white"/>
<path d="M37 126.707H40.8361V145.887H37V126.707Z" fill="#437FEC"/>
<path d="M98.6328 126.707H102.469V145.887H98.6328V126.707Z" fill="#437FEC"/>
<path d="M69.7331 106.887H50.5528C49.494 106.887 48.6348 107.89 48.6348 109.125C48.6348 110.36 49.494 111.363 50.5528 111.363H69.7331H88.9135C89.9722 111.363 90.8315 110.36 90.8315 109.125C90.8315 107.89 89.9722 106.887 88.9135 106.887H69.7331Z" fill="#0160E7"/>
<path d="M69.7348 126.707H61.3086C58.5472 126.707 56.3086 128.945 56.3086 131.707V140.887C56.3086 143.649 58.5472 145.887 61.3086 145.887H69.7348H78.1611C80.9225 145.887 83.1611 143.649 83.1611 140.887V131.707C83.1611 128.945 80.9225 126.707 78.1611 126.707H69.7348Z" fill="#F8F8F8"/>
<defs>
<filter id="filter0_d" x="0" y="4" width="240" height="240" filterUnits="userSpaceOnUse" color-interpolation-filters="sRGB">
<feFlood flood-opacity="0" result="BackgroundImageFix"/>
<feColorMatrix in="SourceAlpha" type="matrix" values="0 0 0 0 0 0 0 0 0 0 0 0 0 0 0 0 0 0 127 0"/>
<feOffset dy="15"/>
<feGaussianBlur stdDeviation="7.5"/>
<feColorMatrix type="matrix" values="0 0 0 0 0.262745 0 0 0 0 0.498039 0 0 0 0 0.92549 0 0 0 0.25 0"/>
<feBlend mode="normal" in2="BackgroundImageFix" result="effect1_dropShadow"/>
<feBlend mode="normal" in="SourceGraphic" in2="effect1_dropShadow" result="shape"/>
</filter>
<filter id="filter1_d" x="7" y="0" width="226" height="226" filterUnits="userSpaceOnUse" color-interpolation-filters="sRGB">
<feFlood flood-opacity="0" result="BackgroundImageFix"/>
<feColorMatrix in="SourceAlpha" type="matrix" values="0 0 0 0 0 0 0 0 0 0 0 0 0 0 0 0 0 0 127 0"/>
<feOffset dy="4"/>
<feGaussianBlur stdDeviation="4"/>
<feColorMatrix type="matrix" values="0 0 0 0 0 0 0 0 0 0 0 0 0 0 0 0 0 0 0.15 0"/>
<feBlend mode="normal" in2="BackgroundImageFix" result="effect1_dropShadow"/>
<feBlend mode="normal" in="SourceGraphic" in2="effect1_dropShadow" result="shape"/>
</filter>
<linearGradient id="paint0_linear" x1="205" y1="46" x2="41" y2="170" gradientUnits="userSpaceOnUse">
<stop stop-color="#4CD9ED"/>
<stop offset="1" stop-color="#437FEC"/>
</linearGradient>
<linearGradient id="paint1_linear" x1="117.001" y1="57.9619" x2="117.001" y2="87.0388" gradientUnits="userSpaceOnUse">
<stop stop-color="#4CD9ED"/>
<stop offset="1" stop-color="#437FEC"/>
</linearGradient>
</defs>
</svg>
