<svg width="240" height="244" viewBox="0 0 240 244" fill="none" xmlns="http://www.w3.org/2000/svg">
<g filter="url(#filter0_d)">
<g filter="url(#filter1_d)">
<circle cx="120" cy="109" r="105" fill="url(#paint0_linear)"/>
</g>
</g>
<path d="M164.918 116.385H157.079V124.269H164.918V116.385Z" fill="#4592EC"/>
<path d="M163.543 110.229H158.453V115.348H163.543V110.229Z" fill="#437FEC"/>
<path d="M164.747 111.157H157.257C156.939 111.157 156.681 110.898 156.681 110.578V108.42C156.681 108.101 156.939 107.842 157.257 107.842H164.747C165.065 107.842 165.322 108.101 165.322 108.42V110.578C165.322 110.898 165.065 111.157 164.747 111.157Z" fill="white"/>
<path d="M169.954 107.842H152.046C150.992 107.842 150.136 106.981 150.136 105.921C150.136 104.861 150.992 104 152.046 104H169.954C171.008 104 171.863 104.861 171.863 105.921C171.863 106.981 171.008 107.842 169.954 107.842Z" fill="#0160E7"/>
<path d="M166.268 117.44H155.732C155.414 117.44 155.157 117.181 155.157 116.861V114.705C155.157 114.385 155.414 114.126 155.732 114.126H166.268C166.585 114.126 166.843 114.385 166.843 114.705V116.863C166.843 117.181 166.585 117.44 166.268 117.44Z" fill="white"/>
<path d="M150.358 131.335H148.488C147.853 131.335 147.338 130.817 147.338 130.178V119.23C147.338 118.591 147.853 118.073 148.488 118.073H150.358C150.993 118.073 151.508 118.591 151.508 119.23V130.178C151.508 130.817 150.993 131.335 150.358 131.335Z" fill="#4CD9ED"/>
<path d="M173.941 131.335H172.072C171.436 131.335 170.921 130.817 170.921 130.178V119.23C170.921 118.591 171.436 118.073 172.072 118.073H173.941C174.576 118.073 175.091 118.591 175.091 119.23V130.178C175.091 130.817 174.576 131.335 173.941 131.335Z" fill="#4CD9ED"/>
<path d="M167.11 130.155H154.887C154.57 130.155 154.312 129.896 154.312 129.576V119.757C154.312 119.437 154.57 119.178 154.887 119.178H167.11C167.428 119.178 167.685 119.437 167.685 119.757V129.576C167.685 129.896 167.428 130.155 167.11 130.155Z" fill="#00C3FF"/>
<path d="M132.379 133.883V155.29H141.007V136.776C141.007 133.98 143.26 131.714 146.039 131.714H178.393C181.172 131.714 183.426 133.98 183.426 136.776V155.29H192.053V133.883C192.053 127.893 187.225 123.036 181.269 123.036H143.163C137.207 123.036 132.379 127.893 132.379 133.883Z" fill="#FAFAFA"/>
<path d="M141.085 155.006H129.15C128.515 155.006 128 154.488 128 153.849V150.956C128 150.317 128.515 149.799 129.15 149.799H141.085C141.721 149.799 142.236 150.317 142.236 150.956V153.849C142.236 154.488 141.721 155.006 141.085 155.006Z" fill="#0160E7"/>
<path d="M192.851 155.151H180.916C180.28 155.151 179.766 154.633 179.766 153.994V151.101C179.766 150.462 180.28 149.944 180.916 149.944H192.851C193.486 149.944 194.001 150.462 194.001 151.101V153.994C194.001 154.633 193.486 155.151 192.851 155.151Z" fill="#0160E7"/>
<path d="M135.903 46.0875C135.368 45.4333 134.454 45.2391 133.703 45.6224L125.249 49.9378L118.709 30.1307C118.396 29.1783 117.376 28.6638 116.433 28.9807C115.945 29.1443 115.55 29.5123 115.348 29.9893L105.382 53.4611L98.1101 48.7657C97.3052 48.2461 96.2387 48.4522 95.6801 49.2342C92.43 53.7899 90 62.3969 90 67.0514C90 81.1802 100.851 90.6765 117 90.6765C133.149 90.6765 144 81.1819 144 67.0514C144 61.1532 140.217 51.357 135.903 46.0875Z" fill="white"/>
<path d="M106.201 76.1352C106.201 70.1126 117.001 57.9619 117.001 57.9619C117.001 57.9619 127.801 70.1126 127.801 76.1352C127.801 82.1578 122.966 87.0388 117.001 87.0388C111.035 87.0388 106.201 82.1578 106.201 76.1352Z" fill="url(#paint1_linear)"/>
<path d="M38.9178 130.543H58.226V142.051H38.9178V130.543Z" fill="#4CD9ED"/>
<path d="M81.2417 130.543H100.55V142.051H81.2417V130.543Z" fill="#4CD9ED"/>
<path d="M84.0145 107.849L72.9909 115.199H71.6521V109.444H69.7341H67.816V115.199H66.4785L55.4537 107.849L53.3259 111.04L63.98 118.143V130.543H69.7341H75.4882V118.145L86.1422 111.042L84.0145 107.849Z" fill="white"/>
<path d="M37 126.707H40.8361V145.887H37V126.707Z" fill="#437FEC"/>
<path d="M98.6328 126.707H102.469V145.887H98.6328V126.707Z" fill="#437FEC"/>
<path d="M69.7337 106.887H50.5534C49.4947 106.887 48.6354 107.89 48.6354 109.125C48.6354 110.36 49.4947 111.363 50.5534 111.363H69.7337H88.9141C89.9728 111.363 90.8321 110.36 90.8321 109.125C90.8321 107.89 89.9728 106.887 88.9141 106.887H69.7337Z" fill="#0160E7"/>
<path d="M69.7353 126.707H61.3091C58.5477 126.707 56.3091 128.946 56.3091 131.707V140.887C56.3091 143.649 58.5477 145.887 61.3091 145.887H69.7353H78.1615C80.923 145.887 83.1615 143.649 83.1615 140.887V131.707C83.1615 128.946 80.923 126.707 78.1615 126.707H69.7353Z" fill="#F8F8F8"/>
<defs>
<filter id="filter0_d" x="0" y="4" width="240" height="240" filterUnits="userSpaceOnUse" color-interpolation-filters="sRGB">
<feFlood flood-opacity="0" result="BackgroundImageFix"/>
<feColorMatrix in="SourceAlpha" type="matrix" values="0 0 0 0 0 0 0 0 0 0 0 0 0 0 0 0 0 0 127 0"/>
<feOffset dy="15"/>
<feGaussianBlur stdDeviation="7.5"/>
<feColorMatrix type="matrix" values="0 0 0 0 0.262745 0 0 0 0 0.498039 0 0 0 0 0.92549 0 0 0 0.25 0"/>
<feBlend mode="normal" in2="BackgroundImageFix" result="effect1_dropShadow"/>
<feBlend mode="normal" in="SourceGraphic" in2="effect1_dropShadow" result="shape"/>
</filter>
<filter id="filter1_d" x="7" y="0" width="226" height="226" filterUnits="userSpaceOnUse" color-interpolation-filters="sRGB">
<feFlood flood-opacity="0" result="BackgroundImageFix"/>
<feColorMatrix in="SourceAlpha" type="matrix" values="0 0 0 0 0 0 0 0 0 0 0 0 0 0 0 0 0 0 127 0"/>
<feOffset dy="4"/>
<feGaussianBlur stdDeviation="4"/>
<feColorMatrix type="matrix" values="0 0 0 0 0 0 0 0 0 0 0 0 0 0 0 0 0 0 0.15 0"/>
<feBlend mode="normal" in2="BackgroundImageFix" result="effect1_dropShadow"/>
<feBlend mode="normal" in="SourceGraphic" in2="effect1_dropShadow" result="shape"/>
</filter>
<linearGradient id="paint0_linear" x1="205" y1="46" x2="41" y2="170" gradientUnits="userSpaceOnUse">
<stop stop-color="#4CD9ED"/>
<stop offset="1" stop-color="#437FEC"/>
</linearGradient>
<linearGradient id="paint1_linear" x1="117.001" y1="57.9619" x2="117.001" y2="87.0388" gradientUnits="userSpaceOnUse">
<stop stop-color="#4CD9ED"/>
<stop offset="1" stop-color="#437FEC"/>
</linearGradient>
</defs>
</svg>
