<svg width="230" height="245" viewBox="0 0 230 245" fill="none" xmlns="http://www.w3.org/2000/svg">
<g filter="url(#filter0_d)">
<g filter="url(#filter1_d)">
<circle cx="115" cy="115" r="100" fill="url(#paint0_linear)"/>
</g>
</g>
<path d="M157.777 122.033H150.312V129.542H157.777V122.033Z" fill="#4592EC"/>
<path d="M156.469 116.17H151.621V121.045H156.469V116.17Z" fill="#437FEC"/>
<path d="M157.615 117.054H150.481C150.179 117.054 149.934 116.807 149.934 116.503V114.447C149.934 114.143 150.179 113.896 150.481 113.896H157.615C157.918 113.896 158.163 114.143 158.163 114.447V116.503C158.163 116.807 157.918 117.054 157.615 117.054Z" fill="white"/>
<path d="M162.574 113.896H145.519C144.515 113.896 143.7 113.077 143.7 112.067C143.7 111.057 144.515 110.238 145.519 110.238H162.574C163.578 110.238 164.393 111.057 164.393 112.067C164.393 113.077 163.578 113.896 162.574 113.896Z" fill="#0160E7"/>
<path d="M159.064 123.037H149.03C148.728 123.037 148.482 122.791 148.482 122.486V120.432C148.482 120.128 148.728 119.881 149.03 119.881H159.064C159.367 119.881 159.612 120.128 159.612 120.432V122.488C159.612 122.791 159.367 123.037 159.064 123.037Z" fill="white"/>
<path d="M143.911 136.271H142.131C141.525 136.271 141.035 135.778 141.035 135.169V124.743C141.035 124.134 141.525 123.641 142.131 123.641H143.911C144.516 123.641 145.007 124.134 145.007 124.743V135.169C145.007 135.778 144.516 136.271 143.911 136.271Z" fill="#4CD9ED"/>
<path d="M166.371 136.271H164.591C163.985 136.271 163.495 135.778 163.495 135.169V124.743C163.495 124.134 163.985 123.641 164.591 123.641H166.371C166.976 123.641 167.467 124.134 167.467 124.743V135.169C167.467 135.778 166.976 136.271 166.371 136.271Z" fill="#4CD9ED"/>
<path d="M159.866 135.147H148.226C147.923 135.147 147.678 134.9 147.678 134.596V125.244C147.678 124.939 147.923 124.693 148.226 124.693H159.866C160.169 124.693 160.414 124.939 160.414 125.244V134.596C160.414 134.9 160.169 135.147 159.866 135.147Z" fill="#00C3FF"/>
<path d="M126.788 138.698V159.085H135.005V141.453C135.005 138.791 137.151 136.632 139.798 136.632H170.611C173.258 136.632 175.404 138.791 175.404 141.453V159.085H183.621V138.698C183.621 132.993 179.022 128.367 173.35 128.367H137.059C131.387 128.367 126.788 132.993 126.788 138.698Z" fill="#FAFAFA"/>
<path d="M135.08 158.815H123.714C123.108 158.815 122.618 158.322 122.618 157.713V154.958C122.618 154.349 123.108 153.856 123.714 153.856H135.08C135.686 153.856 136.176 154.349 136.176 154.958V157.713C136.176 158.322 135.686 158.815 135.08 158.815Z" fill="#0160E7"/>
<path d="M184.38 158.953H173.014C172.408 158.953 171.918 158.459 171.918 157.851V155.096C171.918 154.487 172.408 153.994 173.014 153.994H184.38C184.985 153.994 185.476 154.487 185.476 155.096V157.851C185.476 158.459 184.985 158.953 184.38 158.953Z" fill="#0160E7"/>
<path d="M130.145 55.0829C129.636 54.4598 128.765 54.2749 128.05 54.6399L119.998 58.7499L113.77 39.886C113.471 38.9789 112.5 38.4889 111.602 38.7907C111.138 38.9465 110.761 39.297 110.569 39.7513L101.077 62.1054L94.1517 57.6336C93.3851 57.1387 92.3693 57.335 91.8374 58.0798C88.742 62.4185 86.4277 70.6157 86.4277 75.0485C86.4277 88.5045 96.7617 97.5486 112.142 97.5486C127.522 97.5486 137.856 88.5061 137.856 75.0485C137.856 69.4312 134.253 60.1015 130.145 55.0829Z" fill="white"/>
<path d="M101.856 83.6995C101.856 77.9637 112.142 66.3916 112.142 66.3916C112.142 66.3916 122.428 77.9637 122.428 83.6995C122.428 89.4353 117.823 94.0839 112.142 94.0839C106.461 94.0839 101.856 89.4353 101.856 83.6995Z" fill="url(#paint1_linear)"/>
<path d="M37.7773 135.517H56.1661V146.477H37.7773V135.517Z" fill="#4CD9ED"/>
<path d="M78.0859 135.517H96.4747V146.477H78.0859V135.517Z" fill="#4CD9ED"/>
<path d="M80.7272 113.904L70.2285 120.904H68.9535V115.424H67.1268H65.3001V120.904H64.0263L53.5264 113.904L51.5 116.943L61.6467 123.708V135.517H67.1268H72.6069V123.71L82.7536 116.945L80.7272 113.904Z" fill="white"/>
<path d="M35.9512 131.864H39.6046V150.131H35.9512V131.864Z" fill="#437FEC"/>
<path d="M94.6494 131.864H98.3028V150.131H94.6494V131.864Z" fill="#437FEC"/>
<path d="M67.1269 112.988H48.8599C47.8516 112.988 47.0332 113.943 47.0332 115.119C47.0332 116.295 47.8516 117.25 48.8599 117.25H67.1269H85.3939C86.4022 117.25 87.2206 116.295 87.2206 115.119C87.2206 113.943 86.4022 112.988 85.3939 112.988H67.1269Z" fill="#0160E7"/>
<path d="M67.1267 131.864H59.3398C56.5784 131.864 54.3398 134.102 54.3398 136.864V145.131C54.3398 147.892 56.5784 150.131 59.3398 150.131H67.1267H74.9136C77.675 150.131 79.9136 147.892 79.9136 145.131V136.864C79.9136 134.102 77.675 131.864 74.9136 131.864H67.1267Z" fill="#F8F8F8"/>
<defs>
<filter id="filter0_d" x="0" y="15" width="230" height="230" filterUnits="userSpaceOnUse" color-interpolation-filters="sRGB">
<feFlood flood-opacity="0" result="BackgroundImageFix"/>
<feColorMatrix in="SourceAlpha" type="matrix" values="0 0 0 0 0 0 0 0 0 0 0 0 0 0 0 0 0 0 127 0"/>
<feOffset dy="15"/>
<feGaussianBlur stdDeviation="7.5"/>
<feColorMatrix type="matrix" values="0 0 0 0 0.262745 0 0 0 0 0.498039 0 0 0 0 0.92549 0 0 0 0.25 0"/>
<feBlend mode="normal" in2="BackgroundImageFix" result="effect1_dropShadow"/>
<feBlend mode="normal" in="SourceGraphic" in2="effect1_dropShadow" result="shape"/>
</filter>
<filter id="filter1_d" x="7" y="11" width="216" height="216" filterUnits="userSpaceOnUse" color-interpolation-filters="sRGB">
<feFlood flood-opacity="0" result="BackgroundImageFix"/>
<feColorMatrix in="SourceAlpha" type="matrix" values="0 0 0 0 0 0 0 0 0 0 0 0 0 0 0 0 0 0 127 0"/>
<feOffset dy="4"/>
<feGaussianBlur stdDeviation="4"/>
<feColorMatrix type="matrix" values="0 0 0 0 0 0 0 0 0 0 0 0 0 0 0 0 0 0 0.15 0"/>
<feBlend mode="normal" in2="BackgroundImageFix" result="effect1_dropShadow"/>
<feBlend mode="normal" in="SourceGraphic" in2="effect1_dropShadow" result="shape"/>
</filter>
<linearGradient id="paint0_linear" x1="195.952" y1="55" x2="39.7619" y2="173.095" gradientUnits="userSpaceOnUse">
<stop stop-color="#4CD9ED"/>
<stop offset="1" stop-color="#437FEC"/>
</linearGradient>
<linearGradient id="paint1_linear" x1="112.142" y1="66.3916" x2="112.142" y2="94.0839" gradientUnits="userSpaceOnUse">
<stop stop-color="#4CD9ED"/>
<stop offset="1" stop-color="#437FEC"/>
</linearGradient>
</defs>
</svg>
