<svg width="240" height="244" viewBox="0 0 240 244" fill="none" xmlns="http://www.w3.org/2000/svg">
<g filter="url(#filter0_d)">
<g filter="url(#filter1_d)">
<circle cx="120" cy="109" r="105" fill="url(#paint0_linear)"/>
</g>
</g>
<path d="M154.17 97.5128L129 87.3579V137.113H151.152L155.554 132.712L154.17 97.5128Z" fill="#0160E7"/>
<path d="M204.113 137.113H181.96L177.559 132.352V101.757H204.113V137.113Z" fill="#0160E7"/>
<path d="M166.556 88.4067H151.152V137.113H164.356L166.556 132.712L168.757 137.113H181.96V88.4067H166.556Z" fill="#EDF5FF"/>
<path d="M168.757 97.356H173.158V101.757H168.757V97.356Z" fill="#00C3FF"/>
<path d="M168.757 106.158H173.158V110.559H168.757V106.158Z" fill="#00C3FF"/>
<path d="M168.757 114.96H173.158V119.362H168.757V114.96Z" fill="#00C3FF"/>
<path d="M159.955 97.356H164.356V101.757H159.955V97.356Z" fill="#00C3FF"/>
<path d="M159.954 106.158H164.355V110.559H159.954V106.158Z" fill="#00C3FF"/>
<path d="M159.954 114.96H164.355V119.362H159.954V114.96Z" fill="#00C3FF"/>
<path d="M166.556 123.763H164.356V137.113H166.556H168.757V123.763H166.556Z" fill="#0160E7"/>
<path d="M156.936 74.1824L159.686 77.6168C161.657 76.0368 164.106 75.0729 166.556 75.0729C169.006 75.0729 171.456 76.0368 173.427 77.6168L176.177 74.1824C173.459 72.0039 170.007 70.7393 166.556 70.7393C163.106 70.7393 159.654 72.0039 156.936 74.1824Z" fill="white"/>
<path d="M162.429 81.0524L165.184 84.4838C165.457 84.2667 166.006 84.1581 166.556 84.1581C167.106 84.1581 167.655 84.2667 167.928 84.4838L170.683 81.0524C169.518 80.1194 168.038 79.6528 166.557 79.6528C165.077 79.6528 163.594 80.1208 162.429 81.0524Z" fill="white"/>
<path d="M166.557 62C161.135 62 155.713 63.8866 151.441 67.3122L154.191 70.7465C157.74 67.9034 162.149 66.3072 166.557 66.3072C170.965 66.3072 175.374 67.9034 178.923 70.7465L181.673 67.3122C177.401 63.8866 171.979 62 166.557 62Z" fill="white"/>
<path d="M85.2031 86.082C85.2031 87.0992 84.4039 87.8984 83.3867 87.8984H61.3477C54.3363 87.8984 48.6328 93.8441 48.6328 100.855V115.387C48.6328 116.404 47.8336 117.203 46.8164 117.203C45.7992 117.203 45 116.404 45 115.387V100.855C45 91.8461 52.3383 84.2656 61.3477 84.2656H83.3867C84.4039 84.2656 85.2031 85.0648 85.2031 86.082Z" fill="white"/>
<path d="M83.3867 87.8984H76.1211V84.2656H83.3867C84.4039 84.2656 85.2031 85.0648 85.2031 86.082C85.2031 87.0992 84.4039 87.8984 83.3867 87.8984Z" fill="#0160E7"/>
<path d="M107 124.469V133.551C107 134.568 106.201 135.367 105.184 135.367H50.4492C47.434 135.367 45 132.933 45 129.918V115.387C45 115.241 45 115.096 45.0727 114.951L45.9445 111.427C47.7609 104.125 54.2637 99.0391 61.7836 99.0391H72.3672C73.6023 99.0391 74.9223 99.1844 76.1211 99.475C78.5551 100.02 80.8074 101.11 82.7328 102.672L83.532 108.121L91.5605 113.57H97.918C102.314 113.57 105.983 116.695 106.818 120.836L103.367 122.652L107 124.469Z" fill="#00C3FF"/>
<path d="M91.5605 113.57H54.082C53.0648 113.57 52.2656 112.771 52.2656 111.754C52.2656 106.741 56.3344 102.672 61.3477 102.672H82.7328C83.7863 103.507 84.7309 104.488 85.5664 105.578L86.1113 106.305L83.8227 108.121L88.8359 109.938L91.5605 113.57Z" fill="white"/>
<path d="M105.184 91.5312H97.918C96.9141 91.5312 96.1016 90.7187 96.1016 89.7148C96.1016 88.711 96.9141 87.8984 97.918 87.8984H105.184C106.187 87.8984 107 88.711 107 89.7148C107 90.7187 106.187 91.5312 105.184 91.5312Z" fill="#00C3FF"/>
<path d="M105.184 84.2656H97.918C96.9141 84.2656 96.1016 83.4531 96.1016 82.4492C96.1016 81.4454 96.9141 80.6328 97.918 80.6328H105.184C106.187 80.6328 107 81.4454 107 82.4492C107 83.4531 106.187 84.2656 105.184 84.2656Z" fill="#00C3FF"/>
<path d="M59.5312 124.469C55.5352 124.469 52.2656 127.738 52.2656 131.734C52.2656 135.73 55.5352 139 59.5312 139C63.5273 139 66.7969 135.73 66.7969 131.734C66.7969 127.738 63.5273 124.469 59.5312 124.469Z" fill="#0160E7"/>
<path d="M59.5312 128.102C57.5332 128.102 55.8984 129.736 55.8984 131.734C55.8984 133.732 57.5332 135.367 59.5312 135.367C61.5293 135.367 63.1641 133.732 63.1641 131.734C63.1641 129.736 61.5293 128.102 59.5312 128.102Z" fill="white"/>
<path d="M92.4688 124.469C88.4727 124.469 85.2031 127.738 85.2031 131.734C85.2031 135.73 88.4727 139 92.4688 139C96.4648 139 99.7344 135.73 99.7344 131.734C99.7344 127.738 96.4648 124.469 92.4688 124.469Z" fill="#0160E7"/>
<path d="M92.4688 128.102C90.4707 128.102 88.8359 129.736 88.8359 131.734C88.8359 133.732 90.4707 135.367 92.4688 135.367C94.4668 135.367 96.1016 133.732 96.1016 131.734C96.1016 129.736 94.4668 128.102 92.4688 128.102Z" fill="white"/>
<path d="M106.816 120.836H101.551C100.548 120.836 99.7344 121.648 99.7344 122.652C99.7344 123.655 100.548 124.469 101.551 124.469H107V122.652C107 122.03 106.936 121.423 106.816 120.836Z" fill="#0160E7"/>
<path d="M68.6133 117.203C67.6094 117.203 66.7969 116.391 66.7969 115.387V100.855C66.7969 99.8516 67.6094 99.0391 68.6133 99.0391C69.6171 99.0391 70.4297 99.8516 70.4297 100.855V115.387C70.4297 116.391 69.6171 117.203 68.6133 117.203Z" fill="#00C3FF"/>
<path d="M97.918 95.1641H90.6523C85.6451 95.1641 81.5703 91.0893 81.5703 86.082C81.5703 81.0748 85.6451 77 90.6523 77H97.918C98.9218 77 99.7344 77.8125 99.7344 78.8164V93.3477C99.7344 94.3515 98.9218 95.1641 97.918 95.1641Z" fill="#FCFCFC"/>
<defs>
<filter id="filter0_d" x="0" y="4" width="240" height="240" filterUnits="userSpaceOnUse" color-interpolation-filters="sRGB">
<feFlood flood-opacity="0" result="BackgroundImageFix"/>
<feColorMatrix in="SourceAlpha" type="matrix" values="0 0 0 0 0 0 0 0 0 0 0 0 0 0 0 0 0 0 127 0"/>
<feOffset dy="15"/>
<feGaussianBlur stdDeviation="7.5"/>
<feColorMatrix type="matrix" values="0 0 0 0 0.262745 0 0 0 0 0.498039 0 0 0 0 0.92549 0 0 0 0.25 0"/>
<feBlend mode="normal" in2="BackgroundImageFix" result="effect1_dropShadow"/>
<feBlend mode="normal" in="SourceGraphic" in2="effect1_dropShadow" result="shape"/>
</filter>
<filter id="filter1_d" x="7" y="0" width="226" height="226" filterUnits="userSpaceOnUse" color-interpolation-filters="sRGB">
<feFlood flood-opacity="0" result="BackgroundImageFix"/>
<feColorMatrix in="SourceAlpha" type="matrix" values="0 0 0 0 0 0 0 0 0 0 0 0 0 0 0 0 0 0 127 0"/>
<feOffset dy="4"/>
<feGaussianBlur stdDeviation="4"/>
<feColorMatrix type="matrix" values="0 0 0 0 0 0 0 0 0 0 0 0 0 0 0 0 0 0 0.15 0"/>
<feBlend mode="normal" in2="BackgroundImageFix" result="effect1_dropShadow"/>
<feBlend mode="normal" in="SourceGraphic" in2="effect1_dropShadow" result="shape"/>
</filter>
<linearGradient id="paint0_linear" x1="205" y1="46" x2="41" y2="170" gradientUnits="userSpaceOnUse">
<stop stop-color="#4CD9ED"/>
<stop offset="1" stop-color="#437FEC"/>
</linearGradient>
</defs>
</svg>
