<svg width="230" height="245" viewBox="0 0 230 245" fill="none" xmlns="http://www.w3.org/2000/svg">
<g filter="url(#filter0_d)">
<g filter="url(#filter1_d)">
<circle cx="115" cy="115" r="100" fill="url(#paint0_linear)"/>
</g>
</g>
<path d="M147.542 112.822L123.57 103.15V150.536H144.668L148.859 146.344L147.542 112.822Z" fill="#0160E7"/>
<path d="M195.106 150.535H174.009L169.817 146.002V116.863H195.106V150.535Z" fill="#0160E7"/>
<path d="M159.337 104.149H144.667V150.536H157.242L159.337 146.344L161.433 150.536H174.008V104.149H159.337Z" fill="#EDF5FF"/>
<path d="M161.434 112.672H165.625V116.864H161.434V112.672Z" fill="#00C3FF"/>
<path d="M161.434 121.056H165.625V125.247H161.434V121.056Z" fill="#00C3FF"/>
<path d="M161.434 129.438H165.625V133.63H161.434V129.438Z" fill="#00C3FF"/>
<path d="M153.051 112.672H157.242V116.864H153.051V112.672Z" fill="#00C3FF"/>
<path d="M153.05 121.055H157.241V125.247H153.05V121.055Z" fill="#00C3FF"/>
<path d="M153.05 129.438H157.241V133.63H153.05V129.438Z" fill="#00C3FF"/>
<path d="M159.338 137.822H157.242V150.536H159.338H161.434V137.822H159.338Z" fill="#0160E7"/>
<path d="M150.175 90.602L152.795 93.8728C154.671 92.368 157.004 91.45 159.338 91.45C161.671 91.45 164.004 92.368 165.881 93.8728L168.5 90.602C165.911 88.5271 162.624 87.3228 159.338 87.3228C156.051 87.3228 152.764 88.5271 150.175 90.602Z" fill="white"/>
<path d="M155.406 97.1449L158.03 100.413C158.29 100.206 158.813 100.103 159.337 100.103C159.86 100.103 160.383 100.206 160.643 100.413L163.267 97.1449C162.157 96.2563 160.748 95.812 159.338 95.812C157.928 95.812 156.516 96.2577 155.406 97.1449Z" fill="white"/>
<path d="M159.338 79C154.174 79 149.01 80.7968 144.941 84.0592L147.561 87.33C150.941 84.6223 155.139 83.1021 159.338 83.1021C163.537 83.1021 167.735 84.6223 171.115 87.33L173.735 84.0592C169.666 80.7968 164.502 79 159.338 79Z" fill="white"/>
<g clip-path="url(#clip0)">
<path d="M81.86 93.6493C81.86 94.6181 81.0988 95.3793 80.1301 95.3793H59.1405C52.463 95.3793 47.0311 101.042 47.0311 107.719V121.559C47.0311 122.527 46.27 123.288 45.3012 123.288C44.3324 123.288 43.5713 122.527 43.5713 121.559V107.719C43.5713 99.1389 50.5601 91.9194 59.1405 91.9194H80.1301C81.0988 91.9194 81.86 92.6806 81.86 93.6493Z" fill="white"/>
<path d="M80.1296 95.3793H73.21V91.9194H80.1296C81.0984 91.9194 81.8595 92.6806 81.8595 93.6493C81.8595 94.6181 81.0984 95.3793 80.1296 95.3793Z" fill="#0160E7"/>
<path d="M102.619 130.209V138.858C102.619 139.827 101.858 140.588 100.889 140.588H48.761C45.8894 140.588 43.5713 138.27 43.5713 135.398V121.559C43.5713 121.421 43.5713 121.282 43.6405 121.144L44.4708 117.788C46.2008 110.833 52.3938 105.99 59.5557 105.99H69.6353C70.8116 105.99 72.0687 106.128 73.2104 106.405C75.5285 106.924 77.6736 107.962 79.5073 109.45L80.2685 114.639L87.9147 119.829H93.9694C98.1557 119.829 101.65 122.804 102.446 126.749L99.1591 128.479L102.619 130.209Z" fill="#00C3FF"/>
<path d="M87.915 119.829H52.2211C51.2524 119.829 50.4912 119.068 50.4912 118.099C50.4912 113.324 54.3662 109.449 59.1408 109.449H79.5076C80.5109 110.245 81.4105 111.179 82.2062 112.217L82.7252 112.909L80.5455 114.639L85.3201 116.369L87.915 119.829Z" fill="white"/>
<path d="M100.889 98.8392H93.9692C93.0131 98.8392 92.2393 98.0654 92.2393 97.1093C92.2393 96.1532 93.0131 95.3794 93.9692 95.3794H100.889C101.845 95.3794 102.619 96.1532 102.619 97.1093C102.619 98.0654 101.845 98.8392 100.889 98.8392Z" fill="#00C3FF"/>
<path d="M100.889 91.9198H93.9692C93.0131 91.9198 92.2393 91.1459 92.2393 90.1899C92.2393 89.2338 93.0131 88.46 93.9692 88.46H100.889C101.845 88.46 102.619 89.2338 102.619 90.1899C102.619 91.1459 101.845 91.9198 100.889 91.9198Z" fill="#00C3FF"/>
<path d="M57.4109 130.208C53.6051 130.208 50.4912 133.322 50.4912 137.128C50.4912 140.934 53.6051 144.048 57.4109 144.048C61.2167 144.048 64.3305 140.934 64.3305 137.128C64.3305 133.322 61.2167 130.208 57.4109 130.208Z" fill="#0160E7"/>
<path d="M57.411 133.668C55.5081 133.668 53.9512 135.225 53.9512 137.128C53.9512 139.031 55.5081 140.588 57.411 140.588C59.3139 140.588 60.8708 139.031 60.8708 137.128C60.8708 135.225 59.3139 133.668 57.411 133.668Z" fill="white"/>
<path d="M88.78 130.208C84.9742 130.208 81.8604 133.322 81.8604 137.128C81.8604 140.934 84.9742 144.048 88.78 144.048C92.5858 144.048 95.6996 140.934 95.6996 137.128C95.6996 133.322 92.5858 130.208 88.78 130.208Z" fill="#0160E7"/>
<path d="M88.7792 133.668C86.8763 133.668 85.3193 135.225 85.3193 137.128C85.3193 139.031 86.8763 140.588 88.7792 140.588C90.6821 140.588 92.239 139.031 92.239 137.128C92.239 135.225 90.6821 133.668 88.7792 133.668Z" fill="white"/>
<path d="M102.444 126.749H97.4291C96.4742 126.749 95.6992 127.522 95.6992 128.478C95.6992 129.433 96.4742 130.208 97.4291 130.208H102.619V128.478C102.619 127.886 102.558 127.308 102.444 126.749Z" fill="#0160E7"/>
<path d="M66.06 123.289C65.1039 123.289 64.3301 122.515 64.3301 121.559V107.72C64.3301 106.764 65.1039 105.99 66.06 105.99C67.0161 105.99 67.7899 106.764 67.7899 107.72V121.559C67.7899 122.515 67.0161 123.289 66.06 123.289Z" fill="#00C3FF"/>
<path d="M93.9696 102.299H87.0499C82.2812 102.299 78.4004 98.4183 78.4004 93.6496C78.4004 88.8808 82.2812 85 87.0499 85H93.9696C94.9257 85 95.6995 85.7738 95.6995 86.7299V100.569C95.6995 101.525 94.9257 102.299 93.9696 102.299Z" fill="#FCFCFC"/>
</g>
<defs>
<filter id="filter0_d" x="0" y="15" width="230" height="230" filterUnits="userSpaceOnUse" color-interpolation-filters="sRGB">
<feFlood flood-opacity="0" result="BackgroundImageFix"/>
<feColorMatrix in="SourceAlpha" type="matrix" values="0 0 0 0 0 0 0 0 0 0 0 0 0 0 0 0 0 0 127 0"/>
<feOffset dy="15"/>
<feGaussianBlur stdDeviation="7.5"/>
<feColorMatrix type="matrix" values="0 0 0 0 0.262745 0 0 0 0 0.498039 0 0 0 0 0.92549 0 0 0 0.25 0"/>
<feBlend mode="normal" in2="BackgroundImageFix" result="effect1_dropShadow"/>
<feBlend mode="normal" in="SourceGraphic" in2="effect1_dropShadow" result="shape"/>
</filter>
<filter id="filter1_d" x="7" y="11" width="216" height="216" filterUnits="userSpaceOnUse" color-interpolation-filters="sRGB">
<feFlood flood-opacity="0" result="BackgroundImageFix"/>
<feColorMatrix in="SourceAlpha" type="matrix" values="0 0 0 0 0 0 0 0 0 0 0 0 0 0 0 0 0 0 127 0"/>
<feOffset dy="4"/>
<feGaussianBlur stdDeviation="4"/>
<feColorMatrix type="matrix" values="0 0 0 0 0 0 0 0 0 0 0 0 0 0 0 0 0 0 0.15 0"/>
<feBlend mode="normal" in2="BackgroundImageFix" result="effect1_dropShadow"/>
<feBlend mode="normal" in="SourceGraphic" in2="effect1_dropShadow" result="shape"/>
</filter>
<linearGradient id="paint0_linear" x1="195.952" y1="55" x2="39.7619" y2="173.095" gradientUnits="userSpaceOnUse">
<stop stop-color="#4CD9ED"/>
<stop offset="1" stop-color="#437FEC"/>
</linearGradient>
<clipPath id="clip0">
<rect width="59.0476" height="59.0476" fill="white" transform="translate(43.5713 85)"/>
</clipPath>
</defs>
</svg>
