<svg width="226" height="226" viewBox="0 0 226 226" fill="none" xmlns="http://www.w3.org/2000/svg">
<g filter="url(#filter0_d)">
<circle cx="113" cy="109" r="105" fill="url(#paint0_linear)"/>
</g>
<path d="M171.321 158.835C172.229 157.987 173.651 157.987 174.559 158.835C175.835 160.028 180 164.176 180 167.479C180 171.324 176.839 174.439 172.939 174.439C169.04 174.439 165.879 171.324 165.879 167.479C165.879 164.176 170.044 160.028 171.321 158.835Z" fill="white"/>
<path d="M170.514 169.859C169.234 169.859 168.196 168.787 168.196 167.464C168.196 166.142 169.234 165.07 170.514 165.07C171.794 165.07 172.832 166.142 172.832 167.464C172.832 168.787 171.794 169.859 170.514 169.859Z" fill="white"/>
<path d="M132.999 133.808H143.554V121.048C143.554 120.407 144.079 119.887 144.727 119.887H154.108C154.755 119.887 155.281 120.407 155.281 121.048V133.808H168.18C174.009 133.808 178.735 138.482 178.735 144.248V151.208C178.735 151.849 178.209 152.369 177.562 152.369H168.18C167.533 152.369 167.007 151.849 167.007 151.208V145.408H132.999V133.808Z" fill="white"/>
<path d="M175.204 151.21V144.261C175.204 138.504 170.463 133.837 164.614 133.837H168.144C173.993 133.837 178.735 138.504 178.735 144.261V151.21C178.735 151.849 178.207 152.368 177.558 152.368H174.027C174.678 152.368 175.204 151.849 175.204 151.21Z" fill="#4CD9ED"/>
<path d="M151.706 121.05C151.706 120.408 151.163 119.887 150.494 119.887H154.129C154.798 119.887 155.341 120.408 155.341 121.05V133.838H151.706V121.05Z" fill="#4CD9ED"/>
<path d="M137.638 126.966H142.36V124.607H156.522V126.966H161.244V122.247C161.243 120.944 160.186 119.887 158.882 119.887H139.998C138.695 119.887 137.638 120.944 137.638 122.247V126.966Z" fill="#437FEC"/>
<path d="M180 150.078H165.879V154.867H180V150.078Z" fill="#0160E7"/>
<path d="M101.624 131.793C101.542 130.164 100.2 128.887 98.5686 128.887H95.8427C94.156 128.887 92.7844 130.26 92.7844 131.946V133.883H63.217V131.946C63.217 130.26 61.8444 128.887 60.1577 128.887H57.4329C55.8012 128.887 54.4592 130.164 54.3786 131.793C51.821 183.069 52.1168 177.089 52.0036 179.488C51.9607 180.358 52.6593 181.09 53.5312 181.09C105.929 181.09 102.608 181.146 103.02 180.988C103.63 180.752 104.031 180.15 103.999 179.487C103.837 176.058 104.152 182.468 101.624 131.793ZM74.7384 148.565C74.7384 149.409 74.0532 150.094 73.2088 150.094H64.8487C64.0043 150.094 63.319 149.409 63.319 148.565V143.467C63.319 142.623 64.0043 141.937 64.8487 141.937H73.2088C74.0532 141.937 74.7384 142.623 74.7384 143.467V148.565ZM92.6824 148.565C92.6824 149.409 91.9971 150.094 91.1528 150.094H82.7926C81.9483 150.094 81.263 149.409 81.263 148.565V143.467C81.263 142.623 81.9483 141.937 82.7926 141.937H91.1528C91.9971 141.937 92.6824 142.623 92.6824 143.467V148.565Z" fill="white"/>
<path d="M74.7382 148.565C70.9212 148.565 67.1194 148.565 63.3187 148.565C63.3187 149.393 63.9785 150.067 64.8015 150.092V180.988H73.2116V150.095C74.0539 150.094 74.7382 149.408 74.7382 148.565Z" fill="#437FEC"/>
<path d="M92.6815 148.565C88.8645 148.565 85.0628 148.565 81.2621 148.565C81.2621 149.393 81.9219 150.067 82.7448 150.092V180.988H91.1549V150.095C91.9983 150.094 92.6815 149.408 92.6815 148.565Z" fill="#437FEC"/>
<path d="M103.997 179.488C104.03 180.152 103.628 180.753 103.018 180.988C102.606 181.146 105.923 181.09 53.5294 181.09C52.6595 181.09 51.96 180.361 52.0018 179.488C52.1384 176.584 51.9997 179.469 52.9145 161.111C56.0758 161.252 58.0358 162.058 60.1508 162.805C63.7486 164.075 67.6818 163.994 71.2245 162.576C75.579 160.836 80.3984 160.779 84.7967 162.429L85.53 162.704C89.09 164.04 93.012 164.04 96.5721 162.704C98.0518 162.15 100.036 161.348 103.089 161.184C103.089 161.198 103.9 177.419 103.997 179.488Z" fill="#4592EC"/>
<path d="M103.997 179.488C104.03 180.152 103.628 180.753 103.018 180.988C102.606 181.146 105.923 181.09 53.5294 181.09C52.6595 181.09 51.96 180.361 52.0018 179.488C52.0834 177.751 52.0303 178.8 52.5086 169.255C55.8728 169.331 57.9603 170.188 60.1508 170.962C63.7486 172.233 67.6818 172.151 71.2245 170.734C75.579 168.993 80.3984 168.937 84.7967 170.587L85.53 170.861C89.09 172.197 93.012 172.197 96.5721 170.861L97.5062 170.511C99.4407 169.786 101.463 169.389 103.495 169.323C103.946 178.42 103.785 174.995 103.997 179.488Z" fill="#4CD9ED"/>
<path d="M99.8376 106.93C99.2979 107.284 98.5726 107.133 98.2185 106.595C97.8644 106.055 98.011 105.334 98.5507 104.98L111.878 96.2246L101.187 89.199C101.011 89.1023 100.855 88.9604 100.741 88.7794C100.401 88.2273 100.572 87.5066 101.126 87.165L111.764 80.6292L102.488 74.9295C101.936 74.5895 101.762 73.8688 102.103 73.3151C102.199 73.1606 102.324 73.0359 102.469 72.9438L111.955 66.3378L103.792 60.66C103.261 60.2887 103.134 59.5587 103.5 59.0284C103.871 58.498 104.601 58.3654 105.132 58.7367L114.001 64.9137L122.875 58.7367C123.405 58.3654 124.135 58.498 124.507 59.0284C124.873 59.5587 124.741 60.2887 124.21 60.66L116.052 66.3378L125.536 72.9438C125.681 73.0374 125.806 73.1606 125.903 73.3151C126.238 73.8673 126.067 74.5879 125.517 74.9295L116.241 80.6292L126.879 87.165C127.428 87.505 127.6 88.2257 127.265 88.7794C127.149 88.9604 126.995 89.1023 126.818 89.199L116.127 96.2246L129.462 104.997C129.997 105.351 130.147 106.077 129.795 106.616C129.442 107.156 128.715 107.306 128.175 106.949L114 97.6238L99.8376 106.93ZM105.241 73.8688L114 79.255L122.763 73.8688L114 67.7667L105.241 73.8688ZM103.92 88.1992L114.001 94.827L124.082 88.1992L114.001 82.005L103.92 88.1992Z" fill="white"/>
<path fill-rule="evenodd" clip-rule="evenodd" d="M95.8576 108.752C95.1634 108.752 94.9513 108.451 95.009 107.819L99.6121 59.6977L102.194 59.0737L104.462 59.6977L99.8586 107.819C99.8009 108.417 99.4296 108.752 98.8291 108.752H95.8576Z" fill="#437FEC"/>
<path fill-rule="evenodd" clip-rule="evenodd" d="M123.543 59.6977L128.146 107.819C128.204 108.421 128.57 108.752 129.172 108.752H132.144C132.763 108.752 133.055 108.424 132.992 107.819L128.394 59.6977L125.847 58.8804L123.543 59.6977Z" fill="#437FEC"/>
<path fill-rule="evenodd" clip-rule="evenodd" d="M98.8282 37.0269H129.171V54.5315H98.8282V37.0269Z" fill="#4CD9ED"/>
<path fill-rule="evenodd" clip-rule="evenodd" d="M97.2694 54.0684H130.738C131.255 54.0684 131.675 54.488 131.675 55.0058V58.7604C131.675 59.2783 131.255 59.6979 130.738 59.6979H97.2694C96.7516 59.6979 96.3273 59.2783 96.3273 58.7604V55.0058C96.3288 54.488 96.7531 54.0684 97.2694 54.0684Z" fill="#437FEC"/>
<path fill-rule="evenodd" clip-rule="evenodd" d="M126.046 54.0684H130.738C131.255 54.0684 131.675 54.488 131.675 55.0058V58.7604C131.675 59.2783 131.255 59.6979 130.738 59.6979H126.046C126.563 59.6979 126.983 59.2783 126.983 58.7604V55.0058C126.981 54.488 126.562 54.0684 126.046 54.0684Z" fill="#4592EC"/>
<path fill-rule="evenodd" clip-rule="evenodd" d="M114.84 29.0949L130.833 37.072C131.077 37.1921 131.036 37.4916 130.736 37.4916H97.2683C96.9984 37.4916 96.883 37.2124 97.1669 37.072L113.16 29.0949C113.736 28.811 114.305 28.825 114.84 29.0949Z" fill="#437FEC"/>
<path fill-rule="evenodd" clip-rule="evenodd" d="M114.838 29.0949L130.831 37.072C131.074 37.1921 131.034 37.4916 130.734 37.4916H126.042C126.343 37.4916 126.382 37.1905 126.139 37.072L111.654 29.8467L113.158 29.0949C113.733 28.811 114.303 28.825 114.838 29.0949Z" fill="#4592EC"/>
<path fill-rule="evenodd" clip-rule="evenodd" d="M98.8282 42.1836H129.171V49.3776H98.8282V42.1836Z" fill="white"/>
<defs>
<filter id="filter0_d" x="0" y="0" width="226" height="226" filterUnits="userSpaceOnUse" color-interpolation-filters="sRGB">
<feFlood flood-opacity="0" result="BackgroundImageFix"/>
<feColorMatrix in="SourceAlpha" type="matrix" values="0 0 0 0 0 0 0 0 0 0 0 0 0 0 0 0 0 0 127 0"/>
<feOffset dy="4"/>
<feGaussianBlur stdDeviation="4"/>
<feColorMatrix type="matrix" values="0 0 0 0 0 0 0 0 0 0 0 0 0 0 0 0 0 0 0.15 0"/>
<feBlend mode="normal" in2="BackgroundImageFix" result="effect1_dropShadow"/>
<feBlend mode="normal" in="SourceGraphic" in2="effect1_dropShadow" result="shape"/>
</filter>
<linearGradient id="paint0_linear" x1="198" y1="46" x2="34" y2="170" gradientUnits="userSpaceOnUse">
<stop stop-color="#4CD9ED"/>
<stop offset="1" stop-color="#437FEC"/>
</linearGradient>
</defs>
</svg>
