<svg width="230" height="230" viewBox="0 0 230 230" fill="none" xmlns="http://www.w3.org/2000/svg">
<g filter="url(#filter0_d)">
<circle cx="115" cy="115" r="100" fill="url(#paint0_linear)"/>
</g>
<path d="M170.543 162.462C171.408 161.654 172.762 161.654 173.627 162.462C174.842 163.598 178.809 167.549 178.809 170.694C178.809 174.356 175.798 177.323 172.084 177.323C168.37 177.323 165.36 174.356 165.36 170.694C165.36 167.549 169.326 163.598 170.543 162.462Z" fill="white"/>
<path d="M169.774 172.961C168.555 172.961 167.566 171.94 167.566 170.68C167.566 169.421 168.555 168.4 169.774 168.4C170.994 168.4 171.982 169.421 171.982 170.68C171.982 171.94 170.994 172.961 169.774 172.961Z" fill="white"/>
<path d="M134.046 138.626H144.098V126.474C144.098 125.864 144.598 125.369 145.215 125.369H154.149C154.766 125.369 155.267 125.864 155.267 126.474V138.626H167.552C173.103 138.626 177.604 143.078 177.604 148.569V155.198C177.604 155.808 177.103 156.303 176.486 156.303H167.552C166.935 156.303 166.435 155.808 166.435 155.198V149.675H134.046V138.626Z" fill="white"/>
<path d="M174.241 155.2V148.582C174.241 143.099 169.726 138.655 164.155 138.655H167.517C173.088 138.655 177.604 143.099 177.604 148.582V155.2C177.604 155.809 177.101 156.303 176.482 156.303H173.12C173.74 156.303 174.241 155.809 174.241 155.2Z" fill="#4CD9ED"/>
<path d="M151.862 126.476C151.862 125.865 151.345 125.369 150.708 125.369H154.17C154.807 125.369 155.324 125.865 155.324 126.476V138.655H151.862V126.476Z" fill="#4CD9ED"/>
<path d="M138.464 132.111H142.96V129.864H156.449V132.111H160.945V127.616C160.944 126.375 159.938 125.369 158.697 125.369H140.712C139.47 125.369 138.464 126.375 138.464 127.616V132.111Z" fill="#437FEC"/>
<path d="M178.809 154.122H165.36V158.683H178.809V154.122Z" fill="#0160E7"/>
<path d="M104.165 136.707C104.088 135.156 102.81 133.94 101.256 133.94H98.6596C97.0532 133.94 95.7469 135.248 95.7469 136.853V138.698H67.5875V136.853C67.5875 135.248 66.2803 133.94 64.6739 133.94H62.0788C60.5248 133.94 59.2467 135.156 59.17 136.707C56.7342 185.542 57.0158 179.847 56.908 182.132C56.8672 182.961 57.5325 183.657 58.3629 183.657C108.266 183.657 105.103 183.71 105.495 183.56C106.076 183.335 106.458 182.762 106.427 182.131C106.273 178.865 106.573 184.97 104.165 136.707ZM78.5603 152.681C78.5603 153.485 77.9076 154.138 77.1035 154.138H69.1415C68.3373 154.138 67.6846 153.485 67.6846 152.681V147.826C67.6846 147.022 68.3373 146.369 69.1415 146.369H77.1035C77.9076 146.369 78.5603 147.022 78.5603 147.826V152.681ZM95.6498 152.681C95.6498 153.485 94.9971 154.138 94.193 154.138H86.2309C85.4268 154.138 84.7741 153.485 84.7741 152.681V147.826C84.7741 147.022 85.4268 146.369 86.2309 146.369H94.193C94.9971 146.369 95.6498 147.022 95.6498 147.826V152.681Z" fill="white"/>
<path d="M78.5593 152.681C74.924 152.681 71.3033 152.681 67.6836 152.681C67.6836 153.47 68.312 154.112 69.0957 154.135V183.56H77.1053V154.138C77.9076 154.137 78.5593 153.484 78.5593 152.681Z" fill="#437FEC"/>
<path d="M95.6491 152.681C92.0138 152.681 88.3932 152.681 84.7734 152.681C84.7734 153.47 85.4018 154.112 86.1856 154.135V183.56H94.1952V154.138C94.9984 154.137 95.6491 153.484 95.6491 152.681Z" fill="#437FEC"/>
<path d="M106.425 182.132C106.456 182.764 106.074 183.336 105.493 183.561C105.101 183.711 108.26 183.658 58.3609 183.658C57.5324 183.658 56.8662 182.964 56.906 182.132C57.0361 179.366 56.9041 182.114 57.7752 164.63C60.786 164.764 62.6527 165.532 64.667 166.243C68.0934 167.453 71.8394 167.376 75.2134 166.026C79.3605 164.368 83.9504 164.314 88.1393 165.886L88.8376 166.147C92.2281 167.419 95.9634 167.419 99.3539 166.147C100.763 165.62 102.653 164.856 105.561 164.7C105.561 164.712 106.333 180.162 106.425 182.132Z" fill="#4592EC"/>
<path d="M106.425 182.132C106.456 182.764 106.074 183.336 105.493 183.561C105.101 183.711 108.26 183.658 58.3609 183.658C57.5324 183.658 56.8662 182.963 56.906 182.132C56.9837 180.477 56.9332 181.476 57.3887 172.386C60.5927 172.459 62.5808 173.274 64.667 174.012C68.0934 175.222 71.8394 175.144 75.2134 173.794C79.3605 172.136 83.9504 172.083 88.1393 173.654L88.8376 173.915C92.2281 175.188 95.9634 175.188 99.3539 173.915L100.244 173.582C102.086 172.892 104.012 172.514 105.947 172.451C106.377 181.114 106.223 177.853 106.425 182.132Z" fill="#4CD9ED"/>
<path d="M102.464 113.029C101.95 113.366 101.259 113.222 100.922 112.709C100.585 112.195 100.724 111.509 101.238 111.172L113.931 102.833L103.749 96.1422C103.581 96.0501 103.433 95.9149 103.324 95.7426C103 95.2167 103.164 94.5304 103.691 94.205L113.823 87.9805L104.988 82.5522C104.462 82.2283 104.297 81.542 104.621 81.0146C104.713 80.8676 104.832 80.7487 104.97 80.6611L114.004 74.3697L106.23 68.9622C105.725 68.6086 105.603 67.9133 105.952 67.4083C106.306 66.9032 107.001 66.7769 107.506 67.1305L115.953 73.0133L124.404 67.1305C124.91 66.7769 125.605 66.9032 125.958 67.4083C126.307 67.9133 126.181 68.6086 125.676 68.9622L117.907 74.3697L126.939 80.6611C127.077 80.7502 127.196 80.8676 127.288 81.0146C127.607 81.5405 127.444 82.2269 126.921 82.5522L118.086 87.9805L128.218 94.205C128.741 94.5289 128.904 95.2152 128.585 95.7426C128.475 95.9149 128.328 96.0501 128.16 96.1422L117.978 102.833L130.678 111.188C131.188 111.525 131.33 112.216 130.994 112.73C130.659 113.244 129.966 113.387 129.452 113.047L115.951 104.166L102.464 113.029ZM107.61 81.542L115.951 86.6717L124.297 81.542L115.951 75.7304L107.61 81.542ZM106.352 95.19L115.953 101.502L125.554 95.19L115.953 89.2908L106.352 95.19Z" fill="white"/>
<path fill-rule="evenodd" clip-rule="evenodd" d="M98.6742 114.764C98.0131 114.764 97.811 114.477 97.866 113.875L102.25 68.0454L104.709 67.4512L106.869 68.0454L102.485 113.875C102.43 114.444 102.076 114.764 101.504 114.764H98.6742Z" fill="#437FEC"/>
<path fill-rule="evenodd" clip-rule="evenodd" d="M125.041 68.0455L129.425 113.876C129.48 114.449 129.829 114.764 130.402 114.764H133.232C133.822 114.764 134.1 114.452 134.041 113.876L129.661 68.0455L127.235 67.2671L125.041 68.0455Z" fill="#437FEC"/>
<path fill-rule="evenodd" clip-rule="evenodd" d="M101.504 46.4541H130.401V63.1252H101.504V46.4541Z" fill="#4CD9ED"/>
<path fill-rule="evenodd" clip-rule="evenodd" d="M100.018 62.6841H131.893C132.386 62.6841 132.786 63.0837 132.786 63.5769V67.1527C132.786 67.6459 132.386 68.0455 131.893 68.0455H100.018C99.5252 68.0455 99.1211 67.6459 99.1211 67.1527V63.5769C99.1226 63.0837 99.5267 62.6841 100.018 62.6841Z" fill="#437FEC"/>
<path fill-rule="evenodd" clip-rule="evenodd" d="M127.424 62.6841H131.892C132.386 62.6841 132.785 63.0837 132.785 63.5769V67.1527C132.785 67.6459 132.386 68.0455 131.892 68.0455H127.424C127.917 68.0455 128.317 67.6459 128.317 67.1527V63.5769C128.315 63.0837 127.916 62.6841 127.424 62.6841Z" fill="#4592EC"/>
<path fill-rule="evenodd" clip-rule="evenodd" d="M116.752 38.8999L131.984 46.4972C132.215 46.6116 132.177 46.8968 131.892 46.8968H100.017C99.7601 46.8968 99.6502 46.6309 99.9205 46.4972L115.152 38.8999C115.7 38.6296 116.243 38.6429 116.752 38.8999Z" fill="#437FEC"/>
<path fill-rule="evenodd" clip-rule="evenodd" d="M116.751 38.8999L131.982 46.4972C132.214 46.6116 132.176 46.8968 131.89 46.8968H127.422C127.708 46.8968 127.746 46.6101 127.514 46.4972L113.719 39.616L115.151 38.8999C115.699 38.6296 116.241 38.6429 116.751 38.8999Z" fill="#4592EC"/>
<path fill-rule="evenodd" clip-rule="evenodd" d="M101.504 51.3652H130.401V58.2167H101.504V51.3652Z" fill="white"/>
<defs>
<filter id="filter0_d" x="7" y="11" width="216" height="216" filterUnits="userSpaceOnUse" color-interpolation-filters="sRGB">
<feFlood flood-opacity="0" result="BackgroundImageFix"/>
<feColorMatrix in="SourceAlpha" type="matrix" values="0 0 0 0 0 0 0 0 0 0 0 0 0 0 0 0 0 0 127 0"/>
<feOffset dy="4"/>
<feGaussianBlur stdDeviation="4"/>
<feColorMatrix type="matrix" values="0 0 0 0 0 0 0 0 0 0 0 0 0 0 0 0 0 0 0.15 0"/>
<feBlend mode="normal" in2="BackgroundImageFix" result="effect1_dropShadow"/>
<feBlend mode="normal" in="SourceGraphic" in2="effect1_dropShadow" result="shape"/>
</filter>
<linearGradient id="paint0_linear" x1="195.952" y1="55" x2="39.7619" y2="173.095" gradientUnits="userSpaceOnUse">
<stop stop-color="#4CD9ED"/>
<stop offset="1" stop-color="#437FEC"/>
</linearGradient>
</defs>
</svg>
