<svg width="226" height="226" viewBox="0 0 226 226" fill="none" xmlns="http://www.w3.org/2000/svg">
<g filter="url(#filter0_d)">
<circle cx="113" cy="109" r="105" fill="url(#paint0_linear)"/>
</g>
<path d="M171.321 158.835C172.229 157.987 173.651 157.987 174.559 158.835C175.835 160.028 180 164.176 180 167.479C180 171.323 176.839 174.439 172.939 174.439C169.04 174.439 165.879 171.323 165.879 167.479C165.879 164.176 170.044 160.028 171.321 158.835Z" fill="white"/>
<path d="M170.514 169.859C169.233 169.859 168.195 168.787 168.195 167.464C168.195 166.142 169.233 165.07 170.514 165.07C171.794 165.07 172.832 166.142 172.832 167.464C172.832 168.787 171.794 169.859 170.514 169.859Z" fill="white"/>
<path d="M132.999 133.808H143.553V121.048C143.553 120.407 144.079 119.887 144.726 119.887H154.108C154.755 119.887 155.281 120.407 155.281 121.048V133.808H168.18C174.009 133.808 178.734 138.482 178.734 144.248V151.208C178.734 151.849 178.209 152.369 177.561 152.369H168.18C167.532 152.369 167.007 151.849 167.007 151.208V145.408H132.999V133.808Z" fill="white"/>
<path d="M175.204 151.21V144.261C175.204 138.504 170.462 133.838 164.613 133.838H168.144C173.993 133.838 178.734 138.504 178.734 144.261V151.21C178.734 151.85 178.207 152.369 177.557 152.369H174.027C174.678 152.369 175.204 151.85 175.204 151.21Z" fill="#4CD9ED"/>
<path d="M151.706 121.05C151.706 120.408 151.163 119.887 150.494 119.887H154.13C154.799 119.887 155.342 120.408 155.342 121.05V133.838H151.706V121.05Z" fill="#4CD9ED"/>
<path d="M137.639 126.966H142.36V124.607H156.523V126.966H161.244V122.247C161.243 120.944 160.186 119.887 158.883 119.887H139.999C138.695 119.887 137.639 120.944 137.639 122.247V126.966Z" fill="#437FEC"/>
<path d="M180 150.078H165.879V154.867H180V150.078Z" fill="#0160E7"/>
<path d="M101.624 131.793C101.542 130.164 100.2 128.887 98.5688 128.887H95.8429C94.1562 128.887 92.7846 130.26 92.7846 131.946V133.883H63.2173V131.946C63.2173 130.26 61.8447 128.887 60.1579 128.887H57.4331C55.8015 128.887 54.4594 130.164 54.3789 131.793C51.8213 183.069 52.117 177.089 52.0038 179.488C51.961 180.358 52.6595 181.09 53.5314 181.09C105.93 181.09 102.608 181.146 103.02 180.988C103.63 180.752 104.032 180.15 103.999 179.487C103.837 176.058 104.152 182.468 101.624 131.793ZM74.7387 148.565C74.7387 149.409 74.0534 150.094 73.209 150.094H64.8489C64.0045 150.094 63.3193 149.409 63.3193 148.565V143.467C63.3193 142.623 64.0045 141.937 64.8489 141.937H73.209C74.0534 141.937 74.7387 142.623 74.7387 143.467V148.565ZM92.6827 148.565C92.6827 149.409 91.9974 150.094 91.153 150.094H82.7929C81.9485 150.094 81.2632 149.409 81.2632 148.565V143.467C81.2632 142.623 81.9485 141.937 82.7929 141.937H91.153C91.9974 141.937 92.6827 142.623 92.6827 143.467V148.565Z" fill="white"/>
<path d="M74.7378 148.565C70.9208 148.565 67.1191 148.565 63.3184 148.565C63.3184 149.393 63.9782 150.067 64.8011 150.091V180.987H73.2112V150.094C74.0535 150.093 74.7378 149.408 74.7378 148.565Z" fill="#437FEC"/>
<path d="M92.6812 148.565C88.8641 148.565 85.0624 148.565 81.2617 148.565C81.2617 149.393 81.9215 150.067 82.7445 150.091V180.987H91.1546V150.094C91.9979 150.093 92.6812 149.408 92.6812 148.565Z" fill="#437FEC"/>
<path d="M103.997 179.488C104.03 180.152 103.628 180.753 103.018 180.989C102.606 181.147 105.923 181.091 53.5294 181.091C52.6595 181.091 51.96 180.361 52.0018 179.488C52.1384 176.584 51.9997 179.469 52.9145 161.111C56.0758 161.252 58.0358 162.058 60.1508 162.805C63.7486 164.076 67.6818 163.994 71.2245 162.577C75.579 160.836 80.3984 160.78 84.7967 162.43L85.53 162.704C89.09 164.04 93.012 164.04 96.5721 162.704C98.0518 162.15 100.036 161.349 103.089 161.185C103.089 161.198 103.9 177.419 103.997 179.488Z" fill="#4592EC"/>
<path d="M103.997 179.488C104.03 180.152 103.628 180.753 103.018 180.989C102.606 181.147 105.923 181.091 53.5294 181.091C52.6595 181.091 51.96 180.361 52.0018 179.488C52.0834 177.751 52.0303 178.8 52.5086 169.255C55.8728 169.331 57.9603 170.188 60.1508 170.962C63.7486 172.233 67.6818 172.151 71.2245 170.734C75.579 168.993 80.3984 168.937 84.7967 170.587L85.53 170.861C89.09 172.197 93.012 172.197 96.5721 170.861L97.5062 170.511C99.4407 169.786 101.463 169.39 103.495 169.323C103.946 178.42 103.785 174.995 103.997 179.488Z" fill="#4CD9ED"/>
<path d="M99.8374 106.93C99.2977 107.284 98.5723 107.133 98.2182 106.595C97.8642 106.055 98.0108 105.334 98.5505 104.98L111.878 96.2248L101.187 89.1992C101.01 89.1025 100.854 88.9606 100.741 88.7796C100.4 88.2274 100.572 87.5068 101.126 87.1652L111.764 80.6294L102.488 74.9297C101.935 74.5896 101.762 73.869 102.102 73.3152C102.199 73.1608 102.324 73.036 102.469 72.944L111.954 66.338L103.792 60.6602C103.261 60.2889 103.133 59.5589 103.5 59.0286C103.871 58.4982 104.601 58.3656 105.132 58.7369L114.001 64.9139L122.875 58.7369C123.405 58.3656 124.135 58.4982 124.506 59.0286C124.873 59.5589 124.74 60.2889 124.21 60.6602L116.052 66.338L125.536 72.944C125.681 73.0376 125.806 73.1608 125.903 73.3152C126.238 73.8674 126.066 74.5881 125.517 74.9297L116.241 80.6294L126.879 87.1652C127.428 87.5052 127.6 88.2259 127.264 88.7796C127.149 88.9606 126.994 89.1025 126.818 89.1992L116.127 96.2248L129.462 104.997C129.997 105.352 130.147 106.077 129.794 106.617C129.442 107.156 128.715 107.306 128.175 106.949L113.999 97.624L99.8374 106.93ZM105.241 73.869L113.999 79.2552L122.763 73.869L113.999 67.7669L105.241 73.869ZM103.92 88.1994L114.001 94.8272L124.082 88.1994L114.001 82.0052L103.92 88.1994Z" fill="white"/>
<path fill-rule="evenodd" clip-rule="evenodd" d="M95.8576 108.752C95.1634 108.752 94.9513 108.451 95.009 107.819L99.6121 59.6977L102.194 59.0737L104.462 59.6977L99.8586 107.819C99.8009 108.417 99.4296 108.752 98.8291 108.752H95.8576Z" fill="#437FEC"/>
<path fill-rule="evenodd" clip-rule="evenodd" d="M123.543 59.6977L128.146 107.819C128.204 108.421 128.57 108.752 129.172 108.752H132.144C132.763 108.752 133.055 108.424 132.993 107.819L128.394 59.6977L125.847 58.8804L123.543 59.6977Z" fill="#437FEC"/>
<path fill-rule="evenodd" clip-rule="evenodd" d="M98.8281 37.0267H129.17V54.5314H98.8281V37.0267Z" fill="#4CD9ED"/>
<path fill-rule="evenodd" clip-rule="evenodd" d="M97.2703 54.0682H130.738C131.256 54.0682 131.676 54.4878 131.676 55.0056V58.7602C131.676 59.2781 131.256 59.6977 130.738 59.6977H97.2703C96.7524 59.6977 96.3281 59.2781 96.3281 58.7602V55.0056C96.3297 54.4878 96.754 54.0682 97.2703 54.0682Z" fill="#437FEC"/>
<path fill-rule="evenodd" clip-rule="evenodd" d="M126.045 54.0682H130.737C131.255 54.0682 131.674 54.4878 131.674 55.0056V58.7602C131.674 59.2781 131.255 59.6977 130.737 59.6977H126.045C126.563 59.6977 126.982 59.2781 126.982 58.7602V55.0056C126.981 54.4878 126.561 54.0682 126.045 54.0682Z" fill="#4592EC"/>
<path fill-rule="evenodd" clip-rule="evenodd" d="M114.84 29.0949L130.833 37.072C131.076 37.1921 131.036 37.4916 130.736 37.4916H97.268C96.9982 37.4916 96.8828 37.2124 97.1667 37.072L113.16 29.0949C113.735 28.811 114.305 28.825 114.84 29.0949Z" fill="#437FEC"/>
<path fill-rule="evenodd" clip-rule="evenodd" d="M114.838 29.0949L130.831 37.072C131.074 37.1921 131.034 37.4916 130.734 37.4916H126.042C126.343 37.4916 126.382 37.1905 126.139 37.072L111.654 29.8467L113.158 29.0949C113.734 28.811 114.303 28.825 114.838 29.0949Z" fill="#4592EC"/>
<path fill-rule="evenodd" clip-rule="evenodd" d="M98.8281 42.1837H129.17V49.3777H98.8281V42.1837Z" fill="white"/>
<defs>
<filter id="filter0_d" x="0" y="0" width="226" height="226" filterUnits="userSpaceOnUse" color-interpolation-filters="sRGB">
<feFlood flood-opacity="0" result="BackgroundImageFix"/>
<feColorMatrix in="SourceAlpha" type="matrix" values="0 0 0 0 0 0 0 0 0 0 0 0 0 0 0 0 0 0 127 0"/>
<feOffset dy="4"/>
<feGaussianBlur stdDeviation="4"/>
<feColorMatrix type="matrix" values="0 0 0 0 0 0 0 0 0 0 0 0 0 0 0 0 0 0 0.15 0"/>
<feBlend mode="normal" in2="BackgroundImageFix" result="effect1_dropShadow"/>
<feBlend mode="normal" in="SourceGraphic" in2="effect1_dropShadow" result="shape"/>
</filter>
<linearGradient id="paint0_linear" x1="198" y1="46" x2="34" y2="170" gradientUnits="userSpaceOnUse">
<stop stop-color="#4CD9ED"/>
<stop offset="1" stop-color="#437FEC"/>
</linearGradient>
</defs>
</svg>
