<?xml version="1.0" encoding="utf-8"?>
<!-- Generator: Adobe Illustrator 25.0.0, SVG Export Plug-In . SVG Version: 6.00 Build 0)  -->
<svg version="1.1" id="Layer_1" xmlns="http://www.w3.org/2000/svg" xmlns:xlink="http://www.w3.org/1999/xlink" x="0px" y="0px"
	 viewBox="0 0 75 75" style="enable-background:new 0 0 75 75;" xml:space="preserve">
<style type="text/css">
	.st0{fill:#2771EA;}
	.st1{fill:#0160E7;}
	.st2{fill:#00C3FF;}
	.st3{fill:#34CDFA;}
	.st4{fill:#E6F9FE;}
	.st5{fill:#4592EC;}
	.st6{fill:#0A64E7;}
</style>
<g>
	<path class="st1" d="M37.5,2.5C24.62,2.52,14.18,12.95,14.17,25.83c0,7.12,3.07,11.36,6.32,15.84c0.96,1.32,1.95,2.69,2.88,4.17
		c1.26,2,2.26,5.64,2.53,6.88c0.3,1.33,1.48,2.28,2.85,2.28h17.5c1.37,0,2.55-0.95,2.85-2.28c0.28-1.23,1.27-4.88,2.54-6.88
		c0.94-1.48,1.92-2.84,2.88-4.17c3.25-4.48,6.32-8.72,6.32-15.84C60.82,12.95,50.38,2.52,37.5,2.5z"/>
	<path class="st2" d="M49.17,52.08H25.83c-1.61,0-2.92,1.31-2.92,2.92v8.75c0.01,4.83,3.92,8.74,8.75,8.75h11.67
		c4.83-0.01,8.74-3.92,8.75-8.75V55C52.08,53.39,50.78,52.08,49.17,52.08z"/>
	<path class="st5" d="M40.42,69.58c-4.83-0.01-8.74-3.92-8.75-8.75v-8.75h-5.83c-1.61,0-2.92,1.31-2.92,2.92v8.75
		c0.01,4.83,3.92,8.74,8.75,8.75h11.67c2.49,0,4.86-1.06,6.51-2.92H40.42z"/>
	<path class="st1" d="M22.92,57.92h29.17v5.83H22.92V57.92z"/>
	<path class="st6" d="M31.67,60.83v-2.92h-8.75v5.83h9.25C31.84,62.81,31.67,61.83,31.67,60.83z"/>
	<path class="st2" d="M66.67,22.92h5.83v5.83h-5.83V22.92z"/>
	<path class="st2" d="M61.3,8.72l5.05-2.92l2.92,5.05l-5.05,2.92L61.3,8.72z"/>
	<path class="st2" d="M61.3,42.94l2.92-5.05l5.05,2.92l-2.92,5.05L61.3,42.94z"/>
	<path class="st2" d="M2.5,22.92h5.83v5.83H2.5V22.92z"/>
	<path class="st2" d="M5.73,10.86l2.92-5.05l5.05,2.92l-2.92,5.05L5.73,10.86z"/>
	<path class="st2" d="M5.73,40.81l5.05-2.92l2.92,5.05l-5.05,2.92L5.73,40.81z"/>
</g>
</svg>
