<?xml version="1.0" encoding="utf-8"?>
<!-- Generator: Adobe Illustrator 25.0.0, SVG Export Plug-In . SVG Version: 6.00 Build 0)  -->
<svg version="1.1" id="Layer_1" xmlns="http://www.w3.org/2000/svg" xmlns:xlink="http://www.w3.org/1999/xlink" x="0px" y="0px"
	 viewBox="0 0 75 75" style="enable-background:new 0 0 75 75;" xml:space="preserve">
<style type="text/css">
	.st0{fill:#2771EA;}
	.st1{fill:#0160E7;}
	.st2{fill:#00C3FF;}
	.st3{fill:#34CDFA;}
	.st4{fill:#E6F9FE;}
	.st5{fill:#4592EC;}
	.st6{fill:#0A64E7;}
</style>
<g>
	<path class="st0" d="M22.29,64.59c0.18-0.76,0.95-1.23,1.72-1.04c0.76,0.19,1.23,0.95,1.04,1.72c-0.43,1.85-1.45,3.51-2.91,4.73
		c0.55,0.2,1.12,0.32,1.7,0.37c1.46,0.11,2.98-0.3,4.39-1.2c0.35-0.22,0.77-0.28,1.17-0.17c0.4,0.12,0.72,0.4,0.89,0.78
		c1.01,2.23,2.34,3.56,3.74,3.76c2.37,0.33,4.37-1.17,5.25-1.95V50.97c0-0.1-0.09-0.2-0.11-0.31c-0.49-2.1-3.17-3.18-3.48-3.3
		c-0.73-0.28-1.1-1.1-0.82-1.83c0.28-0.73,1.1-1.1,1.83-0.82c0.93,0.35,1.79,0.84,2.58,1.45V3.61c-1.77-1.72-4.82-2.55-7.5-2.04
		c-3.09,0.59-5.39,2.8-5.99,5.57c0.02,0,0.03,0,0.05,0.01c2.85,0.34,5.56,1.7,7.85,3.91c0.56,0.55,0.58,1.44,0.03,2.01
		c-0.55,0.56-1.44,0.58-2.01,0.03c-2.2-2.13-4.82-3.22-7.37-3.2c-0.04,0-0.09,0.01-0.14,0.01c-0.02,0-0.03,0-0.05,0
		c-1.64,0.05-3.23,0.55-4.59,1.46c-2.7,1.78-3.35,5.23-2.59,7.71c0.26,0.83,0.67,1.6,1.22,2.28c0.31,0.39,0.39,0.92,0.21,1.39
		c-0.18,0.47-0.59,0.81-1.09,0.89c-0.02,0-2.83,0.53-4.2,2.63c-0.6,0.92-0.85,2.04-0.76,3.34c2.32-0.7,4.77-0.82,7.15-0.37
		c3.56,0.66,6.61,2.51,8.57,5.19c0.46,0.63,0.33,1.52-0.31,1.98s-1.52,0.33-1.98-0.31c-3.18-4.34-10.01-5.61-14.92-2.77
		c-2.49,1.44-4.22,3.72-4.75,6.25c-0.45,2.1,0.04,4.3,1.34,6.01c0.26,0.35,0.34,0.8,0.23,1.22s-0.42,0.76-0.82,0.93
		c-0.53,0.23-3.57,2.08-4.25,4.56c-0.5,1.84,0.47,4.49,4.73,6.44c0.37,0.17,0.66,0.5,0.77,0.89c0.12,0.39,0.05,0.82-0.17,1.17
		c-1.41,2.1-1.25,4.88,0.37,6.81c2.6,3.04,8.93,2.73,11.93,0.28C21.28,67.05,21.99,65.89,22.29,64.59z M33.95,62.25
		c-0.06,0.64-0.28,1.85-1.08,2.76c-0.52,0.59-1.42,0.65-2,0.13c-0.59-0.52-0.65-1.41-0.13-2c0.19-0.21,0.34-0.66,0.38-1.15
		c0.07-0.71-1-1.53-2.79-2.15c-0.74-0.25-1.13-1.06-0.88-1.8c0.26-0.74,1.06-1.14,1.8-0.88C33.61,58.65,34.07,60.99,33.95,62.25z
		 M27.87,25.38c-0.36,0.12-0.75,0.1-1.08-0.07c-0.34-0.17-0.6-0.46-0.72-0.81c-0.21-0.6-0.23-1.24-0.06-1.85
		c0.23-0.73,0.7-1.36,1.33-1.78c-0.84-1.15-1.39-2.48-1.6-3.89c-0.12-0.77,0.41-1.5,1.19-1.62c0.77-0.12,1.5,0.41,1.62,1.19
		c0.34,2.19,1.7,3.86,3.37,4.16c0.57,0.09,1.16,0.05,1.71-0.12c0.49-0.14,1.02-0.02,1.38,0.33s0.52,0.87,0.4,1.37
		c-0.12,0.49-0.5,0.89-0.99,1.03c-0.63,0.18-1.28,0.28-1.93,0.28c-0.36,0-0.72-0.03-1.07-0.09c-0.6-0.11-1.19-0.31-1.73-0.6
		c-0.64,0.15-0.93,0.44-0.96,0.55c0,0.04,0,0.09,0.02,0.12C29,24.32,28.61,25.12,27.87,25.38z M18.26,55.81
		c0.57,0.52,0.62,1.41,0.1,1.99c-0.51,0.58-1.4,0.64-1.99,0.14c-1.31-1.16-1.8-2.82-1.3-4.33c0.33-0.95,0.98-1.74,1.84-2.25
		c-1.02-1.15-1.73-2.55-2.05-4.06c-0.16-0.77,0.33-1.52,1.1-1.68c0.77-0.16,1.52,0.33,1.68,1.1c0.35,1.65,1.37,3.08,2.81,3.96
		c0.15,0.05,0.29,0.13,0.42,0.23c0.64,0.32,1.34,0.5,2.05,0.54c1.84,0.1,3.32-0.85,3.87-1.27c0.63-0.47,1.51-0.35,1.99,0.28
		c0.47,0.63,0.35,1.52-0.28,1.99c-0.94,0.71-2.83,1.85-5.29,1.85c-0.15,0-0.29,0-0.44-0.01c-1.1-0.07-2.17-0.35-3.16-0.85
		c-0.95,0.05-1.67,0.55-1.85,1.08C17.63,54.92,17.82,55.42,18.26,55.81z"/>
	<path class="st1" d="M63.05,33.58c-0.69,0.69-1.19,1.55-1.43,2.5h-21.1v2.84h21.1c0.64,2.42,2.83,4.11,5.34,4.11
		c2.51,0,4.7-1.68,5.35-4.1c0.65-2.42-0.41-4.98-2.58-6.23C67.56,31.45,64.82,31.81,63.05,33.58z"/>
	<path class="st2" d="M62.12,57.39c-0.68,0.68-1.18,1.53-1.43,2.46h-7.4v-6.89c-0.03-0.8-0.69-1.44-1.49-1.45H40.52v2.84h9.93v7
		c-0.01,0.36,0.12,0.71,0.38,0.97c0.26,0.25,0.61,0.39,0.97,0.38h8.9c0.21,0.97,0.71,1.85,1.43,2.53c2.16,2.16,5.66,2.15,7.82-0.01
		c2.16-2.16,2.16-5.66,0-7.82C67.79,55.24,64.29,55.24,62.12,57.39z"/>
	<path class="st2" d="M53.29,22.03v-6.89h7.4c0.65,2.43,2.86,4.12,5.37,4.11c2.51,0,4.72-1.69,5.36-4.12s-0.42-4.99-2.59-6.25
		C66.65,7.63,63.9,8,62.13,9.78c-0.72,0.68-1.22,1.56-1.43,2.53H51.8c-0.36-0.01-0.71,0.12-0.97,0.38c-0.26,0.25-0.39,0.6-0.38,0.97
		v7h-9.93v2.84H51.8C52.6,23.47,53.26,22.84,53.29,22.03z"/>
</g>
</svg>
