<svg width="20" height="20" viewBox="0 0 20 20" fill="none" xmlns="http://www.w3.org/2000/svg">
<path d="M6.99999 19.5C5.62363 19.4923 4.28007 19.079 3.13732 18.3118C1.99458 17.5446 1.10336 16.4576 0.575121 15.1866C0.0468782 13.9156 -0.094948 12.5171 0.167377 11.1659C0.429702 9.81478 1.08454 8.57094 2.04999 7.58996L7.69999 1.99996C8.63722 1.06566 9.90662 0.541016 11.23 0.541016C12.5534 0.541016 13.8228 1.06566 14.76 1.99996C15.6912 2.93677 16.214 4.20403 16.214 5.52496C16.214 6.84589 15.6912 8.11314 14.76 9.04996L9.10999 14.68C8.54791 15.2387 7.78755 15.5523 6.99499 15.5523C6.20244 15.5523 5.44208 15.2387 4.87999 14.68C4.59774 14.3981 4.37454 14.0628 4.22344 13.6936C4.07233 13.3244 3.99637 12.9288 3.99999 12.53C3.99804 11.736 4.31089 10.9737 4.86999 10.41L10.52 4.77996C10.613 4.68623 10.7236 4.61183 10.8454 4.56106C10.9673 4.5103 11.098 4.48416 11.23 4.48416C11.362 4.48416 11.4927 4.5103 11.6146 4.56106C11.7364 4.61183 11.847 4.68623 11.94 4.77996C12.1262 4.96732 12.2308 5.22077 12.2308 5.48496C12.2308 5.74914 12.1262 6.00259 11.94 6.18996L6.28999 11.82C6.10374 12.0073 5.9992 12.2608 5.9992 12.525C5.9992 12.7891 6.10374 13.0426 6.28999 13.23C6.47736 13.4162 6.73081 13.5207 6.99499 13.5207C7.25918 13.5207 7.51263 13.4162 7.69999 13.23L13.35 7.58996C13.9027 7.02873 14.2125 6.27264 14.2125 5.48496C14.2125 4.69727 13.9027 3.94119 13.35 3.37996C12.7875 2.81815 12.025 2.5026 11.23 2.5026C10.435 2.5026 9.67249 2.81815 9.10999 3.37996L3.45999 8.99996C2.54386 9.9346 2.03071 11.1912 2.03071 12.5C2.03071 13.8087 2.54386 15.0653 3.45999 16C4.39722 16.9343 5.66662 17.4589 6.98999 17.4589C8.31337 17.4589 9.58277 16.9343 10.52 16L18.29 8.25996C18.383 8.16623 18.4936 8.09183 18.6154 8.04106C18.7373 7.9903 18.868 7.96416 19 7.96416C19.132 7.96416 19.2627 7.9903 19.3846 8.04106C19.5064 8.09183 19.617 8.16623 19.71 8.25996C19.8962 8.44732 20.0008 8.70077 20.0008 8.96496C20.0008 9.22914 19.8962 9.48259 19.71 9.66996L11.94 17.42C11.2936 18.0742 10.5246 18.5946 9.67697 18.9515C8.82934 19.3084 7.91968 19.4948 6.99999 19.5Z" fill="#979797"/>
</svg>
