<svg width="20" height="22" viewBox="0 0 20 22" fill="none" xmlns="http://www.w3.org/2000/svg">
<g clip-path="url(#clip0)">
<path d="M9.9952 4.03116L7.61499 6.49707L9.9952 8.96298L12.3754 6.49707L9.9952 4.03116Z" fill="#437FEC"/>
<path d="M9.99252 17.0722L7.6123 19.5381L9.99252 22.004L12.3727 19.5381L9.99252 17.0722Z" fill="#3B2E85"/>
<path d="M6.45907 0.354406L4.07886 2.82031L6.45907 5.28622L8.83928 2.82031L6.45907 0.354406Z" fill="#60E4FF"/>
<path d="M13.5323 0.355382L11.1521 2.82129L13.5323 5.2872L15.9125 2.82129L13.5323 0.355382Z" fill="#60E4FF"/>
<path d="M18.6198 2.94253L4.21191 17.8691L5.59193 19.2988L19.9998 4.37223L18.6198 2.94253Z" fill="#437FEC"/>
<path d="M-0.00357711 4.36441L14.4043 19.291L15.7843 17.8613L1.37644 2.93471L-0.00357711 4.36441Z" fill="#437FEC"/>
</g>
<defs>
<clipPath id="clip0">
<rect width="20" height="22" fill="white"/>
</clipPath>
</defs>
</svg>
