<svg width="23" height="22" viewBox="0 0 23 22" fill="none" xmlns="http://www.w3.org/2000/svg">
<g clip-path="url(#clip0)">
<path d="M11.4649 8.09611L8.79175 10.5723L11.4649 13.0484L14.1381 10.5723L11.4649 8.09611Z" fill="#3B2E85"/>
<path d="M2.73959 8.13029L0.0664062 10.6064L2.73959 13.0826L5.41278 10.6064L2.73959 8.13029Z" fill="#3B70E8"/>
<path d="M20.2603 8.11272L17.5872 10.5889L20.2603 13.065L22.9335 10.5889L20.2603 8.11272Z" fill="#60E4FF"/>
<path d="M7.09506 4.04826L4.42188 6.52441L7.09506 9.00057L9.76825 6.52441L7.09506 4.04826Z" fill="#3B70E8"/>
<path d="M7.10654 12.1752L4.43335 14.6514L7.10654 17.1275L9.77973 14.6514L7.10654 12.1752Z" fill="#3B70E8"/>
<path d="M17.4428 2.56291L20.116 5.03906L22.7892 2.56291L20.116 0.0867544L17.4428 2.56291Z" fill="#60E4FF"/>
<path d="M13.0849 6.56193L15.7581 9.03809L18.4312 6.56193L15.7581 4.08578L13.0849 6.56193Z" fill="#60E4FF"/>
<path d="M13.1989 14.6508L15.8721 17.127L18.5453 14.6508L15.8721 12.1746L13.1989 14.6508Z" fill="#60E4FF"/>
<path d="M17.5212 18.6547L20.1943 21.1309L22.8675 18.6547L20.1943 16.1786L17.5212 18.6547Z" fill="#60E4FF"/>
<path d="M0.118073 2.53752L2.79126 5.01367L5.46445 2.53752L2.79126 0.0613634L0.118073 2.53752Z" fill="#60E4FF"/>
<path d="M0.0675348 18.6547L2.74072 21.1309L5.41391 18.6547L2.74072 16.1785L0.0675348 18.6547Z" fill="#60E4FF"/>
</g>
<defs>
<clipPath id="clip0">
<rect width="23" height="21.1929" fill="white"/>
</clipPath>
</defs>
</svg>
