<svg width="46" height="43" viewBox="0 0 46 43" fill="none" xmlns="http://www.w3.org/2000/svg">
<path d="M22.9323 16.4271L17.5859 21.4512L22.9323 26.4753L28.2787 21.4512L22.9323 16.4271Z" fill="#3B2E85"/>
<path d="M5.47919 16.4964L0.132812 21.5205L5.47919 26.5446L10.8256 21.5205L5.47919 16.4964Z" fill="#3B70E8"/>
<path d="M40.5183 16.4603L35.1719 21.4844L40.5183 26.5085L45.8646 21.4844L40.5183 16.4603Z" fill="#60E4FF"/>
<path d="M14.1901 8.21322L8.84375 13.2373L14.1901 18.2614L19.5365 13.2373L14.1901 8.21322Z" fill="#3B70E8"/>
<path d="M14.2136 24.7025L8.86719 29.7266L14.2136 34.7506L19.5599 29.7266L14.2136 24.7025Z" fill="#3B70E8"/>
<path d="M34.888 5.20053L40.2344 10.2246L45.5808 5.20053L40.2344 0.176449L34.888 5.20053Z" fill="#60E4FF"/>
<path d="M26.1692 13.3138L31.5156 18.3379L36.862 13.3138L31.5156 8.28973L26.1692 13.3138Z" fill="#60E4FF"/>
<path d="M26.3958 29.7269L31.7422 34.751L37.0886 29.7269L31.7422 24.7028L26.3958 29.7269Z" fill="#60E4FF"/>
<path d="M35.0443 37.8499L40.3906 42.874L45.737 37.8499L40.3906 32.8259L35.0443 37.8499Z" fill="#60E4FF"/>
<path d="M0.235657 5.14877L5.58203 10.1729L10.9284 5.14877L5.58203 0.124689L0.235657 5.14877Z" fill="#60E4FF"/>
<path d="M0.134093 37.8509L5.48047 42.875L10.8268 37.8509L5.48047 32.8268L0.134093 37.8509Z" fill="#60E4FF"/>
</svg>
