<svg width="45" height="45" viewBox="0 0 45 45" fill="none" xmlns="http://www.w3.org/2000/svg">
<path d="M22.4395 0C10.047 0 0 10.047 0 22.4395C0 34.832 10.047 44.879 22.4395 44.879C34.832 44.879 44.879 34.832 44.879 22.4395C44.879 10.047 34.832 0 22.4395 0Z" fill="#B7C0EB"/>
<path fill-rule="evenodd" clip-rule="evenodd" d="M19.4266 22.7263C19.4266 20.7881 19.3656 19.1358 19.3047 17.7694H23.3086L23.5215 19.8981H23.6125C24.2192 18.9128 25.7354 17.4207 28.1922 17.4207C31.2247 17.4207 33.4995 19.518 33.4995 24.0918V33.3081H28.8898V24.6969C28.8898 22.6939 28.2231 21.3284 26.555 21.3284C25.2806 21.3284 24.523 22.2499 24.2201 23.1389C24.0982 23.4572 24.0382 23.9012 24.0382 24.3472V33.3081H19.4285V22.7263H19.4266Z" fill="white"/>
<path fill-rule="evenodd" clip-rule="evenodd" d="M15.8833 13.447C15.8833 14.781 14.9137 15.8606 13.3974 15.8606C11.9402 15.8606 10.9707 14.781 11.0007 13.447C10.9707 12.0482 11.9402 11 13.4265 11C14.9137 11 15.8542 12.0482 15.8833 13.447ZM11.1226 33.3061V17.7674H15.7323V33.3051H11.1226V33.3061Z" fill="white"/>
</svg>
