<?xml version="1.0" encoding="utf-8"?>
<!-- Generator: Adobe Illustrator 23.0.2, SVG Export Plug-In . SVG Version: 6.00 Build 0)  -->
<svg version="1.1" id="Layer_1" xmlns="http://www.w3.org/2000/svg" xmlns:xlink="http://www.w3.org/1999/xlink" x="0px" y="0px"
	 viewBox="0 0 1417.32 1417.32" style="enable-background:new 0 0 1417.32 1417.32;" xml:space="preserve">
<style type="text/css">
	.st0{fill:none;stroke:#2E3192;stroke-width:20;stroke-miterlimit:10;}
	.st1{fill:none;stroke:#00AEEF;stroke-width:12;stroke-miterlimit:10;}
	.st2{fill:none;stroke:#2E3192;stroke-width:43;stroke-miterlimit:10;}
	.st3{fill:none;stroke:#2E3192;stroke-width:45;stroke-miterlimit:10;}
	.st4{fill:none;}
	.st5{fill:#00AEEF;}
	.st6{font-family:'TruenoBd';}
	.st7{font-size:343.1785px;}
	.st8{font-size:413.2596px;}
	.st9{fill:#2E368F;}
	.st10{font-size:85.6841px;}
	.st11{fill:#2E3192;}
	.st12{font-family:'ArialNarrow';}
	.st13{font-size:45.2387px;}
</style>
<circle class="st0" cx="172.38" cy="538.41" r="17.01"/>
<circle class="st0" cx="172.01" cy="797.36" r="17.01"/>
<circle class="st0" cx="233.02" cy="668.44" r="17.01"/>
<circle class="st1" cx="263.03" cy="718.33" r="14.14"/>
<circle class="st1" cx="454.87" cy="710.38" r="14.14"/>
<circle class="st1" cx="455.42" cy="830.76" r="14.14"/>
<circle class="st1" cx="457.42" cy="466.09" r="14.14"/>
<circle class="st1" cx="422.98" cy="421.83" r="14.14"/>
<circle class="st1" cx="252.39" cy="401.35" r="14.14"/>
<circle class="st1" cx="300.46" cy="400.8" r="14.14"/>
<circle class="st1" cx="301.48" cy="936.54" r="14.14"/>
<circle class="st1" cx="354.51" cy="936.54" r="14.14"/>
<line class="st1" x1="375.66" y1="631.4" x2="445.43" y2="701.17"/>
<path class="st1" d="M350.81,652.27l101.11,102.11l3.91,3.91c0,0,0,32.8,0,59.77"/>
<line class="st1" x1="421.98" y1="583.14" x2="421.98" y2="435.15"/>
<polyline class="st1" points="457.42,475.19 457.42,556.83 366.95,466.09 "/>
<path class="st1" d="M363.11,927.99c13.08-13.08,59.61-59.61,59.61-59.61l0.26-122.61"/>
<circle class="st1" cx="166.6" cy="602.89" r="14.14"/>
<line class="st1" x1="179.89" y1="590.66" x2="288.32" y2="482.23"/>
<circle class="st1" cx="167" cy="733.86" r="14.14"/>
<line class="st1" x1="180.3" y1="746.09" x2="305.96" y2="871.76"/>
<line class="st1" x1="308.9" y1="929.68" x2="414.5" y2="824.08"/>
<line class="st1" x1="368.58" y1="718.43" x2="276.34" y2="718.43"/>
<path class="st1" d="M394.54,494.05c-38.72-38.77-80.34-80.45-80.34-80.45"/>
<line class="st1" x1="301.15" y1="450.22" x2="258.56" y2="407.58"/>
<polyline class="st2" points="246.38,668.44 343.8,668.44 406.97,604.64 406.97,528.12 343.8,464.95 246.67,464.95 182.74,528.33 
	"/>
<polyline class="st3" points="246.38,668.28 343.8,668.28 406.97,732.07 406.97,808.59 343.8,871.76 246.67,871.76 182.74,808.38 
	"/>
<rect x="561.82" y="639.96" class="st4" width="903.5" height="263.62"/>
<text transform="matrix(1.0053 0 0 1 561.8149 894.5977)" class="st5 st6 st7">nsys</text>
<text transform="matrix(0.8348 0 0 1 471.5674 892.8594)" class="st5 st6 st8">I</text>
<rect x="142.34" y="1090.6" class="st4" width="939.06" height="235.91"/>
<text transform="matrix(1 0 0 1 584.6846 650.46)" class="st9 st6 st10">www.3insys.com</text>
<g>
	<path class="st11" d="M154.39,986.17v49.93h-6.44v-49.93H154.39z"/>
	<path class="st11" d="M163.95,1009.95c0-3.7-0.07-6.74-0.3-9.7h5.78l0.37,5.93h0.15c1.78-3.41,5.93-6.74,11.85-6.74
		c4.96,0,12.67,2.96,12.67,15.26v21.41h-6.52v-20.67c0-5.78-2.15-10.59-8.3-10.59c-4.3,0-7.63,3.04-8.74,6.67
		c-0.3,0.82-0.44,1.93-0.44,3.04v21.56h-6.52V1009.95z"/>
	<path class="st11" d="M201.94,1029.43c1.93,1.26,5.33,2.59,8.59,2.59c4.74,0,6.96-2.37,6.96-5.33c0-3.11-1.85-4.82-6.67-6.59
		c-6.44-2.3-9.48-5.85-9.48-10.15c0-5.78,4.67-10.52,12.37-10.52c3.63,0,6.81,1.04,8.81,2.22l-1.63,4.74
		c-1.41-0.89-4-2.07-7.33-2.07c-3.85,0-6,2.22-6,4.89c0,2.96,2.15,4.3,6.82,6.07c6.22,2.37,9.41,5.48,9.41,10.81
		c0,6.3-4.89,10.74-13.41,10.74c-3.93,0-7.56-0.96-10.07-2.44L201.94,1029.43z"/>
	<path class="st11" d="M237.2,990.17c0.07,2.22-1.56,4-4.15,4c-2.3,0-3.93-1.78-3.93-4c0-2.3,1.7-4.07,4.07-4.07
		C235.64,986.1,237.2,987.87,237.2,990.17z M229.94,1036.1v-35.85h6.52v35.85H229.94z"/>
	<path class="st11" d="M275.94,1000.24c-0.15,2.59-0.3,5.48-0.3,9.85v20.81c0,8.22-1.63,13.26-5.11,16.37
		c-3.48,3.26-8.52,4.3-13.04,4.3c-4.3,0-9.04-1.04-11.93-2.96l1.63-4.96c2.37,1.48,6.07,2.82,10.52,2.82
		c6.67,0,11.56-3.48,11.56-12.52v-4h-0.15c-2,3.33-5.85,6-11.41,6c-8.89,0-15.26-7.56-15.26-17.48c0-12.15,7.93-19.04,16.15-19.04
		c6.22,0,9.63,3.26,11.19,6.22h0.15l0.3-5.41H275.94z M269.2,1014.39c0-1.11-0.07-2.08-0.37-2.96c-1.19-3.78-4.37-6.89-9.11-6.89
		c-6.22,0-10.67,5.26-10.67,13.55c0,7.04,3.56,12.89,10.59,12.89c4,0,7.63-2.52,9.04-6.67c0.37-1.11,0.52-2.37,0.52-3.48V1014.39z"
		/>
	<path class="st11" d="M284.23,983.5h6.52v22.37h0.15c1.04-1.85,2.67-3.48,4.67-4.59c1.93-1.11,4.22-1.85,6.67-1.85
		c4.81,0,12.52,2.96,12.52,15.33v21.33h-6.52v-20.59c0-5.78-2.15-10.67-8.3-10.67c-4.22,0-7.56,2.96-8.74,6.52
		c-0.37,0.89-0.44,1.85-0.44,3.11v21.63h-6.52V983.5z"/>
	<path class="st11" d="M330.67,989.95v10.3h9.33v4.96h-9.33v19.33c0,4.44,1.26,6.96,4.89,6.96c1.7,0,2.96-0.22,3.78-0.44l0.3,4.89
		c-1.26,0.52-3.26,0.89-5.78,0.89c-3.04,0-5.48-0.96-7.04-2.74c-1.85-1.92-2.52-5.11-2.52-9.33v-19.55h-5.56v-4.96h5.56v-8.59
		L330.67,989.95z"/>
	<path class="st11" d="M345.78,1036.1v-30.89h-5.04v-4.96h5.04v-1.7c0-5.04,1.11-9.63,4.15-12.52c2.44-2.37,5.7-3.33,8.74-3.33
		c2.3,0,4.3,0.52,5.56,1.04l-0.89,5.04c-0.96-0.44-2.3-0.82-4.15-0.82c-5.56,0-6.96,4.89-6.96,10.37v1.92h8.67v4.96h-8.67v30.89
		H345.78z"/>
	<path class="st11" d="M394.52,1026.32c0,3.7,0.07,6.96,0.3,9.78h-5.78l-0.37-5.85h-0.15c-1.7,2.89-5.48,6.67-11.85,6.67
		c-5.63,0-12.37-3.11-12.37-15.7v-20.96h6.52v19.85c0,6.81,2.07,11.41,8,11.41c4.37,0,7.41-3.04,8.59-5.93
		c0.37-0.96,0.59-2.15,0.59-3.33v-22h6.52V1026.32z"/>
	<path class="st11" d="M403.11,983.5h6.52v52.59h-6.52V983.5z"/>
	<path class="st11" d="M459.08,986.17v49.93h-6.44v-49.93H459.08z"/>
	<path class="st11" d="M468.63,1009.95c0-3.7-0.07-6.74-0.3-9.7h5.78l0.37,5.93h0.15c1.78-3.41,5.93-6.74,11.85-6.74
		c4.96,0,12.67,2.96,12.67,15.26v21.41h-6.52v-20.67c0-5.78-2.15-10.59-8.3-10.59c-4.3,0-7.63,3.04-8.74,6.67
		c-0.3,0.82-0.44,1.93-0.44,3.04v21.56h-6.52V1009.95z"/>
	<path class="st11" d="M507.52,1009.95c0-3.7-0.07-6.74-0.3-9.7H513l0.37,5.93h0.15c1.78-3.41,5.92-6.74,11.85-6.74
		c4.96,0,12.67,2.96,12.67,15.26v21.41h-6.52v-20.67c0-5.78-2.15-10.59-8.3-10.59c-4.3,0-7.63,3.04-8.74,6.67
		c-0.3,0.82-0.44,1.93-0.44,3.04v21.56h-6.52V1009.95z"/>
	<path class="st11" d="M578.85,1017.87c0,13.26-9.19,19.04-17.85,19.04c-9.7,0-17.19-7.11-17.19-18.45c0-12,7.85-19.04,17.78-19.04
		C571.89,999.43,578.85,1006.91,578.85,1017.87z M550.4,1018.24c0,7.85,4.52,13.78,10.89,13.78c6.22,0,10.89-5.85,10.89-13.93
		c0-6.07-3.04-13.78-10.74-13.78C553.74,1004.32,550.4,1011.43,550.4,1018.24z"/>
	<path class="st11" d="M586.85,1000.24l7.04,20.15c1.19,3.26,2.15,6.22,2.89,9.19H597c0.82-2.96,1.85-5.93,3.04-9.19l6.96-20.15
		h6.81l-14.07,35.85h-6.22l-13.63-35.85H586.85z"/>
	<path class="st11" d="M637.29,1036.1l-0.52-4.52h-0.22c-2,2.82-5.85,5.33-10.96,5.33c-7.26,0-10.96-5.11-10.96-10.3
		c0-8.67,7.7-13.41,21.56-13.33v-0.74c0-2.96-0.82-8.3-8.15-8.3c-3.33,0-6.81,1.04-9.33,2.67l-1.48-4.3
		c2.96-1.93,7.26-3.18,11.78-3.18c10.96,0,13.63,7.48,13.63,14.67v13.41c0,3.11,0.15,6.15,0.59,8.59H637.29z M636.33,1017.8
		c-7.11-0.15-15.18,1.11-15.18,8.07c0,4.22,2.81,6.22,6.15,6.22c4.67,0,7.63-2.96,8.67-6c0.22-0.67,0.37-1.41,0.37-2.07V1017.8z"/>
	<path class="st11" d="M658.47,989.95v10.3h9.33v4.96h-9.33v19.33c0,4.44,1.26,6.96,4.89,6.96c1.7,0,2.96-0.22,3.78-0.44l0.3,4.89
		c-1.26,0.52-3.26,0.89-5.78,0.89c-3.04,0-5.48-0.96-7.04-2.74c-1.85-1.92-2.52-5.11-2.52-9.33v-19.55h-5.56v-4.96h5.56v-8.59
		L658.47,989.95z"/>
	<path class="st11" d="M680.17,990.17c0.07,2.22-1.55,4-4.15,4c-2.3,0-3.93-1.78-3.93-4c0-2.3,1.7-4.07,4.07-4.07
		C678.62,986.1,680.17,987.87,680.17,990.17z M672.91,1036.1v-35.85h6.52v35.85H672.91z"/>
	<path class="st11" d="M690.54,1000.24l7.04,20.15c1.19,3.26,2.15,6.22,2.89,9.19h0.22c0.82-2.96,1.85-5.93,3.04-9.19l6.96-20.15
		h6.81l-14.07,35.85h-6.22l-13.63-35.85H690.54z"/>
	<path class="st11" d="M724.32,1019.36c0.15,8.82,5.78,12.44,12.3,12.44c4.67,0,7.48-0.82,9.92-1.85l1.11,4.67
		c-2.3,1.04-6.22,2.22-11.93,2.22c-11.04,0-17.63-7.26-17.63-18.07c0-10.82,6.37-19.33,16.82-19.33c11.7,0,14.82,10.3,14.82,16.89
		c0,1.33-0.15,2.37-0.22,3.04H724.32z M743.43,1014.69c0.07-4.15-1.7-10.59-9.04-10.59c-6.59,0-9.48,6.07-10,10.59H743.43z"/>
	<g>
		<path class="st11" d="M794.23,986.17v49.93h-6.44v-49.93H794.23z"/>
		<path class="st11" d="M803.78,1009.95c0-3.7-0.07-6.74-0.3-9.7h5.78l0.37,5.93h0.15c1.78-3.41,5.92-6.74,11.85-6.74
			c4.96,0,12.67,2.96,12.67,15.26v21.41h-6.52v-20.67c0-5.78-2.15-10.59-8.3-10.59c-4.3,0-7.63,3.04-8.74,6.67
			c-0.3,0.82-0.44,1.93-0.44,3.04v21.56h-6.52V1009.95z"/>
		<path class="st11" d="M850.22,989.95v10.3h9.33v4.96h-9.33v19.33c0,4.44,1.26,6.96,4.89,6.96c1.7,0,2.96-0.22,3.78-0.44l0.3,4.89
			c-1.26,0.52-3.26,0.89-5.78,0.89c-3.04,0-5.48-0.96-7.04-2.74c-1.85-1.92-2.52-5.11-2.52-9.33v-19.55h-5.56v-4.96h5.56v-8.59
			L850.22,989.95z"/>
		<path class="st11" d="M867.85,1019.36c0.15,8.82,5.78,12.44,12.3,12.44c4.67,0,7.48-0.82,9.93-1.85l1.11,4.67
			c-2.3,1.04-6.22,2.22-11.93,2.22c-11.04,0-17.63-7.26-17.63-18.07c0-10.82,6.37-19.33,16.82-19.33c11.7,0,14.82,10.3,14.82,16.89
			c0,1.33-0.15,2.37-0.22,3.04H867.85z M886.96,1014.69c0.07-4.15-1.7-10.59-9.04-10.59c-6.59,0-9.48,6.07-10,10.59H886.96z"/>
		<path class="st11" d="M899.11,983.5h6.52v52.59h-6.52V983.5z"/>
		<path class="st11" d="M914.37,983.5h6.52v52.59h-6.52V983.5z"/>
		<path class="st11" d="M936.88,990.17c0.07,2.22-1.55,4-4.15,4c-2.3,0-3.93-1.78-3.93-4c0-2.3,1.7-4.07,4.07-4.07
			C935.33,986.1,936.88,987.87,936.88,990.17z M929.62,1036.1v-35.85h6.52v35.85H929.62z"/>
		<path class="st11" d="M975.62,1000.24c-0.15,2.59-0.3,5.48-0.3,9.85v20.81c0,8.22-1.63,13.26-5.11,16.37
			c-3.48,3.26-8.52,4.3-13.04,4.3c-4.3,0-9.04-1.04-11.93-2.96l1.63-4.96c2.37,1.48,6.08,2.82,10.52,2.82
			c6.67,0,11.56-3.48,11.56-12.52v-4h-0.15c-2,3.33-5.85,6-11.41,6c-8.89,0-15.26-7.56-15.26-17.48c0-12.15,7.93-19.04,16.15-19.04
			c6.22,0,9.63,3.26,11.18,6.22h0.15l0.3-5.41H975.62z M968.88,1014.39c0-1.11-0.07-2.08-0.37-2.96c-1.19-3.78-4.37-6.89-9.11-6.89
			c-6.22,0-10.67,5.26-10.67,13.55c0,7.04,3.56,12.89,10.59,12.89c4,0,7.63-2.52,9.04-6.67c0.37-1.11,0.52-2.37,0.52-3.48V1014.39z"
			/>
		<path class="st11" d="M987.54,1019.36c0.15,8.82,5.78,12.44,12.3,12.44c4.67,0,7.48-0.82,9.92-1.85l1.11,4.67
			c-2.3,1.04-6.22,2.22-11.93,2.22c-11.04,0-17.63-7.26-17.63-18.07c0-10.82,6.37-19.33,16.82-19.33c11.7,0,14.82,10.3,14.82,16.89
			c0,1.33-0.15,2.37-0.22,3.04H987.54z M1006.66,1014.69c0.07-4.15-1.7-10.59-9.04-10.59c-6.59,0-9.48,6.07-10,10.59H1006.66z"/>
		<path class="st11" d="M1018.8,1009.95c0-3.7-0.07-6.74-0.3-9.7h5.78l0.37,5.93h0.15c1.78-3.41,5.92-6.74,11.85-6.74
			c4.96,0,12.67,2.96,12.67,15.26v21.41h-6.52v-20.67c0-5.78-2.15-10.59-8.3-10.59c-4.3,0-7.63,3.04-8.74,6.67
			c-0.3,0.82-0.44,1.93-0.44,3.04v21.56h-6.52V1009.95z"/>
		<path class="st11" d="M1065.24,989.95v10.3h9.33v4.96h-9.33v19.33c0,4.44,1.26,6.96,4.89,6.96c1.7,0,2.96-0.22,3.78-0.44l0.3,4.89
			c-1.26,0.52-3.26,0.89-5.78,0.89c-3.04,0-5.48-0.96-7.04-2.74c-1.85-1.92-2.52-5.11-2.52-9.33v-19.55h-5.56v-4.96h5.56v-8.59
			L1065.24,989.95z"/>
		<path class="st11" d="M1092.5,1028.25c2.89,1.78,7.11,3.26,11.56,3.26c6.59,0,10.45-3.48,10.45-8.52c0-4.67-2.67-7.33-9.41-9.93
			c-8.15-2.89-13.18-7.11-13.18-14.15c0-7.78,6.44-13.56,16.15-13.56c5.11,0,8.82,1.19,11.04,2.44l-1.78,5.26
			c-1.63-0.89-4.96-2.37-9.48-2.37c-6.81,0-9.41,4.07-9.41,7.48c0,4.67,3.04,6.96,9.93,9.63c8.44,3.26,12.74,7.33,12.74,14.67
			c0,7.7-5.7,14.37-17.48,14.37c-4.82,0-10.08-1.41-12.74-3.18L1092.5,1028.25z"/>
		<path class="st11" d="M1129.24,1000.24l7.85,21.19c0.82,2.37,1.7,5.19,2.3,7.33h0.15c0.67-2.15,1.41-4.89,2.3-7.48l7.11-21.04
			h6.89l-9.78,25.56c-4.67,12.3-7.85,18.59-12.3,22.45c-3.18,2.81-6.37,3.93-8,4.22l-1.63-5.48c1.63-0.52,3.78-1.56,5.7-3.18
			c1.78-1.41,4-3.93,5.48-7.26c0.3-0.67,0.52-1.19,0.52-1.56c0-0.37-0.15-0.89-0.44-1.7l-13.26-33.04H1129.24z"/>
		<path class="st11" d="M1158.2,1029.43c1.92,1.26,5.33,2.59,8.59,2.59c4.74,0,6.96-2.37,6.96-5.33c0-3.11-1.85-4.82-6.67-6.59
			c-6.44-2.3-9.48-5.85-9.48-10.15c0-5.78,4.67-10.52,12.37-10.52c3.63,0,6.82,1.04,8.82,2.22l-1.63,4.74
			c-1.41-0.89-4-2.07-7.33-2.07c-3.85,0-6,2.22-6,4.89c0,2.96,2.15,4.3,6.81,6.07c6.22,2.37,9.41,5.48,9.41,10.81
			c0,6.3-4.89,10.74-13.41,10.74c-3.93,0-7.56-0.96-10.07-2.44L1158.2,1029.43z"/>
		<path class="st11" d="M1194.05,989.95v10.3h9.33v4.96h-9.33v19.33c0,4.44,1.26,6.96,4.89,6.96c1.7,0,2.96-0.22,3.78-0.44l0.3,4.89
			c-1.26,0.52-3.26,0.89-5.78,0.89c-3.04,0-5.48-0.96-7.04-2.74c-1.85-1.92-2.52-5.11-2.52-9.33v-19.55h-5.56v-4.96h5.56v-8.59
			L1194.05,989.95z"/>
		<path class="st11" d="M1211.67,1019.36c0.15,8.82,5.78,12.44,12.3,12.44c4.67,0,7.48-0.82,9.92-1.85l1.11,4.67
			c-2.3,1.04-6.22,2.22-11.93,2.22c-11.04,0-17.63-7.26-17.63-18.07c0-10.82,6.37-19.33,16.82-19.33c11.7,0,14.82,10.3,14.82,16.89
			c0,1.33-0.15,2.37-0.22,3.04H1211.67z M1230.79,1014.69c0.07-4.15-1.7-10.59-9.04-10.59c-6.59,0-9.48,6.07-10,10.59H1230.79z"/>
		<path class="st11" d="M1242.93,1009.95c0-3.7-0.07-6.74-0.3-9.7h5.7l0.3,5.78h0.22c2-3.41,5.33-6.59,11.26-6.59
			c4.89,0,8.59,2.96,10.15,7.18h0.15c1.11-2,2.52-3.56,4-4.67c2.15-1.63,4.52-2.52,7.93-2.52c4.74,0,11.78,3.11,11.78,15.56v21.11
			h-6.37v-20.3c0-6.89-2.52-11.04-7.78-11.04c-3.7,0-6.59,2.74-7.7,5.93c-0.3,0.89-0.52,2.07-0.52,3.26v22.15h-6.37v-21.48
			c0-5.7-2.52-9.85-7.48-9.85c-4.07,0-7.04,3.26-8.07,6.52c-0.37,0.96-0.52,2.07-0.52,3.18v21.63h-6.37V1009.95z"/>
		<path class="st11" d="M1301.59,1029.43c1.92,1.26,5.33,2.59,8.59,2.59c4.74,0,6.96-2.37,6.96-5.33c0-3.11-1.85-4.82-6.67-6.59
			c-6.44-2.3-9.48-5.85-9.48-10.15c0-5.78,4.67-10.52,12.37-10.52c3.63,0,6.82,1.04,8.82,2.22l-1.63,4.74
			c-1.41-0.89-4-2.07-7.33-2.07c-3.85,0-6,2.22-6,4.89c0,2.96,2.15,4.3,6.81,6.07c6.22,2.37,9.41,5.48,9.41,10.81
			c0,6.3-4.89,10.74-13.41,10.74c-3.93,0-7.56-0.96-10.07-2.44L1301.59,1029.43z"/>
	</g>
	<rect x="420.56" y="993.98" class="st4" width="44.55" height="46.04"/>
	<text transform="matrix(1 0 0 1 420.5576 1026.3711)" class="st9 st12 st13">♦</text>
	<rect x="758.48" y="993.98" class="st4" width="44.55" height="46.04"/>
	<text transform="matrix(1 0 0 1 758.4756 1026.3711)" class="st9 st12 st13">♦</text>
</g>
<rect x="582.31" y="671.49" class="st11" width="741.14" height="4.46"/>
</svg>
