<svg xmlns="http://www.w3.org/2000/svg" xmlns:xlink="http://www.w3.org/1999/xlink" width="1302.98" height="733.85" viewBox="0 0 1302.98 733.85">
  <defs>
    <clipPath id="clip-path">
      <rect x="-68" y="-23" width="1302.98" height="733.85" fill="none"/>
    </clipPath>
  </defs>
  <g id="Group_3" data-name="Group 3" transform="translate(-63 -335)">
    <g id="Scroll_Group_1" data-name="Scroll Group 1" transform="translate(131 358)" clip-path="url(#clip-path)" style="isolation: isolate">
      <g id="logo" transform="translate(-142.34 -380.66)">
        <circle id="Ellipse_1" data-name="Ellipse 1" cx="17.01" cy="17.01" r="17.01" transform="translate(155.37 521.4)" fill="none" stroke="#2e3192" stroke-miterlimit="10" stroke-width="20"/>
        <circle id="Ellipse_2" data-name="Ellipse 2" cx="17.01" cy="17.01" r="17.01" transform="translate(155 780.35)" fill="none" stroke="#2e3192" stroke-miterlimit="10" stroke-width="20"/>
        <circle id="Ellipse_3" data-name="Ellipse 3" cx="17.01" cy="17.01" r="17.01" transform="translate(216.01 651.43)" fill="none" stroke="#2e3192" stroke-miterlimit="10" stroke-width="20"/>
        <circle id="Ellipse_4" data-name="Ellipse 4" cx="14.14" cy="14.14" r="14.14" transform="translate(248.89 704.19)" fill="none" stroke="#00aeef" stroke-miterlimit="10" stroke-width="12"/>
        <circle id="Ellipse_5" data-name="Ellipse 5" cx="14.14" cy="14.14" r="14.14" transform="translate(440.73 696.24)" fill="none" stroke="#00aeef" stroke-miterlimit="10" stroke-width="12"/>
        <circle id="Ellipse_6" data-name="Ellipse 6" cx="14.14" cy="14.14" r="14.14" transform="translate(441.28 816.62)" fill="none" stroke="#00aeef" stroke-miterlimit="10" stroke-width="12"/>
        <circle id="Ellipse_7" data-name="Ellipse 7" cx="14.14" cy="14.14" r="14.14" transform="translate(443.28 451.95)" fill="none" stroke="#00aeef" stroke-miterlimit="10" stroke-width="12"/>
        <circle id="Ellipse_8" data-name="Ellipse 8" cx="14.14" cy="14.14" r="14.14" transform="translate(408.84 407.69)" fill="none" stroke="#00aeef" stroke-miterlimit="10" stroke-width="12"/>
        <circle id="Ellipse_9" data-name="Ellipse 9" cx="14.14" cy="14.14" r="14.14" transform="translate(238.25 387.21)" fill="none" stroke="#00aeef" stroke-miterlimit="10" stroke-width="12"/>
        <circle id="Ellipse_10" data-name="Ellipse 10" cx="14.14" cy="14.14" r="14.14" transform="translate(286.32 386.66)" fill="none" stroke="#00aeef" stroke-miterlimit="10" stroke-width="12"/>
        <circle id="Ellipse_11" data-name="Ellipse 11" cx="14.14" cy="14.14" r="14.14" transform="translate(287.34 922.4)" fill="none" stroke="#00aeef" stroke-miterlimit="10" stroke-width="12"/>
        <circle id="Ellipse_12" data-name="Ellipse 12" cx="14.14" cy="14.14" r="14.14" transform="translate(340.37 922.4)" fill="none" stroke="#00aeef" stroke-miterlimit="10" stroke-width="12"/>
        <line id="Line_1" data-name="Line 1" x2="69.77" y2="69.77" transform="translate(375.66 631.4)" fill="none" stroke="#00aeef" stroke-miterlimit="10" stroke-width="12"/>
        <path id="Path_1" data-name="Path 1" d="M350.81,652.27,451.92,754.38l3.91,3.91v59.77" fill="none" stroke="#00aeef" stroke-miterlimit="10" stroke-width="12"/>
        <line id="Line_2" data-name="Line 2" y1="147.99" transform="translate(421.98 435.15)" fill="none" stroke="#00aeef" stroke-miterlimit="10" stroke-width="12"/>
        <path id="Path_2" data-name="Path 2" d="M457.42,475.19v81.64l-90.47-90.74" fill="none" stroke="#00aeef" stroke-miterlimit="10" stroke-width="12"/>
        <path id="Path_3" data-name="Path 3" d="M363.11,927.99l59.61-59.61.26-122.61" fill="none" stroke="#00aeef" stroke-miterlimit="10" stroke-width="12"/>
        <circle id="Ellipse_13" data-name="Ellipse 13" cx="14.14" cy="14.14" r="14.14" transform="translate(152.46 588.75)" fill="none" stroke="#00aeef" stroke-miterlimit="10" stroke-width="12"/>
        <line id="Line_3" data-name="Line 3" y1="108.43" x2="108.43" transform="translate(179.89 482.23)" fill="none" stroke="#00aeef" stroke-miterlimit="10" stroke-width="12"/>
        <circle id="Ellipse_14" data-name="Ellipse 14" cx="14.14" cy="14.14" r="14.14" transform="translate(152.86 719.72)" fill="none" stroke="#00aeef" stroke-miterlimit="10" stroke-width="12"/>
        <line id="Line_4" data-name="Line 4" x2="125.66" y2="125.67" transform="translate(180.3 746.09)" fill="none" stroke="#00aeef" stroke-miterlimit="10" stroke-width="12"/>
        <line id="Line_5" data-name="Line 5" y1="105.6" x2="105.6" transform="translate(308.9 824.08)" fill="none" stroke="#00aeef" stroke-miterlimit="10" stroke-width="12"/>
        <line id="Line_6" data-name="Line 6" x1="92.24" transform="translate(276.34 718.43)" fill="none" stroke="#00aeef" stroke-miterlimit="10" stroke-width="12"/>
        <path id="Path_4" data-name="Path 4" d="M394.54,494.05c-38.72-38.77-80.34-80.45-80.34-80.45" fill="none" stroke="#00aeef" stroke-miterlimit="10" stroke-width="12"/>
        <line id="Line_7" data-name="Line 7" x1="42.59" y1="42.64" transform="translate(258.56 407.58)" fill="none" stroke="#00aeef" stroke-miterlimit="10" stroke-width="12"/>
        <path id="Path_5" data-name="Path 5" d="M246.38,668.44H343.8l63.17-63.8V528.12L343.8,464.95H246.67l-63.93,63.38" fill="none" stroke="#2e3192" stroke-miterlimit="10" stroke-width="43"/>
        <path id="Path_6" data-name="Path 6" d="M246.38,668.28H343.8l63.17,63.79v76.52L343.8,871.76H246.67l-63.93-63.38" fill="none" stroke="#2e3192" stroke-miterlimit="10" stroke-width="45"/>
        <rect id="Rectangle_1" data-name="Rectangle 1" width="903.5" height="263.62" transform="translate(561.82 639.96)" fill="none"/>
        <text id="nsys" transform="translate(561.815 894.598)" fill="#00aeef" font-size="343" font-family="SegoeUI, Segoe UI"><tspan x="0" y="0">nsys</tspan></text>
        <text id="I" transform="translate(471.567 892.859)" fill="#00aeef" font-size="345" font-family="SegoeUI, Segoe UI"><tspan x="0" y="0">I</tspan></text>
        <rect id="Rectangle_2" data-name="Rectangle 2" width="939.06" height="235.91" transform="translate(142.34 1090.6)" fill="none"/>
        <text id="www.3insys.com" transform="translate(584.685 650.46)" fill="#2e368f" font-size="85.68" font-family="SegoeUI, Segoe UI"><tspan x="0" y="0">www.3insys.com</tspan></text>
        <g id="Group_2" data-name="Group 2">
          <path id="Path_7" data-name="Path 7" d="M154.39,986.17v49.93h-6.44V986.17Z" fill="#2e3192"/>
          <path id="Path_8" data-name="Path 8" d="M163.95,1009.95c0-3.7-.07-6.74-.3-9.7h5.78l.37,5.93h.15a13.185,13.185,0,0,1,11.85-6.74c4.96,0,12.67,2.96,12.67,15.26v21.41h-6.52v-20.67c0-5.78-2.15-10.59-8.3-10.59a9.547,9.547,0,0,0-9.18,9.71v21.56h-6.52v-26.17Z" fill="#2e3192"/>
          <path id="Path_9" data-name="Path 9" d="M201.94,1029.43a17.076,17.076,0,0,0,8.59,2.59c4.74,0,6.96-2.37,6.96-5.33,0-3.11-1.85-4.82-6.67-6.59-6.44-2.3-9.48-5.85-9.48-10.15,0-5.78,4.67-10.52,12.37-10.52a17.93,17.93,0,0,1,8.81,2.22l-1.63,4.74a13.951,13.951,0,0,0-7.33-2.07c-3.85,0-6,2.22-6,4.89,0,2.96,2.15,4.3,6.82,6.07,6.22,2.37,9.41,5.48,9.41,10.81,0,6.3-4.89,10.74-13.41,10.74a20.41,20.41,0,0,1-10.07-2.44Z" fill="#2e3192"/>
          <path id="Path_10" data-name="Path 10" d="M237.2,990.17a4.04,4.04,0,0,1-8.08,0,3.963,3.963,0,0,1,4.07-4.07A3.869,3.869,0,0,1,237.2,990.17Zm-7.26,45.93v-35.85h6.52v35.85Z" fill="#2e3192"/>
          <path id="Path_11" data-name="Path 11" d="M275.94,1000.24c-.15,2.59-.3,5.48-.3,9.85v20.81c0,8.22-1.63,13.26-5.11,16.37-3.48,3.26-8.52,4.3-13.04,4.3-4.3,0-9.04-1.04-11.93-2.96l1.63-4.96a20.218,20.218,0,0,0,10.52,2.82c6.67,0,11.56-3.48,11.56-12.52v-4h-.15c-2,3.33-5.85,6-11.41,6-8.89,0-15.26-7.56-15.26-17.48,0-12.15,7.93-19.04,16.15-19.04,6.22,0,9.63,3.26,11.19,6.22h.15l.3-5.41h5.7Zm-6.74,14.15a9.134,9.134,0,0,0-.37-2.96,9.392,9.392,0,0,0-9.11-6.89c-6.22,0-10.67,5.26-10.67,13.55,0,7.04,3.56,12.89,10.59,12.89a9.536,9.536,0,0,0,9.04-6.67,11.345,11.345,0,0,0,.52-3.48v-6.44Z" fill="#2e3192"/>
          <path id="Path_12" data-name="Path 12" d="M284.23,983.5h6.52v22.37h.15a12.125,12.125,0,0,1,4.67-4.59,13.434,13.434,0,0,1,6.67-1.85c4.81,0,12.52,2.96,12.52,15.33v21.33h-6.52V1015.5c0-5.78-2.15-10.67-8.3-10.67a9.357,9.357,0,0,0-8.74,6.52,7.9,7.9,0,0,0-.44,3.11v21.63h-6.52V983.5Z" fill="#2e3192"/>
          <path id="Path_13" data-name="Path 13" d="M330.67,989.95v10.3H340v4.96h-9.33v19.33c0,4.44,1.26,6.96,4.89,6.96a14.716,14.716,0,0,0,3.78-.44l.3,4.89a15.931,15.931,0,0,1-5.78.89,9.034,9.034,0,0,1-7.04-2.74c-1.85-1.92-2.52-5.11-2.52-9.33v-19.55h-5.56v-4.96h5.56v-8.59Z" fill="#2e3192"/>
          <path id="Path_14" data-name="Path 14" d="M345.78,1036.1v-30.89h-5.04v-4.96h5.04v-1.7c0-5.04,1.11-9.63,4.15-12.52a12.457,12.457,0,0,1,8.74-3.33,15.092,15.092,0,0,1,5.56,1.04l-.89,5.04a9.8,9.8,0,0,0-4.15-.82c-5.56,0-6.96,4.89-6.96,10.37v1.92h8.67v4.96h-8.67v30.89h-6.45Z" fill="#2e3192"/>
          <path id="Path_15" data-name="Path 15" d="M394.52,1026.32c0,3.7.07,6.96.3,9.78h-5.78l-.37-5.85h-.15a13.481,13.481,0,0,1-11.85,6.67c-5.63,0-12.37-3.11-12.37-15.7v-20.96h6.52v19.85c0,6.81,2.07,11.41,8,11.41a9.416,9.416,0,0,0,8.59-5.93,9.532,9.532,0,0,0,.59-3.33v-22h6.52v26.06Z" fill="#2e3192"/>
          <path id="Path_16" data-name="Path 16" d="M403.11,983.5h6.52v52.59h-6.52Z" fill="#2e3192"/>
          <path id="Path_17" data-name="Path 17" d="M459.08,986.17v49.93h-6.44V986.17Z" fill="#2e3192"/>
          <path id="Path_18" data-name="Path 18" d="M468.63,1009.95c0-3.7-.07-6.74-.3-9.7h5.78l.37,5.93h.15a13.185,13.185,0,0,1,11.85-6.74c4.96,0,12.67,2.96,12.67,15.26v21.41h-6.52v-20.67c0-5.78-2.15-10.59-8.3-10.59a9.547,9.547,0,0,0-9.18,9.71v21.56h-6.52v-26.17Z" fill="#2e3192"/>
          <path id="Path_19" data-name="Path 19" d="M507.52,1009.95c0-3.7-.07-6.74-.3-9.7H513l.37,5.93h.15a13.173,13.173,0,0,1,11.85-6.74c4.96,0,12.67,2.96,12.67,15.26v21.41h-6.52v-20.67c0-5.78-2.15-10.59-8.3-10.59a9.547,9.547,0,0,0-9.18,9.71v21.56h-6.52Z" fill="#2e3192"/>
          <path id="Path_20" data-name="Path 20" d="M578.85,1017.87c0,13.26-9.19,19.04-17.85,19.04-9.7,0-17.19-7.11-17.19-18.45,0-12,7.85-19.04,17.78-19.04C571.89,999.43,578.85,1006.91,578.85,1017.87Zm-28.45.37c0,7.85,4.52,13.78,10.89,13.78,6.22,0,10.89-5.85,10.89-13.93,0-6.07-3.04-13.78-10.74-13.78S550.4,1011.43,550.4,1018.24Z" fill="#2e3192"/>
          <path id="Path_21" data-name="Path 21" d="M586.85,1000.24l7.04,20.15a90.354,90.354,0,0,1,2.89,9.19H597c.82-2.96,1.85-5.93,3.04-9.19l6.96-20.15h6.81l-14.07,35.85h-6.22l-13.63-35.85Z" fill="#2e3192"/>
          <path id="Path_22" data-name="Path 22" d="M637.29,1036.1l-.52-4.52h-.22a13.333,13.333,0,0,1-10.96,5.33c-7.26,0-10.96-5.11-10.96-10.3,0-8.67,7.7-13.41,21.56-13.33v-.74c0-2.96-.82-8.3-8.15-8.3a17.863,17.863,0,0,0-9.33,2.67l-1.48-4.3a22.209,22.209,0,0,1,11.78-3.18c10.96,0,13.63,7.48,13.63,14.67v13.41a50.9,50.9,0,0,0,.59,8.59h-5.94Zm-.96-18.3c-7.11-.15-15.18,1.11-15.18,8.07,0,4.22,2.81,6.22,6.15,6.22a8.92,8.92,0,0,0,8.67-6,6.9,6.9,0,0,0,.37-2.07v-6.22Z" fill="#2e3192"/>
          <path id="Path_23" data-name="Path 23" d="M658.47,989.95v10.3h9.33v4.96h-9.33v19.33c0,4.44,1.26,6.96,4.89,6.96a14.717,14.717,0,0,0,3.78-.44l.3,4.89a15.931,15.931,0,0,1-5.78.89,9.034,9.034,0,0,1-7.04-2.74c-1.85-1.92-2.52-5.11-2.52-9.33v-19.55h-5.56v-4.96h5.56v-8.59Z" fill="#2e3192"/>
          <path id="Path_24" data-name="Path 24" d="M680.17,990.17a4.04,4.04,0,0,1-8.08,0,3.963,3.963,0,0,1,4.07-4.07A3.863,3.863,0,0,1,680.17,990.17Zm-7.26,45.93v-35.85h6.52v35.85Z" fill="#2e3192"/>
          <path id="Path_25" data-name="Path 25" d="M690.54,1000.24l7.04,20.15a90.354,90.354,0,0,1,2.89,9.19h.22c.82-2.96,1.85-5.93,3.04-9.19l6.96-20.15h6.81l-14.07,35.85h-6.22l-13.63-35.85Z" fill="#2e3192"/>
          <path id="Path_26" data-name="Path 26" d="M724.32,1019.36c.15,8.82,5.78,12.44,12.3,12.44a23.629,23.629,0,0,0,9.92-1.85l1.11,4.67a29.009,29.009,0,0,1-11.93,2.22c-11.04,0-17.63-7.26-17.63-18.07s6.37-19.33,16.82-19.33c11.7,0,14.82,10.3,14.82,16.89a25.718,25.718,0,0,1-.22,3.04H724.32Zm19.11-4.67c.07-4.15-1.7-10.59-9.04-10.59-6.59,0-9.48,6.07-10,10.59Z" fill="#2e3192"/>
          <g id="Group_1" data-name="Group 1">
            <path id="Path_27" data-name="Path 27" d="M794.23,986.17v49.93h-6.44V986.17Z" fill="#2e3192"/>
            <path id="Path_28" data-name="Path 28" d="M803.78,1009.95c0-3.7-.07-6.74-.3-9.7h5.78l.37,5.93h.15a13.173,13.173,0,0,1,11.85-6.74c4.96,0,12.67,2.96,12.67,15.26v21.41h-6.52v-20.67c0-5.78-2.15-10.59-8.3-10.59a9.547,9.547,0,0,0-9.18,9.71v21.56h-6.52Z" fill="#2e3192"/>
            <path id="Path_29" data-name="Path 29" d="M850.22,989.95v10.3h9.33v4.96h-9.33v19.33c0,4.44,1.26,6.96,4.89,6.96a14.717,14.717,0,0,0,3.78-.44l.3,4.89a15.931,15.931,0,0,1-5.78.89,9.034,9.034,0,0,1-7.04-2.74c-1.85-1.92-2.52-5.11-2.52-9.33v-19.55h-5.56v-4.96h5.56v-8.59Z" fill="#2e3192"/>
            <path id="Path_30" data-name="Path 30" d="M867.85,1019.36c.15,8.82,5.78,12.44,12.3,12.44a23.716,23.716,0,0,0,9.93-1.85l1.11,4.67a29.009,29.009,0,0,1-11.93,2.22c-11.04,0-17.63-7.26-17.63-18.07s6.37-19.33,16.82-19.33c11.7,0,14.82,10.3,14.82,16.89a25.718,25.718,0,0,1-.22,3.04h-25.2Zm19.11-4.67c.07-4.15-1.7-10.59-9.04-10.59-6.59,0-9.48,6.07-10,10.59Z" fill="#2e3192"/>
            <path id="Path_31" data-name="Path 31" d="M899.11,983.5h6.52v52.59h-6.52Z" fill="#2e3192"/>
            <path id="Path_32" data-name="Path 32" d="M914.37,983.5h6.52v52.59h-6.52Z" fill="#2e3192"/>
            <path id="Path_33" data-name="Path 33" d="M936.88,990.17a4.04,4.04,0,0,1-8.08,0,3.963,3.963,0,0,1,4.07-4.07A3.863,3.863,0,0,1,936.88,990.17Zm-7.26,45.93v-35.85h6.52v35.85Z" fill="#2e3192"/>
            <path id="Path_34" data-name="Path 34" d="M975.62,1000.24c-.15,2.59-.3,5.48-.3,9.85v20.81c0,8.22-1.63,13.26-5.11,16.37-3.48,3.26-8.52,4.3-13.04,4.3-4.3,0-9.04-1.04-11.93-2.96l1.63-4.96a20.246,20.246,0,0,0,10.52,2.82c6.67,0,11.56-3.48,11.56-12.52v-4h-.15c-2,3.33-5.85,6-11.41,6-8.89,0-15.26-7.56-15.26-17.48,0-12.15,7.93-19.04,16.15-19.04,6.22,0,9.63,3.26,11.18,6.22h.15l.3-5.41h5.71Zm-6.74,14.15a9.134,9.134,0,0,0-.37-2.96,9.392,9.392,0,0,0-9.11-6.89c-6.22,0-10.67,5.26-10.67,13.55,0,7.04,3.56,12.89,10.59,12.89a9.536,9.536,0,0,0,9.04-6.67,11.345,11.345,0,0,0,.52-3.48v-6.44Z" fill="#2e3192"/>
            <path id="Path_35" data-name="Path 35" d="M987.54,1019.36c.15,8.82,5.78,12.44,12.3,12.44a23.629,23.629,0,0,0,9.92-1.85l1.11,4.67a29.009,29.009,0,0,1-11.93,2.22c-11.04,0-17.63-7.26-17.63-18.07s6.37-19.33,16.82-19.33c11.7,0,14.82,10.3,14.82,16.89a25.718,25.718,0,0,1-.22,3.04H987.54Zm19.12-4.67c.07-4.15-1.7-10.59-9.04-10.59-6.59,0-9.48,6.07-10,10.59Z" fill="#2e3192"/>
            <path id="Path_36" data-name="Path 36" d="M1018.8,1009.95c0-3.7-.07-6.74-.3-9.7h5.78l.37,5.93h.15a13.173,13.173,0,0,1,11.85-6.74c4.96,0,12.67,2.96,12.67,15.26v21.41h-6.52v-20.67c0-5.78-2.15-10.59-8.3-10.59a9.546,9.546,0,0,0-9.18,9.71v21.56h-6.52v-26.17Z" fill="#2e3192"/>
            <path id="Path_37" data-name="Path 37" d="M1065.24,989.95v10.3h9.33v4.96h-9.33v19.33c0,4.44,1.26,6.96,4.89,6.96a14.717,14.717,0,0,0,3.78-.44l.3,4.89a15.931,15.931,0,0,1-5.78.89,9.034,9.034,0,0,1-7.04-2.74c-1.85-1.92-2.52-5.11-2.52-9.33v-19.55h-5.56v-4.96h5.56v-8.59Z" fill="#2e3192"/>
            <path id="Path_38" data-name="Path 38" d="M1092.5,1028.25a22.819,22.819,0,0,0,11.56,3.26c6.59,0,10.45-3.48,10.45-8.52,0-4.67-2.67-7.33-9.41-9.93-8.15-2.89-13.18-7.11-13.18-14.15,0-7.78,6.44-13.56,16.15-13.56a22.81,22.81,0,0,1,11.04,2.44l-1.78,5.26a19.861,19.861,0,0,0-9.48-2.37c-6.81,0-9.41,4.07-9.41,7.48,0,4.67,3.04,6.96,9.93,9.63,8.44,3.26,12.74,7.33,12.74,14.67,0,7.7-5.7,14.37-17.48,14.37-4.82,0-10.08-1.41-12.74-3.18Z" fill="#2e3192"/>
            <path id="Path_39" data-name="Path 39" d="M1129.24,1000.24l7.85,21.19c.82,2.37,1.7,5.19,2.3,7.33h.15c.67-2.15,1.41-4.89,2.3-7.48l7.11-21.04h6.89l-9.78,25.56c-4.67,12.3-7.85,18.59-12.3,22.45a17.61,17.61,0,0,1-8,4.22l-1.63-5.48a17.346,17.346,0,0,0,5.7-3.18,19.777,19.777,0,0,0,5.48-7.26,4.645,4.645,0,0,0,.52-1.56,5.792,5.792,0,0,0-.44-1.7l-13.26-33.04h7.11Z" fill="#2e3192"/>
            <path id="Path_40" data-name="Path 40" d="M1158.2,1029.43a17.044,17.044,0,0,0,8.59,2.59c4.74,0,6.96-2.37,6.96-5.33,0-3.11-1.85-4.82-6.67-6.59-6.44-2.3-9.48-5.85-9.48-10.15,0-5.78,4.67-10.52,12.37-10.52a17.972,17.972,0,0,1,8.82,2.22l-1.63,4.74a13.951,13.951,0,0,0-7.33-2.07c-3.85,0-6,2.22-6,4.89,0,2.96,2.15,4.3,6.81,6.07,6.22,2.37,9.41,5.48,9.41,10.81,0,6.3-4.89,10.74-13.41,10.74a20.41,20.41,0,0,1-10.07-2.44Z" fill="#2e3192"/>
            <path id="Path_41" data-name="Path 41" d="M1194.05,989.95v10.3h9.33v4.96h-9.33v19.33c0,4.44,1.26,6.96,4.89,6.96a14.717,14.717,0,0,0,3.78-.44l.3,4.89a15.931,15.931,0,0,1-5.78.89,9.034,9.034,0,0,1-7.04-2.74c-1.85-1.92-2.52-5.11-2.52-9.33v-19.55h-5.56v-4.96h5.56v-8.59Z" fill="#2e3192"/>
            <path id="Path_42" data-name="Path 42" d="M1211.67,1019.36c.15,8.82,5.78,12.44,12.3,12.44a23.629,23.629,0,0,0,9.92-1.85l1.11,4.67a29.009,29.009,0,0,1-11.93,2.22c-11.04,0-17.63-7.26-17.63-18.07s6.37-19.33,16.82-19.33c11.7,0,14.82,10.3,14.82,16.89a25.718,25.718,0,0,1-.22,3.04h-25.19Zm19.12-4.67c.07-4.15-1.7-10.59-9.04-10.59-6.59,0-9.48,6.07-10,10.59Z" fill="#2e3192"/>
            <path id="Path_43" data-name="Path 43" d="M1242.93,1009.95c0-3.7-.07-6.74-.3-9.7h5.7l.3,5.78h.22a12.347,12.347,0,0,1,11.26-6.59,10.6,10.6,0,0,1,10.15,7.18h.15a14.776,14.776,0,0,1,4-4.67,12.244,12.244,0,0,1,7.93-2.52c4.74,0,11.78,3.11,11.78,15.56v21.11h-6.37v-20.3c0-6.89-2.52-11.04-7.78-11.04a8.435,8.435,0,0,0-7.7,5.93,10.6,10.6,0,0,0-.52,3.26v22.15h-6.37v-21.48c0-5.7-2.52-9.85-7.48-9.85-4.07,0-7.04,3.26-8.07,6.52a8.958,8.958,0,0,0-.52,3.18v21.63h-6.37v-26.15Z" fill="#2e3192"/>
            <path id="Path_44" data-name="Path 44" d="M1301.59,1029.43a17.044,17.044,0,0,0,8.59,2.59c4.74,0,6.96-2.37,6.96-5.33,0-3.11-1.85-4.82-6.67-6.59-6.44-2.3-9.48-5.85-9.48-10.15,0-5.78,4.67-10.52,12.37-10.52a17.972,17.972,0,0,1,8.82,2.22l-1.63,4.74a13.951,13.951,0,0,0-7.33-2.07c-3.85,0-6,2.22-6,4.89,0,2.96,2.15,4.3,6.81,6.07,6.22,2.37,9.41,5.48,9.41,10.81,0,6.3-4.89,10.74-13.41,10.74a20.41,20.41,0,0,1-10.07-2.44Z" fill="#2e3192"/>
          </g>
          <rect id="Rectangle_3" data-name="Rectangle 3" width="44.55" height="46.04" transform="translate(420.56 993.98)" fill="none"/>
          <text id="_" data-name="♦" transform="translate(420.558 1026.371)" fill="#2e368f" font-size="45.23" font-family="ArialNarrow, Arial"><tspan x="0" y="0">♦</tspan></text>
          <rect id="Rectangle_4" data-name="Rectangle 4" width="44.55" height="46.04" transform="translate(758.48 993.98)" fill="none"/>
          <text id="_2" data-name="♦" transform="translate(758.476 1026.371)" fill="#2e368f" font-size="45.23" font-family="ArialNarrow, Arial"><tspan x="0" y="0">♦</tspan></text>
        </g>
        <rect id="Rectangle_5" data-name="Rectangle 5" width="741.14" height="4.46" transform="translate(582.31 671.49)" fill="#2e3192"/>
      </g>
    </g>
  </g>
</svg>
