<svg width="45" height="45" viewBox="0 0 45 45" fill="none" xmlns="http://www.w3.org/2000/svg">
<path d="M22.5 45C34.9264 45 45 34.9264 45 22.5C45 10.0736 34.9264 0 22.5 0C10.0736 0 0 10.0736 0 22.5C0 34.9264 10.0736 45 22.5 45Z" fill="#B7C0EB"/>
<path d="M34.4491 15.3371C33.5131 15.7333 32.5061 16.0013 31.4501 16.121C32.5283 15.5044 33.3558 14.5287 33.7463 13.3642C32.7374 13.9355 31.6195 14.3499 30.4307 14.5733C29.4783 13.6051 28.1213 13 26.6187 13C23.7357 13 21.3975 15.2319 21.3975 17.9839C21.3975 18.3745 21.4438 18.7547 21.5334 19.1197C17.1941 18.912 13.3467 16.9279 10.7713 13.9117C10.3219 14.6477 10.0642 15.5044 10.0642 16.4176C10.0642 18.1463 10.9866 19.6724 12.3868 20.5659C11.5314 20.5403 10.7257 20.3162 10.0221 19.9419C10.0217 19.9631 10.0217 19.9843 10.0217 20.0051C10.0217 22.4199 11.8222 24.434 14.2103 24.8916C13.7726 25.0061 13.3104 25.0666 12.835 25.0666C12.4978 25.0666 12.1711 25.0358 11.8526 24.9778C12.5169 26.9574 14.4447 28.3984 16.73 28.4389C14.9427 29.7758 12.6917 30.5724 10.2448 30.5724C9.82432 30.5724 9.40768 30.5489 9 30.5025C11.3094 31.9171 14.0545 32.7419 17.0029 32.7419C26.6066 32.7419 31.8586 25.1477 31.8586 18.5611C31.8586 18.3452 31.8535 18.1299 31.8434 17.9166C32.8644 17.2141 33.7494 16.3366 34.4491 15.3371V15.3371Z" fill="white"/>
</svg>
