<svg width="45" height="45" viewBox="0 0 45 45" fill="none" xmlns="http://www.w3.org/2000/svg">
<path d="M22.3399 44.6801C34.6779 44.6801 44.6798 34.6782 44.6798 22.3402C44.6798 10.0022 34.6779 0.000244141 22.3399 0.000244141C10.0019 0.000244141 0 10.0022 0 22.3402C0 34.6782 10.0019 44.6801 22.3399 44.6801Z" fill="#B7C0EB"/>
<path fill-rule="evenodd" clip-rule="evenodd" d="M33.3005 14.3337C33.6996 14.7613 33.9872 15.2935 34.1346 15.8772C34.9835 19.5383 34.7873 25.3205 34.1511 29.1229C34.0037 29.7066 33.7161 30.2388 33.317 30.6664C32.9179 31.094 32.4212 31.4021 31.8764 31.5601C29.8819 32.1429 21.8544 32.1429 21.8544 32.1429C21.8544 32.1429 13.8269 32.1429 11.8324 31.5601C11.2876 31.4021 10.7909 31.094 10.3918 30.6664C9.99269 30.2388 9.70511 29.7066 9.55768 29.1229C8.70383 25.4777 8.9379 19.692 9.5412 15.8949C9.68862 15.3111 9.97621 14.7789 10.3753 14.3513C10.7744 13.9237 11.2711 13.6156 11.8159 13.4577C13.8104 12.8748 21.8379 12.8572 21.8379 12.8572C21.8379 12.8572 29.8654 12.8572 31.8599 13.44C32.4047 13.5979 32.9014 13.9061 33.3005 14.3337ZM25.9423 22.5L19.283 26.6327V18.3674L25.9423 22.5Z" fill="white"/>
</svg>
