<svg width="149" height="150" viewBox="0 0 149 150" fill="none" xmlns="http://www.w3.org/2000/svg">
<g filter="url(#filter0_d)">
<circle cx="74.5" cy="71.1113" r="49.5" fill="white"/>
</g>
<path d="M93.5559 99.1322H63.9167L52 86.9096V50.2429C52 48.8931 53.0943 47.7988 54.4441 47.7988H93.5548C94.9057 47.7988 96 48.8931 96 50.2429V96.687C96 98.0379 94.9057 99.1322 93.5559 99.1322Z" fill="#00C3FF"/>
<path d="M56.8893 50.2429C56.8893 48.8931 57.9835 47.7988 59.3333 47.7988H54.4441C53.0943 47.7988 52 48.8931 52 50.2429V86.9096L56.8893 91.9237V50.2429Z" fill="#4592EC"/>
<path d="M78.8707 41.6113H69.1311C66.442 41.6113 64.2607 43.6015 64.2607 46.0574V50.5034C64.2607 51.7308 65.3508 52.7259 66.6954 52.7259H81.3053C82.6499 52.7259 83.7399 51.7308 83.7399 50.5034V46.0574C83.7399 43.6015 81.5598 41.6113 78.8707 41.6113Z" fill="#0160E7"/>
<path d="M61.7771 64.9094C63.1269 64.9094 64.2211 63.8151 64.2211 62.4653C64.2211 61.1155 63.1269 60.0212 61.7771 60.0212C60.4273 60.0212 59.333 61.1155 59.333 62.4653C59.333 63.8151 60.4273 64.9094 61.7771 64.9094Z" fill="white"/>
<path d="M69.1104 60.0212H88.6663V64.9105H69.1104V60.0212Z" fill="white"/>
<path d="M61.7771 74.687C63.1269 74.687 64.2211 73.5927 64.2211 72.2429C64.2211 70.8931 63.1269 69.7988 61.7771 69.7988C60.4273 69.7988 59.333 70.8931 59.333 72.2429C59.333 73.5927 60.4273 74.687 61.7771 74.687Z" fill="white"/>
<path d="M69.1104 69.7988H88.6663V74.6881H69.1104V69.7988Z" fill="white"/>
<path d="M61.7771 84.4655C63.1269 84.4655 64.2211 83.3713 64.2211 82.0215C64.2211 80.6716 63.1269 79.5774 61.7771 79.5774C60.4273 79.5774 59.333 80.6716 59.333 82.0215C59.333 83.3713 60.4273 84.4655 61.7771 84.4655Z" fill="white"/>
<path d="M69.1104 79.5762H88.6663V84.4654H69.1104V79.5762Z" fill="white"/>
<path d="M52 86.9097H61.7774C63.1272 86.9097 64.2215 88.0039 64.2215 89.3537V99.1323L52 86.9097Z" fill="#0160E7"/>
<path d="M73.9997 50.2429C75.3495 50.2429 76.4438 49.1486 76.4438 47.7988C76.4438 46.449 75.3495 45.3547 73.9997 45.3547C72.6499 45.3547 71.5557 46.449 71.5557 47.7988C71.5557 49.1486 72.6499 50.2429 73.9997 50.2429Z" fill="white"/>
<defs>
<filter id="filter0_d" x="0" y="0.611328" width="149" height="149" filterUnits="userSpaceOnUse" color-interpolation-filters="sRGB">
<feFlood flood-opacity="0" result="BackgroundImageFix"/>
<feColorMatrix in="SourceAlpha" type="matrix" values="0 0 0 0 0 0 0 0 0 0 0 0 0 0 0 0 0 0 127 0"/>
<feOffset dy="4"/>
<feGaussianBlur stdDeviation="12.5"/>
<feColorMatrix type="matrix" values="0 0 0 0 0.717647 0 0 0 0 0.752941 0 0 0 0 0.921569 0 0 0 0.5 0"/>
<feBlend mode="normal" in2="BackgroundImageFix" result="effect1_dropShadow"/>
<feBlend mode="normal" in="SourceGraphic" in2="effect1_dropShadow" result="shape"/>
</filter>
</defs>
</svg>
