<svg width="149" height="150" viewBox="0 0 149 150" fill="none" xmlns="http://www.w3.org/2000/svg">
<g filter="url(#filter0_d)">
<circle cx="74.5" cy="71.1118" r="49.5" fill="white"/>
</g>
<path d="M80.3308 76.2792H61.3301L95.0564 45.023C95.3473 44.7588 95.7259 44.6118 96.1192 44.6118H110.416C111.29 44.6118 112 45.3214 112 46.1957C112 46.6425 111.811 47.0671 111.482 47.3669L80.3308 76.2792Z" fill="#0160E7"/>
<path d="M67.6644 76.2797H86.6652L52.9389 45.0235C52.6479 44.7593 52.2694 44.6123 51.876 44.6123H37.5794C36.7051 44.6138 35.9985 45.3248 36 46.1992C36.0015 46.6445 36.1885 47.0676 36.5181 47.3674L67.6644 76.2797Z" fill="#0160E7"/>
<path d="M73.9988 101.614C84.4926 101.614 92.9995 93.1071 92.9995 82.6133C92.9995 72.1195 84.4926 63.6125 73.9988 63.6125C63.505 63.6125 54.998 72.1195 54.998 82.6133C54.998 93.1071 63.505 101.614 73.9988 101.614Z" fill="#4592EC"/>
<path d="M73.9981 104.78C61.756 104.78 51.8311 94.8552 51.8311 82.6131C51.8311 70.371 61.756 60.446 73.9981 60.446C86.2402 60.446 96.1651 70.371 96.1651 82.6131C96.1518 94.8507 86.2343 104.767 73.9981 104.78ZM73.9981 66.7786C65.2533 66.7786 58.1636 73.8683 58.1636 82.6131C58.1636 91.3579 65.2533 98.4475 73.9981 98.4475C82.7429 98.4475 89.8311 91.3579 89.8311 82.6131C89.8221 73.8727 82.7384 66.789 73.9981 66.7786Z" fill="#00C3FF"/>
<path d="M84.7828 79.3667C84.5958 78.7937 84.1015 78.3751 83.5047 78.289L77.9173 77.4741L75.4175 72.4107C75.0301 71.6269 74.0801 71.3047 73.2963 71.6922C72.9846 71.8466 72.7322 72.0989 72.5778 72.4107L70.078 77.4741L64.4906 78.286C63.6252 78.4107 63.0255 79.2138 63.1502 80.0792C63.2007 80.4236 63.3625 80.7428 63.6119 80.9862L67.6554 84.9274L66.7054 90.4925C66.5585 91.355 67.1374 92.1729 67.9984 92.3199C68.3413 92.3792 68.6931 92.3228 69.0003 92.161L73.9955 89.5336L78.9935 92.161C79.7684 92.5678 80.7244 92.2679 81.1311 91.4945C81.2929 91.1872 81.3479 90.8339 81.29 90.4925L80.3399 84.9274L84.3835 80.9862C84.814 80.5676 84.9684 79.9397 84.7828 79.3667Z" fill="white"/>
<defs>
<filter id="filter0_d" x="0" y="0.611816" width="149" height="149" filterUnits="userSpaceOnUse" color-interpolation-filters="sRGB">
<feFlood flood-opacity="0" result="BackgroundImageFix"/>
<feColorMatrix in="SourceAlpha" type="matrix" values="0 0 0 0 0 0 0 0 0 0 0 0 0 0 0 0 0 0 127 0"/>
<feOffset dy="4"/>
<feGaussianBlur stdDeviation="12.5"/>
<feColorMatrix type="matrix" values="0 0 0 0 0.717647 0 0 0 0 0.752941 0 0 0 0 0.921569 0 0 0 0.5 0"/>
<feBlend mode="normal" in2="BackgroundImageFix" result="effect1_dropShadow"/>
<feBlend mode="normal" in="SourceGraphic" in2="effect1_dropShadow" result="shape"/>
</filter>
</defs>
</svg>
