<?xml version="1.0" encoding="utf-8"?>
<!-- Generator: Adobe Illustrator 25.0.0, SVG Export Plug-In . SVG Version: 6.00 Build 0)  -->
<svg version="1.1" id="Layer_1" xmlns="http://www.w3.org/2000/svg" xmlns:xlink="http://www.w3.org/1999/xlink" x="0px" y="0px"
	 viewBox="0 0 100 100" style="enable-background:new 0 0 100 100;" xml:space="preserve">
<style type="text/css">
	.st0{fill:#9E9E9E;}
	.st1{fill:#7A7A7A;}
	.st2{fill:none;stroke:#7A7A7A;stroke-width:4;}
	.st3{fill:#9E9E9E;stroke:#FFFFFF;stroke-width:3;}
	.st4{fill:#707070;}
	.st5{fill:#565656;}
	.st6{fill:#437FEC;}
	.st7{fill:#FFFFFF;}
	.st8{fill:none;stroke:#437FEC;stroke-width:3;}
	.st9{fill:#00C3FF;}
	.st10{fill:#0160E7;}
	.st11{fill:#4592EC;}
	.st12{fill:#2C79E6;}
</style>
<path class="st12" d="M69.29,45.43l0.82-4.64l-2.42-0.43c0.05-0.71,0.09-1.43,0.09-2.16c0-0.73-0.03-1.45-0.09-2.16l2.42-0.43
	l-0.82-4.64l-2.42,0.43c-0.38-1.39-0.87-2.75-1.48-4.06l2.13-1.23l-2.35-4.08l-2.14,1.24c-0.83-1.18-1.76-2.28-2.78-3.3l1.59-1.9
	l-3.61-3.03l-1.59,1.89c-1.18-0.82-2.43-1.55-3.74-2.16l0.84-2.32l-4.43-1.61l-0.84,2.31c-1.39-0.37-2.82-0.62-4.26-0.75V9.95h-4.71
	v2.46c-1.44,0.13-2.86,0.38-4.26,0.75l-0.84-2.31l-4.42,1.61l0.84,2.32c-1.3,0.62-2.55,1.34-3.74,2.16l-1.59-1.89l-3.61,3.03
	l1.59,1.9c-1.02,1.02-1.94,2.13-2.78,3.31l-2.14-1.24l-2.35,4.08l2.13,1.23c-0.61,1.31-1.1,2.67-1.48,4.06l-2.42-0.43l-0.82,4.64
	l2.42,0.43c-0.06,0.71-0.09,1.43-0.09,2.16c0,0.73,0.03,1.45,0.09,2.16l-2.42,0.43l0.82,4.64L16.87,45
	c0.38,1.39,0.87,2.75,1.48,4.06l-2.13,1.23l2.35,4.08l2.14-1.24c0.83,1.18,1.76,2.28,2.78,3.3l-1.59,1.9l3.61,3.03l1.59-1.89
	c1.18,0.82,2.43,1.55,3.74,2.16l-0.84,2.32l4.43,1.61l0.84-2.31c1.39,0.37,2.82,0.62,4.26,0.75v2.46h4.71V64
	c1.44-0.13,2.86-0.38,4.26-0.75l0.84,2.31l4.43-1.61l-0.84-2.32c1.3-0.62,2.55-1.34,3.74-2.17l1.59,1.89l3.61-3.03l-1.59-1.9
	c1.02-1.02,1.94-2.13,2.78-3.3l2.14,1.24l2.35-4.08l-2.13-1.23c0.61-1.31,1.1-2.67,1.48-4.06L69.29,45.43z M41.86,52.33
	c-7.8,0-14.13-6.32-14.13-14.13c0-7.8,6.32-14.13,14.13-14.13c7.8,0,14.13,6.32,14.13,14.13C55.98,46,49.66,52.32,41.86,52.33z"/>
<path class="st9" d="M89.33,74.95c0.05-0.45,0.07-0.91,0.08-1.35l1.54-0.11l-0.21-2.95l-1.54,0.11c-0.15-0.89-0.37-1.77-0.66-2.63
	l1.41-0.63l-1.21-2.7l-1.41,0.64c-0.45-0.79-0.95-1.54-1.52-2.24L86.92,62l-2.06-2.12l-1.11,1.08c-0.69-0.59-1.42-1.12-2.19-1.59
	l0.67-1.39l-2.66-1.29l-0.67,1.39c-0.85-0.32-1.72-0.57-2.61-0.74l0.16-1.54l-2.94-0.3l-0.16,1.54c-0.91-0.01-1.81,0.05-2.71,0.19
	l-0.38-1.5l-2.87,0.72l0.38,1.5c-0.85,0.3-1.68,0.67-2.47,1.11l-0.87-1.28l-2.45,1.66l0.87,1.29c-0.7,0.57-1.35,1.2-1.95,1.89
	l-1.26-0.91l-1.73,2.39L59.17,65c-0.46,0.78-0.86,1.59-1.19,2.44l-1.49-0.42l-0.81,2.84l1.49,0.42c-0.08,0.44-0.15,0.89-0.2,1.34
	c-0.05,0.45-0.07,0.91-0.08,1.35l-1.54,0.11l0.21,2.95l1.54-0.11c0.15,0.89,0.37,1.77,0.66,2.63l-1.41,0.63l1.21,2.7l1.41-0.63
	c0.45,0.79,0.95,1.54,1.52,2.24l-1.11,1.08l2.06,2.12l1.11-1.08c0.69,0.59,1.42,1.12,2.19,1.59l-0.67,1.39l2.66,1.29l0.67-1.39
	c0.85,0.32,1.72,0.57,2.61,0.74l-0.16,1.54l2.94,0.3l0.16-1.54c0.91,0.01,1.81-0.05,2.71-0.19l0.38,1.5l2.87-0.72l-0.38-1.5
	c0.85-0.3,1.68-0.67,2.47-1.11l0.87,1.28l2.45-1.66l-0.87-1.29c0.7-0.57,1.35-1.2,1.95-1.89l1.26,0.91l1.73-2.39l-1.25-0.91
	c0.46-0.78,0.86-1.59,1.19-2.44l1.49,0.42l0.81-2.84l-1.49-0.42C89.22,75.85,89.29,75.4,89.33,74.95z M81.98,74.19
	c-0.51,4.87-4.86,8.41-9.73,7.92c-4.87-0.5-8.42-4.86-7.92-9.73c0.5-4.87,4.86-8.42,9.73-7.92C78.94,64.96,82.48,69.32,81.98,74.19z
	"/>
</svg>
