<?xml version="1.0" encoding="utf-8"?>
<!-- Generator: Adobe Illustrator 25.0.0, SVG Export Plug-In . SVG Version: 6.00 Build 0)  -->
<svg version="1.1" id="Layer_1" xmlns="http://www.w3.org/2000/svg" xmlns:xlink="http://www.w3.org/1999/xlink" x="0px" y="0px"
	 viewBox="0 0 100 100" style="enable-background:new 0 0 100 100;" xml:space="preserve">
<style type="text/css">
	.st0{fill:#9E9E9E;}
	.st1{fill:#7A7A7A;}
	.st2{fill:none;stroke:#7A7A7A;stroke-width:4;}
	.st3{fill:#9E9E9E;stroke:#FFFFFF;stroke-width:3;}
	.st4{fill:#707070;}
	.st5{fill:#565656;}
	.st6{fill:#437FEC;}
	.st7{fill:#FFFFFF;}
	.st8{fill:none;stroke:#437FEC;stroke-width:3;}
	.st9{fill:#00C3FF;}
	.st10{fill:#0160E7;}
	.st11{fill:#4592EC;}
	.st12{fill:#2C79E6;}
</style>
<g>
	<path class="st9" d="M24.67,26.55h17.59v17.59H24.67v11.73h17.59v17.59H24.67v11.72h23.45c3.24,0,5.86-2.62,5.86-5.86V55.87h17.59
		V44.14H53.99V26.55H53.9v-4.17c0-4.17-3.38-7.56-7.56-7.56l-21.67,0V26.55z"/>
	<path class="st10" d="M18.81,20.68c0-3.24-2.62-5.86-5.86-5.86s-5.86,2.62-5.86,5.86c0,3.24,2.62,5.86,5.86,5.86
		S18.81,23.92,18.81,20.68z"/>
	<path class="st11" d="M18.81,50c0-3.24-2.62-5.86-5.86-5.86S7.08,46.76,7.08,50c0,3.24,2.62,5.86,5.86,5.86S18.81,53.24,18.81,50z"
		/>
	<path class="st10" d="M18.81,79.32c0-3.24-2.62-5.86-5.86-5.86s-5.86,2.62-5.86,5.86c0,3.24,2.62,5.86,5.86,5.86
		S18.81,82.56,18.81,79.32z"/>
	
		<rect x="78.33" y="43.78" transform="matrix(0.7071 -0.7071 0.7071 0.7071 -10.5182 74.2541)" class="st11" width="12.08" height="12.08"/>
</g>
</svg>
