<svg width="378" height="332" viewBox="0 0 378 332" fill="none" xmlns="http://www.w3.org/2000/svg">
<g clip-path="url(#clip0)">
<path d="M161.196 331.064C151.019 329.802 141.029 327.557 131.649 323.441C93.941 307.12 70.7723 278.872 62.4709 238.699C61.8612 235.753 61.4391 232.713 61.1577 229.72C60.7356 225.137 63.2213 223.36 67.4893 225.137C74.3836 227.943 81.4186 230.188 88.6882 231.684C116.781 237.483 143.515 233.648 169.075 220.787C169.826 220.413 170.623 220.039 171.326 219.571C173.249 218.309 175.032 218.543 177.001 219.618C187.882 225.558 199.42 229.72 211.614 232.058C235.298 236.641 258.28 234.21 280.604 225.184C285.107 223.36 287.498 224.996 287.029 229.813C285.576 244.779 281.355 258.949 273.991 272.091C257.435 301.835 232.531 321.945 199.373 330.082C186.897 332.654 170.998 332.28 161.196 331.064Z" fill="#7572EB"/>
<path d="M0 113.362C1.68841 69.5884 20.683 35.729 59.3757 14.3564C91.9245 -3.64892 125.833 -4.3972 160.071 10.2877C164.479 12.1584 164.854 15.1515 161.056 18.1446C136.105 37.7868 120.909 63.2281 115.468 94.4685C114.624 99.4259 113.921 104.477 114.015 109.528C114.061 112.614 112.936 114.438 110.309 116.122C83.4356 133.239 65.848 157.183 57.359 187.816C55.9989 192.773 55.0609 197.824 54.4043 202.875C53.8884 206.944 50.9337 208.347 47.6507 205.961C23.028 188.237 7.97305 164.432 2.06361 134.829C1.45391 131.882 1.12561 128.842 0.703504 125.849C0.0938006 121.734 0.187601 117.618 0 113.362Z" fill="#4CD9ED"/>
<path d="M234.549 0.233398C290.595 0.233398 339.043 41.1547 346.735 96.6205C352.925 141.143 337.308 177.528 301.663 205.214C300.679 205.962 299.694 206.804 298.427 207.038C296.082 207.459 294.159 205.822 293.831 202.922C292.705 193.148 290.22 183.654 286.562 174.535C276.572 149.514 260.157 129.825 237.222 115.608C235.206 114.345 234.362 112.802 234.268 110.51C232.626 72.5354 216.774 41.7159 187.039 18.0049C183.522 15.1989 183.803 12.159 187.837 10.3819C202.657 3.69417 218.228 0.326933 234.549 0.233398Z" fill="#437FEC"/>
<path d="M234.596 227.942C217.852 227.615 201.812 224.294 186.617 217.233C182.396 215.268 182.161 212.135 185.866 209.282C210.208 190.575 225.356 166.163 231.407 136.092C231.969 133.332 232.345 130.573 232.72 127.814C233.236 123.979 236.19 122.529 239.38 124.774C251.245 133.005 261.141 143.107 269.067 155.126C280.417 172.289 286.89 191.09 288.109 211.667C288.25 213.725 287.687 214.847 285.717 215.783C271.694 222.611 256.92 226.68 241.302 227.521C239.098 227.662 236.847 227.802 234.596 227.942Z" fill="#ACAAEF"/>
<path d="M120.862 103.308C121.66 91.8971 124.661 80.5794 129.164 69.6827C134.979 55.7461 143.327 43.4463 154.021 32.7367C159.274 27.4987 164.995 22.8688 171.186 18.7065C173.203 17.3503 174.985 17.397 177.002 18.7533C191.682 28.5744 203.454 41.108 212.318 56.3541C219.681 68.9812 224.418 82.5437 226.622 96.9947C226.951 99.146 226.998 101.344 227.373 103.449C227.701 105.319 227.373 106.863 225.872 108.032C224.371 109.201 222.823 108.827 221.229 108.125C213.584 104.758 205.611 102.326 197.403 100.736C178.503 97.135 159.789 97.6962 141.264 103.074C136.48 104.477 131.743 105.974 127.147 107.985C122.973 109.902 120.768 108.312 120.862 103.308Z" fill="#99E5F2"/>
<path d="M106.697 227.007C96.004 226.96 79.4482 223.266 63.8305 215.549C60.9695 214.146 60.6412 213.024 60.8757 209.75C61.4854 201.192 63.1739 192.867 65.7065 184.683C69.8337 171.401 76.2121 159.288 84.7949 148.345C91.0795 140.348 98.3022 133.333 106.463 127.253C107.26 126.645 108.104 125.99 108.995 125.569C111.763 124.166 114.483 125.616 114.858 128.656C117.625 150.824 126.114 170.7 139.809 188.331C146.094 196.375 153.363 203.53 161.571 209.657C164.478 211.808 164.15 215.222 160.961 216.672C145.859 223.64 130.007 227.054 106.697 227.007Z" fill="#97D2EB"/>
</g>
<path d="M274.6 44.5299L278.625 39.8849C278.798 39.6698 279.012 39.428 279.265 39.1595C279.519 38.8909 279.797 38.6087 280.1 38.313C279.692 38.4198 279.304 38.5115 278.935 38.588C278.573 38.6606 278.251 38.7154 277.97 38.7524L271.924 39.7016L274.6 44.5299ZM271.631 52.6913L270.422 50.5081C270.286 50.2631 270.235 50.0308 270.268 49.8109C270.309 49.5872 270.399 49.3864 270.538 49.2086L273.007 46.3592L269.523 40.072L265.798 40.6542C265.606 40.6874 265.399 40.6604 265.177 40.5731C264.955 40.4858 264.778 40.3232 264.646 40.0853L263.425 37.8811L281.912 35.4431L283.505 38.319L271.631 52.6913ZM283.915 55.9433C284.109 55.4517 284.182 54.9902 284.136 54.5589C284.092 54.1346 283.96 53.723 283.739 53.3241C283.522 52.9323 283.253 52.6196 282.932 52.3862C282.61 52.1527 282.237 52.0074 281.812 51.9502C281.394 51.8891 280.921 51.9271 280.393 52.0641C279.873 52.1971 279.301 52.4362 278.678 52.7813C278.048 53.1303 277.54 53.4759 277.154 53.8182C276.778 54.1635 276.502 54.5082 276.327 54.8523C276.159 55.1924 276.088 55.5339 276.113 55.8766C276.145 56.2154 276.254 56.5527 276.44 56.8886C276.739 57.4274 277.105 57.8237 277.538 58.0775C277.972 58.3313 278.488 58.5117 279.087 58.6188L283.915 55.9433ZM292.93 54.3365L277.332 62.9795L276.454 61.3946C276.264 61.0517 276.301 60.7476 276.566 60.4821L277.483 59.6859C276.746 59.5273 276.066 59.25 275.444 58.8538C274.826 58.4646 274.309 57.8956 273.895 57.1469C273.569 56.5591 273.393 55.9525 273.366 55.3269C273.34 54.7014 273.459 54.0822 273.723 53.4694C273.998 52.8598 274.424 52.267 275.001 51.691C275.582 51.1221 276.313 50.5934 277.195 50.1048C277.993 49.6628 278.794 49.3602 279.6 49.1971C280.406 49.034 281.174 49.0158 281.902 49.1425C282.631 49.2692 283.292 49.5384 283.886 49.9501C284.487 50.3579 284.984 50.9152 285.375 51.6219C285.709 52.2237 285.899 52.7903 285.947 53.3219C285.995 53.8534 285.951 54.3763 285.815 54.8906L291.493 51.7439L292.93 54.3365ZM294.899 69.2796L281.763 70.9752L280.46 68.624L288.862 58.3846L290.049 60.5258C290.157 60.7217 290.201 60.9079 290.18 61.0842C290.162 61.2676 290.095 61.419 289.979 61.5386L285.378 66.8042C285.105 67.1022 284.83 67.3824 284.555 67.6448C284.279 67.9071 283.998 68.159 283.711 68.4003C284.072 68.2919 284.436 68.1905 284.805 68.0961C285.173 68.0017 285.558 67.9209 285.96 67.8538L292.887 66.7867C293.054 66.7581 293.218 66.7816 293.379 66.8571C293.539 66.9327 293.668 67.0579 293.765 67.2329L294.899 69.2796ZM292.498 79.5038C292.048 78.7745 291.633 78.1815 291.252 77.725C290.878 77.2646 290.532 76.9211 290.214 76.6947C289.897 76.4682 289.603 76.3428 289.334 76.3184C289.064 76.294 288.814 76.3458 288.583 76.4738C288.128 76.7258 287.876 77.0391 287.828 77.4136C287.783 77.795 287.881 78.2027 288.121 78.6365C288.416 79.1683 288.764 79.5743 289.167 79.8545C289.58 80.1378 290.085 80.3563 290.682 80.51L292.498 79.5038ZM293.877 70.9747C295.697 71.5851 297.09 72.7615 298.055 74.5038C298.404 75.1336 298.611 75.7551 298.677 76.3682C298.749 76.9775 298.695 77.5563 298.514 78.1047C298.34 78.6492 298.046 79.1505 297.632 79.6085C297.222 80.0734 296.713 80.4746 296.104 80.812L289.302 84.5809L288.651 83.4053C288.515 83.1604 288.446 82.9521 288.442 82.7804C288.445 82.6048 288.538 82.4165 288.719 82.2154L289.368 81.5541C288.971 81.4169 288.607 81.2712 288.275 81.117C287.949 80.9589 287.646 80.7748 287.365 80.5647C287.084 80.3546 286.823 80.106 286.581 79.819C286.337 79.5429 286.108 79.2125 285.895 78.8276C285.643 78.3728 285.47 77.9199 285.375 77.4692C285.288 77.0145 285.289 76.5794 285.379 76.1638C285.469 75.7481 285.653 75.3626 285.932 75.007C286.21 74.6514 286.591 74.3398 287.074 74.0723C287.347 73.9211 287.641 73.8173 287.958 73.7609C288.281 73.7006 288.621 73.7041 288.979 73.7713C289.34 73.8455 289.72 73.987 290.119 74.1957C290.518 74.4043 290.93 74.702 291.355 75.0886C291.783 75.4823 292.223 75.9703 292.674 76.5528C293.132 77.1314 293.598 77.8243 294.073 78.6314L294.702 78.2824C295.423 77.883 295.87 77.4344 296.042 76.9365C296.221 76.4347 296.15 75.8934 295.828 75.3126C295.595 74.8928 295.352 74.57 295.099 74.3444C294.85 74.1258 294.604 73.9464 294.362 73.8063C294.127 73.6623 293.912 73.53 293.717 73.4093C293.526 73.2957 293.372 73.1339 293.256 72.924C293.155 72.742 293.115 72.5629 293.136 72.3865C293.165 72.2063 293.22 72.0428 293.304 71.896L293.877 70.9747ZM301.446 84.2126C301.783 84.3093 302.108 84.4262 302.422 84.5633C302.747 84.7035 303.046 84.8717 303.319 85.0678C303.603 85.267 303.865 85.5012 304.106 85.7703C304.354 86.0355 304.578 86.3501 304.78 86.714C305.106 87.3017 305.293 87.8793 305.342 88.4466C305.398 89.01 305.328 89.5429 305.131 90.0455C304.944 90.5511 304.642 91.0205 304.223 91.4536C303.816 91.8899 303.311 92.2747 302.709 92.6082L295.855 96.4062L294.419 93.8137L301.273 90.0156C301.93 89.6511 302.354 89.2196 302.545 88.7209C302.742 88.2184 302.67 87.6592 302.328 87.0435C302.08 86.5956 301.746 86.232 301.326 85.9526C300.906 85.6732 300.424 85.4555 299.88 85.2995L292.092 89.6152L290.655 87.0226L301.425 81.0551L302.303 82.64C302.489 82.9759 302.454 83.2836 302.197 83.563L301.446 84.2126ZM309.988 101.881C309.847 101.859 309.728 101.824 309.629 101.778C309.534 101.739 309.448 101.65 309.371 101.51C309.297 101.377 309.264 101.226 309.271 101.058C309.285 100.885 309.293 100.684 309.294 100.455C309.302 100.222 309.276 99.9615 309.218 99.674C309.17 99.3895 309.047 99.0689 308.849 98.712C308.597 98.2572 308.292 97.9048 307.934 97.655C307.583 97.4013 307.19 97.2443 306.754 97.184C306.322 97.1307 305.855 97.1702 305.352 97.3026C304.856 97.431 304.332 97.6484 303.779 97.9547C303.205 98.2727 302.727 98.6152 302.345 98.9823C301.967 99.3564 301.688 99.7443 301.508 100.146C301.335 100.543 301.259 100.951 301.281 101.369C301.309 101.784 301.438 102.197 301.666 102.61C301.895 103.023 302.128 103.328 302.366 103.526C302.614 103.726 302.846 103.881 303.062 103.99C303.285 104.095 303.481 104.184 303.648 104.256C303.827 104.33 303.961 104.448 304.05 104.609C304.166 104.819 304.173 105.021 304.07 105.215L303.539 106.484C303.044 106.383 302.588 106.229 302.171 106.021C301.761 105.809 301.385 105.56 301.043 105.274C300.713 104.99 300.413 104.672 300.143 104.318C299.878 103.971 299.641 103.609 299.431 103.231C299.063 102.566 298.838 101.872 298.758 101.149C298.684 100.421 298.763 99.7053 298.994 99.0008C299.226 98.2963 299.613 97.6246 300.155 96.9857C300.708 96.3499 301.426 95.7877 302.307 95.2992C303.098 94.861 303.891 94.5678 304.687 94.4194C305.494 94.2742 306.264 94.2863 306.998 94.4558C307.739 94.6213 308.43 94.9519 309.071 95.4476C309.711 95.9432 310.266 96.6144 310.735 97.4611C311.181 98.2658 311.441 99.0408 311.516 99.786C311.594 100.538 311.526 101.29 311.311 102.04L309.988 101.881ZM313.199 112.082C313.535 111.896 313.822 111.673 314.062 111.412C314.313 111.154 314.497 110.869 314.617 110.556C314.736 110.243 314.777 109.905 314.74 109.541C314.714 109.18 314.594 108.808 314.381 108.423C313.966 107.674 313.425 107.201 312.758 107.004C312.095 106.813 311.338 106.876 310.488 107.191L313.199 112.082ZM308.895 108.005C308.366 108.354 307.941 108.717 307.62 109.096C307.307 109.471 307.087 109.858 306.96 110.257C306.841 110.653 306.81 111.059 306.867 111.475C306.935 111.895 307.085 112.315 307.318 112.735C307.551 113.154 307.799 113.488 308.064 113.734C308.333 113.988 308.588 114.194 308.831 114.352C309.078 114.517 309.297 114.656 309.488 114.77C309.683 114.89 309.825 115.031 309.914 115.192C310.035 115.409 310.043 115.615 309.941 115.809L309.409 117.077C308.914 116.977 308.452 116.812 308.024 116.583C307.602 116.35 307.213 116.077 306.855 115.762C306.509 115.451 306.196 115.108 305.915 114.733C305.638 114.365 305.395 113.992 305.185 113.615C304.77 112.866 304.507 112.102 304.395 111.322C304.29 110.539 304.347 109.776 304.567 109.032C304.793 108.285 305.187 107.577 305.75 106.909C306.319 106.236 307.076 105.639 308.021 105.115C308.756 104.708 309.511 104.445 310.286 104.326C311.069 104.203 311.82 104.231 312.54 104.408C313.271 104.588 313.953 104.919 314.586 105.401C315.223 105.889 315.764 106.536 316.21 107.341C316.586 108.02 316.825 108.706 316.926 109.4C317.027 110.094 316.982 110.764 316.791 111.409C316.607 112.051 316.274 112.656 315.793 113.224C315.323 113.795 314.7 114.296 313.923 114.727C313.531 114.944 313.242 115.049 313.056 115.043C312.876 115.033 312.721 114.908 312.589 114.67L308.895 108.005ZM320.71 122.344C320.904 121.853 320.977 121.391 320.93 120.96C320.887 120.535 320.755 120.124 320.534 119.725C320.317 119.333 320.048 119.021 319.726 118.787C319.405 118.554 319.032 118.408 318.607 118.351C318.189 118.29 317.716 118.328 317.188 118.465C316.668 118.598 316.096 118.837 315.473 119.182C314.843 119.531 314.335 119.877 313.948 120.219C313.573 120.564 313.297 120.909 313.122 121.253C312.954 121.593 312.882 121.935 312.908 122.277C312.94 122.616 313.049 122.954 313.235 123.29C313.534 123.828 313.9 124.225 314.333 124.478C314.766 124.732 315.283 124.913 315.882 125.02L320.71 122.344ZM329.725 120.737L314.127 129.38L313.249 127.796C313.059 127.453 313.096 127.148 313.361 126.883L314.278 126.087C313.541 125.928 312.861 125.651 312.239 125.255C311.621 124.866 311.104 124.297 310.69 123.548C310.364 122.96 310.188 122.353 310.161 121.728C310.135 121.102 310.253 120.483 310.518 119.87C310.792 119.261 311.219 118.668 311.796 118.092C312.377 117.523 313.108 116.994 313.99 116.506C314.788 116.064 315.589 115.761 316.395 115.598C317.201 115.435 317.969 115.417 318.697 115.543C319.426 115.67 320.087 115.939 320.681 116.351C321.282 116.759 321.779 117.316 322.17 118.023C322.504 118.625 322.694 119.191 322.742 119.723C322.789 120.254 322.745 120.777 322.61 121.291L328.288 118.145L329.725 120.737ZM262.998 61.4645C262.804 61.462 262.645 61.4311 262.521 61.3719C262.408 61.3158 262.312 61.2178 262.235 61.0779C262.153 60.9309 262.117 60.7409 262.125 60.5078C262.144 60.2778 262.154 60.0071 262.155 59.6955C262.156 59.3839 262.12 59.0381 262.046 58.658C261.984 58.2811 261.832 57.8757 261.592 57.4419C261.375 57.05 261.136 56.7343 260.875 56.4947C260.621 56.2512 260.354 56.0745 260.074 55.9646C259.797 55.8618 259.513 55.8273 259.221 55.8611C258.935 55.8911 258.653 55.9837 258.373 56.1388C258.016 56.3365 257.773 56.5993 257.644 56.9271C257.518 57.2618 257.462 57.6402 257.477 58.0621C257.491 58.4841 257.548 58.9418 257.648 59.4353C257.748 59.9288 257.843 60.4387 257.933 60.9648C258.03 61.4871 258.094 62.0144 258.123 62.5467C258.16 63.0751 258.116 63.589 257.99 64.0885C257.871 64.5841 257.646 65.0521 257.314 65.4923C256.985 65.9395 256.506 66.3376 255.876 66.6866C255.191 67.0666 254.481 67.3043 253.747 67.3999C253.025 67.4986 252.313 67.4446 251.613 67.2379C250.924 67.0343 250.27 66.6789 249.651 66.1716C249.038 65.6604 248.499 64.985 248.034 64.1453C247.766 63.6625 247.552 63.1595 247.39 62.6364C247.221 62.1171 247.104 61.5921 247.038 61.0614C246.977 60.5376 246.964 60.0189 246.999 59.5053C247.035 58.9917 247.122 58.5046 247.26 58.044L249.073 58.1229C249.21 58.1386 249.341 58.185 249.466 58.262C249.598 58.3352 249.699 58.4348 249.769 58.5607C249.865 58.7357 249.897 58.9653 249.862 59.2497C249.835 59.5302 249.811 59.8588 249.791 60.2356C249.771 60.6125 249.791 61.0271 249.849 61.4793C249.919 61.9348 250.099 62.4249 250.39 62.9497C250.836 63.7544 251.37 64.2725 251.992 64.5039C252.621 64.7315 253.292 64.6475 254.006 64.252C254.405 64.031 254.674 63.7492 254.814 63.4067C254.957 63.0712 255.021 62.6925 255.007 62.2705C255 61.8447 254.939 61.3889 254.826 60.9032C254.712 60.4174 254.605 59.9188 254.504 59.4074C254.404 58.896 254.335 58.3761 254.299 57.8477C254.262 57.3193 254.31 56.8034 254.442 56.3C254.575 55.7966 254.82 55.3136 255.176 54.8509C255.543 54.3913 256.073 53.9695 256.766 53.5857C257.319 53.2793 257.918 53.0892 258.563 53.0153C259.212 52.9484 259.855 53.0125 260.494 53.2074C261.132 53.4024 261.745 53.7399 262.331 54.2199C262.917 54.7 263.431 55.3389 263.873 56.1366C264.369 57.0323 264.687 57.9355 264.826 58.8464C264.965 59.7572 264.93 60.6181 264.72 61.4291L262.998 61.4645ZM262.705 74.6019C263.04 74.4158 263.328 74.1923 263.568 73.9315C263.818 73.6738 264.003 73.3884 264.122 73.0754C264.242 72.7624 264.283 72.4241 264.246 72.0604C264.22 71.6998 264.1 71.3271 263.887 70.9422C263.472 70.1935 262.931 69.7205 262.264 69.5232C261.6 69.3328 260.844 69.3953 259.994 69.7107L262.705 74.6019ZM258.401 70.5248C257.872 70.8731 257.447 71.2367 257.126 71.6155C256.813 71.9905 256.593 72.3776 256.466 72.7769C256.347 73.1723 256.316 73.5782 256.373 73.9948C256.441 74.4144 256.591 74.8342 256.824 75.254C257.056 75.6739 257.305 76.0071 257.57 76.2537C257.838 76.5073 258.094 76.7131 258.337 76.8711C258.584 77.0361 258.803 77.1755 258.994 77.2891C259.189 77.4098 259.331 77.5506 259.42 77.7115C259.54 77.9284 259.549 78.134 259.446 78.3281L258.915 79.5968C258.42 79.496 257.958 79.3312 257.529 79.1023C257.108 78.8695 256.718 78.5959 256.361 78.2816C256.015 77.9704 255.701 77.6274 255.421 77.2526C255.144 76.8848 254.9 76.5119 254.691 76.134C254.276 75.3853 254.013 74.6212 253.901 73.8417C253.796 73.0584 253.853 72.295 254.072 71.5516C254.299 70.8044 254.693 70.0965 255.255 69.4281C255.825 68.7558 256.582 68.158 257.527 67.6345C258.261 67.2273 259.017 66.9644 259.792 66.8455C260.575 66.7228 261.326 66.7501 262.046 66.9273C262.777 67.1075 263.459 67.4385 264.092 67.9202C264.729 68.4089 265.27 69.0555 265.716 69.8603C266.092 70.539 266.33 71.2254 266.431 71.9194C266.532 72.6134 266.487 73.2831 266.296 73.9286C266.112 74.5703 265.78 75.1752 265.299 75.7435C264.829 76.3149 264.206 76.8157 263.429 77.2462C263.037 77.4633 262.748 77.5687 262.562 77.5622C262.382 77.5519 262.226 77.4278 262.095 77.1899L258.401 70.5248ZM271.217 85.5571C271.077 85.5344 270.957 85.5001 270.858 85.4541C270.764 85.4152 270.677 85.3257 270.6 85.1858C270.526 85.0528 270.493 84.902 270.5 84.7334C270.514 84.5609 270.522 84.3601 270.523 84.1309C270.531 83.8978 270.506 83.6374 270.447 83.3499C270.399 83.0654 270.276 82.7448 270.078 82.3879C269.826 81.933 269.521 81.5807 269.163 81.3309C268.813 81.0772 268.419 80.9202 267.983 80.8599C267.551 80.8066 267.084 80.8461 266.581 80.9784C266.085 81.1069 265.561 81.3243 265.008 81.6306C264.434 81.9485 263.956 82.2911 263.574 82.6582C263.196 83.0323 262.917 83.4201 262.737 83.8217C262.565 84.2193 262.489 84.6272 262.51 85.0452C262.538 85.4594 262.667 85.873 262.896 86.2858C263.124 86.6987 263.358 87.0039 263.595 87.2015C263.844 87.4023 264.076 87.5571 264.292 87.6662C264.515 87.7713 264.71 87.8597 264.878 87.9314C265.056 88.0062 265.19 88.124 265.279 88.285C265.396 88.4949 265.402 88.6969 265.3 88.8911L264.768 90.1598C264.273 90.059 263.817 89.9047 263.4 89.6967C262.99 89.4849 262.614 89.2359 262.273 88.9496C261.942 88.6664 261.642 88.3478 261.373 87.994C261.107 87.6472 260.87 87.2848 260.661 86.9069C260.292 86.2422 260.068 85.548 259.987 84.8245C259.913 84.0972 259.992 83.3812 260.223 82.6767C260.455 81.9722 260.842 81.3005 261.384 80.6616C261.937 80.0258 262.655 79.4636 263.536 78.975C264.327 78.5369 265.12 78.2436 265.916 78.0953C266.723 77.9501 267.493 77.9622 268.228 78.1316C268.969 78.2972 269.659 78.6278 270.3 79.1234C270.94 79.6191 271.495 80.2903 271.965 81.137C272.41 81.9417 272.671 82.7167 272.745 83.4619C272.824 84.2142 272.755 84.9655 272.54 85.7159L271.217 85.5571ZM279.973 95.9861L269.204 101.954L268.326 100.369C268.136 100.026 268.173 99.7216 268.438 99.4562L269.2 98.8008C268.507 98.6081 267.874 98.3234 267.299 97.9467C266.732 97.5661 266.248 97.0155 265.849 96.2947C265.523 95.7069 265.332 95.1313 265.276 94.5679C265.231 94.0077 265.305 93.4728 265.498 92.9632C265.692 92.4537 265.992 91.9808 266.4 91.5446C266.818 91.1115 267.328 90.7282 267.93 90.3947L274.774 86.6025L276.21 89.195L269.367 92.9873C268.709 93.3517 268.281 93.7852 268.084 94.2878C267.898 94.7934 267.974 95.3506 268.311 95.9594C268.559 96.4072 268.89 96.7728 269.303 97.0561C269.723 97.3355 270.205 97.5532 270.749 97.7092L278.537 93.3935L279.973 95.9861ZM280.885 102.038C281.715 102.017 282.439 102.136 283.059 102.397C283.686 102.653 284.174 103.096 284.523 103.726C284.798 104.223 284.911 104.682 284.861 105.103L282.826 106.011C282.68 106.046 282.56 106.043 282.466 106.004C282.382 105.969 282.309 105.895 282.247 105.783C282.188 105.678 282.119 105.511 282.037 105.281C281.96 105.059 281.867 104.85 281.758 104.654C281.599 104.367 281.416 104.135 281.208 103.958C281 103.78 280.765 103.645 280.503 103.552C280.252 103.463 279.976 103.41 279.675 103.394C279.377 103.385 279.052 103.401 278.699 103.441L272.065 107.117L270.629 104.524L281.398 98.5567L282.241 100.079C282.389 100.345 282.442 100.557 282.403 100.716C282.37 100.872 282.241 101.035 282.015 101.205L280.885 102.038ZM287.226 109.075L276.457 115.042L275.015 112.439L285.784 106.472L287.226 109.075ZM290.562 107.693C290.339 107.817 290.103 107.888 289.857 107.905C289.611 107.923 289.371 107.895 289.139 107.823C288.911 107.757 288.695 107.648 288.491 107.496C288.295 107.339 288.133 107.146 288.005 106.915C287.881 106.691 287.805 106.454 287.776 106.205C287.758 105.958 287.782 105.721 287.848 105.493C287.913 105.264 288.019 105.05 288.165 104.851C288.314 104.658 288.501 104.5 288.724 104.376C288.955 104.248 289.196 104.17 289.445 104.141C289.698 104.12 289.939 104.142 290.168 104.207C290.396 104.273 290.606 104.38 290.799 104.53C291.002 104.682 291.166 104.87 291.29 105.094C291.418 105.325 291.493 105.567 291.514 105.821C291.543 106.07 291.524 106.309 291.459 106.537C291.397 106.773 291.29 106.992 291.138 107.196C290.985 107.399 290.793 107.565 290.562 107.693ZM279.743 121.368C279.223 120.431 279.086 119.564 279.332 118.77C279.589 117.978 280.182 117.325 281.113 116.809L287.127 113.476L286.516 112.374C286.439 112.234 286.418 112.09 286.455 111.942C286.492 111.793 286.601 111.669 286.783 111.568L287.812 110.998L289.055 112.573L292.296 111.49C292.456 111.447 292.601 111.454 292.732 111.509C292.863 111.564 292.972 111.669 293.057 111.823L293.801 113.166L290.411 115.045L292.005 117.921L290.157 118.945L288.564 116.069L282.728 119.303C282.392 119.489 282.174 119.715 282.074 119.98C281.979 120.253 282.01 120.533 282.169 120.82C282.258 120.981 282.349 121.104 282.443 121.189C282.547 121.278 282.641 121.349 282.726 121.403C282.814 121.464 282.893 121.516 282.963 121.559C283.04 121.599 283.096 121.65 283.131 121.713C283.174 121.79 283.187 121.865 283.173 121.937C283.165 122.006 283.138 122.089 283.092 122.188L282.263 123.662C281.739 123.459 281.26 123.157 280.828 122.756C280.395 122.356 280.034 121.893 279.743 121.368ZM298.44 129.311L281.459 131.051C281.235 131.075 281.042 131.049 280.881 130.974C280.718 130.909 280.566 130.751 280.426 130.499L279.356 128.568L284.797 128.187L292.344 118.311L293.607 120.589C293.719 120.792 293.757 120.976 293.721 121.142C293.689 121.316 293.626 121.465 293.531 121.591L289.215 126.973C289.069 127.155 288.914 127.323 288.753 127.476C288.595 127.637 288.431 127.796 288.263 127.954C288.493 127.908 288.721 127.865 288.945 127.823C289.175 127.777 289.407 127.741 289.638 127.713L296.41 126.787C296.581 126.765 296.747 126.792 296.907 126.868C297.072 126.95 297.199 127.072 297.288 127.233L298.44 129.311Z" fill="white"/>
<defs>
<clipPath id="clip0">
<rect width="348" height="332" fill="white" transform="translate(0 -0.000488281)"/>
</clipPath>
</defs>
</svg>
