<svg width="348" height="332" viewBox="0 0 348 332" fill="none" xmlns="http://www.w3.org/2000/svg">
<g clip-path="url(#clip0)">
<path d="M161.196 331.065C151.019 329.802 141.029 327.557 131.649 323.442C93.941 307.12 70.7723 278.873 62.4709 238.7C61.8612 235.753 61.4391 232.714 61.1577 229.72C60.7356 225.137 63.2213 223.36 67.4893 225.137C74.3836 227.943 81.4186 230.188 88.6882 231.685C116.781 237.484 143.515 233.649 169.075 220.788C169.826 220.414 170.623 220.04 171.326 219.572C173.249 218.309 175.032 218.543 177.001 219.619C187.882 225.558 199.42 229.72 211.614 232.059C235.298 236.642 258.28 234.21 280.604 225.184C285.107 223.36 287.498 224.997 287.029 229.814C285.576 244.779 281.355 258.95 273.991 272.091C257.435 301.835 232.531 321.945 199.373 330.083C186.897 332.655 170.998 332.281 161.196 331.065Z" fill="#7572EB"/>
<path d="M0 113.363C1.68841 69.5889 20.683 35.7295 59.3757 14.3569C91.9245 -3.64844 125.833 -4.39671 160.071 10.2882C164.479 12.1589 164.854 15.152 161.056 18.1451C136.105 37.7873 120.909 63.2286 115.468 94.469C114.624 99.4263 113.921 104.477 114.015 109.528C114.061 112.615 112.936 114.439 110.309 116.122C83.4356 133.239 65.848 157.184 57.359 187.816C55.9989 192.774 55.0609 197.824 54.4043 202.875C53.8884 206.944 50.9337 208.347 47.6507 205.962C23.028 188.237 7.97305 164.433 2.06361 134.829C1.45391 131.883 1.12561 128.843 0.703504 125.85C0.0938006 121.734 0.187601 117.619 0 113.363Z" fill="#4CD9ED"/>
<path d="M234.549 0.233887C290.595 0.233887 339.043 41.1552 346.735 96.621C352.925 141.143 337.308 177.528 301.663 205.214C300.679 205.963 299.694 206.804 298.427 207.038C296.082 207.459 294.159 205.822 293.831 202.923C292.705 193.148 290.22 183.655 286.562 174.535C276.572 149.515 260.157 129.826 237.222 115.608C235.206 114.346 234.362 112.802 234.268 110.511C232.626 72.5359 216.774 41.7164 187.039 18.0054C183.522 15.1994 183.803 12.1595 187.837 10.3824C202.657 3.69466 218.228 0.327421 234.549 0.233887Z" fill="#437FEC"/>
<path d="M234.596 227.943C217.852 227.615 201.812 224.295 186.617 217.233C182.396 215.269 182.161 212.135 185.866 209.283C210.208 190.576 225.356 166.163 231.407 136.092C231.969 133.333 232.345 130.574 232.72 127.814C233.236 123.979 236.19 122.53 239.38 124.774C251.245 133.005 261.141 143.107 269.067 155.126C280.417 172.29 286.89 191.09 288.109 211.668C288.25 213.726 287.687 214.848 285.717 215.783C271.694 222.611 256.92 226.68 241.302 227.522C239.098 227.662 236.847 227.802 234.596 227.943Z" fill="#ACAAEF"/>
<path d="M120.862 103.309C121.66 91.8976 124.661 80.5799 129.164 69.6832C134.979 55.7466 143.327 43.4468 154.021 32.7371C159.274 27.4992 164.995 22.8693 171.186 18.707C173.203 17.3507 174.985 17.3975 177.002 18.7538C191.682 28.5749 203.454 41.1085 212.318 56.3546C219.681 68.9817 224.418 82.5442 226.622 96.9952C226.951 99.1465 226.998 101.345 227.373 103.449C227.701 105.32 227.373 106.863 225.872 108.032C224.371 109.201 222.823 108.827 221.229 108.126C213.584 104.759 205.611 102.327 197.403 100.737C178.503 97.1355 159.789 97.6967 141.264 103.075C136.48 104.478 131.743 105.974 127.147 107.985C122.973 109.903 120.768 108.313 120.862 103.309Z" fill="#99E5F2"/>
<path d="M106.697 227.008C96.004 226.961 79.4482 223.266 63.8305 215.55C60.9695 214.147 60.6412 213.024 60.8757 209.751C61.4854 201.192 63.1739 192.868 65.7065 184.683C69.8337 171.402 76.2121 159.289 84.7949 148.345C91.0795 140.348 98.3022 133.333 106.463 127.253C107.26 126.645 108.104 125.991 108.995 125.57C111.763 124.167 114.483 125.617 114.858 128.656C117.625 150.824 126.114 170.7 139.809 188.331C146.094 196.375 153.363 203.531 161.571 209.657C164.478 211.808 164.15 215.222 160.961 216.672C145.859 223.64 130.007 227.054 106.697 227.008Z" fill="#97D2EB"/>
</g>
<path d="M28.8515 118.975L22.8735 117.547C22.6026 117.492 22.2896 117.414 21.9343 117.313C21.579 117.212 21.2004 117.095 20.7984 116.963C21.081 117.275 21.3415 117.577 21.5797 117.87C21.8112 118.157 22.0083 118.418 22.1709 118.65L25.8021 123.576L28.8515 118.975ZM37.4618 117.843L36.083 119.923C35.9283 120.157 35.7457 120.309 35.5351 120.381C35.3178 120.448 35.0982 120.461 34.8762 120.419L31.2094 119.544L27.2386 125.536L29.4735 128.572C29.5915 128.727 29.663 128.923 29.6881 129.16C29.7131 129.397 29.6505 129.629 29.5003 129.856L28.1082 131.957L17.4162 116.68L19.2325 113.939L37.4618 117.843ZM33.6374 101.326L43.9003 108.128L42.8993 109.638C42.6827 109.965 42.3957 110.072 42.0381 109.96L41.1052 109.587C41.2536 110.29 41.2932 110.983 41.2241 111.666C41.1482 112.346 40.8827 113.029 40.4275 113.715C40.0563 114.276 39.6337 114.711 39.1597 115.02C38.6835 115.319 38.1748 115.5 37.6336 115.564C37.0924 115.627 36.5342 115.579 35.9591 115.418C35.3817 115.247 34.8063 114.971 34.2328 114.591L27.711 110.269L29.3484 107.798L35.8702 112.12C36.497 112.536 37.0789 112.715 37.6156 112.658C38.1502 112.59 38.6097 112.266 38.9942 111.686C39.277 111.259 39.4489 110.797 39.5096 110.3C39.5637 109.798 39.5345 109.27 39.4221 108.716L32.0001 103.797L33.6374 101.326ZM47.951 102.363C47.3588 103.257 46.6535 103.778 45.8352 103.927C45.0146 104.064 44.1608 103.839 43.2739 103.251L37.5424 99.4529L36.8463 100.503C36.7579 100.637 36.6394 100.721 36.4909 100.757C36.3423 100.793 36.1813 100.754 36.008 100.639L35.0277 99.989L35.8514 98.1595L33.3954 95.7832C33.2841 95.6615 33.2227 95.5297 33.2112 95.3877C33.1998 95.2457 33.2426 95.1014 33.3399 94.9547L34.1884 93.6743L37.4193 95.8155L39.2356 93.0748L40.9961 94.2415L39.1797 96.9822L44.7413 100.668C45.0614 100.88 45.3623 100.969 45.6439 100.935C45.9301 100.894 46.1637 100.737 46.3449 100.464C46.4466 100.311 46.5139 100.173 46.5468 100.051C46.5775 99.9175 46.5972 99.801 46.6058 99.7011C46.6188 99.5946 46.6285 99.5002 46.6349 99.4181C46.6347 99.3316 46.6545 99.2583 46.6942 99.1983C46.7429 99.1249 46.8026 99.0782 46.8736 99.058C46.9379 99.0334 47.0244 99.0188 47.1331 99.014L48.824 99.0693C48.8854 99.6283 48.8381 100.192 48.6821 100.76C48.5261 101.329 48.2824 101.863 47.951 102.363ZM42.9917 86.8641C43.4955 86.1039 44.0763 85.4955 44.7341 85.0388C45.3962 84.5755 46.0999 84.274 46.845 84.1344C47.5946 83.9882 48.3756 84.0115 49.1883 84.2046C50.0009 84.3976 50.8106 84.7615 51.6175 85.2963C52.4311 85.8354 53.085 86.4416 53.5795 87.1148C54.0739 87.7879 54.4031 88.5004 54.5671 89.2521C54.7356 89.9972 54.7354 90.7649 54.5668 91.5552C54.4025 92.3389 54.0684 93.1109 53.5646 93.8711C53.0564 94.638 52.4712 95.2531 51.809 95.7164C51.1469 96.1797 50.4377 96.4823 49.6815 96.6241C48.9297 96.7593 48.1452 96.7337 47.3282 96.5473C46.5156 96.3543 45.7025 95.9882 44.889 95.449C44.0821 94.9143 43.4314 94.3103 42.937 93.6372C42.447 92.9573 42.1211 92.2471 41.9593 91.5065C41.802 90.7591 41.8077 89.9903 41.9763 89.2C42.145 88.4096 42.4835 87.631 42.9917 86.8641ZM51.6641 92.6115C52.2298 91.758 52.3607 90.9378 52.0568 90.1509C51.7573 89.3574 51.0541 88.5938 49.9471 87.8602C48.8401 87.1266 47.8596 86.7743 47.0054 86.8032C46.1556 86.8255 45.4479 87.2634 44.8822 88.117C44.3077 88.9839 44.1747 89.8219 44.4831 90.6309C44.7892 91.4288 45.4925 92.1924 46.5928 92.9216C47.6931 93.6508 48.6703 94.0009 49.5245 93.972C50.3764 93.9319 51.0896 93.4785 51.6641 92.6115ZM58.0181 86.8254L47.7553 80.0239L48.7563 78.5135C48.9684 78.1934 49.2577 78.0828 49.624 78.1816L50.4903 78.5254C50.4096 78.2128 50.3499 77.9045 50.3114 77.6006C50.2773 77.2901 50.2731 76.985 50.2989 76.6854C50.3291 76.3791 50.3949 76.0772 50.4961 75.7796C50.5951 75.4709 50.7463 75.1632 50.9496 74.8564C51.3782 74.2096 51.9063 73.7966 52.5337 73.6173C53.1589 73.427 53.8301 73.4208 54.5473 73.5985C54.3132 73.2131 54.1557 72.8208 54.0748 72.4216C53.9871 72.0181 53.9616 71.6221 53.9983 71.2337C54.035 70.8453 54.1227 70.4667 54.2615 70.098C54.4047 69.7227 54.5845 69.3716 54.8011 69.0448C55.1767 68.478 55.5971 68.032 56.0621 67.7068C56.5272 67.3816 57.0259 67.1794 57.5582 67.1003C58.0905 67.0212 58.6475 67.064 59.2293 67.2289C59.8155 67.387 60.4187 67.6716 61.0389 68.0826L67.5706 72.4114L65.9333 74.8821L59.4015 70.5533C58.748 70.1202 58.1628 69.9387 57.646 70.0089C57.1225 70.0747 56.6774 70.3843 56.3106 70.9378C56.1427 71.1912 56.0291 71.4567 55.97 71.7342C55.9152 72.005 55.916 72.279 55.9722 72.5562C56.0262 72.8223 56.1456 73.0838 56.3305 73.3407C56.5153 73.5976 56.7678 73.8321 57.0879 74.0442L63.6197 78.373L61.9757 80.8537L55.4439 76.5249C54.757 76.0697 54.1641 75.8783 53.665 75.9507C53.1704 76.0164 52.7463 76.3159 52.3928 76.8494C52.1541 77.2095 52.021 77.6059 51.9933 78.0387C51.9634 78.4603 52.0134 78.9062 52.1434 79.3762L59.6555 84.3547L58.0181 86.8254ZM68.3388 61.7379C67.8993 62.4735 67.5649 63.1157 67.3356 63.6644C67.0997 64.2086 66.9545 64.6739 66.9001 65.0601C66.8457 65.4463 66.8699 65.7646 66.9726 66.0151C67.0754 66.2655 67.2368 66.4637 67.4568 66.6095C67.8903 66.8968 68.2843 66.9756 68.639 66.8459C68.9981 66.7096 69.3146 66.4347 69.5886 66.0212C69.9245 65.5144 70.1239 65.018 70.1869 64.5319C70.2477 64.0347 70.2085 63.4857 70.0693 62.8848L68.3388 61.7379ZM60.1355 64.4495C59.8375 62.5532 60.2386 60.7749 61.3391 59.1144C61.7368 58.5143 62.1926 58.0437 62.7064 57.7029C63.2136 57.3576 63.7522 57.1386 64.3222 57.0461C64.8855 56.9492 65.4658 56.9786 66.0631 57.1346C66.6648 57.2838 67.2557 57.5507 67.8359 57.9351L74.3176 62.2308L73.5752 63.3511C73.4205 63.5845 73.2678 63.7425 73.1172 63.825C72.9598 63.9031 72.7502 63.9081 72.4882 63.84L71.6021 63.5695C71.6632 63.9843 71.702 64.3747 71.7185 64.7407C71.7284 65.1024 71.7049 65.4563 71.6482 65.8026C71.5914 66.1489 71.4914 66.4953 71.3481 66.8418C71.216 67.1861 71.0283 67.5416 70.7853 67.9084C70.498 68.3419 70.1762 68.7044 69.8197 68.996C69.4566 69.2833 69.07 69.4829 68.6598 69.5949C68.2496 69.707 67.8226 69.7215 67.3786 69.6384C66.9346 69.5553 66.4825 69.3613 66.0224 69.0563C65.7623 68.884 65.5343 68.6705 65.3384 68.4158C65.1357 68.1568 64.9818 67.8532 64.8766 67.5052C64.7758 67.1504 64.7259 66.7479 64.7268 66.2974C64.7278 65.847 64.8019 65.3443 64.949 64.7892C65.1006 64.2274 65.3308 63.6121 65.6396 62.9434C65.9417 62.2703 66.3413 61.537 66.8384 60.7435L66.2382 60.3458C65.5514 59.8906 64.9473 59.7014 64.4261 59.7783C63.8983 59.8507 63.4509 60.1637 63.0841 60.7172C62.8189 61.1173 62.6446 61.4817 62.5612 61.8103C62.4822 62.1322 62.4365 62.433 62.4239 62.7126C62.4047 62.9878 62.3865 63.2397 62.3694 63.4682C62.3567 63.6902 62.284 63.9011 62.1515 64.1012C62.0366 64.2746 61.896 64.3926 61.7297 64.4551C61.5568 64.5133 61.3861 64.5393 61.2174 64.5331L60.1355 64.4495ZM78.1963 56.7258C77.6041 57.6194 76.8988 58.1405 76.0805 58.2892C75.2599 58.4268 74.4062 58.2017 73.5193 57.6139L67.7877 53.8154L67.0916 54.8657C67.0032 54.9991 66.8848 55.0837 66.7362 55.1196C66.5876 55.1555 66.4267 55.116 66.2533 55.0011L65.273 54.3515L66.0967 52.522L63.6407 50.1457C63.5294 50.024 63.468 49.8921 63.4566 49.7502C63.4451 49.6082 63.4879 49.4639 63.5852 49.3172L64.4337 48.0368L67.6646 50.178L69.481 47.4373L71.2414 48.604L69.4251 51.3447L74.9866 55.0305C75.3067 55.2427 75.6076 55.3317 75.8893 55.2976C76.1754 55.2569 76.409 55.0999 76.5902 54.8264C76.6919 54.6731 76.7592 54.5353 76.7921 54.4132C76.8228 54.28 76.8425 54.1634 76.8511 54.0636C76.8641 53.957 76.8738 53.8627 76.8803 53.7806C76.88 53.6941 76.8998 53.6208 76.9396 53.5608C76.9882 53.4874 77.048 53.4407 77.1189 53.4205C77.1832 53.3959 77.2697 53.3813 77.3784 53.3765L79.0693 53.4318C79.1307 53.9908 79.0834 54.5545 78.9275 55.1229C78.7715 55.6914 78.5278 56.2257 78.1963 56.7258ZM78.7204 41.8806C78.4003 41.6685 78.0693 41.5163 77.7274 41.424C77.3832 41.3207 77.0447 41.2883 76.712 41.3269C76.3793 41.3656 76.0601 41.4851 75.7544 41.6857C75.4465 41.8751 75.1711 42.1532 74.928 42.52C74.4551 43.2335 74.2851 43.9318 74.4178 44.6148C74.555 45.2912 74.9595 45.9335 75.6312 46.5419L78.7204 41.8806ZM77.0885 47.5796C77.6418 47.8887 78.1605 48.0981 78.6445 48.2077C79.1218 48.3129 79.5667 48.3295 79.9792 48.2573C80.3851 48.1808 80.7596 48.0211 81.1029 47.7783C81.4439 47.5245 81.747 47.1975 82.0121 46.7974C82.2773 46.3972 82.4582 46.0229 82.5549 45.6743C82.656 45.319 82.7206 44.9971 82.7486 44.7086C82.7811 44.4134 82.8037 44.1548 82.8164 43.9329C82.8335 43.7043 82.8929 43.5133 82.9945 43.36C83.1315 43.1532 83.3099 43.0507 83.5296 43.0523L84.9005 42.9387C85.0394 43.4243 85.1061 43.91 85.1008 44.3959C85.0888 44.8775 85.0258 45.3491 84.9116 45.8109C84.7953 46.2617 84.6356 46.6981 84.4326 47.1202C84.2341 47.5357 84.0155 47.9235 83.7768 48.2836C83.3039 48.9971 82.7475 49.5833 82.1075 50.0421C81.4609 50.4965 80.7572 50.798 79.9966 50.9465C79.2293 51.0906 78.4193 51.0673 77.5668 50.8766C76.7076 50.6814 75.8278 50.2856 74.9276 49.689C74.2274 49.2249 73.6457 48.6762 73.1824 48.0429C72.7125 47.4052 72.3901 46.726 72.215 46.0054C72.0377 45.2736 72.0168 44.516 72.1522 43.7324C72.2921 42.9421 72.6161 42.1635 73.1244 41.3966C73.553 40.7498 74.0519 40.2215 74.6211 39.8116C75.1902 39.4018 75.8052 39.1328 76.466 39.0045C77.1202 38.8718 77.8103 38.8877 78.5363 39.0521C79.26 39.2055 79.992 39.5274 80.7322 40.018C81.1057 40.2654 81.3325 40.4734 81.4129 40.6418C81.4865 40.8058 81.4483 41.0011 81.298 41.2279L77.0885 47.5796ZM84.3596 30.4824C83.8339 30.5371 83.3906 30.6848 83.0295 30.9254C82.673 31.1593 82.3687 31.4664 82.1168 31.8465C81.8693 32.2199 81.7162 32.6031 81.6573 32.996C81.5985 33.3889 81.6417 33.787 81.7871 34.1904C81.9257 34.5894 82.1775 34.9915 82.5425 35.3965C82.9008 35.7971 83.3768 36.1941 83.9703 36.5874C84.5704 36.9852 85.1115 37.2766 85.5935 37.4617C86.0732 37.6356 86.5061 37.721 86.8922 37.7177C87.2716 37.71 87.6075 37.6159 87.8999 37.4354C88.1856 37.2505 88.4345 36.9979 88.6466 36.6779C88.9869 36.1644 89.1697 35.6569 89.195 35.1554C89.2202 34.6538 89.1422 34.1127 88.9609 33.5318L84.3596 30.4824ZM78.775 23.2255L93.6391 33.0764L92.6381 34.5868C92.4216 34.9136 92.1345 35.0209 91.777 34.9087L90.6475 34.4625C90.847 35.1897 90.9144 35.9206 90.8499 36.6552C90.7897 37.3831 90.5232 38.1039 90.0503 38.8174C89.6791 39.3775 89.2221 39.8137 88.6794 40.1258C88.1366 40.4379 87.5325 40.6182 86.867 40.6666C86.1992 40.7039 85.4767 40.5994 84.6994 40.353C83.9266 40.0999 83.1201 39.695 82.2798 39.1381C81.5196 38.6343 80.8813 38.0625 80.3648 37.4227C79.8482 36.7829 79.4781 36.1105 79.2543 35.4055C79.0305 34.7005 78.9642 33.9896 79.0554 33.2727C79.14 32.5513 79.4054 31.8539 79.8518 31.1804C80.2319 30.6069 80.6467 30.1764 81.0964 29.8889C81.546 29.6015 82.0302 29.3994 82.5491 29.2826L77.1376 25.6962L78.775 23.2255ZM49.9559 114.645L61.4434 128.722L59.8325 131.153L47.855 127.764C47.5575 127.692 47.211 127.577 46.8157 127.421C46.9559 127.571 47.0861 127.715 47.2063 127.852C47.3264 127.99 47.4344 128.123 47.5302 128.254L55.2982 137.995L53.6807 140.435L36.2469 135.331L37.7384 133.08C37.8931 132.847 38.078 132.691 38.293 132.613C38.5057 132.523 38.7232 132.514 38.9452 132.584L49.2284 135.858C49.4771 135.946 49.7437 136.051 50.028 136.172C50.3101 136.282 50.6055 136.401 50.9143 136.529C50.6696 136.29 50.4437 136.059 50.2368 135.835C50.0342 135.605 49.8506 135.382 49.6858 135.168L42.9161 126.593C42.7981 126.438 42.7265 126.241 42.7015 126.004C42.6808 125.76 42.7456 125.525 42.8959 125.298L43.4196 124.508C43.5743 124.274 43.7569 124.122 43.9675 124.05C44.1781 123.979 44.3977 123.966 44.6264 124.012L55.1548 126.915C55.6611 127.049 56.2218 127.239 56.8371 127.483C56.3677 127.047 55.955 126.635 55.5989 126.245L48.5773 118.05C48.4371 117.9 48.3601 117.705 48.3461 117.465C48.3365 117.219 48.4069 116.982 48.5572 116.756L49.9559 114.645ZM57.1224 112.607C57.6262 111.847 58.207 111.239 58.8648 110.782C59.5269 110.319 60.2306 110.017 60.9757 109.878C61.7253 109.731 62.5063 109.755 63.319 109.948C64.1316 110.141 64.9413 110.505 65.7482 111.039C66.5618 111.579 67.2157 112.185 67.7102 112.858C68.2046 113.531 68.5338 114.244 68.6978 114.995C68.8663 115.74 68.8661 116.508 68.6975 117.298C68.5332 118.082 68.1991 118.854 67.6953 119.614C67.1871 120.381 66.6019 120.996 65.9397 121.46C65.2776 121.923 64.5684 122.225 63.8122 122.367C63.0604 122.502 62.2759 122.477 61.4589 122.291C60.6463 122.097 59.8332 121.731 59.0197 121.192C58.2128 120.657 57.5621 120.053 57.0677 119.38C56.5777 118.7 56.2518 117.99 56.09 117.25C55.9327 116.502 55.9384 115.733 56.107 114.943C56.2757 114.153 56.6142 113.374 57.1224 112.607ZM65.7948 118.355C66.3605 117.501 66.4914 116.681 66.1875 115.894C65.888 115.101 65.1848 114.337 64.0778 113.603C62.9708 112.87 61.9903 112.517 61.1361 112.546C60.2863 112.569 59.5786 113.007 59.0129 113.86C58.4384 114.727 58.3054 115.565 58.6138 116.374C58.9199 117.172 59.6232 117.936 60.7235 118.665C61.8238 119.394 62.801 119.744 63.6552 119.715C64.5071 119.675 65.2203 119.222 65.7948 118.355ZM65.211 104.616C64.8097 103.89 64.5815 103.191 64.5264 102.521C64.4646 101.847 64.6326 101.21 65.0304 100.61C65.3441 100.136 65.6994 99.8246 66.0962 99.6749L67.8406 101.061C67.9386 101.174 67.9921 101.282 68.0012 101.384C68.0082 101.475 67.9763 101.574 67.9055 101.68C67.8392 101.78 67.7231 101.919 67.5572 102.097C67.3957 102.268 67.2531 102.447 67.1293 102.634C66.9481 102.908 66.8269 103.178 66.7655 103.444C66.7041 103.71 66.6926 103.981 66.7311 104.256C66.7673 104.52 66.8479 104.789 66.9729 105.064C67.1023 105.332 67.2662 105.614 67.4644 105.908L73.7862 110.098L72.1488 112.569L61.886 105.767L62.8472 104.317C63.0151 104.063 63.1789 103.917 63.3386 103.879C63.4916 103.837 63.6958 103.876 63.9513 103.997L65.211 104.616ZM63.868 92.784L72.3804 98.4254L72.6853 97.9652C72.7958 97.7985 72.862 97.6552 72.8838 97.5354C72.9035 97.4044 72.8797 97.2447 72.8126 97.0563L71.3522 92.4174C71.2829 92.2179 71.2535 92.0305 71.2641 91.8552C71.2792 91.6732 71.3552 91.4789 71.4922 91.2721L72.9904 89.0115L74.6867 94.7281C74.8365 95.1537 74.9031 95.5529 74.8864 95.9257C75.0792 95.8519 75.2776 95.8059 75.4817 95.7876C75.6902 95.7626 75.9043 95.751 76.124 95.7526L83.3725 95.6329L81.8942 97.8635C81.766 98.0569 81.6256 98.2038 81.4727 98.304C81.3132 98.3999 81.1192 98.4392 80.8906 98.4221L75.2627 98.4641C75.0475 98.4558 74.8834 98.4862 74.7704 98.5553C74.6574 98.6244 74.5346 98.759 74.4021 98.959L74.0308 99.5192L78.7321 102.635L77.0947 105.106L62.2307 95.2547L63.868 92.784ZM84.6609 93.6888L76.2586 88.1203L75.5286 88.9178C75.3604 89.0847 75.1899 89.1972 75.017 89.2553C74.8418 89.3024 74.6642 89.2663 74.4842 89.147L73.4739 88.4774L74.4881 86.947L74.058 86.6619C73.5112 86.2996 73.0452 85.8659 72.66 85.3611C72.2747 84.8563 72.0092 84.3012 71.8633 83.6958C71.7107 83.0861 71.7001 82.436 71.8313 81.7456C71.9559 81.0508 72.2613 80.3366 72.7474 79.6031C73.1231 79.0362 73.4966 78.516 73.8681 78.0424C74.2373 77.5577 74.591 77.0675 74.9291 76.5717L76.0096 74.9413L90.6536 84.6463L89.0229 87.107L76.0993 78.5422C75.8518 78.8868 75.6053 79.2225 75.3599 79.5493C75.1189 79.8695 74.9211 80.1463 74.7664 80.3797C74.2714 81.1265 74.1036 81.8359 74.263 82.5078C74.4157 83.1752 74.8755 83.7631 75.6424 84.2713L76.0725 84.5563L77.6834 82.1257L79.4439 83.2924L77.886 85.643L86.2983 91.2181L84.6609 93.6888ZM84.8818 70.7208C85.3857 69.9606 85.9664 69.3521 86.6242 68.8955C87.2863 68.4322 87.99 68.1307 88.7351 67.9911C89.4847 67.8448 90.2658 67.8682 91.0784 68.0612C91.891 68.2543 92.7007 68.6182 93.5076 69.1529C94.3212 69.6921 94.9752 70.2983 95.4696 70.9714C95.964 71.6446 96.2932 72.357 96.4572 73.1088C96.6257 73.8538 96.6256 74.6215 96.4569 75.4119C96.2926 76.1956 95.9586 76.9675 95.4547 77.7277C94.9465 78.4946 94.3613 79.1097 93.6992 79.573C93.037 80.0364 92.3278 80.3389 91.5716 80.4808C90.8198 80.616 90.0353 80.5904 89.2183 80.404C88.4057 80.211 87.5926 79.8449 86.7791 79.3057C85.9722 78.771 85.3215 78.167 84.8271 77.4938C84.3371 76.814 84.0112 76.1038 83.8495 75.3631C83.6921 74.6158 83.6978 73.847 83.8665 73.0566C84.0351 72.2663 84.3736 71.4876 84.8818 70.7208ZM93.5542 76.4682C94.1199 75.6146 94.2508 74.7944 93.9469 74.0076C93.6474 73.2141 92.9442 72.4505 91.8372 71.7169C90.7302 70.9833 89.7497 70.6309 88.8955 70.6599C88.0458 70.6822 87.338 71.1201 86.7724 71.9737C86.1978 72.8406 86.0648 73.6785 86.3732 74.4876C86.6793 75.2855 87.3826 76.0491 88.4829 76.7783C89.5832 77.5075 90.5604 77.8576 91.4146 77.8286C92.2665 77.7886 92.9797 77.3351 93.5542 76.4682ZM99.2405 49.4024L107.342 59.4647L106.03 61.4453C105.879 61.672 105.629 61.7315 105.278 61.6237L98.1266 59.5332C97.8868 59.4606 97.6525 59.3869 97.4237 59.3121C97.1927 59.2262 96.9662 59.1336 96.744 59.0344C96.9176 59.207 97.09 59.3884 97.2614 59.5788C97.4305 59.7581 97.5952 59.944 97.7555 60.1366L102.427 65.9249C102.668 66.1994 102.697 66.4733 102.516 66.7467L101.257 68.6472L88.8394 65.0967L90.1454 63.1261C90.2647 62.9461 90.4097 62.8214 90.5803 62.7522C90.751 62.6829 90.9163 62.6725 91.0762 62.7209L97.5321 64.8832C97.8808 65.0087 98.2162 65.1398 98.5383 65.2765C98.8649 65.4066 99.1847 65.5466 99.498 65.6966C99.2599 65.4332 99.024 65.1665 98.7902 64.8964C98.561 64.6197 98.3272 64.3352 98.089 64.043L93.7144 58.6965C93.6076 58.5681 93.5484 58.4185 93.5368 58.2477C93.5297 58.0702 93.5813 57.8981 93.6918 57.7314L94.4144 56.6411C94.5293 56.4677 94.6699 56.3497 94.8361 56.2872C95.0068 56.2179 95.172 56.2075 95.3319 56.2558L101.927 58.2514C102.285 58.3636 102.635 58.4802 102.977 58.6013C103.316 58.7113 103.654 58.8247 103.989 58.9414C103.48 58.479 102.978 57.969 102.484 57.4112L98.0036 52.268C97.9011 52.1329 97.8464 51.9767 97.8392 51.7992C97.8321 51.6217 97.8838 51.4496 97.9942 51.2829L99.2405 49.4024ZM106.244 43.1786C106.307 43.316 106.337 43.4369 106.335 43.5411C106.327 43.641 106.285 43.7476 106.21 43.861C106.13 43.981 106.011 44.089 105.851 44.1848C105.696 44.274 105.519 44.3821 105.319 44.5091C105.113 44.6317 104.9 44.7876 104.678 44.9768C104.461 45.1593 104.249 45.4073 104.041 45.7207C103.719 46.2075 103.568 46.6595 103.589 47.0766C103.615 47.487 103.794 47.8027 104.128 48.0236C104.348 48.1695 104.581 48.2232 104.827 48.1848C105.071 48.1353 105.327 48.0314 105.595 47.8732C105.867 47.7082 106.15 47.5067 106.442 47.2685C106.727 47.0258 107.025 46.7865 107.335 46.5504C107.65 46.3077 107.976 46.0827 108.315 45.8755C108.647 45.6638 108.998 45.5119 109.366 45.42C109.732 45.3169 110.108 45.2926 110.494 45.347C110.884 45.3947 111.286 45.5556 111.7 45.8296C112.193 46.1567 112.591 46.5494 112.891 47.0079C113.19 47.4553 113.378 47.954 113.455 48.504C113.525 49.0497 113.476 49.6367 113.31 50.2651C113.14 50.8824 112.835 51.5244 112.393 52.1913C112.159 52.5447 111.896 52.8694 111.603 53.1653C111.322 53.4589 111.021 53.7249 110.7 53.9632C110.384 54.1948 110.06 54.3932 109.73 54.5582C109.404 54.7167 109.085 54.8363 108.773 54.917L108.21 53.7237C108.145 53.5752 108.116 53.4311 108.122 53.2913C108.129 53.1515 108.183 53.0049 108.284 52.8515C108.386 52.6981 108.524 52.5835 108.699 52.5076C108.879 52.425 109.078 52.3268 109.298 52.213C109.517 52.0993 109.75 51.9511 109.995 51.7685C110.246 51.5792 110.494 51.2978 110.742 50.9244C110.936 50.631 111.069 50.3588 111.139 50.1079C111.207 49.8459 111.229 49.6106 111.204 49.4021C111.183 49.187 111.119 49.0008 111.013 48.8435C110.903 48.6752 110.769 48.538 110.609 48.4319C110.369 48.2728 110.123 48.2158 109.873 48.2609C109.627 48.2993 109.367 48.4009 109.095 48.5659C108.827 48.7241 108.548 48.9279 108.258 49.1772C107.965 49.4154 107.66 49.6592 107.341 49.9086C107.027 50.1513 106.698 50.3796 106.354 50.5936C106.009 50.7964 105.647 50.945 105.267 51.0392C104.893 51.1268 104.497 51.1378 104.079 51.0724C103.666 51.0003 103.233 50.814 102.78 50.5135C102.36 50.2351 102.015 49.8865 101.745 49.4679C101.476 49.0493 101.307 48.5871 101.239 48.0814C101.169 47.5646 101.209 47.0109 101.361 46.4203C101.51 45.8186 101.795 45.201 102.214 44.5675C102.683 43.8606 103.226 43.2945 103.844 42.869C104.462 42.4435 105.089 42.1633 105.725 42.0285L106.244 43.1786Z" fill="white"/>
<defs>
<clipPath id="clip0">
<rect width="348" height="332" fill="white"/>
</clipPath>
</defs>
</svg>
