<svg width="348" height="332" viewBox="0 0 348 332" fill="none" xmlns="http://www.w3.org/2000/svg">
<g clip-path="url(#clip0)">
<path d="M161.196 331.065C151.019 329.802 141.029 327.557 131.649 323.442C93.941 307.12 70.7723 278.873 62.4709 238.7C61.8612 235.753 61.4391 232.714 61.1577 229.72C60.7356 225.137 63.2213 223.36 67.4893 225.137C74.3836 227.943 81.4186 230.188 88.6882 231.685C116.781 237.484 143.515 233.649 169.075 220.788C169.826 220.414 170.623 220.04 171.326 219.572C173.249 218.309 175.032 218.543 177.001 219.619C187.882 225.558 199.42 229.72 211.614 232.059C235.298 236.642 258.28 234.21 280.604 225.184C285.107 223.36 287.498 224.997 287.029 229.814C285.576 244.779 281.355 258.95 273.991 272.091C257.435 301.835 232.531 321.945 199.373 330.083C186.897 332.655 170.998 332.281 161.196 331.065Z" fill="#7572EB"/>
<path d="M0 113.363C1.68841 69.5889 20.683 35.7295 59.3757 14.3569C91.9245 -3.64844 125.833 -4.39671 160.071 10.2882C164.479 12.1589 164.854 15.152 161.056 18.1451C136.105 37.7873 120.909 63.2286 115.468 94.469C114.624 99.4263 113.921 104.477 114.015 109.528C114.061 112.615 112.936 114.439 110.309 116.122C83.4356 133.239 65.848 157.184 57.359 187.816C55.9989 192.774 55.0609 197.824 54.4043 202.875C53.8884 206.944 50.9337 208.347 47.6507 205.962C23.028 188.237 7.97305 164.433 2.06361 134.829C1.45391 131.883 1.12561 128.843 0.703504 125.85C0.0938006 121.734 0.187601 117.619 0 113.363Z" fill="#4CD9ED"/>
<path d="M234.549 0.233887C290.595 0.233887 339.043 41.1552 346.735 96.621C352.925 141.143 337.308 177.528 301.663 205.214C300.679 205.963 299.694 206.804 298.427 207.038C296.082 207.459 294.159 205.822 293.831 202.923C292.705 193.148 290.22 183.655 286.562 174.535C276.572 149.515 260.157 129.826 237.222 115.608C235.206 114.346 234.362 112.802 234.268 110.511C232.626 72.5359 216.774 41.7164 187.039 18.0054C183.522 15.1994 183.803 12.1595 187.837 10.3824C202.657 3.69466 218.228 0.327421 234.549 0.233887Z" fill="#437FEC"/>
<path d="M234.596 227.943C217.852 227.615 201.812 224.295 186.617 217.233C182.396 215.269 182.161 212.135 185.866 209.283C210.208 190.576 225.356 166.163 231.407 136.092C231.969 133.333 232.345 130.574 232.72 127.814C233.236 123.979 236.19 122.53 239.38 124.774C251.245 133.005 261.141 143.107 269.067 155.126C280.417 172.29 286.89 191.09 288.109 211.668C288.25 213.726 287.687 214.848 285.717 215.783C271.694 222.611 256.92 226.68 241.302 227.522C239.098 227.662 236.847 227.802 234.596 227.943Z" fill="#ACAAEF"/>
<path d="M120.862 103.309C121.66 91.8976 124.661 80.5799 129.164 69.6832C134.979 55.7466 143.327 43.4468 154.021 32.7371C159.274 27.4992 164.995 22.8693 171.186 18.707C173.203 17.3507 174.985 17.3975 177.002 18.7538C191.682 28.5749 203.454 41.1085 212.318 56.3546C219.681 68.9817 224.418 82.5442 226.622 96.9952C226.951 99.1465 226.998 101.345 227.373 103.449C227.701 105.32 227.373 106.863 225.872 108.032C224.371 109.201 222.823 108.827 221.229 108.126C213.584 104.759 205.611 102.327 197.403 100.737C178.503 97.1355 159.789 97.6967 141.264 103.075C136.48 104.478 131.743 105.974 127.147 107.985C122.973 109.903 120.768 108.313 120.862 103.309Z" fill="#99E5F2"/>
<path d="M106.697 227.008C96.004 226.961 79.4482 223.266 63.8305 215.55C60.9695 214.147 60.6412 213.024 60.8757 209.751C61.4854 201.192 63.1739 192.868 65.7065 184.683C69.8337 171.402 76.2121 159.289 84.7949 148.345C91.0795 140.348 98.3022 133.333 106.463 127.253C107.26 126.645 108.104 125.991 108.995 125.57C111.763 124.167 114.483 125.617 114.858 128.656C117.625 150.824 126.114 170.7 139.809 188.331C146.094 196.375 153.363 203.531 161.571 209.657C164.478 211.808 164.15 215.222 160.961 216.672C145.859 223.64 130.007 227.054 106.697 227.008Z" fill="#97D2EB"/>
</g>
<path d="M125.832 270.908C126.008 270.908 126.164 270.976 126.3 271.112L127.572 272.492C126.868 273.364 126 274.032 124.968 274.496C123.944 274.96 122.712 275.192 121.272 275.192C119.984 275.192 118.824 274.972 117.792 274.532C116.768 274.092 115.892 273.48 115.164 272.696C114.436 271.912 113.876 270.976 113.484 269.888C113.1 268.8 112.908 267.612 112.908 266.324C112.908 265.02 113.116 263.828 113.532 262.748C113.948 261.66 114.532 260.724 115.284 259.94C116.044 259.156 116.948 258.548 117.996 258.116C119.044 257.676 120.204 257.456 121.476 257.456C122.74 257.456 123.86 257.664 124.836 258.08C125.82 258.496 126.656 259.04 127.344 259.712L126.264 261.212C126.2 261.308 126.116 261.392 126.012 261.464C125.916 261.536 125.78 261.572 125.604 261.572C125.484 261.572 125.36 261.54 125.232 261.476C125.104 261.404 124.964 261.32 124.812 261.224C124.66 261.12 124.484 261.008 124.284 260.888C124.084 260.768 123.852 260.66 123.588 260.564C123.324 260.46 123.016 260.376 122.664 260.312C122.32 260.24 121.92 260.204 121.464 260.204C120.688 260.204 119.976 260.344 119.328 260.624C118.688 260.896 118.136 261.296 117.672 261.824C117.208 262.344 116.848 262.984 116.592 263.744C116.336 264.496 116.208 265.356 116.208 266.324C116.208 267.3 116.344 268.168 116.616 268.928C116.896 269.688 117.272 270.328 117.744 270.848C118.216 271.368 118.772 271.768 119.412 272.048C120.052 272.32 120.74 272.456 121.476 272.456C121.916 272.456 122.312 272.432 122.664 272.384C123.024 272.336 123.352 272.26 123.648 272.156C123.952 272.052 124.236 271.92 124.5 271.76C124.772 271.592 125.04 271.388 125.304 271.148C125.384 271.076 125.468 271.02 125.556 270.98C125.644 270.932 125.736 270.908 125.832 270.908ZM136.99 267.428C136.99 267.044 136.934 266.684 136.822 266.348C136.718 266.004 136.558 265.704 136.342 265.448C136.126 265.192 135.85 264.992 135.514 264.848C135.186 264.696 134.802 264.62 134.362 264.62C133.506 264.62 132.83 264.864 132.334 265.352C131.846 265.84 131.534 266.532 131.398 267.428H136.99ZM131.338 269.216C131.386 269.848 131.498 270.396 131.674 270.86C131.85 271.316 132.082 271.696 132.37 272C132.658 272.296 132.998 272.52 133.39 272.672C133.79 272.816 134.23 272.888 134.71 272.888C135.19 272.888 135.602 272.832 135.946 272.72C136.298 272.608 136.602 272.484 136.858 272.348C137.122 272.212 137.35 272.088 137.542 271.976C137.742 271.864 137.934 271.808 138.118 271.808C138.366 271.808 138.55 271.9 138.67 272.084L139.522 273.164C139.194 273.548 138.826 273.872 138.418 274.136C138.01 274.392 137.582 274.6 137.134 274.76C136.694 274.912 136.242 275.02 135.778 275.084C135.322 275.148 134.878 275.18 134.446 275.18C133.59 275.18 132.794 275.04 132.058 274.76C131.322 274.472 130.682 274.052 130.138 273.5C129.594 272.94 129.166 272.252 128.854 271.436C128.542 270.612 128.386 269.66 128.386 268.58C128.386 267.74 128.522 266.952 128.794 266.216C129.066 265.472 129.454 264.828 129.958 264.284C130.47 263.732 131.09 263.296 131.818 262.976C132.554 262.656 133.382 262.496 134.302 262.496C135.078 262.496 135.794 262.62 136.45 262.868C137.106 263.116 137.67 263.48 138.142 263.96C138.614 264.432 138.982 265.016 139.246 265.712C139.518 266.4 139.654 267.188 139.654 268.076C139.654 268.524 139.606 268.828 139.51 268.988C139.414 269.14 139.23 269.216 138.958 269.216H131.338ZM144.65 264.2C144.898 263.952 145.158 263.724 145.43 263.516C145.71 263.3 146.002 263.12 146.306 262.976C146.618 262.824 146.95 262.708 147.302 262.628C147.654 262.54 148.038 262.496 148.454 262.496C149.126 262.496 149.722 262.612 150.242 262.844C150.762 263.068 151.194 263.388 151.538 263.804C151.89 264.212 152.154 264.704 152.33 265.28C152.514 265.848 152.606 266.476 152.606 267.164V275H149.642V267.164C149.642 266.412 149.47 265.832 149.126 265.424C148.782 265.008 148.258 264.8 147.554 264.8C147.042 264.8 146.562 264.916 146.114 265.148C145.666 265.38 145.242 265.696 144.842 266.096V275H141.878V262.688H143.69C144.074 262.688 144.326 262.868 144.446 263.228L144.65 264.2ZM159.365 275.192C158.293 275.192 157.469 274.892 156.893 274.292C156.325 273.684 156.041 272.848 156.041 271.784V264.908H154.781C154.621 264.908 154.485 264.856 154.373 264.752C154.261 264.648 154.205 264.492 154.205 264.284V263.108L156.185 262.784L156.809 259.424C156.849 259.264 156.925 259.14 157.037 259.052C157.149 258.964 157.293 258.92 157.469 258.92H159.005V262.796H162.293V264.908H159.005V271.58C159.005 271.964 159.097 272.264 159.281 272.48C159.473 272.696 159.733 272.804 160.061 272.804C160.245 272.804 160.397 272.784 160.517 272.744C160.645 272.696 160.753 272.648 160.841 272.6C160.937 272.552 161.021 272.508 161.093 272.468C161.165 272.42 161.237 272.396 161.309 272.396C161.397 272.396 161.469 272.42 161.525 272.468C161.581 272.508 161.641 272.572 161.705 272.66L162.593 274.1C162.161 274.46 161.665 274.732 161.105 274.916C160.545 275.1 159.965 275.192 159.365 275.192ZM166.987 264.824C167.371 264.088 167.827 263.512 168.355 263.096C168.883 262.672 169.507 262.46 170.227 262.46C170.795 262.46 171.251 262.584 171.595 262.832L171.403 265.052C171.363 265.196 171.303 265.3 171.223 265.364C171.151 265.42 171.051 265.448 170.923 265.448C170.803 265.448 170.623 265.428 170.383 265.388C170.151 265.348 169.923 265.328 169.699 265.328C169.371 265.328 169.079 265.376 168.823 265.472C168.567 265.568 168.335 265.708 168.127 265.892C167.927 266.068 167.747 266.284 167.587 266.54C167.435 266.796 167.291 267.088 167.155 267.416V275H164.191V262.688H165.931C166.235 262.688 166.447 262.744 166.567 262.856C166.687 262.96 166.767 263.152 166.807 263.432L166.987 264.824ZM179.484 269.744C178.628 269.784 177.908 269.86 177.324 269.972C176.74 270.076 176.272 270.212 175.92 270.38C175.568 270.548 175.316 270.744 175.164 270.968C175.012 271.192 174.936 271.436 174.936 271.7C174.936 272.22 175.088 272.592 175.392 272.816C175.704 273.04 176.108 273.152 176.604 273.152C177.212 273.152 177.736 273.044 178.176 272.828C178.624 272.604 179.06 272.268 179.484 271.82V269.744ZM172.692 264.404C174.108 263.108 175.812 262.46 177.804 262.46C178.524 262.46 179.168 262.58 179.736 262.82C180.304 263.052 180.784 263.38 181.176 263.804C181.568 264.22 181.864 264.72 182.064 265.304C182.272 265.888 182.376 266.528 182.376 267.224V275H181.032C180.752 275 180.536 274.96 180.384 274.88C180.232 274.792 180.112 274.62 180.024 274.364L179.76 273.476C179.448 273.756 179.144 274.004 178.848 274.22C178.552 274.428 178.244 274.604 177.924 274.748C177.604 274.892 177.26 275 176.892 275.072C176.532 275.152 176.132 275.192 175.692 275.192C175.172 275.192 174.692 275.124 174.252 274.988C173.812 274.844 173.432 274.632 173.112 274.352C172.792 274.072 172.544 273.724 172.368 273.308C172.192 272.892 172.104 272.408 172.104 271.856C172.104 271.544 172.156 271.236 172.26 270.932C172.364 270.62 172.532 270.324 172.764 270.044C173.004 269.764 173.312 269.5 173.688 269.252C174.064 269.004 174.524 268.788 175.068 268.604C175.62 268.42 176.26 268.272 176.988 268.16C177.716 268.04 178.548 267.968 179.484 267.944V267.224C179.484 266.4 179.308 265.792 178.956 265.4C178.604 265 178.096 264.8 177.432 264.8C176.952 264.8 176.552 264.856 176.232 264.968C175.92 265.08 175.644 265.208 175.404 265.352C175.164 265.488 174.944 265.612 174.744 265.724C174.552 265.836 174.336 265.892 174.096 265.892C173.888 265.892 173.712 265.84 173.568 265.736C173.424 265.624 173.308 265.496 173.22 265.352L172.692 264.404ZM188.167 257.168V275H185.203V257.168H188.167ZM194.192 262.688V275H191.216V262.688H194.192ZM194.6 259.1C194.6 259.356 194.548 259.596 194.444 259.82C194.34 260.044 194.2 260.24 194.024 260.408C193.856 260.576 193.656 260.712 193.424 260.816C193.192 260.912 192.944 260.96 192.68 260.96C192.424 260.96 192.18 260.912 191.948 260.816C191.724 260.712 191.528 260.576 191.36 260.408C191.192 260.24 191.056 260.044 190.952 259.82C190.856 259.596 190.808 259.356 190.808 259.1C190.808 258.836 190.856 258.588 190.952 258.356C191.056 258.124 191.192 257.924 191.36 257.756C191.528 257.588 191.724 257.456 191.948 257.36C192.18 257.256 192.424 257.204 192.68 257.204C192.944 257.204 193.192 257.256 193.424 257.36C193.656 257.456 193.856 257.588 194.024 257.756C194.2 257.924 194.34 258.124 194.444 258.356C194.548 258.588 194.6 258.836 194.6 259.1ZM206.058 263.912C206.058 264.12 206.022 264.324 205.95 264.524C205.878 264.724 205.782 264.888 205.662 265.016L199.818 272.72H205.878V275H196.374V273.764C196.374 273.628 196.406 273.468 196.47 273.284C196.534 273.092 196.63 272.912 196.758 272.744L202.662 264.956H196.722V262.688H206.058V263.912ZM215.974 267.428C215.974 267.044 215.918 266.684 215.806 266.348C215.702 266.004 215.542 265.704 215.326 265.448C215.11 265.192 214.834 264.992 214.498 264.848C214.17 264.696 213.786 264.62 213.346 264.62C212.49 264.62 211.814 264.864 211.318 265.352C210.83 265.84 210.518 266.532 210.382 267.428H215.974ZM210.322 269.216C210.37 269.848 210.482 270.396 210.658 270.86C210.834 271.316 211.066 271.696 211.354 272C211.642 272.296 211.982 272.52 212.374 272.672C212.774 272.816 213.214 272.888 213.694 272.888C214.174 272.888 214.586 272.832 214.93 272.72C215.282 272.608 215.586 272.484 215.842 272.348C216.106 272.212 216.334 272.088 216.526 271.976C216.726 271.864 216.918 271.808 217.102 271.808C217.35 271.808 217.534 271.9 217.654 272.084L218.506 273.164C218.178 273.548 217.81 273.872 217.402 274.136C216.994 274.392 216.566 274.6 216.118 274.76C215.678 274.912 215.226 275.02 214.762 275.084C214.306 275.148 213.862 275.18 213.43 275.18C212.574 275.18 211.778 275.04 211.042 274.76C210.306 274.472 209.666 274.052 209.122 273.5C208.578 272.94 208.15 272.252 207.838 271.436C207.526 270.612 207.37 269.66 207.37 268.58C207.37 267.74 207.506 266.952 207.778 266.216C208.05 265.472 208.438 264.828 208.942 264.284C209.454 263.732 210.074 263.296 210.802 262.976C211.538 262.656 212.366 262.496 213.286 262.496C214.062 262.496 214.778 262.62 215.434 262.868C216.09 263.116 216.654 263.48 217.126 263.96C217.598 264.432 217.966 265.016 218.23 265.712C218.502 266.4 218.638 267.188 218.638 268.076C218.638 268.524 218.59 268.828 218.494 268.988C218.398 269.14 218.214 269.216 217.942 269.216H210.322ZM228.59 265.832C228.254 265.424 227.886 265.136 227.486 264.968C227.094 264.8 226.67 264.716 226.214 264.716C225.766 264.716 225.362 264.8 225.002 264.968C224.642 265.136 224.334 265.392 224.078 265.736C223.822 266.072 223.626 266.504 223.49 267.032C223.354 267.552 223.286 268.168 223.286 268.88C223.286 269.6 223.342 270.212 223.454 270.716C223.574 271.212 223.742 271.62 223.958 271.94C224.174 272.252 224.438 272.48 224.75 272.624C225.062 272.76 225.41 272.828 225.794 272.828C226.41 272.828 226.934 272.7 227.366 272.444C227.798 272.188 228.206 271.824 228.59 271.352V265.832ZM231.554 257.168V275H229.742C229.35 275 229.102 274.82 228.998 274.46L228.746 273.272C228.25 273.84 227.678 274.3 227.03 274.652C226.39 275.004 225.642 275.18 224.786 275.18C224.114 275.18 223.498 275.04 222.938 274.76C222.378 274.48 221.894 274.076 221.486 273.548C221.086 273.012 220.774 272.352 220.55 271.568C220.334 270.784 220.226 269.888 220.226 268.88C220.226 267.968 220.35 267.12 220.598 266.336C220.846 265.552 221.202 264.872 221.666 264.296C222.13 263.72 222.686 263.272 223.334 262.952C223.982 262.624 224.71 262.46 225.518 262.46C226.206 262.46 226.794 262.568 227.282 262.784C227.77 263 228.206 263.292 228.59 263.66V257.168H231.554ZM164.293 292.324C164.293 293.596 164.081 294.764 163.657 295.828C163.233 296.892 162.637 297.808 161.869 298.576C161.101 299.344 160.177 299.94 159.097 300.364C158.017 300.788 156.817 301 155.497 301H148.885V283.648H155.497C156.817 283.648 158.017 283.864 159.097 284.296C160.177 284.72 161.101 285.316 161.869 286.084C162.637 286.844 163.233 287.756 163.657 288.82C164.081 289.884 164.293 291.052 164.293 292.324ZM160.981 292.324C160.981 291.372 160.853 290.52 160.597 289.768C160.349 289.008 159.985 288.368 159.505 287.848C159.033 287.32 158.457 286.916 157.777 286.636C157.105 286.356 156.345 286.216 155.497 286.216H152.125V298.432H155.497C156.345 298.432 157.105 298.292 157.777 298.012C158.457 297.732 159.033 297.332 159.505 296.812C159.985 296.284 160.349 295.644 160.597 294.892C160.853 294.132 160.981 293.276 160.981 292.324ZM172.874 295.744C172.018 295.784 171.298 295.86 170.714 295.972C170.13 296.076 169.662 296.212 169.31 296.38C168.958 296.548 168.706 296.744 168.554 296.968C168.402 297.192 168.326 297.436 168.326 297.7C168.326 298.22 168.478 298.592 168.782 298.816C169.094 299.04 169.498 299.152 169.994 299.152C170.602 299.152 171.126 299.044 171.566 298.828C172.014 298.604 172.45 298.268 172.874 297.82V295.744ZM166.082 290.404C167.498 289.108 169.202 288.46 171.194 288.46C171.914 288.46 172.558 288.58 173.126 288.82C173.694 289.052 174.174 289.38 174.566 289.804C174.958 290.22 175.254 290.72 175.454 291.304C175.662 291.888 175.766 292.528 175.766 293.224V301H174.422C174.142 301 173.926 300.96 173.774 300.88C173.622 300.792 173.502 300.62 173.414 300.364L173.15 299.476C172.838 299.756 172.534 300.004 172.238 300.22C171.942 300.428 171.634 300.604 171.314 300.748C170.994 300.892 170.65 301 170.282 301.072C169.922 301.152 169.522 301.192 169.082 301.192C168.562 301.192 168.082 301.124 167.642 300.988C167.202 300.844 166.822 300.632 166.502 300.352C166.182 300.072 165.934 299.724 165.758 299.308C165.582 298.892 165.494 298.408 165.494 297.856C165.494 297.544 165.546 297.236 165.65 296.932C165.754 296.62 165.922 296.324 166.154 296.044C166.394 295.764 166.702 295.5 167.078 295.252C167.454 295.004 167.914 294.788 168.458 294.604C169.01 294.42 169.65 294.272 170.378 294.16C171.106 294.04 171.938 293.968 172.874 293.944V293.224C172.874 292.4 172.698 291.792 172.346 291.4C171.994 291 171.486 290.8 170.822 290.8C170.342 290.8 169.942 290.856 169.622 290.968C169.31 291.08 169.034 291.208 168.794 291.352C168.554 291.488 168.334 291.612 168.134 291.724C167.942 291.836 167.726 291.892 167.486 291.892C167.278 291.892 167.102 291.84 166.958 291.736C166.814 291.624 166.698 291.496 166.61 291.352L166.082 290.404ZM182.498 301.192C181.426 301.192 180.602 300.892 180.026 300.292C179.458 299.684 179.174 298.848 179.174 297.784V290.908H177.914C177.754 290.908 177.618 290.856 177.506 290.752C177.394 290.648 177.338 290.492 177.338 290.284V289.108L179.318 288.784L179.942 285.424C179.982 285.264 180.058 285.14 180.17 285.052C180.282 284.964 180.426 284.92 180.602 284.92H182.138V288.796H185.426V290.908H182.138V297.58C182.138 297.964 182.23 298.264 182.414 298.48C182.606 298.696 182.866 298.804 183.194 298.804C183.378 298.804 183.53 298.784 183.65 298.744C183.778 298.696 183.886 298.648 183.974 298.6C184.07 298.552 184.154 298.508 184.226 298.468C184.298 298.42 184.37 298.396 184.442 298.396C184.53 298.396 184.602 298.42 184.658 298.468C184.714 298.508 184.774 298.572 184.838 298.66L185.726 300.1C185.294 300.46 184.798 300.732 184.238 300.916C183.678 301.1 183.098 301.192 182.498 301.192ZM193.827 295.744C192.971 295.784 192.251 295.86 191.667 295.972C191.083 296.076 190.615 296.212 190.263 296.38C189.911 296.548 189.659 296.744 189.507 296.968C189.355 297.192 189.279 297.436 189.279 297.7C189.279 298.22 189.431 298.592 189.735 298.816C190.047 299.04 190.451 299.152 190.947 299.152C191.555 299.152 192.079 299.044 192.519 298.828C192.967 298.604 193.403 298.268 193.827 297.82V295.744ZM187.035 290.404C188.451 289.108 190.155 288.46 192.147 288.46C192.867 288.46 193.511 288.58 194.079 288.82C194.647 289.052 195.127 289.38 195.519 289.804C195.911 290.22 196.207 290.72 196.407 291.304C196.615 291.888 196.719 292.528 196.719 293.224V301H195.375C195.095 301 194.879 300.96 194.727 300.88C194.575 300.792 194.455 300.62 194.367 300.364L194.103 299.476C193.791 299.756 193.487 300.004 193.191 300.22C192.895 300.428 192.587 300.604 192.267 300.748C191.947 300.892 191.603 301 191.235 301.072C190.875 301.152 190.475 301.192 190.035 301.192C189.515 301.192 189.035 301.124 188.595 300.988C188.155 300.844 187.775 300.632 187.455 300.352C187.135 300.072 186.887 299.724 186.711 299.308C186.535 298.892 186.447 298.408 186.447 297.856C186.447 297.544 186.499 297.236 186.603 296.932C186.707 296.62 186.875 296.324 187.107 296.044C187.347 295.764 187.655 295.5 188.031 295.252C188.407 295.004 188.867 294.788 189.411 294.604C189.963 294.42 190.603 294.272 191.331 294.16C192.059 294.04 192.891 293.968 193.827 293.944V293.224C193.827 292.4 193.651 291.792 193.299 291.4C192.947 291 192.439 290.8 191.775 290.8C191.295 290.8 190.895 290.856 190.575 290.968C190.263 291.08 189.987 291.208 189.747 291.352C189.507 291.488 189.287 291.612 189.087 291.724C188.895 291.836 188.679 291.892 188.439 291.892C188.231 291.892 188.055 291.84 187.911 291.736C187.767 291.624 187.651 291.496 187.563 291.352L187.035 290.404Z" fill="white"/>
<defs>
<clipPath id="clip0">
<rect width="348" height="332" fill="white"/>
</clipPath>
</defs>
</svg>
