<?xml version="1.0" encoding="utf-8"?>
<!-- Generator: Adobe Illustrator 25.0.0, SVG Export Plug-In . SVG Version: 6.00 Build 0)  -->
<svg version="1.1" id="Layer_1" xmlns="http://www.w3.org/2000/svg" xmlns:xlink="http://www.w3.org/1999/xlink" x="0px" y="0px"
	 viewBox="0 0 75 75" style="enable-background:new 0 0 75 75;" xml:space="preserve">
<style type="text/css">
	.st0{fill:#2771EA;}
	.st1{fill:#0160E7;}
	.st2{fill:#00C3FF;}
	.st3{fill:#34CDFA;}
	.st4{fill:#E6F9FE;}
	.st5{fill:#4592EC;}
	.st6{fill:#0A64E7;}
</style>
<g>
	<path class="st1" d="M38.83,31.88l-11.87-5.94c-1.47-0.73-3.25-0.14-3.98,1.33c-0.21,0.41-0.31,0.87-0.31,1.33v14.84
		c0,1.12,0.63,2.15,1.64,2.65l11.87,5.94c1.47,0.73,3.25,0.14,3.98-1.33c0.21-0.41,0.31-0.87,0.31-1.33V34.53
		C40.47,33.41,39.83,32.38,38.83,31.88z"/>
	<path class="st3" d="M50.93,26.08c-0.87-0.54-1.97-0.59-2.89-0.13L37.5,31.22v21.12c0.46,0,0.92-0.11,1.33-0.31l11.87-5.94
		c1.01-0.5,1.64-1.53,1.64-2.65V28.6C52.34,27.57,51.8,26.62,50.93,26.08z"/>
	<path class="st4" d="M52.02,27.27c-0.29-0.57-0.75-1.04-1.32-1.33l-11.87-5.94c-0.84-0.42-1.82-0.42-2.65,0l-11.87,5.94
		c-0.57,0.29-1.04,0.76-1.32,1.33l14.52,7.26L52.02,27.27z"/>
	<path class="st1" d="M49.93,72.5c-10.4,0-22.51-5.27-32.33-15.1C1.71,41.52-2.28,19.67,8.7,8.7C19.67-2.28,41.52,1.71,57.4,17.6
		c15.88,15.88,19.88,37.73,8.9,48.71C62.12,70.49,56.34,72.5,49.93,72.5z M25.1,8.36c-5,0-9.22,1.55-12.21,4.53
		c-4.03,4.03-5.44,10.33-3.95,17.73c1.56,7.84,6.13,15.86,12.86,22.58c6.72,6.72,14.74,11.29,22.58,12.85
		c7.4,1.48,13.7,0.07,17.73-3.96c4.03-4.03,5.44-10.32,3.95-17.73c-1.56-7.84-6.13-15.86-12.85-22.58
		C46.48,15.07,38.46,10.5,30.62,8.94C28.81,8.57,26.96,8.37,25.1,8.36z"/>
	<path class="st3" d="M25.07,72.5c-6.42,0-12.19-2.01-16.38-6.2C-2.28,55.33,1.71,33.48,17.6,17.6C33.48,1.72,55.33-2.28,66.3,8.7
		c10.97,10.97,6.98,32.82-8.9,48.71C47.58,67.22,35.48,72.5,25.07,72.5z M49.9,8.36c-1.85,0.01-3.7,0.2-5.52,0.58
		c-7.84,1.56-15.86,6.13-22.58,12.86C15.07,28.52,10.5,36.54,8.94,44.38c-1.48,7.4-0.07,13.7,3.96,17.73
		c4.03,4.03,10.32,5.44,17.73,3.95c7.84-1.56,15.86-6.13,22.58-12.86c6.72-6.72,11.29-14.74,12.85-22.58
		c1.48-7.4,0.07-13.7-3.96-17.73C59.12,9.91,54.9,8.36,49.9,8.36z"/>
	<path class="st1" d="M66.3,66.3l-4.2-4.2c8.66-8.66,4.67-26.74-8.9-40.31C39.64,8.22,21.55,4.23,12.89,12.89L8.7,8.7
		C19.67-2.28,41.52,1.71,57.4,17.6C73.29,33.48,77.28,55.33,66.3,66.3z"/>
</g>
</svg>
