<svg width="348" height="332" viewBox="0 0 348 332" fill="none" xmlns="http://www.w3.org/2000/svg">
<g clip-path="url(#clip0)">
<path d="M161.196 331.065C151.019 329.802 141.029 327.557 131.649 323.442C93.941 307.12 70.7723 278.873 62.4709 238.7C61.8612 235.753 61.4391 232.714 61.1577 229.72C60.7356 225.137 63.2213 223.36 67.4893 225.137C74.3836 227.943 81.4186 230.188 88.6882 231.685C116.781 237.484 143.515 233.649 169.075 220.788C169.826 220.414 170.623 220.04 171.326 219.572C173.249 218.309 175.032 218.543 177.001 219.619C187.882 225.558 199.42 229.72 211.614 232.059C235.298 236.642 258.28 234.21 280.604 225.184C285.107 223.36 287.498 224.997 287.029 229.814C285.576 244.779 281.355 258.95 273.991 272.091C257.435 301.835 232.531 321.945 199.373 330.083C186.897 332.655 170.998 332.281 161.196 331.065Z" fill="#7572EB"/>
<path d="M0 113.363C1.68841 69.5889 20.683 35.7295 59.3757 14.3569C91.9245 -3.64844 125.833 -4.39671 160.071 10.2882C164.479 12.1589 164.854 15.152 161.056 18.1451C136.105 37.7873 120.909 63.2286 115.468 94.469C114.624 99.4263 113.921 104.477 114.015 109.528C114.061 112.615 112.936 114.439 110.309 116.122C83.4356 133.239 65.848 157.184 57.359 187.816C55.9989 192.774 55.0609 197.824 54.4043 202.875C53.8884 206.944 50.9337 208.347 47.6507 205.962C23.028 188.237 7.97305 164.433 2.06361 134.829C1.45391 131.883 1.12561 128.843 0.703504 125.85C0.0938006 121.734 0.187601 117.619 0 113.363Z" fill="#4CD9ED"/>
<path d="M234.549 0.233887C290.595 0.233887 339.043 41.1552 346.735 96.621C352.925 141.143 337.308 177.528 301.663 205.214C300.679 205.963 299.694 206.804 298.427 207.038C296.082 207.459 294.159 205.822 293.831 202.923C292.705 193.148 290.22 183.655 286.562 174.535C276.572 149.515 260.157 129.826 237.222 115.608C235.206 114.346 234.362 112.802 234.268 110.511C232.626 72.5359 216.774 41.7164 187.039 18.0054C183.522 15.1994 183.803 12.1595 187.837 10.3824C202.657 3.69466 218.228 0.327421 234.549 0.233887Z" fill="#437FEC"/>
<path d="M234.596 227.943C217.852 227.615 201.812 224.295 186.617 217.233C182.396 215.269 182.161 212.135 185.866 209.283C210.208 190.576 225.356 166.163 231.407 136.092C231.969 133.333 232.345 130.574 232.72 127.814C233.236 123.979 236.19 122.53 239.38 124.774C251.245 133.005 261.141 143.107 269.067 155.126C280.417 172.29 286.89 191.09 288.109 211.668C288.25 213.726 287.687 214.848 285.717 215.783C271.694 222.611 256.92 226.68 241.302 227.522C239.098 227.662 236.847 227.802 234.596 227.943Z" fill="#ACAAEF"/>
<path d="M120.862 103.309C121.66 91.8976 124.661 80.5799 129.164 69.6832C134.979 55.7466 143.327 43.4468 154.021 32.7371C159.274 27.4992 164.995 22.8693 171.186 18.707C173.203 17.3507 174.985 17.3975 177.002 18.7538C191.682 28.5749 203.454 41.1085 212.318 56.3546C219.681 68.9817 224.418 82.5442 226.622 96.9952C226.951 99.1465 226.998 101.345 227.373 103.449C227.701 105.32 227.373 106.863 225.872 108.032C224.371 109.201 222.823 108.827 221.229 108.126C213.584 104.759 205.611 102.327 197.403 100.737C178.503 97.1355 159.789 97.6967 141.264 103.075C136.48 104.478 131.743 105.974 127.147 107.985C122.973 109.903 120.768 108.313 120.862 103.309Z" fill="#99E5F2"/>
<path d="M106.697 227.008C96.004 226.961 79.4482 223.266 63.8305 215.55C60.9695 214.147 60.6412 213.024 60.8757 209.751C61.4854 201.192 63.1739 192.868 65.7065 184.683C69.8337 171.402 76.2121 159.289 84.7949 148.345C91.0795 140.348 98.3022 133.333 106.463 127.253C107.26 126.645 108.104 125.991 108.995 125.57C111.763 124.167 114.483 125.617 114.858 128.656C117.625 150.824 126.114 170.7 139.809 188.331C146.094 196.375 153.363 203.531 161.571 209.657C164.478 211.808 164.15 215.222 160.961 216.672C145.859 223.64 130.007 227.054 106.697 227.008Z" fill="#97D2EB"/>
<path d="M136.834 132.77C136.834 133.83 136.657 134.813 136.304 135.72C135.957 136.62 135.464 137.4 134.824 138.06C134.184 138.72 133.414 139.237 132.514 139.61C131.614 139.977 130.614 140.16 129.514 140.16C128.42 140.16 127.424 139.977 126.524 139.61C125.624 139.237 124.85 138.72 124.204 138.06C123.564 137.4 123.067 136.62 122.714 135.72C122.36 134.813 122.184 133.83 122.184 132.77C122.184 131.71 122.36 130.73 122.714 129.83C123.067 128.923 123.564 128.14 124.204 127.48C124.85 126.82 125.624 126.307 126.524 125.94C127.424 125.567 128.42 125.38 129.514 125.38C130.247 125.38 130.937 125.467 131.584 125.64C132.23 125.807 132.824 126.047 133.364 126.36C133.904 126.667 134.387 127.043 134.814 127.49C135.247 127.93 135.614 128.423 135.914 128.97C136.214 129.517 136.44 130.11 136.594 130.75C136.754 131.39 136.834 132.063 136.834 132.77ZM134.084 132.77C134.084 131.977 133.977 131.267 133.764 130.64C133.55 130.007 133.247 129.47 132.854 129.03C132.46 128.59 131.98 128.253 131.414 128.02C130.854 127.787 130.22 127.67 129.514 127.67C128.807 127.67 128.17 127.787 127.604 128.02C127.044 128.253 126.564 128.59 126.164 129.03C125.77 129.47 125.467 130.007 125.254 130.64C125.04 131.267 124.934 131.977 124.934 132.77C124.934 133.563 125.04 134.277 125.254 134.91C125.467 135.537 125.77 136.07 126.164 136.51C126.564 136.943 127.044 137.277 127.604 137.51C128.17 137.743 128.807 137.86 129.514 137.86C130.22 137.86 130.854 137.743 131.414 137.51C131.98 137.277 132.46 136.943 132.854 136.51C133.247 136.07 133.55 135.537 133.764 134.91C133.977 134.277 134.084 133.563 134.084 132.77ZM141.1 137.34C141.38 137.68 141.683 137.92 142.01 138.06C142.343 138.2 142.703 138.27 143.09 138.27C143.463 138.27 143.8 138.2 144.1 138.06C144.4 137.92 144.653 137.707 144.86 137.42C145.073 137.133 145.237 136.773 145.35 136.34C145.463 135.9 145.52 135.383 145.52 134.79C145.52 134.19 145.47 133.683 145.37 133.27C145.277 132.85 145.14 132.51 144.96 132.25C144.78 131.99 144.56 131.8 144.3 131.68C144.047 131.56 143.757 131.5 143.43 131.5C142.917 131.5 142.48 131.61 142.12 131.83C141.76 132.043 141.42 132.347 141.1 132.74V137.34ZM140.97 131.14C141.39 130.667 141.867 130.283 142.4 129.99C142.933 129.697 143.56 129.55 144.28 129.55C144.84 129.55 145.35 129.667 145.81 129.9C146.277 130.133 146.677 130.473 147.01 130.92C147.35 131.36 147.61 131.907 147.79 132.56C147.977 133.207 148.07 133.95 148.07 134.79C148.07 135.557 147.967 136.267 147.76 136.92C147.553 137.573 147.257 138.14 146.87 138.62C146.49 139.1 146.027 139.477 145.48 139.75C144.94 140.017 144.333 140.15 143.66 140.15C143.087 140.15 142.597 140.063 142.19 139.89C141.783 139.71 141.42 139.463 141.1 139.15V143.35H138.63V129.74H140.14C140.46 129.74 140.67 129.89 140.77 130.19L140.97 131.14ZM156.607 133.69C156.607 133.37 156.561 133.07 156.467 132.79C156.381 132.503 156.247 132.253 156.067 132.04C155.887 131.827 155.657 131.66 155.377 131.54C155.104 131.413 154.784 131.35 154.417 131.35C153.704 131.35 153.141 131.553 152.727 131.96C152.321 132.367 152.061 132.943 151.947 133.69H156.607ZM151.897 135.18C151.937 135.707 152.031 136.163 152.177 136.55C152.324 136.93 152.517 137.247 152.757 137.5C152.997 137.747 153.281 137.933 153.607 138.06C153.941 138.18 154.307 138.24 154.707 138.24C155.107 138.24 155.451 138.193 155.737 138.1C156.031 138.007 156.284 137.903 156.497 137.79C156.717 137.677 156.907 137.573 157.067 137.48C157.234 137.387 157.394 137.34 157.547 137.34C157.754 137.34 157.907 137.417 158.007 137.57L158.717 138.47C158.444 138.79 158.137 139.06 157.797 139.28C157.457 139.493 157.101 139.667 156.727 139.8C156.361 139.927 155.984 140.017 155.597 140.07C155.217 140.123 154.847 140.15 154.487 140.15C153.774 140.15 153.111 140.033 152.497 139.8C151.884 139.56 151.351 139.21 150.897 138.75C150.444 138.283 150.087 137.71 149.827 137.03C149.567 136.343 149.437 135.55 149.437 134.65C149.437 133.95 149.551 133.293 149.777 132.68C150.004 132.06 150.327 131.523 150.747 131.07C151.174 130.61 151.691 130.247 152.297 129.98C152.911 129.713 153.601 129.58 154.367 129.58C155.014 129.58 155.611 129.683 156.157 129.89C156.704 130.097 157.174 130.4 157.567 130.8C157.961 131.193 158.267 131.68 158.487 132.26C158.714 132.833 158.827 133.49 158.827 134.23C158.827 134.603 158.787 134.857 158.707 134.99C158.627 135.117 158.474 135.18 158.247 135.18H151.897ZM163.011 131.52C163.331 130.907 163.711 130.427 164.151 130.08C164.591 129.727 165.111 129.55 165.711 129.55C166.184 129.55 166.564 129.653 166.851 129.86L166.691 131.71C166.658 131.83 166.608 131.917 166.541 131.97C166.481 132.017 166.398 132.04 166.291 132.04C166.191 132.04 166.041 132.023 165.841 131.99C165.648 131.957 165.458 131.94 165.271 131.94C164.998 131.94 164.754 131.98 164.541 132.06C164.328 132.14 164.134 132.257 163.961 132.41C163.794 132.557 163.644 132.737 163.511 132.95C163.384 133.163 163.264 133.407 163.151 133.68V140H160.681V129.74H162.131C162.384 129.74 162.561 129.787 162.661 129.88C162.761 129.967 162.828 130.127 162.861 130.36L163.011 131.52ZM173.425 135.62C172.712 135.653 172.112 135.717 171.625 135.81C171.138 135.897 170.748 136.01 170.455 136.15C170.162 136.29 169.952 136.453 169.825 136.64C169.698 136.827 169.635 137.03 169.635 137.25C169.635 137.683 169.762 137.993 170.015 138.18C170.275 138.367 170.612 138.46 171.025 138.46C171.532 138.46 171.968 138.37 172.335 138.19C172.708 138.003 173.072 137.723 173.425 137.35V135.62ZM167.765 131.17C168.945 130.09 170.365 129.55 172.025 129.55C172.625 129.55 173.162 129.65 173.635 129.85C174.108 130.043 174.508 130.317 174.835 130.67C175.162 131.017 175.408 131.433 175.575 131.92C175.748 132.407 175.835 132.94 175.835 133.52V140H174.715C174.482 140 174.302 139.967 174.175 139.9C174.048 139.827 173.948 139.683 173.875 139.47L173.655 138.73C173.395 138.963 173.142 139.17 172.895 139.35C172.648 139.523 172.392 139.67 172.125 139.79C171.858 139.91 171.572 140 171.265 140.06C170.965 140.127 170.632 140.16 170.265 140.16C169.832 140.16 169.432 140.103 169.065 139.99C168.698 139.87 168.382 139.693 168.115 139.46C167.848 139.227 167.642 138.937 167.495 138.59C167.348 138.243 167.275 137.84 167.275 137.38C167.275 137.12 167.318 136.863 167.405 136.61C167.492 136.35 167.632 136.103 167.825 135.87C168.025 135.637 168.282 135.417 168.595 135.21C168.908 135.003 169.292 134.823 169.745 134.67C170.205 134.517 170.738 134.393 171.345 134.3C171.952 134.2 172.645 134.14 173.425 134.12V133.52C173.425 132.833 173.278 132.327 172.985 132C172.692 131.667 172.268 131.5 171.715 131.5C171.315 131.5 170.982 131.547 170.715 131.64C170.455 131.733 170.225 131.84 170.025 131.96C169.825 132.073 169.642 132.177 169.475 132.27C169.315 132.363 169.135 132.41 168.935 132.41C168.762 132.41 168.615 132.367 168.495 132.28C168.375 132.187 168.278 132.08 168.205 131.96L167.765 131.17ZM188.375 140H185.905V131.59H181.145V137.15C181.145 137.47 181.221 137.72 181.375 137.9C181.535 138.08 181.751 138.17 182.025 138.17C182.178 138.17 182.305 138.153 182.405 138.12C182.511 138.08 182.601 138.04 182.675 138C182.755 137.96 182.825 137.923 182.885 137.89C182.945 137.85 183.005 137.83 183.065 137.83C183.138 137.83 183.198 137.85 183.245 137.89C183.291 137.923 183.341 137.977 183.395 138.05L184.135 139.25C183.775 139.55 183.361 139.777 182.895 139.93C182.428 140.083 181.945 140.16 181.445 140.16C180.551 140.16 179.865 139.91 179.385 139.41C178.911 138.903 178.675 138.207 178.675 137.32V131.59H177.625C177.491 131.59 177.378 131.547 177.285 131.46C177.191 131.373 177.145 131.243 177.145 131.07V130.09L178.795 129.81L179.315 127.02C179.348 126.887 179.411 126.783 179.505 126.71C179.598 126.637 179.718 126.6 179.865 126.6H181.145V129.83H188.375V140ZM188.805 126.71C188.805 126.923 188.761 127.127 188.675 127.32C188.588 127.507 188.471 127.67 188.325 127.81C188.185 127.95 188.015 128.063 187.815 128.15C187.621 128.23 187.415 128.27 187.195 128.27C186.981 128.27 186.781 128.23 186.595 128.15C186.408 128.063 186.245 127.95 186.105 127.81C185.965 127.67 185.851 127.507 185.765 127.32C185.685 127.127 185.645 126.923 185.645 126.71C185.645 126.49 185.685 126.287 185.765 126.1C185.851 125.907 185.965 125.74 186.105 125.6C186.245 125.453 186.408 125.34 186.595 125.26C186.781 125.173 186.981 125.13 187.195 125.13C187.415 125.13 187.621 125.173 187.815 125.26C188.015 125.34 188.185 125.453 188.325 125.6C188.471 125.74 188.588 125.907 188.675 126.1C188.761 126.287 188.805 126.49 188.805 126.71ZM195.436 129.58C196.196 129.58 196.886 129.703 197.506 129.95C198.132 130.197 198.666 130.547 199.106 131C199.552 131.453 199.896 132.007 200.136 132.66C200.376 133.313 200.496 134.043 200.496 134.85C200.496 135.663 200.376 136.397 200.136 137.05C199.896 137.703 199.552 138.26 199.106 138.72C198.666 139.18 198.132 139.533 197.506 139.78C196.886 140.027 196.196 140.15 195.436 140.15C194.669 140.15 193.972 140.027 193.346 139.78C192.719 139.533 192.182 139.18 191.736 138.72C191.296 138.26 190.952 137.703 190.706 137.05C190.466 136.397 190.346 135.663 190.346 134.85C190.346 134.043 190.466 133.313 190.706 132.66C190.952 132.007 191.296 131.453 191.736 131C192.182 130.547 192.719 130.197 193.346 129.95C193.972 129.703 194.669 129.58 195.436 129.58ZM195.436 138.25C196.289 138.25 196.919 137.963 197.326 137.39C197.739 136.817 197.946 135.977 197.946 134.87C197.946 133.763 197.739 132.92 197.326 132.34C196.919 131.76 196.289 131.47 195.436 131.47C194.569 131.47 193.926 131.763 193.506 132.35C193.092 132.93 192.886 133.77 192.886 134.87C192.886 135.97 193.092 136.81 193.506 137.39C193.926 137.963 194.569 138.25 195.436 138.25ZM204.69 131C204.897 130.793 205.113 130.603 205.34 130.43C205.573 130.25 205.817 130.1 206.07 129.98C206.33 129.853 206.607 129.757 206.9 129.69C207.193 129.617 207.513 129.58 207.86 129.58C208.42 129.58 208.917 129.677 209.35 129.87C209.783 130.057 210.143 130.323 210.43 130.67C210.723 131.01 210.943 131.42 211.09 131.9C211.243 132.373 211.32 132.897 211.32 133.47V140H208.85V133.47C208.85 132.843 208.707 132.36 208.42 132.02C208.133 131.673 207.697 131.5 207.11 131.5C206.683 131.5 206.283 131.597 205.91 131.79C205.537 131.983 205.183 132.247 204.85 132.58V140H202.38V129.74H203.89C204.21 129.74 204.42 129.89 204.52 130.19L204.69 131ZM219.089 135.62C218.376 135.653 217.776 135.717 217.289 135.81C216.803 135.897 216.413 136.01 216.119 136.15C215.826 136.29 215.616 136.453 215.489 136.64C215.363 136.827 215.299 137.03 215.299 137.25C215.299 137.683 215.426 137.993 215.679 138.18C215.939 138.367 216.276 138.46 216.689 138.46C217.196 138.46 217.633 138.37 217.999 138.19C218.373 138.003 218.736 137.723 219.089 137.35V135.62ZM213.429 131.17C214.609 130.09 216.029 129.55 217.689 129.55C218.289 129.55 218.826 129.65 219.299 129.85C219.773 130.043 220.173 130.317 220.499 130.67C220.826 131.017 221.073 131.433 221.239 131.92C221.413 132.407 221.499 132.94 221.499 133.52V140H220.379C220.146 140 219.966 139.967 219.839 139.9C219.713 139.827 219.613 139.683 219.539 139.47L219.319 138.73C219.059 138.963 218.806 139.17 218.559 139.35C218.313 139.523 218.056 139.67 217.789 139.79C217.523 139.91 217.236 140 216.929 140.06C216.629 140.127 216.296 140.16 215.929 140.16C215.496 140.16 215.096 140.103 214.729 139.99C214.363 139.87 214.046 139.693 213.779 139.46C213.513 139.227 213.306 138.937 213.159 138.59C213.013 138.243 212.939 137.84 212.939 137.38C212.939 137.12 212.983 136.863 213.069 136.61C213.156 136.35 213.296 136.103 213.489 135.87C213.689 135.637 213.946 135.417 214.259 135.21C214.573 135.003 214.956 134.823 215.409 134.67C215.869 134.517 216.403 134.393 217.009 134.3C217.616 134.2 218.309 134.14 219.089 134.12V133.52C219.089 132.833 218.943 132.327 218.649 132C218.356 131.667 217.933 131.5 217.379 131.5C216.979 131.5 216.646 131.547 216.379 131.64C216.119 131.733 215.889 131.84 215.689 131.96C215.489 132.073 215.306 132.177 215.139 132.27C214.979 132.363 214.799 132.41 214.599 132.41C214.426 132.41 214.279 132.367 214.159 132.28C214.039 132.187 213.943 132.08 213.869 131.96L213.429 131.17ZM226.325 125.14V140H223.855V125.14H226.325ZM130.08 153.68V157.69H135.14V159.76H130.08V163.85H136.5V166H127.38V151.54H136.5V153.68H130.08ZM138.852 166V157.6L137.962 157.46C137.769 157.42 137.612 157.353 137.492 157.26C137.379 157.16 137.322 157.02 137.322 156.84V155.83H138.852V155.25C138.852 154.663 138.939 154.137 139.112 153.67C139.292 153.203 139.546 152.807 139.872 152.48C140.206 152.153 140.609 151.903 141.082 151.73C141.556 151.557 142.089 151.47 142.682 151.47C143.149 151.47 143.586 151.533 143.992 151.66L143.942 152.89C143.929 153.083 143.839 153.207 143.672 153.26C143.512 153.307 143.322 153.33 143.102 153.33C142.809 153.33 142.546 153.363 142.312 153.43C142.086 153.49 141.892 153.6 141.732 153.76C141.572 153.913 141.449 154.12 141.362 154.38C141.282 154.633 141.242 154.95 141.242 155.33V155.83H145.322V155.5C145.322 154.873 145.426 154.293 145.632 153.76C145.839 153.22 146.152 152.753 146.572 152.36C146.992 151.967 147.522 151.66 148.162 151.44C148.809 151.213 149.569 151.1 150.442 151.1C150.722 151.1 151.009 151.117 151.302 151.15C151.596 151.177 151.849 151.223 152.062 151.29L151.982 152.57C151.969 152.723 151.886 152.817 151.732 152.85C151.579 152.877 151.389 152.89 151.162 152.89C150.516 152.89 149.972 152.947 149.532 153.06C149.099 153.173 148.746 153.343 148.472 153.57C148.206 153.79 148.012 154.07 147.892 154.41C147.779 154.743 147.722 155.133 147.722 155.58V155.83H154.082V166H151.612V157.59H147.802V166H145.322V157.59H141.322V166H138.852ZM163.968 157.91C163.895 158.003 163.822 158.077 163.748 158.13C163.682 158.183 163.582 158.21 163.448 158.21C163.322 158.21 163.198 158.173 163.078 158.1C162.958 158.02 162.815 157.933 162.648 157.84C162.482 157.74 162.282 157.653 162.048 157.58C161.822 157.5 161.538 157.46 161.198 157.46C160.765 157.46 160.385 157.54 160.058 157.7C159.732 157.853 159.458 158.077 159.238 158.37C159.025 158.663 158.865 159.02 158.758 159.44C158.652 159.853 158.598 160.323 158.598 160.85C158.598 161.397 158.655 161.883 158.768 162.31C158.888 162.737 159.058 163.097 159.278 163.39C159.498 163.677 159.765 163.897 160.078 164.05C160.392 164.197 160.745 164.27 161.138 164.27C161.532 164.27 161.848 164.223 162.088 164.13C162.335 164.03 162.542 163.923 162.708 163.81C162.875 163.69 163.018 163.583 163.138 163.49C163.265 163.39 163.405 163.34 163.558 163.34C163.758 163.34 163.908 163.417 164.008 163.57L164.718 164.47C164.445 164.79 164.148 165.06 163.828 165.28C163.508 165.493 163.175 165.667 162.828 165.8C162.488 165.927 162.135 166.017 161.768 166.07C161.408 166.123 161.048 166.15 160.688 166.15C160.055 166.15 159.458 166.033 158.898 165.8C158.338 165.56 157.848 165.213 157.428 164.76C157.008 164.307 156.675 163.753 156.428 163.1C156.188 162.44 156.068 161.69 156.068 160.85C156.068 160.097 156.175 159.4 156.388 158.76C156.608 158.113 156.928 157.557 157.348 157.09C157.768 156.617 158.288 156.247 158.908 155.98C159.528 155.713 160.242 155.58 161.048 155.58C161.815 155.58 162.485 155.703 163.058 155.95C163.638 156.197 164.158 156.55 164.618 157.01L163.968 157.91ZM168.827 155.74V166H166.347V155.74H168.827ZM169.167 152.75C169.167 152.963 169.124 153.163 169.037 153.35C168.95 153.537 168.834 153.7 168.687 153.84C168.547 153.98 168.38 154.093 168.187 154.18C167.994 154.26 167.787 154.3 167.567 154.3C167.354 154.3 167.15 154.26 166.957 154.18C166.77 154.093 166.607 153.98 166.467 153.84C166.327 153.7 166.214 153.537 166.127 153.35C166.047 153.163 166.007 152.963 166.007 152.75C166.007 152.53 166.047 152.323 166.127 152.13C166.214 151.937 166.327 151.77 166.467 151.63C166.607 151.49 166.77 151.38 166.957 151.3C167.15 151.213 167.354 151.17 167.567 151.17C167.787 151.17 167.994 151.213 168.187 151.3C168.38 151.38 168.547 151.49 168.687 151.63C168.834 151.77 168.95 151.937 169.037 152.13C169.124 152.323 169.167 152.53 169.167 152.75ZM177.955 159.69C177.955 159.37 177.908 159.07 177.815 158.79C177.728 158.503 177.595 158.253 177.415 158.04C177.235 157.827 177.005 157.66 176.725 157.54C176.452 157.413 176.132 157.35 175.765 157.35C175.052 157.35 174.488 157.553 174.075 157.96C173.668 158.367 173.408 158.943 173.295 159.69H177.955ZM173.245 161.18C173.285 161.707 173.378 162.163 173.525 162.55C173.672 162.93 173.865 163.247 174.105 163.5C174.345 163.747 174.628 163.933 174.955 164.06C175.288 164.18 175.655 164.24 176.055 164.24C176.455 164.24 176.798 164.193 177.085 164.1C177.378 164.007 177.632 163.903 177.845 163.79C178.065 163.677 178.255 163.573 178.415 163.48C178.582 163.387 178.742 163.34 178.895 163.34C179.102 163.34 179.255 163.417 179.355 163.57L180.065 164.47C179.792 164.79 179.485 165.06 179.145 165.28C178.805 165.493 178.448 165.667 178.075 165.8C177.708 165.927 177.332 166.017 176.945 166.07C176.565 166.123 176.195 166.15 175.835 166.15C175.122 166.15 174.458 166.033 173.845 165.8C173.232 165.56 172.698 165.21 172.245 164.75C171.792 164.283 171.435 163.71 171.175 163.03C170.915 162.343 170.785 161.55 170.785 160.65C170.785 159.95 170.898 159.293 171.125 158.68C171.352 158.06 171.675 157.523 172.095 157.07C172.522 156.61 173.038 156.247 173.645 155.98C174.258 155.713 174.948 155.58 175.715 155.58C176.362 155.58 176.958 155.683 177.505 155.89C178.052 156.097 178.522 156.4 178.915 156.8C179.308 157.193 179.615 157.68 179.835 158.26C180.062 158.833 180.175 159.49 180.175 160.23C180.175 160.603 180.135 160.857 180.055 160.99C179.975 161.117 179.822 161.18 179.595 161.18H173.245ZM184.339 157C184.545 156.793 184.762 156.603 184.989 156.43C185.222 156.25 185.465 156.1 185.719 155.98C185.979 155.853 186.255 155.757 186.549 155.69C186.842 155.617 187.162 155.58 187.509 155.58C188.069 155.58 188.565 155.677 188.999 155.87C189.432 156.057 189.792 156.323 190.079 156.67C190.372 157.01 190.592 157.42 190.739 157.9C190.892 158.373 190.969 158.897 190.969 159.47V166H188.499V159.47C188.499 158.843 188.355 158.36 188.069 158.02C187.782 157.673 187.345 157.5 186.759 157.5C186.332 157.5 185.932 157.597 185.559 157.79C185.185 157.983 184.832 158.247 184.499 158.58V166H182.029V155.74H183.539C183.859 155.74 184.069 155.89 184.169 156.19L184.339 157ZM200.668 157.91C200.594 158.003 200.521 158.077 200.448 158.13C200.381 158.183 200.281 158.21 200.148 158.21C200.021 158.21 199.898 158.173 199.778 158.1C199.658 158.02 199.514 157.933 199.348 157.84C199.181 157.74 198.981 157.653 198.748 157.58C198.521 157.5 198.238 157.46 197.898 157.46C197.464 157.46 197.084 157.54 196.758 157.7C196.431 157.853 196.158 158.077 195.938 158.37C195.724 158.663 195.564 159.02 195.458 159.44C195.351 159.853 195.298 160.323 195.298 160.85C195.298 161.397 195.354 161.883 195.468 162.31C195.588 162.737 195.758 163.097 195.978 163.39C196.198 163.677 196.464 163.897 196.778 164.05C197.091 164.197 197.444 164.27 197.838 164.27C198.231 164.27 198.548 164.223 198.788 164.13C199.034 164.03 199.241 163.923 199.408 163.81C199.574 163.69 199.718 163.583 199.838 163.49C199.964 163.39 200.104 163.34 200.258 163.34C200.458 163.34 200.608 163.417 200.708 163.57L201.418 164.47C201.144 164.79 200.848 165.06 200.528 165.28C200.208 165.493 199.874 165.667 199.528 165.8C199.188 165.927 198.834 166.017 198.468 166.07C198.108 166.123 197.748 166.15 197.388 166.15C196.754 166.15 196.158 166.033 195.598 165.8C195.038 165.56 194.548 165.213 194.128 164.76C193.708 164.307 193.374 163.753 193.128 163.1C192.888 162.44 192.768 161.69 192.768 160.85C192.768 160.097 192.874 159.4 193.088 158.76C193.308 158.113 193.628 157.557 194.048 157.09C194.468 156.617 194.988 156.247 195.608 155.98C196.228 155.713 196.941 155.58 197.748 155.58C198.514 155.58 199.184 155.703 199.758 155.95C200.338 156.197 200.858 156.55 201.318 157.01L200.668 157.91ZM212.286 155.74L206.696 168.82C206.623 168.993 206.526 169.123 206.406 169.21C206.293 169.303 206.116 169.35 205.876 169.35H204.036L205.956 165.23L201.806 155.74H203.976C204.169 155.74 204.319 155.787 204.426 155.88C204.539 155.973 204.623 156.08 204.676 156.2L206.856 161.52C206.929 161.7 206.989 161.88 207.036 162.06C207.089 162.24 207.139 162.423 207.186 162.61C207.246 162.423 207.306 162.24 207.366 162.06C207.426 161.873 207.493 161.69 207.566 161.51L209.626 156.2C209.679 156.067 209.766 155.957 209.886 155.87C210.013 155.783 210.153 155.74 210.306 155.74H212.286Z" fill="#343C51"/>
</g>
<defs>
<clipPath id="clip0">
<rect width="348" height="332" fill="white"/>
</clipPath>
</defs>
</svg>
