<svg width="95" height="99" viewBox="0 0 95 99" fill="none" xmlns="http://www.w3.org/2000/svg">
<path d="M46.9938 16.6826L35.8069 27.8696L46.9938 39.0566L58.1808 27.8696L46.9938 16.6826Z" fill="#437FEC"/>
<path d="M46.9841 75.8467L35.7971 87.0337L46.9841 98.2207L58.1711 87.0337L46.9841 75.8467Z" fill="#3B2E85"/>
<path d="M30.3757 -6.44456e-07L19.1887 11.187L30.3757 22.374L41.5627 11.187L30.3757 -6.44456e-07Z" fill="#60E4FF"/>
<path d="M63.6179 0.00414853L52.4309 11.1911L63.6179 22.3781L74.8049 11.1911L63.6179 0.00414853Z" fill="#60E4FF"/>
<path d="M87.5322 11.7454L19.8152 79.4624L26.3012 85.9485L94.0183 18.2315L87.5322 11.7454Z" fill="#437FEC"/>
<path d="M1.55787e-06 18.1926L67.717 85.9097L74.2031 79.4236L6.48608 11.7066L1.55787e-06 18.1926Z" fill="#437FEC"/>
</svg>
