<svg width="1920" height="1080" viewBox="0 0 1920 1080" fill="none" xmlns="http://www.w3.org/2000/svg">
<rect width="1920" height="1080" fill="url(#paint0_linear)"/>
<circle cx="667.5" cy="777.5" r="59.5" fill="#F1F3FB"/>
<circle cx="38" cy="968" r="362" fill="#ECEFFF"/>
<circle cx="38" cy="968" r="286" fill="#EEF3FD"/>
<circle cx="38" cy="968" r="219" fill="#ECEFFF"/>
<circle cx="1678" cy="-177" r="377" stroke="#E1E5F7" stroke-width="5" stroke-linecap="round" stroke-linejoin="round" stroke-dasharray="1 20"/>
<circle cx="1678" cy="-177" r="226" stroke="#E1E5F7" stroke-width="5" stroke-linecap="round" stroke-linejoin="round" stroke-dasharray="1 20"/>
<circle cx="1645.5" cy="199.5" r="59.5" fill="#EFF1FE"/>
<path d="M1646 184.017C1663.67 184.017 1678 180.431 1678 176.008C1678 171.585 1663.67 168 1646 168C1628.33 168 1614 171.585 1614 176.008C1614 180.431 1628.33 184.017 1646 184.017Z" fill="#B7C0EB"/>
<path d="M1646 189.328C1628.34 189.328 1614 185.748 1614 181.336V200C1614 204.412 1628.34 208.008 1646 208.008C1663.66 208.008 1678 204.429 1678 200V181.336C1678 185.748 1663.66 189.328 1646 189.328ZM1623.34 200C1621.13 200 1619.34 198.202 1619.34 196.004C1619.34 193.79 1621.14 192.008 1623.34 192.008C1625.54 192.008 1627.34 193.806 1627.34 196.004C1627.34 198.202 1625.54 200 1623.34 200Z" fill="#B7C0EB"/>
<path d="M1646 213.336C1628.34 213.336 1614 209.757 1614 205.328V223.992C1614 228.404 1628.34 232 1646 232C1663.66 232 1678 228.42 1678 223.992V205.328C1678 209.757 1663.66 213.336 1646 213.336ZM1623.34 224.008C1621.13 224.008 1619.34 222.21 1619.34 220.013C1619.34 217.798 1621.14 216.017 1623.34 216.017C1625.54 216.017 1627.34 217.815 1627.34 220.013C1627.34 222.21 1625.54 224.008 1623.34 224.008Z" fill="#B7C0EB"/>
<circle cx="456" cy="-40" r="377" stroke="#E1E5F7" stroke-width="5" stroke-linecap="round" stroke-linejoin="round" stroke-dasharray="1 20"/>
<circle cx="457.5" cy="-43.5" r="271.5" fill="#F7F9FE"/>
<circle cx="457" cy="-33" r="219" fill="#FCFDFF"/>
<path d="M623 765.979C652.333 753.312 747 744 803 778C913.002 844.787 1095 840 1225 765.979C1398.5 667.191 1477 601.979 1621 575.979C1765 549.979 1883 681.979 1839 765.979C1795 849.979 1585 830.961 1585 707.979C1585 584.997 1911 593.979 1985 621.979" stroke="#E4E7FB" stroke-width="3" stroke-linecap="square" stroke-dasharray="8 8"/>
<circle cx="1471.5" cy="648.5" r="59.5" fill="#E4E7FB"/>
<g clip-path="url(#clip0)">
<path d="M1490.82 614H1453.18C1450.88 614 1449 615.878 1449 618.19V676.81C1449 679.122 1450.88 681 1453.18 681H1490.82C1493.13 681 1495.01 679.122 1495.01 676.81V618.19C1495 615.878 1493.13 614 1490.82 614ZM1490.82 668.438H1453.18V622.372H1490.82V668.438Z" fill="#B7C0EB"/>
<path d="M1467.82 630.752H1459.46C1458.3 630.752 1457.37 631.687 1457.37 632.843V641.215C1457.37 642.371 1458.3 643.307 1459.46 643.307H1467.82C1468.97 643.307 1469.91 642.371 1469.91 641.215V632.843C1469.91 631.687 1468.97 630.752 1467.82 630.752Z" fill="#C5CCEF"/>
<path d="M1467.82 647.496H1459.46C1458.3 647.496 1457.37 648.432 1457.37 649.588V657.96C1457.37 659.116 1458.3 660.052 1459.46 660.052H1467.82C1468.97 660.052 1469.91 659.116 1469.91 657.96V649.595C1469.91 648.439 1468.97 647.496 1467.82 647.496Z" fill="#C5CCEF"/>
<path d="M1484.55 630.752H1476.18C1475.03 630.752 1474.09 631.687 1474.09 632.843V641.215C1474.09 642.371 1475.03 643.307 1476.18 643.307H1484.54C1485.7 643.307 1486.63 642.371 1486.63 641.215V632.843C1486.64 631.687 1485.7 630.752 1484.55 630.752Z" fill="#C5CCEF"/>
</g>
<circle cx="288" cy="307" r="75" fill="#EFF1FE"/>
<g clip-path="url(#clip1)">
<path d="M269.309 337.617C269.538 336.683 270.481 336.105 271.415 336.335C272.349 336.564 272.927 337.507 272.698 338.441C272.162 340.717 270.914 342.747 269.122 344.259C269.793 344.506 270.498 344.65 271.211 344.709C273.012 344.845 274.872 344.336 276.605 343.232C277.029 342.96 277.556 342.883 278.04 343.028C278.524 343.172 278.924 343.52 279.136 343.979C280.376 346.714 282.007 348.353 283.731 348.591C286.636 348.99 289.099 347.156 290.186 346.187V320.876C290.186 320.757 290.076 320.629 290.05 320.502C289.447 317.92 286.152 316.586 285.778 316.451C284.878 316.102 284.428 315.1 284.776 314.2C285.124 313.299 286.126 312.849 287.027 313.197C288.165 313.631 289.235 314.234 290.186 314.981V262.693C288.003 260.578 284.266 259.559 280.971 260.187C277.182 260.918 274.354 263.627 273.615 267.033C273.632 267.033 273.657 267.042 273.674 267.042C277.174 267.467 280.512 269.123 283.315 271.849C284.003 272.52 284.02 273.625 283.357 274.313C282.686 275.001 281.582 275.018 280.894 274.355C278.185 271.731 274.974 270.397 271.831 270.422C271.78 270.431 271.721 270.431 271.661 270.431C271.644 270.431 271.627 270.431 271.602 270.422C269.589 270.482 267.635 271.102 265.962 272.223C262.649 274.406 261.851 278.644 262.777 281.702C263.091 282.722 263.601 283.673 264.272 284.505C264.654 284.989 264.756 285.635 264.535 286.212C264.314 286.79 263.805 287.206 263.201 287.308C263.176 287.317 259.727 287.954 258.046 290.544C257.307 291.674 257.001 293.05 257.12 294.647C259.965 293.789 262.981 293.636 265.902 294.188C270.277 295.004 274.023 297.263 276.426 300.559C276.995 301.34 276.826 302.427 276.053 302.996C275.271 303.565 274.184 303.395 273.615 302.623C269.716 297.288 261.316 295.734 255.285 299.225C252.219 300.992 250.095 303.795 249.458 306.903C248.898 309.486 249.501 312.187 251.106 314.285C251.429 314.718 251.531 315.27 251.387 315.788C251.242 316.306 250.868 316.705 250.367 316.909C249.722 317.198 245.984 319.466 245.144 322.515C244.524 324.774 245.721 328.036 250.953 330.431C251.412 330.644 251.76 331.043 251.905 331.527C252.049 332.011 251.973 332.538 251.701 332.963C249.977 335.545 250.163 338.951 252.159 341.329C255.362 345.058 263.133 344.684 266.82 341.669C268.077 340.632 268.952 339.205 269.309 337.617ZM283.638 334.729C283.561 335.519 283.289 337.006 282.313 338.118C281.676 338.84 280.571 338.908 279.849 338.271C279.127 337.634 279.059 336.53 279.696 335.808C279.926 335.545 280.113 334.993 280.172 334.398C280.257 333.532 278.941 332.521 276.741 331.765C275.832 331.451 275.348 330.457 275.662 329.548C275.976 328.639 276.97 328.155 277.879 328.469C283.23 330.321 283.782 333.183 283.638 334.729ZM276.172 289.432C275.738 289.585 275.254 289.551 274.838 289.347C274.422 289.143 274.108 288.786 273.955 288.344C273.691 287.614 273.666 286.816 273.878 286.068C274.158 285.176 274.736 284.403 275.517 283.885C274.481 282.475 273.802 280.836 273.547 279.103C273.403 278.152 274.048 277.26 274.999 277.116C275.951 276.971 276.843 277.617 276.987 278.568C277.403 281.252 279.068 283.308 281.132 283.673C281.837 283.783 282.55 283.732 283.23 283.52C283.824 283.342 284.478 283.494 284.929 283.928C285.379 284.361 285.566 284.998 285.413 285.609C285.26 286.212 284.801 286.697 284.198 286.867C283.434 287.096 282.627 287.215 281.828 287.215C281.387 287.215 280.945 287.172 280.512 287.096C279.773 286.96 279.051 286.714 278.388 286.365C277.607 286.544 277.25 286.909 277.208 287.036C277.199 287.087 277.216 287.138 277.233 287.189C277.565 288.124 277.08 289.117 276.172 289.432ZM264.357 326.821C265.062 327.467 265.113 328.554 264.484 329.259C263.855 329.973 262.768 330.049 262.046 329.429C260.441 328.002 259.829 325.964 260.449 324.103C260.857 322.94 261.656 321.963 262.717 321.334C261.46 319.916 260.594 318.2 260.195 316.34C259.999 315.397 260.602 314.471 261.545 314.276C262.488 314.081 263.414 314.684 263.609 315.627C264.042 317.657 265.291 319.415 267.066 320.485C267.253 320.545 267.423 320.646 267.584 320.765C268.374 321.156 269.224 321.377 270.098 321.436C272.358 321.564 274.175 320.392 274.846 319.882C275.611 319.304 276.707 319.449 277.293 320.222C277.87 320.986 277.726 322.082 276.953 322.668C275.806 323.534 273.479 324.944 270.447 324.944C270.268 324.944 270.09 324.936 269.903 324.927C268.553 324.842 267.236 324.494 266.021 323.891C264.849 323.951 263.966 324.571 263.754 325.216C263.584 325.726 263.813 326.337 264.357 326.821Z" fill="#B7C0EB"/>
<path d="M319.389 299.513C318.54 300.363 317.936 301.416 317.631 302.58H291.708V306.071H317.631C318.421 309.043 321.113 311.124 324.188 311.124C327.263 311.133 329.964 309.06 330.762 306.088C331.561 303.115 330.261 299.972 327.594 298.435C324.935 296.889 321.572 297.339 319.389 299.513Z" fill="#B7C0EB"/>
<path d="M318.251 328.766C317.41 329.598 316.807 330.643 316.493 331.781H307.396V323.321C307.353 322.336 306.555 321.555 305.561 321.538H291.708V325.029H303.913V333.624C303.896 334.066 304.066 334.499 304.38 334.814C304.695 335.128 305.128 335.298 305.569 335.272H316.501C316.764 336.461 317.376 337.549 318.259 338.39C320.918 341.04 325.216 341.04 327.866 338.381C330.516 335.731 330.516 331.425 327.866 328.775C325.216 326.124 320.909 326.116 318.251 328.766Z" fill="#B7C0EB"/>
<path d="M307.396 285.32V276.86H316.493C317.299 279.842 320 281.914 323.092 281.914C326.184 281.914 328.885 279.833 329.683 276.852C330.482 273.87 329.174 270.719 326.498 269.173C323.823 267.627 320.442 268.078 318.259 270.269C317.376 271.101 316.756 272.189 316.501 273.378H305.569C305.128 273.361 304.695 273.522 304.38 273.836C304.066 274.151 303.896 274.575 303.913 275.026V283.621H291.708V287.112H305.569C306.555 287.095 307.362 286.314 307.396 285.32Z" fill="#B7C0EB"/>
</g>
<defs>
<linearGradient id="paint0_linear" x1="960" y1="0" x2="960" y2="1080" gradientUnits="userSpaceOnUse">
<stop stop-color="white"/>
<stop offset="0.0001" stop-color="white"/>
<stop offset="1" stop-color="#EBF1FC"/>
</linearGradient>
<clipPath id="clip0">
<rect width="46" height="67" fill="white" transform="translate(1449 614)"/>
</clipPath>
<clipPath id="clip1">
<rect width="86" height="88.6501" fill="white" transform="translate(245 260)"/>
</clipPath>
</defs>
</svg>
