<svg width="1418" height="269" viewBox="0 0 1418 269" fill="none" xmlns="http://www.w3.org/2000/svg">
<path d="M11.1279 0C7.0814 12.814 0 42.4884 0 42.4884L19.2209 24.2791L11.1279 0Z" fill="#B7C0EB"/>
<path d="M20.2326 25.2908L1.01172 43.5001L43.5001 32.3722L20.2326 25.2908Z" fill="#437FEC"/>
<path d="M6 25.979C35.3333 13.3124 102 15.979 158 49.979C268.002 116.766 460 253.979 656 215.979C852 177.979 908 51.9791 1052 25.979C1196 -0.0209947 1314 131.979 1270 215.979C1226 299.979 1016 280.961 1016 157.979C1016 34.9971 1342 43.979 1416 71.979" stroke="#B7C0EB" stroke-width="3" stroke-linecap="square" stroke-dasharray="8 8"/>
</svg>
