<svg width="117" height="113" viewBox="0 0 117 113" fill="none" xmlns="http://www.w3.org/2000/svg">
<g filter="url(#filter0_d)">
<path fill-rule="evenodd" clip-rule="evenodd" d="M7 18C7 9.71573 13.7157 3 22 3H95C103.284 3 110 9.71573 110 18V87C110 95.2843 103.284 102 95 102H22C13.7157 102 7 95.2843 7 87V18Z" fill="white"/>
</g>
<path d="M37 65.6259V75.0009H46.375L74.025 47.3509L64.65 37.9759L37 65.6259ZM81.275 40.1009C82.25 39.1259 82.25 37.5509 81.275 36.5759L75.425 30.7259C74.45 29.7509 72.875 29.7509 71.9 30.7259L67.325 35.3009L76.7 44.6759L81.275 40.1009Z" fill="#437FEC"/>
<defs>
<filter id="filter0_d" x="0" y="0" width="117" height="113" filterUnits="userSpaceOnUse" color-interpolation-filters="sRGB">
<feFlood flood-opacity="0" result="BackgroundImageFix"/>
<feColorMatrix in="SourceAlpha" type="matrix" values="0 0 0 0 0 0 0 0 0 0 0 0 0 0 0 0 0 0 127 0"/>
<feOffset dy="4"/>
<feGaussianBlur stdDeviation="3.5"/>
<feColorMatrix type="matrix" values="0 0 0 0 0.717647 0 0 0 0 0.752941 0 0 0 0 0.921569 0 0 0 1 0"/>
<feBlend mode="normal" in2="BackgroundImageFix" result="effect1_dropShadow"/>
<feBlend mode="normal" in="SourceGraphic" in2="effect1_dropShadow" result="shape"/>
</filter>
</defs>
</svg>
