<svg width="1057" height="692" viewBox="0 0 1057 692" fill="none" xmlns="http://www.w3.org/2000/svg">
<rect x="729" width="328" height="328" rx="26" fill="#F4F4F4"/>
<rect x="729" y="364" width="328" height="328" rx="26" fill="#F4F4F4"/>
<rect width="692" height="692" rx="26" fill="#EFF1FE"/>
<path d="M92 371L600 371" stroke="white" stroke-width="3"/>
<path d="M346 121L346 622" stroke="white" stroke-width="3"/>
<circle cx="672.147" cy="159.147" r="6.14721" fill="#BEC6ED"/>
<circle cx="672.147" cy="194.274" r="6.14721" fill="#BEC6ED"/>
<circle cx="744.157" cy="159.147" r="6.14721" fill="#9DAFBD"/>
<circle cx="744.157" cy="194.274" r="6.14721" fill="#9DAFBD"/>
<rect x="672" y="156" width="76" height="6" fill="url(#paint0_linear)"/>
<rect x="672" y="190" width="76" height="6" fill="url(#paint1_linear)"/>
<rect x="872" y="382.863" width="76" height="6" transform="rotate(-90 872 382.863)" fill="url(#paint2_linear)"/>
<rect x="907" y="382.863" width="76" height="6" transform="rotate(-90 907 382.863)" fill="url(#paint3_linear)"/>
<circle cx="875.147" cy="382.716" r="6.14721" transform="rotate(-90 875.147 382.716)" fill="#9DAFBD"/>
<ellipse cx="910.274" cy="382.716" rx="6.14722" ry="6.14716" transform="rotate(-90 910.274 382.716)" fill="#9DAFBD"/>
<circle cx="875.147" cy="310.706" r="6.14721" transform="rotate(-90 875.147 310.706)" fill="#9DAFBD"/>
<ellipse cx="910.274" cy="310.706" rx="6.14722" ry="6.14716" transform="rotate(-90 910.274 310.706)" fill="#9DAFBD"/>
<rect x="672" y="500.421" width="76" height="6" fill="url(#paint4_linear)"/>
<rect x="672" y="534.421" width="76" height="6" fill="url(#paint5_linear)"/>
<circle cx="672.147" cy="502.147" r="6.14721" fill="#BEC6ED"/>
<circle cx="672.147" cy="537.274" r="6.14721" fill="#BEC6ED"/>
<circle cx="744.157" cy="502.147" r="6.14721" fill="#9DAFBD"/>
<circle cx="744.157" cy="537.274" r="6.14721" fill="#9DAFBD"/>
<defs>
<linearGradient id="paint0_linear" x1="672" y1="156" x2="748" y2="156" gradientUnits="userSpaceOnUse">
<stop stop-color="#C4C4C4" stop-opacity="0.31"/>
<stop offset="0.53125" stop-color="#C4C4C4"/>
<stop offset="1" stop-color="#C4C4C4" stop-opacity="0.34"/>
</linearGradient>
<linearGradient id="paint1_linear" x1="672" y1="190" x2="748" y2="190" gradientUnits="userSpaceOnUse">
<stop stop-color="#C4C4C4" stop-opacity="0.31"/>
<stop offset="0.53125" stop-color="#C4C4C4"/>
<stop offset="1" stop-color="#C4C4C4" stop-opacity="0.34"/>
</linearGradient>
<linearGradient id="paint2_linear" x1="872" y1="382.863" x2="948" y2="382.863" gradientUnits="userSpaceOnUse">
<stop stop-color="#C4C4C4" stop-opacity="0.31"/>
<stop offset="0.53125" stop-color="#C4C4C4"/>
<stop offset="1" stop-color="#C4C4C4" stop-opacity="0.34"/>
</linearGradient>
<linearGradient id="paint3_linear" x1="907" y1="382.863" x2="983" y2="382.863" gradientUnits="userSpaceOnUse">
<stop stop-color="#C4C4C4" stop-opacity="0.31"/>
<stop offset="0.53125" stop-color="#C4C4C4"/>
<stop offset="1" stop-color="#C4C4C4" stop-opacity="0.34"/>
</linearGradient>
<linearGradient id="paint4_linear" x1="672" y1="500.421" x2="748" y2="500.421" gradientUnits="userSpaceOnUse">
<stop stop-color="#C4C4C4" stop-opacity="0.31"/>
<stop offset="0.53125" stop-color="#C4C4C4"/>
<stop offset="1" stop-color="#C4C4C4" stop-opacity="0.34"/>
</linearGradient>
<linearGradient id="paint5_linear" x1="672" y1="534.421" x2="748" y2="534.421" gradientUnits="userSpaceOnUse">
<stop stop-color="#C4C4C4" stop-opacity="0.31"/>
<stop offset="0.53125" stop-color="#C4C4C4"/>
<stop offset="1" stop-color="#C4C4C4" stop-opacity="0.34"/>
</linearGradient>
</defs>
</svg>
