<?xml version="1.0" encoding="utf-8"?>
<!-- Generator: Adobe Illustrator 25.0.0, SVG Export Plug-In . SVG Version: 6.00 Build 0)  -->
<svg version="1.1" id="Layer_1" xmlns="http://www.w3.org/2000/svg" xmlns:xlink="http://www.w3.org/1999/xlink" x="0px" y="0px"
	 viewBox="0 0 100 100" style="enable-background:new 0 0 100 100;" xml:space="preserve">
<style type="text/css">
	.st0{clip-path:url(#SVGID_2_);}
	.st1{fill:#00C3FF;}
	.st2{fill:#2C79E6;}
	.st3{fill:#00C0F1;}
	.st4{fill:#FFFFFF;}
</style>
<g>
	<path class="st1" d="M50,50h36.82v36.82H50V50z"/>
	<path class="st2" d="M50,31.59C50,41.76,41.76,50,31.59,50c-10.17,0-18.41-8.24-18.41-18.41c0-10.17,8.24-18.41,18.41-18.41
		C41.76,13.18,50,21.42,50,31.59z"/>
	<path class="st1" d="M73.69,34.57l-2.98,2.98V22.38H54.6v4.6h11.51v10.55l-2.98-2.98l-3.25,3.25l8.53,8.53l8.53-8.53L73.69,34.57z"
		/>
	<path class="st2" d="M33.89,73.01V62.46l2.98,2.98l3.25-3.25l-8.53-8.53l-8.53,8.53l3.25,3.25l2.98-2.98v15.16H45.4v-4.6H33.89z"/>
	<path class="st4" d="M54.6,54.6h4.6v4.6h-4.6V54.6z"/>
	<path class="st4" d="M63.81,54.6h4.6v4.6h-4.6V54.6z"/>
	<path class="st4" d="M54.6,63.81h4.6v4.6h-4.6V63.81z"/>
	<path class="st4" d="M22.38,17.78h4.6v4.6h-4.6V17.78z"/>
	<path class="st4" d="M31.59,17.78h4.6v4.6h-4.6V17.78z"/>
	<path class="st4" d="M22.38,26.99h4.6v4.6h-4.6V26.99z"/>
</g>
</svg>
