<svg width="117" height="113" viewBox="0 0 117 113" fill="none" xmlns="http://www.w3.org/2000/svg">
<g filter="url(#filter0_d)">
<path fill-rule="evenodd" clip-rule="evenodd" d="M7 18C7 9.71573 13.7157 3 22 3H95C103.284 3 110 9.71573 110 18V87C110 95.2843 103.284 102 95 102H22C13.7157 102 7 95.2843 7 87V18Z" fill="#FBFBFB"/>
</g>
<g clip-path="url(#clip0)">
<path d="M69.665 62.5204C69.4842 63.6322 69.1951 64.7079 68.8072 65.7348L72.2897 68.8976C71.8017 69.9273 71.2457 70.9179 70.6034 71.8473L66.1324 70.4024C65.4275 71.2663 64.6379 72.0563 63.7759 72.7627L65.2176 77.2436C64.2903 77.8874 63.3019 78.4433 62.2745 78.9338L59.1186 75.4435C58.0926 75.8322 57.0222 76.1206 55.9114 76.3032L54.9187 80.9137C54.3571 80.9583 53.7926 81.0001 53.2199 81.0001C52.6471 81.0001 52.0827 80.9583 51.5196 80.9137L50.527 76.3032C49.4176 76.122 48.3443 75.8322 47.3197 75.4435L44.1639 78.9338C43.1365 78.4447 42.148 77.8874 41.2208 77.2436L42.6624 72.7627C41.8005 72.0563 41.0122 71.2649 40.3074 70.4024L35.8364 71.8473C35.1941 70.9179 34.6394 69.9273 34.15 68.8976L37.6326 65.7348C37.2447 64.7065 36.9569 63.6336 36.7748 62.5204L32.1731 61.5255C32.1286 60.9612 32.0869 60.3969 32.0869 59.8215C32.0869 59.2461 32.1286 58.6818 32.1731 58.1175L36.7734 57.1226C36.9541 56.0108 37.2433 54.9351 37.6312 53.9082L34.1486 50.7454C34.6366 49.7157 35.1927 48.7251 35.835 47.7957L40.306 49.2406C41.0108 48.3767 41.8005 47.5867 42.6624 46.8803L41.2208 42.3994C42.148 41.7556 43.1365 41.1997 44.1639 40.7092L47.3197 44.1995C48.3457 43.8108 49.4162 43.5224 50.527 43.3398L51.5196 38.7293C52.0813 38.6847 52.6457 38.6429 53.2185 38.6429C53.7913 38.6429 54.3557 38.6847 54.9187 38.7293L55.9114 43.3398C57.0208 43.521 58.094 43.8108 59.1186 44.1995L62.2745 40.7092C63.3019 41.1983 64.2903 41.7556 65.2176 42.3994L63.7759 46.8803C64.6379 47.5867 65.4261 48.3781 66.131 49.242L70.602 47.7971C71.2443 48.7264 71.799 49.7171 72.2883 50.7468L68.8058 53.9096C69.1937 54.9379 69.4814 56.0108 69.6636 57.124L74.2639 58.1189C74.3083 58.6818 74.35 59.2474 74.35 59.8215C74.35 60.3955 74.3083 60.9612 74.2639 61.5255L69.665 62.5204ZM53.2185 48.6749C47.0764 48.6749 42.0966 53.6658 42.0966 59.8215C42.0966 65.9772 47.0764 70.9681 53.2185 70.9681C59.3605 70.9681 64.3404 65.9772 64.3404 59.8215C64.3404 53.6658 59.3619 48.6749 53.2185 48.6749Z" fill="#437FEC"/>
<path d="M85.0942 37.8306C84.9204 38.4075 84.6938 38.9592 84.4143 39.4803L86.1702 42.8536C85.578 43.6046 84.9009 44.2831 84.1516 44.8767L80.7858 43.1169C80.2659 43.3984 79.7153 43.6255 79.1398 43.7982L78.0012 47.432C77.5313 47.4878 77.0586 47.524 76.5748 47.524C76.091 47.524 75.6183 47.4878 75.1498 47.4334L74.0112 43.7996C73.4357 43.6269 72.8851 43.3983 72.3652 43.1183L68.9994 44.8781C68.2501 44.2845 67.573 43.606 66.9808 42.855L68.7367 39.4817C68.4558 38.9606 68.2292 38.4088 68.0568 37.832L64.4311 36.6909C64.3755 36.2199 64.3394 35.7462 64.3394 35.2613C64.3394 34.7764 64.3755 34.3027 64.4297 33.8332L68.0555 32.692C68.2278 32.1152 68.4558 31.5634 68.7353 31.0423L66.9794 27.6691C67.5716 26.9181 68.2487 26.2395 68.998 25.646L72.3638 27.4057C72.8837 27.1243 73.4343 26.8972 74.0098 26.7244L75.1484 23.0906C75.6183 23.0349 76.091 22.9987 76.5748 22.9987C77.0586 22.9987 77.5313 23.0349 77.9998 23.0892L79.1384 26.723C79.714 26.8958 80.2645 27.1243 80.7844 27.4044L84.1502 25.6446C84.8995 26.2381 85.5766 26.9167 86.1688 27.6677L84.413 31.0409C84.6938 31.562 84.9204 32.1138 85.0928 32.6906L88.7185 33.8318C88.7741 34.3027 88.8103 34.7764 88.8103 35.2613C88.8103 35.7462 88.7741 36.2199 88.7199 36.6895L85.0942 37.8306ZM76.5748 30.8027C74.1183 30.8027 72.1261 32.7993 72.1261 35.2613C72.1261 37.7233 74.1183 39.72 76.5748 39.72C79.0314 39.72 81.0236 37.7233 81.0236 35.2613C81.0236 32.7993 79.0327 30.8027 76.5748 30.8027Z" fill="#437FEC"/>
<path d="M55.1178 27.8223L53.5454 29.3981L55.0566 30.9127C54.4449 30.8737 53.8318 30.8388 53.2187 30.8388C44.616 30.8402 36.5165 34.6426 31 41.272L32.7086 42.7002C37.801 36.5793 45.2763 33.0695 53.2201 33.0695C53.7859 33.0695 54.3518 33.1016 54.9162 33.1378L53.5454 34.5116L55.1178 36.0875L59.2412 31.9549L55.1178 27.8223Z" fill="#437FEC"/>
</g>
<defs>
<filter id="filter0_d" x="0" y="0" width="117" height="113" filterUnits="userSpaceOnUse" color-interpolation-filters="sRGB">
<feFlood flood-opacity="0" result="BackgroundImageFix"/>
<feColorMatrix in="SourceAlpha" type="matrix" values="0 0 0 0 0 0 0 0 0 0 0 0 0 0 0 0 0 0 127 0"/>
<feOffset dy="4"/>
<feGaussianBlur stdDeviation="3.5"/>
<feColorMatrix type="matrix" values="0 0 0 0 0.717647 0 0 0 0 0.752941 0 0 0 0 0.921569 0 0 0 1 0"/>
<feBlend mode="normal" in2="BackgroundImageFix" result="effect1_dropShadow"/>
<feBlend mode="normal" in="SourceGraphic" in2="effect1_dropShadow" result="shape"/>
</filter>
<clipPath id="clip0">
<rect width="66" height="58" fill="white" transform="translate(31 23)"/>
</clipPath>
</defs>
</svg>
