<?xml version="1.0" encoding="utf-8"?>
<!-- Generator: Adobe Illustrator 25.0.0, SVG Export Plug-In . SVG Version: 6.00 Build 0)  -->
<svg version="1.1" id="Layer_1" xmlns="http://www.w3.org/2000/svg" xmlns:xlink="http://www.w3.org/1999/xlink" x="0px" y="0px"
	 viewBox="0 0 100 100" style="enable-background:new 0 0 100 100;" xml:space="preserve">
<style type="text/css">
	.st0{fill:#9E9E9E;}
	.st1{fill:#7A7A7A;}
	.st2{fill:none;stroke:#7A7A7A;stroke-width:4;}
	.st3{fill:#9E9E9E;stroke:#FFFFFF;stroke-width:3;}
	.st4{fill:#707070;}
	.st5{fill:#565656;}
</style>
<g>
	<path class="st4" d="M83.33,12.96c-0.21,0-21.24-0.09-31.28-6.78c-1.24-0.83-2.86-0.83-4.11,0c-10.03,6.69-31.07,6.78-31.28,6.78
		c-2.05,0-3.7,1.66-3.7,3.7v40.74c0,0.98,0.39,1.92,1.09,2.62l33.33,33.33c1.45,1.45,3.79,1.45,5.24,0l33.33-33.33
		c0.69-0.69,1.09-1.64,1.09-2.62V16.66C87.04,14.62,85.38,12.96,83.33,12.96z M79.63,55.87L50,85.5L20.37,55.87V20.26
		c6.57-0.32,20.36-1.61,29.63-6.68c9.27,5.07,23.06,6.36,29.63,6.68V55.87z"/>
	<path class="st4" d="M62.52,43.61h-6.26v-6.26c0-3.46-2.8-6.26-6.26-6.26c-3.46,0-6.26,2.8-6.26,6.26v6.26h-6.26v-6.26
		c0-6.92,5.61-12.52,12.52-12.52c6.92,0,12.52,5.61,12.52,12.52L62.52,43.61L62.52,43.61z"/>
	<path class="st0" d="M37.48,40.48h25.05c1.73,0,3.13,1.4,3.13,3.13v15.66c0,1.73-1.4,3.13-3.13,3.13H37.48
		c-1.73,0-3.13-1.4-3.13-3.13V43.61C34.35,41.88,35.75,40.48,37.48,40.48z"/>
	<path class="st5" d="M56.26,49.87c0-3.46-2.8-6.26-6.26-6.27c-3.46,0-6.26,2.8-6.27,6.26c0,2.24,1.19,4.31,3.13,5.43v3.98h6.26
		v-3.98C55.07,54.17,56.26,52.11,56.26,49.87z"/>
</g>
</svg>
