<svg width="117" height="113" viewBox="0 0 117 113" fill="none" xmlns="http://www.w3.org/2000/svg">
<g filter="url(#filter0_d)">
<g filter="url(#filter1_d)">
<path fill-rule="evenodd" clip-rule="evenodd" d="M7 18C7 9.71573 13.7157 3 22 3H95C103.284 3 110 9.71573 110 18V87C110 95.2843 103.284 102 95 102H22C13.7157 102 7 95.2843 7 87V18Z" fill="white"/>
</g>
<g clip-path="url(#clip0)">
<path d="M63.5107 57.6636C60.4521 60.7212 55.4941 60.7212 52.4365 57.6636C49.3779 54.6071 49.3779 49.6501 52.4365 46.5926C55.4951 43.5361 60.4532 43.5361 63.5107 46.5926C66.5693 49.6501 66.5693 54.6071 63.5107 57.6636Z" fill="#437FEC"/>
<path d="M37.0539 66.8785C38.1213 66.8785 39.1232 67.1559 39.9944 67.64C40.0408 67.5789 40.0904 67.5187 40.1473 67.4628L48.9128 58.6994C49.2566 59.1709 49.6395 59.6202 50.0603 60.0399C50.4432 60.4217 50.8482 60.773 51.2732 61.0915L42.5235 69.838C42.4676 69.8939 42.4075 69.9435 42.3463 69.9899C42.8315 70.86 43.1078 71.8619 43.1078 72.9293C43.1078 76.2716 40.3973 78.9811 37.0539 78.9811C33.7105 78.9821 31 76.2737 31 72.9314C31 69.5891 33.7105 66.8785 37.0539 66.8785Z" fill="#437FEC"/>
<path d="M78.8468 37.2039C77.7795 37.2039 76.7775 36.9265 75.9063 36.4424C75.8599 36.5035 75.8104 36.5637 75.7545 36.6196L66.9404 45.4304C66.6209 45.0043 66.2697 44.5983 65.8868 44.2154C65.4671 43.7957 65.0188 43.4128 64.5474 43.07L73.3783 34.2423C73.4342 34.1864 73.4932 34.1368 73.5554 34.0904C73.0713 33.2203 72.794 32.2184 72.794 31.151C72.794 27.8087 75.5045 25.0992 78.8479 25.0992C82.1912 25.0992 84.9018 27.8087 84.9018 31.151C84.9018 34.4933 82.1902 37.2039 78.8468 37.2039Z" fill="#437FEC"/>
<path d="M56.2806 71.5677C56.2405 71.4232 56.2173 71.2723 56.2173 71.1152V63.1808C56.7932 63.2704 57.3796 63.3179 57.9723 63.3179C58.5144 63.3179 59.0502 63.2789 59.5776 63.204V71.1152C59.5776 71.2428 59.5617 71.3673 59.5354 71.4864C59.9815 71.6763 60.4002 71.9537 60.7651 72.3175C62.2944 73.8468 62.2944 76.3243 60.7651 77.8525C59.2358 79.3818 56.7573 79.3818 55.228 77.8525C53.6987 76.3243 53.6987 73.8458 55.228 72.3175C55.5434 72.0022 55.9009 71.7522 56.2806 71.5677Z" fill="#437FEC"/>
<path d="M59.6672 32.5758C59.7073 32.7193 59.7294 32.869 59.7294 33.0251V41.0756C59.1536 40.9849 58.5672 40.9385 57.9723 40.9385C57.4302 40.9385 56.8955 40.9775 56.3681 41.0524V33.0241C56.3681 32.8827 56.3871 32.7477 56.4198 32.617C55.9874 32.4271 55.5813 32.1561 55.228 31.8017C53.6987 30.2735 53.6987 27.7949 55.228 26.2667C56.7573 24.7374 59.2358 24.7374 60.7651 26.2667C62.2944 27.7949 62.2944 30.2735 60.7651 31.8017C60.4371 32.1308 60.0638 32.3881 59.6672 32.5758Z" fill="#437FEC"/>
<path d="M64.582 61.1611C65.0408 60.8236 65.4764 60.4513 65.8867 60.041C66.2801 59.6476 66.6408 59.231 66.9667 58.7923L75.7069 67.5293C75.7554 67.5778 75.7997 67.6284 75.8408 67.6812C76.7268 67.1728 77.753 66.8807 78.8477 66.8807C82.1911 66.8807 84.9016 69.5902 84.9016 72.9325C84.9016 76.2748 82.1911 78.9843 78.8477 78.9843C75.5044 78.9843 72.7938 76.2748 72.7938 72.9325C72.7938 71.8946 73.0554 70.9169 73.5163 70.0637C73.452 70.0162 73.3897 69.9646 73.3307 69.9066L64.582 61.1611Z" fill="#437FEC"/>
<path d="M51.4314 43.0478C50.9484 43.3969 50.4896 43.7872 50.0603 44.2164C49.687 44.5898 49.3431 44.9853 49.0299 45.3998L40.1473 36.5193C40.0904 36.4634 40.0418 36.4033 39.9944 36.3421C39.1243 36.8262 38.1213 37.1036 37.0539 37.1036C33.7105 37.1036 31 34.3941 31 31.0518C31 27.7095 33.7105 25 37.0539 25C40.3973 25 43.1078 27.7095 43.1078 31.0518C43.1078 32.1192 42.8304 33.1211 42.3453 33.9912C42.4064 34.0376 42.4666 34.0872 42.5225 34.1431L51.4314 43.0478Z" fill="#437FEC"/>
<path d="M77.1952 50.3315C77.3196 50.3315 77.4399 50.3462 77.5569 50.3715C77.7436 49.9855 77.9957 49.6227 78.3163 49.3021C79.8456 47.7738 82.3241 47.7738 83.8534 49.3021C85.3827 50.8303 85.3827 53.3088 83.8534 54.8371C82.3241 56.3653 79.8456 56.3653 78.3163 54.8371C77.9661 54.4869 77.6983 54.0872 77.5084 53.6611C77.4072 53.6801 77.3027 53.6917 77.1962 53.6917H69.0582C69.13 53.1781 69.1669 52.656 69.1669 52.1276C69.1669 51.519 69.1184 50.9189 69.0234 50.3304H77.1952V50.3315Z" fill="#437FEC"/>
<path d="M38.7994 53.6928C38.6939 53.6928 38.5927 53.6823 38.4925 53.6633C38.3026 54.0894 38.0337 54.4891 37.6846 54.8382C36.1553 56.3664 33.6768 56.3664 32.1475 54.8382C30.6182 53.31 30.6182 50.8314 32.1475 49.3032C33.6768 47.775 36.1553 47.775 37.6846 49.3032C38.0052 49.6238 38.2573 49.9845 38.4429 50.3705C38.5579 50.3463 38.677 50.3315 38.7994 50.3315H46.9257C46.8319 50.92 46.7823 51.5212 46.7823 52.1287C46.7823 52.6571 46.8192 53.1792 46.8909 53.6928H38.7994Z" fill="#437FEC"/>
</g>
</g>
<defs>
<filter id="filter0_d" x="3" y="3" width="111" height="107" filterUnits="userSpaceOnUse" color-interpolation-filters="sRGB">
<feFlood flood-opacity="0" result="BackgroundImageFix"/>
<feColorMatrix in="SourceAlpha" type="matrix" values="0 0 0 0 0 0 0 0 0 0 0 0 0 0 0 0 0 0 127 0"/>
<feOffset dy="4"/>
<feGaussianBlur stdDeviation="2"/>
<feColorMatrix type="matrix" values="0 0 0 0 0 0 0 0 0 0 0 0 0 0 0 0 0 0 0.25 0"/>
<feBlend mode="normal" in2="BackgroundImageFix" result="effect1_dropShadow"/>
<feBlend mode="normal" in="SourceGraphic" in2="effect1_dropShadow" result="shape"/>
</filter>
<filter id="filter1_d" x="0" y="0" width="117" height="113" filterUnits="userSpaceOnUse" color-interpolation-filters="sRGB">
<feFlood flood-opacity="0" result="BackgroundImageFix"/>
<feColorMatrix in="SourceAlpha" type="matrix" values="0 0 0 0 0 0 0 0 0 0 0 0 0 0 0 0 0 0 127 0"/>
<feOffset dy="4"/>
<feGaussianBlur stdDeviation="3.5"/>
<feColorMatrix type="matrix" values="0 0 0 0 0.717647 0 0 0 0 0.752941 0 0 0 0 0.921569 0 0 0 1 0"/>
<feBlend mode="normal" in2="BackgroundImageFix" result="effect1_dropShadow"/>
<feBlend mode="normal" in="SourceGraphic" in2="effect1_dropShadow" result="shape"/>
</filter>
<clipPath id="clip0">
<rect width="54" height="54" fill="white" transform="matrix(1 0 0 -1 31 79)"/>
</clipPath>
</defs>
</svg>
