<?xml version="1.0" encoding="utf-8"?>
<!-- Generator: Adobe Illustrator 25.0.0, SVG Export Plug-In . SVG Version: 6.00 Build 0)  -->
<svg version="1.1" id="Layer_1" xmlns="http://www.w3.org/2000/svg" xmlns:xlink="http://www.w3.org/1999/xlink" x="0px" y="0px"
	 viewBox="0 0 100 100" style="enable-background:new 0 0 100 100;" xml:space="preserve">
<style type="text/css">
	.st0{fill:#9E9E9E;}
	.st1{fill:#7A7A7A;}
	.st2{fill:none;stroke:#7A7A7A;stroke-width:4;}
	.st3{fill:#9E9E9E;stroke:#FFFFFF;stroke-width:3;}
</style>
<g>
	<ellipse class="st0" cx="50" cy="33.76" rx="17.28" ry="4.71"/>
	<path class="st1" d="M32.72,39.83v-1.36c12.79,4.85,29.23,2.02,34.56,0v1.44c0,2.5-1.55,4.76-3.98,5.35
		c-6.22,1.52-16.27,2.63-26.52,0.03C34.31,44.67,32.72,42.37,32.72,39.83z"/>
	<path class="st1" d="M32.72,47.68v-1.36c12.79,4.85,29.23,2.02,34.56,0v1.44c0,2.5-1.55,4.76-3.98,5.35
		c-6.22,1.52-16.27,2.63-26.52,0.03C34.31,52.52,32.72,50.22,32.72,47.68z"/>
	<path class="st1" d="M32.72,55.54v-1.36c12.79,4.85,29.23,2.02,34.56,0v1.44c0,2.5-1.55,4.76-3.98,5.35
		C57.08,62.49,47.04,63.6,36.78,61C34.31,60.38,32.72,58.08,32.72,55.54z"/>
	<rect x="48.95" y="62.56" class="st1" width="2.09" height="7.85"/>
	<circle class="st1" cx="42.15" cy="68.84" r="2.62"/>
	<circle class="st1" cx="57.85" cy="68.84" r="2.62"/>
	<rect x="43.19" y="67.27" class="st1" width="13.61" height="3.14"/>
	<circle class="st2" cx="50.4" cy="49.6" r="40.92"/>
	<path class="st3" d="M56.85,8.67c0,3.34-2.71,6.05-6.05,6.05c-3.34,0-6.05-2.71-6.05-6.05c0-3.34,2.71-6.05,6.05-6.05
		C54.14,2.62,56.85,5.32,56.85,8.67z"/>
	<path class="st3" d="M56.85,91.33c0,3.34-2.71,6.05-6.05,6.05c-3.34,0-6.05-2.71-6.05-6.05c0-3.34,2.71-6.05,6.05-6.05
		C54.14,85.28,56.85,87.99,56.85,91.33z"/>
	<path class="st3" d="M13.92,49.21c0,3.34-2.71,6.05-6.05,6.05c-3.34,0-6.05-2.71-6.05-6.05c0-3.34,2.71-6.05,6.05-6.05
		C11.21,43.15,13.92,45.86,13.92,49.21z"/>
	<path class="st3" d="M98.18,49.21c0,3.34-2.71,6.05-6.05,6.05s-6.05-2.71-6.05-6.05s2.71-6.05,6.05-6.05S98.18,45.86,98.18,49.21z"
		/>
</g>
</svg>
