<?xml version="1.0" encoding="utf-8"?>
<!-- Generator: Adobe Illustrator 25.0.0, SVG Export Plug-In . SVG Version: 6.00 Build 0)  -->
<svg version="1.1" id="Layer_1" xmlns="http://www.w3.org/2000/svg" xmlns:xlink="http://www.w3.org/1999/xlink" x="0px" y="0px"
	 viewBox="0 0 100 100" style="enable-background:new 0 0 100 100;" xml:space="preserve">
<style type="text/css">
	.st0{clip-path:url(#SVGID_2_);}
	.st1{fill:#00C3FF;}
	.st2{fill:#2C79E6;}
	.st3{fill:#00C0F1;}
	.st4{fill:#FFFFFF;}
	.st5{fill:none;stroke:#2C79E6;stroke-width:4;}
	.st6{fill:#00C3FF;stroke:#FFFFFF;stroke-width:3;}
	.st7{fill:#9E9E9E;}
	.st8{fill:#565656;}
	.st9{fill:#888888;}
</style>
<g>
	<path class="st7" d="M24.67,26.55h17.59v17.59H24.67v11.73h17.59v17.59H24.67v11.73h23.45c3.24,0,5.86-2.62,5.86-5.86V55.87h17.59
		V44.14H53.99V26.55H53.9v-4.17c0-4.17-3.38-7.56-7.56-7.56H24.67V26.55z"/>
	<path class="st8" d="M18.81,20.68c0-3.24-2.62-5.86-5.86-5.86c-3.24,0-5.86,2.62-5.86,5.86c0,3.24,2.62,5.86,5.86,5.86
		C16.18,26.54,18.81,23.92,18.81,20.68z"/>
	<path class="st9" d="M18.81,50c0-3.24-2.62-5.86-5.86-5.86c-3.24,0-5.86,2.62-5.86,5.86s2.62,5.86,5.86,5.86
		C16.18,55.86,18.81,53.24,18.81,50z"/>
	<path class="st8" d="M18.81,79.32c0-3.24-2.62-5.86-5.86-5.86c-3.24,0-5.86,2.62-5.86,5.86c0,3.24,2.62,5.86,5.86,5.86
		C16.18,85.18,18.81,82.56,18.81,79.32z"/>
	
		<rect x="78.33" y="43.78" transform="matrix(0.7071 -0.7071 0.7071 0.7071 -10.5181 74.2539)" class="st9" width="12.08" height="12.08"/>
</g>
</svg>
