<?xml version="1.0" encoding="utf-8"?>
<!-- Generator: Adobe Illustrator 25.0.0, SVG Export Plug-In . SVG Version: 6.00 Build 0)  -->
<svg version="1.1" id="Layer_1" xmlns="http://www.w3.org/2000/svg" xmlns:xlink="http://www.w3.org/1999/xlink" x="0px" y="0px"
	 viewBox="0 0 90 90" style="enable-background:new 0 0 90 90;" xml:space="preserve">
<style type="text/css">
	.st0{clip-path:url(#SVGID_2_);}
	.st1{fill:#0160E7;}
	.st2{fill:#00C3FF;}
	.st3{fill:#FFFFFF;}
	.st4{fill:#4592EC;}
	.st5{clip-path:url(#SVGID_4_);}
	.st6{fill:#565656;}
	.st7{fill:#9E9E9E;}
	.st8{fill:#888888;}
	.st9{fill:#EBEBEB;}
	.st10{fill:#CCF2FE;}
</style>
<g>
	<path class="st7" d="M74.91,88.91H29.58L11.35,70.61V15.73c0-2.02,1.67-3.66,3.74-3.66h59.82c2.07,0,3.74,1.64,3.74,3.66v69.52
		C78.65,87.27,76.97,88.91,74.91,88.91z"/>
	<path class="st8" d="M18.83,15.73c0-2.02,1.67-3.66,3.74-3.66h-7.48c-2.06,0-3.74,1.64-3.74,3.66v54.88l7.48,7.51V15.73z"/>
	<path class="st6" d="M52.48,1.09H37.52c-4.13,0-7.48,3.28-7.48,7.32v7.32c0,2.02,1.67,3.66,3.74,3.66h22.43
		c2.06,0,3.74-1.64,3.74-3.66V8.41C59.95,4.37,56.61,1.09,52.48,1.09z"/>
	<path class="st3" d="M26.31,34.02c2.06,0,3.74-1.64,3.74-3.66c0-2.02-1.67-3.66-3.74-3.66c-2.06,0-3.74,1.64-3.74,3.66
		C22.57,32.39,24.24,34.02,26.31,34.02z"/>
	<path class="st3" d="M37.52,26.71h29.91v7.32H37.52V26.71z"/>
	<path class="st3" d="M26.31,48.66c2.06,0,3.74-1.64,3.74-3.66s-1.67-3.66-3.74-3.66c-2.06,0-3.74,1.64-3.74,3.66
		S24.24,48.66,26.31,48.66z"/>
	<path class="st3" d="M37.52,41.34h29.91v7.32H37.52V41.34z"/>
	<path class="st3" d="M26.31,63.29c2.06,0,3.74-1.64,3.74-3.66c0-2.02-1.67-3.66-3.74-3.66c-2.06,0-3.74,1.64-3.74,3.66
		C22.57,61.66,24.24,63.29,26.31,63.29z"/>
	<path class="st3" d="M37.52,55.98h29.91v7.32H37.52V55.98z"/>
	<path class="st3" d="M48.74,70.61h18.69v7.32H48.74V70.61z"/>
	<path class="st8" d="M11.35,70.61h14.95c2.06,0,3.74,1.64,3.74,3.66v14.64L11.35,70.61z"/>
	<path class="st9" d="M45,15.73c2.06,0,3.74-1.64,3.74-3.66S47.06,8.41,45,8.41c-2.06,0-3.74,1.64-3.74,3.66S42.94,15.73,45,15.73z"
		/>
</g>
</svg>
