<?xml version="1.0" encoding="utf-8"?>
<!-- Generator: Adobe Illustrator 25.0.0, SVG Export Plug-In . SVG Version: 6.00 Build 0)  -->
<svg version="1.1" id="Layer_1" xmlns="http://www.w3.org/2000/svg" xmlns:xlink="http://www.w3.org/1999/xlink" x="0px" y="0px"
	 viewBox="0 0 90 90" style="enable-background:new 0 0 90 90;" xml:space="preserve">
<style type="text/css">
	.st0{clip-path:url(#SVGID_2_);}
	.st1{fill:#0160E7;}
	.st2{fill:#00C3FF;}
	.st3{fill:#FFFFFF;}
	.st4{fill:#4592EC;}
	.st5{clip-path:url(#SVGID_4_);}
	.st6{fill:#565656;}
	.st7{fill:#9E9E9E;}
	.st8{fill:#888888;}
	.st9{fill:#EBEBEB;}
	.st10{fill:#CCF2FE;}
	.st11{clip-path:url(#SVGID_6_);}
	.st12{fill:#C3C3C3;}
	.st13{fill:#67D9FB;}
</style>
<g>
	<defs>
		<rect id="SVGID_5_" x="5.77" y="1.95" width="78.45" height="86.11"/>
	</defs>
	<clipPath id="SVGID_2_">
		<use xlink:href="#SVGID_5_"  style="overflow:visible;"/>
	</clipPath>
	<g class="st0">
		<path class="st7" d="M9.34,1.95H66.4c1.97,0,3.57,1.61,3.57,3.59v71.76c0,1.98-1.6,3.59-3.57,3.59H9.34
			c-1.97,0-3.57-1.61-3.57-3.59V5.53C5.77,3.55,7.37,1.95,9.34,1.95z"/>
		<path class="st8" d="M20.04,70.11c-1.97,0-3.57-1.61-3.57-3.59V1.95H9.34c-1.97,0-3.57,1.61-3.57,3.59v71.76
			c0,1.98,1.6,3.59,3.57,3.59H66.4c1.97,0,3.57-1.61,3.57-3.59v-7.18H20.04z"/>
		<path class="st6" d="M52.13,34.24v-7.18h-4.02c-0.33-1.3-0.85-2.54-1.53-3.7l2.85-2.86l-5.04-5.07l-2.85,2.86
			c-1.15-0.68-2.38-1.2-3.67-1.54v-4.04h-7.13v4.04c-1.29,0.34-2.53,0.85-3.67,1.54l-2.85-2.86l-5.04,5.07l2.85,2.86
			c-0.68,1.15-1.2,2.4-1.53,3.7h-4.02v7.18h4.02c0.33,1.3,0.85,2.54,1.53,3.7l-2.85,2.86l5.04,5.07l2.85-2.86
			c1.15,0.68,2.38,1.2,3.67,1.54v4.04h7.13v-4.04c1.29-0.34,2.53-0.85,3.67-1.54l2.85,2.86l5.04-5.07l-2.85-2.86
			c0.68-1.15,1.2-2.4,1.53-3.7H52.13z M34.3,37.82c-3.94,0-7.13-3.21-7.13-7.18c0-3.96,3.19-7.17,7.13-7.17
			c3.94,0,7.13,3.21,7.13,7.18C41.43,34.61,38.24,37.82,34.3,37.82z"/>
		<path class="st6" d="M16.47,52.18h14.26v7.18H16.47V52.18z"/>
		<path class="st6" d="M16.47,62.94h21.4v7.18h-21.4V62.94z"/>
		<path class="st6" d="M80.66,66.53h-7.13v-7.18c0-3.96-3.19-7.18-7.13-7.18c-3.94,0-7.13,3.21-7.13,7.18v7.18h-7.13v-7.18
			c0-7.93,6.39-14.35,14.26-14.35c7.88,0,14.27,6.43,14.27,14.35V66.53z"/>
		<path class="st12" d="M52.13,62.94h28.53c1.97,0,3.57,1.61,3.57,3.59v17.94c0,1.98-1.6,3.59-3.57,3.59H52.13
			c-1.97,0-3.57-1.61-3.57-3.59V66.53C48.57,64.55,50.16,62.94,52.13,62.94z"/>
		<path class="st3" d="M73.53,73.7c0-3.96-3.19-7.18-7.13-7.18c-3.94,0-7.13,3.21-7.14,7.17c0,2.57,1.36,4.94,3.57,6.22v4.56h7.13
			v-4.56C72.17,78.63,73.53,76.26,73.53,73.7z"/>
	</g>
</g>
</svg>
