<?xml version="1.0" encoding="utf-8"?>
<!-- Generator: Adobe Illustrator 25.0.0, SVG Export Plug-In . SVG Version: 6.00 Build 0)  -->
<svg version="1.1" id="Layer_1" xmlns="http://www.w3.org/2000/svg" xmlns:xlink="http://www.w3.org/1999/xlink" x="0px" y="0px"
	 viewBox="0 0 90 90" style="enable-background:new 0 0 90 90;" xml:space="preserve">
<style type="text/css">
	.st0{clip-path:url(#SVGID_2_);}
	.st1{fill:#0160E7;}
	.st2{fill:#00C3FF;}
	.st3{fill:#FFFFFF;}
	.st4{fill:#4592EC;}
	.st5{clip-path:url(#SVGID_4_);}
	.st6{fill:#565656;}
	.st7{fill:#9E9E9E;}
	.st8{fill:#888888;}
	.st9{fill:#EBEBEB;}
	.st10{fill:#CCF2FE;}
</style>
<g>
	<path class="st7" d="M51.12,13.25c-0.53-1.41-1.89-2.35-3.41-2.35H20.45c-1.51,0-2.87,0.94-3.41,2.35
		c-3.53,9.37,1.22,19.82,10.63,23.34c9.41,3.52,19.9-1.22,23.44-10.59C52.67,21.89,52.67,17.36,51.12,13.25z"/>
	<path class="st8" d="M41.36,35.49c-10.05,0-18.2-8.12-18.2-18.13c0-2.18,0.39-4.34,1.16-6.37c0.01-0.03,0.03-0.05,0.04-0.08h-3.91
		c-1.51,0-2.87,0.94-3.41,2.35c-3.54,9.36,1.21,19.81,10.6,23.34c5.04,1.89,10.67,1.46,15.36-1.18
		C42.47,35.46,41.92,35.49,41.36,35.49z"/>
	<path class="st7" d="M45,37.75H23.16c-8.04,0.01-14.55,6.5-14.56,14.5v32.62c0,2,1.63,3.62,3.64,3.62h43.67
		c2.01,0,3.64-1.62,3.64-3.62V52.25C59.55,44.25,53.04,37.76,45,37.75z"/>
	<path class="st6" d="M50.07,10.76c-3-5.97-8.68-9.25-15.99-9.25c-6.56,0-10.1,2.35-12.94,4.23c-2.54,1.69-4.54,3.02-8.9,3.02
		c-2.01,0-3.64,1.62-3.64,3.62c0,0.28,0.03,0.56,0.1,0.83c0.87,3.78,3.29,7.03,6.67,8.96c4.32,2.59,10.06,3.41,15.62,3.41
		c8.81,0,17.15-2.07,18.58-2.45c1.6-0.42,2.72-1.86,2.72-3.5C52.19,16.55,51.44,13.52,50.07,10.76z"/>
	<path class="st6" d="M59.56,88.5c12.06,0,21.84-9.74,21.84-21.75S71.62,45,59.56,45s-21.84,9.74-21.84,21.75S47.5,88.5,59.56,88.5z
		"/>
	<path class="st3" d="M59.56,74c-0.56,0-1.12-0.13-1.63-0.38l-7.28-3.62l3.26-6.48l4.4,2.19l5.5-8.21l6.06,4.02l-7.28,10.87
		C61.91,73.39,60.77,74,59.56,74z"/>
</g>
</svg>
