<?xml version="1.0" encoding="utf-8"?>
<!-- Generator: Adobe Illustrator 25.0.0, SVG Export Plug-In . SVG Version: 6.00 Build 0)  -->
<svg version="1.1" id="Layer_1" xmlns="http://www.w3.org/2000/svg" xmlns:xlink="http://www.w3.org/1999/xlink" x="0px" y="0px"
	 viewBox="0 0 90 90" style="enable-background:new 0 0 90 90;" xml:space="preserve">
<style type="text/css">
	.st0{clip-path:url(#SVGID_2_);}
	.st1{fill:#0160E7;}
	.st2{fill:#00C3FF;}
	.st3{fill:#FFFFFF;}
	.st4{fill:#4592EC;}
	.st5{clip-path:url(#SVGID_4_);}
	.st6{fill:#565656;}
	.st7{fill:#9E9E9E;}
	.st8{fill:#888888;}
	.st9{fill:#EBEBEB;}
	.st10{fill:#CCF2FE;}
</style>
<g>
	<path class="st2" d="M51.14,13.11c-0.54-1.42-1.9-2.36-3.42-2.36H20.34c-1.52,0-2.89,0.94-3.42,2.36
		c-3.55,9.41,1.23,19.91,10.68,23.45c9.45,3.54,19.99-1.23,23.54-10.64C52.7,21.79,52.7,17.24,51.14,13.11z"/>
	<path class="st4" d="M41.34,35.44c-10.1,0-18.28-8.15-18.28-18.21c0-2.19,0.4-4.36,1.17-6.4c0.01-0.03,0.03-0.05,0.04-0.08h-3.93
		c-1.52,0-2.89,0.94-3.42,2.36c-3.56,9.4,1.21,19.9,10.65,23.44c5.07,1.9,10.72,1.47,15.43-1.19C42.46,35.41,41.9,35.44,41.34,35.44
		z"/>
	<path class="st2" d="M45,37.72H23.06c-8.07,0.01-14.61,6.52-14.62,14.57v32.77c0,2.01,1.64,3.64,3.66,3.64h43.87
		c2.02,0,3.66-1.63,3.66-3.64V52.28C59.61,44.24,53.07,37.73,45,37.72z"/>
	<path class="st1" d="M50.1,10.6c-3.01-5.99-8.71-9.29-16.07-9.29c-6.59,0-10.14,2.36-12.99,4.25c-2.55,1.69-4.56,3.03-8.94,3.03
		c-2.02,0-3.66,1.63-3.66,3.64c0,0.28,0.03,0.56,0.1,0.84c0.87,3.8,3.3,7.06,6.7,9c4.34,2.6,10.11,3.43,15.69,3.43
		c8.85,0,17.23-2.08,18.66-2.46c1.61-0.42,2.73-1.87,2.73-3.52C52.22,16.42,51.47,13.38,50.1,10.6z"/>
	<path class="st1" d="M59.62,88.69c12.11,0,21.93-9.78,21.93-21.85S71.74,45,59.62,45s-21.93,9.78-21.93,21.85
		S47.51,88.69,59.62,88.69z"/>
	<path class="st3" d="M59.62,74.13c-0.57,0-1.13-0.13-1.63-0.39l-7.31-3.64l3.27-6.51l4.42,2.2l5.52-8.25l6.08,4.04l-7.31,10.92
		C61.99,73.52,60.85,74.13,59.62,74.13z"/>
</g>
</svg>
