<?xml version="1.0" encoding="utf-8"?>
<!-- Generator: Adobe Illustrator 25.0.0, SVG Export Plug-In . SVG Version: 6.00 Build 0)  -->
<svg version="1.1" id="Layer_1" xmlns="http://www.w3.org/2000/svg" xmlns:xlink="http://www.w3.org/1999/xlink" x="0px" y="0px"
	 viewBox="0 0 90 90" style="enable-background:new 0 0 90 90;" xml:space="preserve">
<style type="text/css">
	.st0{clip-path:url(#SVGID_2_);}
	.st1{fill:#0160E7;}
	.st2{fill:#00C3FF;}
	.st3{fill:#FFFFFF;}
	.st4{fill:#4592EC;}
</style>
<g>
	<defs>
		<rect id="SVGID_1_" x="4" y="4" width="82" height="82"/>
	</defs>
	<clipPath id="SVGID_2_">
		<use xlink:href="#SVGID_1_"  style="overflow:visible;"/>
	</clipPath>
	<g class="st0">
		<path class="st1" d="M86,17.67h-6.83v-6.83h-6.83V4h10.25C84.47,4,86,5.53,86,7.42V17.67z"/>
		<path class="st1" d="M10.83,18.09H4V7.42C4,5.53,5.53,4,7.42,4h10.25v6.83h-6.83V18.09z"/>
		<path class="st1" d="M82.58,86H72.33v-6.83h6.83v-6.83H86v10.25C86,84.47,84.47,86,82.58,86z"/>
		<path class="st1" d="M17.67,86H7.42C5.53,86,4,84.47,4,82.58V71.91h6.83v7.26h6.83L17.67,86L17.67,86z"/>
		<path class="st2" d="M44.63,10.84c-13.12,0.2-23.55,11.15-23.55,24.28V86h47.83V34.75C68.9,21.53,58.17,10.82,44.95,10.83
			C44.84,10.83,44.74,10.84,44.63,10.84z"/>
		<path class="st3" d="M45,21.08c-7.54,0.01-13.66,6.12-13.67,13.67v17.08c0,1.89,1.53,3.42,3.42,3.42h20.5
			c1.89,0,3.42-1.53,3.42-3.42V34.75C58.66,27.2,52.55,21.09,45,21.08z"/>
		<path class="st4" d="M38.17,62.08h13.67v3.42H38.17V62.08z"/>
		<path class="st4" d="M34.75,72.33h20.5v3.42h-20.5V72.33z"/>
	</g>
</g>
</svg>
