<svg width="117" height="113" viewBox="0 0 117 113" fill="none" xmlns="http://www.w3.org/2000/svg">
<g filter="url(#filter0_d)">
<path fill-rule="evenodd" clip-rule="evenodd" d="M7 18C7 9.71573 13.7157 3 22 3H95C103.284 3 110 9.71573 110 18V87C110 95.2843 103.284 102 95 102H22C13.7157 102 7 95.2843 7 87V18Z" fill="url(#paint0_linear)"/>
</g>
<g clip-path="url(#clip0)">
<path d="M47.3621 37.9097H49.6852C50.4808 36.2251 50.3535 36.4158 51.4355 34.869L50.258 32.8666C50.0989 32.5487 50.0353 32.1673 50.1307 31.8177C50.2262 31.468 50.449 31.1502 50.7672 30.9595L53.8752 29.1901C54.5435 28.8087 55.3709 29.0312 55.7846 29.6987L56.9303 31.7011C57.8531 31.6058 58.2668 31.5422 58.6805 31.574C59.0942 31.574 59.5398 31.6058 60.4308 31.7011L61.5658 29.6881C61.9795 29.0206 62.8069 28.7981 63.4752 29.1795L66.5833 30.9595C66.9015 31.1502 67.1242 31.468 67.2197 31.8177C67.3152 32.1673 67.2515 32.5487 67.0924 32.8666L65.915 34.869C66.9651 36.4158 66.8697 36.2251 67.6652 37.9097H69.9777C70.7415 37.9097 71.3779 38.5136 71.3779 39.3083V42.8575C71.3779 43.6204 70.7415 44.2243 69.9777 44.2243H67.6652C66.8697 45.8771 66.997 45.7076 65.915 47.265L67.0924 49.2674C67.2515 49.5853 67.3152 49.9667 67.2197 50.3163C67.1242 50.6977 66.9015 50.9838 66.5833 51.1745L63.4646 52.9439C63.1464 53.1346 62.7645 53.1663 62.4144 53.071C62.0644 52.9756 61.7462 52.7531 61.5552 52.4353L60.4096 50.4647C59.5185 50.5282 59.073 50.5918 58.6593 50.5918C58.2456 50.5918 57.8319 50.56 56.909 50.4647L55.7634 52.4353C55.3815 53.1028 54.5223 53.3253 53.854 52.9439L50.7778 51.1639C50.4278 50.9732 50.205 50.6871 50.1095 50.3057C50.0141 49.9561 50.0777 49.5747 50.2368 49.2568L51.4355 47.265C50.3853 45.7393 50.4808 45.9089 49.6852 44.2243H47.3621C46.5984 44.2243 45.9619 43.6204 45.9619 42.8575V39.3083C45.9725 38.5136 46.609 37.9097 47.3621 37.9097ZM58.6699 45.8347C61.3112 45.8347 63.4328 43.6733 63.4328 41.0776C63.4328 38.4501 61.3006 36.3205 58.6699 36.3205C56.0392 36.3205 53.9071 38.4501 53.9071 41.0776C53.9071 43.6839 56.0392 45.8347 58.6699 45.8347Z" fill="#437FEC"/>
</g>
<g clip-path="url(#clip1)">
<path d="M33.3895 60.7746H35.7126C36.5081 59.09 36.3808 59.2807 37.4628 57.7339L36.2854 55.7314C36.1263 55.4136 36.0626 55.0322 36.1581 54.6825C36.2535 54.3329 36.4763 54.0151 36.7945 53.8244L39.9026 52.055C40.5709 51.6736 41.3983 51.8961 41.812 52.5636L42.9576 54.566C43.8805 54.4706 44.2942 54.4071 44.7079 54.4389C45.1216 54.4389 45.5671 54.4706 46.4581 54.566L47.5932 52.553C48.0069 51.8855 48.8343 51.663 49.5025 52.0444L52.6106 53.8244C52.9288 54.0151 53.1516 54.3329 53.2471 54.6825C53.3425 55.0322 53.2789 55.4136 53.1198 55.7314L51.9423 57.7339C52.9925 59.2807 52.897 59.09 53.6926 60.7746H56.0051C56.7688 60.7746 57.4053 61.3785 57.4053 62.1731V65.7224C57.4053 66.4852 56.7688 67.0891 56.0051 67.0891H53.6926C52.897 68.7419 53.0243 68.5724 51.9423 70.1299L53.1198 72.1323C53.2789 72.4501 53.3425 72.8316 53.2471 73.1812C53.1516 73.5626 52.9288 73.8487 52.6106 74.0394L49.4919 75.8087C49.1737 75.9994 48.7918 76.0312 48.4418 75.9359C48.0917 75.8405 47.7735 75.618 47.5826 75.3002L46.4369 73.3295C45.5459 73.3931 45.1004 73.4567 44.6867 73.4567C44.273 73.4567 43.8593 73.4249 42.9364 73.3295L41.7908 75.3002C41.4089 75.9676 40.5497 76.1901 39.8814 75.8087L36.8051 74.0288C36.4551 73.8381 36.2323 73.552 36.1369 73.1706C36.0414 72.821 36.105 72.4396 36.2642 72.1217L37.4628 70.1299C36.4127 68.6042 36.5081 68.7737 35.7126 67.0891H33.3895C32.6257 67.0891 31.9893 66.4852 31.9893 65.7224V62.1731C31.9999 61.3785 32.6363 60.7746 33.3895 60.7746ZM44.6973 68.6996C47.3386 68.6996 49.4601 66.5382 49.4601 63.9425C49.4601 61.3149 47.328 59.1854 44.6973 59.1854C42.0666 59.1854 39.9344 61.3149 39.9344 63.9425C39.9344 66.5488 42.0666 68.6996 44.6973 68.6996Z" fill="#437FEC"/>
</g>
<g clip-path="url(#clip2)">
<path d="M61.3358 60.7746H63.6588C64.4544 59.09 64.3271 59.2807 65.4091 57.7339L64.2317 55.7314C64.0725 55.4136 64.0089 55.0322 64.1044 54.6825C64.1998 54.3329 64.4226 54.0151 64.7408 53.8244L67.8489 52.055C68.5172 51.6736 69.3446 51.8961 69.7583 52.5636L70.9039 54.566C71.8268 54.4706 72.2405 54.4071 72.6542 54.4389C73.0679 54.4389 73.5134 54.4706 74.4044 54.566L75.5395 52.553C75.9532 51.8855 76.7806 51.663 77.4488 52.0444L80.5569 53.8244C80.8751 54.0151 81.0979 54.3329 81.1933 54.6825C81.2888 55.0322 81.2252 55.4136 81.0661 55.7314L79.8886 57.7339C80.9388 59.2807 80.8433 59.09 81.6389 60.7746H83.9513C84.7151 60.7746 85.3516 61.3785 85.3516 62.1731V65.7224C85.3516 66.4852 84.7151 67.0891 83.9513 67.0891H81.6389C80.8433 68.7419 80.9706 68.5724 79.8886 70.1299L81.0661 72.1323C81.2252 72.4501 81.2888 72.8316 81.1933 73.1812C81.0979 73.5626 80.8751 73.8487 80.5569 74.0394L77.4382 75.8087C77.12 75.9994 76.7381 76.0312 76.3881 75.9359C76.038 75.8405 75.7198 75.618 75.5288 75.3002L74.3832 73.3295C73.4922 73.3931 73.0466 73.4567 72.6329 73.4567C72.2192 73.4567 71.8055 73.4249 70.8827 73.3295L69.7371 75.3002C69.3552 75.9676 68.496 76.1901 67.8277 75.8087L64.7514 74.0288C64.4014 73.8381 64.1786 73.552 64.0832 73.1706C63.9877 72.821 64.0513 72.4396 64.2104 72.1217L65.4091 70.1299C64.359 68.6042 64.4544 68.7737 63.6588 67.0891H61.3358C60.572 67.0891 59.9355 66.4852 59.9355 65.7224V62.1731C59.9462 61.3785 60.5826 60.7746 61.3358 60.7746ZM72.6436 68.6996C75.2849 68.6996 77.4064 66.5382 77.4064 63.9425C77.4064 61.3149 75.2743 59.1854 72.6436 59.1854C70.0128 59.1854 67.8807 61.3149 67.8807 63.9425C67.8807 66.5488 70.0128 68.6996 72.6436 68.6996Z" fill="#437FEC"/>
</g>
<defs>
<filter id="filter0_d" x="0" y="0" width="117" height="113" filterUnits="userSpaceOnUse" color-interpolation-filters="sRGB">
<feFlood flood-opacity="0" result="BackgroundImageFix"/>
<feColorMatrix in="SourceAlpha" type="matrix" values="0 0 0 0 0 0 0 0 0 0 0 0 0 0 0 0 0 0 127 0"/>
<feOffset dy="4"/>
<feGaussianBlur stdDeviation="3.5"/>
<feColorMatrix type="matrix" values="0 0 0 0 0.717647 0 0 0 0 0.752941 0 0 0 0 0.921569 0 0 0 1 0"/>
<feBlend mode="normal" in2="BackgroundImageFix" result="effect1_dropShadow"/>
<feBlend mode="normal" in="SourceGraphic" in2="effect1_dropShadow" result="shape"/>
</filter>
<linearGradient id="paint0_linear" x1="17" y1="20" x2="127" y2="114" gradientUnits="userSpaceOnUse">
<stop stop-color="white"/>
</linearGradient>
<clipPath id="clip0">
<rect width="25.4054" height="24.1351" fill="white" transform="matrix(-1 0 0 1 71.3779 29)"/>
</clipPath>
<clipPath id="clip1">
<rect width="25.4054" height="24.1351" fill="white" transform="matrix(-1 0 0 1 57.4053 51.8649)"/>
</clipPath>
<clipPath id="clip2">
<rect width="25.4054" height="24.1351" fill="white" transform="matrix(-1 0 0 1 85.3516 51.8649)"/>
</clipPath>
</defs>
</svg>
