<svg width="117" height="113" viewBox="0 0 117 113" fill="none" xmlns="http://www.w3.org/2000/svg">
<g filter="url(#filter0_d)">
<path fill-rule="evenodd" clip-rule="evenodd" d="M7 18C7 9.71573 13.7157 3 22 3H95C103.284 3 110 9.71573 110 18V87C110 95.2843 103.284 102 95 102H22C13.7157 102 7 95.2843 7 87V18Z" fill="url(#paint0_linear)"/>
</g>
<g clip-path="url(#clip0)">
<path d="M57.9946 51.7715C58.9441 51.7715 59.7138 50.9976 59.7138 50.043C59.7138 49.0883 58.9441 48.3145 57.9946 48.3145C57.0451 48.3145 56.2754 49.0883 56.2754 50.043C56.2754 50.9976 57.0451 51.7715 57.9946 51.7715Z" fill="#437FEC"/>
<path d="M81.4216 61.1055C81.0778 60.9096 80.7225 60.7598 80.3443 60.6445V46.3439C80.711 46.2287 81.0778 46.0904 81.4216 45.8945C83.8858 44.4656 84.734 41.2852 83.3127 38.8076C81.8915 36.3301 78.7282 35.4773 76.264 36.9062C75.989 37.0676 75.7368 37.2635 75.4961 37.4594L63.0606 30.1305C63.1179 29.8193 63.1523 29.5082 63.1523 29.1855C63.1523 26.3277 60.8371 24 57.9947 24C55.1523 24 52.8371 26.3277 52.8371 29.1855C52.8371 29.5082 52.8715 29.8193 52.9288 30.1305L40.5047 37.4594C40.264 37.252 40.0234 37.0676 39.7368 36.9062C37.2726 35.4773 34.1093 36.3301 32.6881 38.8076C31.2669 41.2852 32.115 44.4656 34.5792 45.8945C34.9231 46.0904 35.2898 46.2287 35.6566 46.3439V60.6445C35.2898 60.7598 34.9231 60.898 34.5792 61.1055C32.115 62.5344 31.2669 65.7148 32.6881 68.1924C34.1208 70.6814 37.2841 71.5111 39.7368 70.0938C40.0119 69.9324 40.264 69.7365 40.5047 69.5406L52.9403 76.8811C52.8829 77.1922 52.8486 77.5033 52.8486 77.826C52.8486 80.6838 55.1638 83.0115 58.0062 83.0115C60.8486 83.0115 63.1638 80.6838 63.1638 77.826C63.1638 77.5494 63.1294 77.2844 63.0835 77.0193L75.9431 69.8633C78.5448 71.6609 81.8801 70.7045 83.3127 68.2039C84.734 65.7148 83.8858 62.5344 81.4216 61.1055ZM59.7139 68.8838C60.8944 68.734 62.052 68.492 63.1523 68.1002V63.8711C63.1523 61.0133 60.8371 58.6855 57.9947 58.6855C55.1523 58.6855 52.8371 61.0133 52.8371 63.8711V68.1002C53.9374 68.492 55.095 68.734 56.2755 68.8838V72.94C55.6795 73.159 55.1408 73.4701 54.6709 73.8734L42.201 66.533C42.3156 65.9223 42.3156 65.2885 42.201 64.6662L45.5592 62.7188C46.6251 64.1592 47.9202 65.4268 49.3987 66.4293V63.8711C49.3987 59.1004 53.2497 55.2285 57.9947 55.2285C55.1523 55.2285 52.8371 52.9008 52.8371 50.043C52.8371 47.1852 55.1523 44.8574 57.9947 44.8574C60.8371 44.8574 63.1523 47.1852 63.1523 50.043C63.1523 52.9008 60.8371 55.2285 57.9947 55.2285C62.7397 55.2285 66.5907 59.1004 66.5907 63.8711V66.4178C68.0807 65.4152 69.3758 64.1592 70.4302 62.7072L73.7884 64.6547C73.6394 65.4498 73.6738 66.2564 73.8915 67.0285L61.4216 73.9656C60.9288 73.5162 60.3443 73.1705 59.7139 72.94V68.8838ZM39.0835 60.8865V46.1135C39.5878 45.9061 40.0577 45.6641 40.4589 45.3184L43.8285 47.2773C42.9918 49.1902 42.5219 51.2875 42.5219 53.5C42.5219 55.7125 43.0033 57.8098 43.84 59.7227L40.4589 61.6816C40.0577 61.3359 39.5878 61.0939 39.0835 60.8865ZM76.9059 46.1135V60.8865C76.4016 61.0939 75.9317 61.3359 75.5305 61.6816L72.1494 59.7227C72.9861 57.8098 73.4675 55.7125 73.4675 53.5C73.4675 51.2875 72.9861 49.1902 72.1609 47.2773L75.5305 45.3184C75.9431 45.6641 76.413 45.9061 76.9059 46.1135ZM73.7884 42.3338L70.4073 44.2928C67.9087 40.9049 64.0921 38.6117 59.7139 38.1162V34.0484C60.3099 33.8295 60.8486 33.5184 61.3185 33.1035L73.7884 40.4555C73.6852 41.0777 73.6738 41.7115 73.7884 42.3338ZM56.2755 38.1162C51.8973 38.6117 48.0807 40.9049 45.5821 44.2928L42.201 42.3338C42.3156 41.7115 42.3042 41.0777 42.201 40.467L54.6709 33.115C55.1408 33.5184 55.6795 33.841 56.2755 34.06V38.1162Z" fill="#437FEC"/>
</g>
<defs>
<filter id="filter0_d" x="0" y="0" width="117" height="113" filterUnits="userSpaceOnUse" color-interpolation-filters="sRGB">
<feFlood flood-opacity="0" result="BackgroundImageFix"/>
<feColorMatrix in="SourceAlpha" type="matrix" values="0 0 0 0 0 0 0 0 0 0 0 0 0 0 0 0 0 0 127 0"/>
<feOffset dy="4"/>
<feGaussianBlur stdDeviation="3.5"/>
<feColorMatrix type="matrix" values="0 0 0 0 0.717647 0 0 0 0 0.752941 0 0 0 0 0.921569 0 0 0 1 0"/>
<feBlend mode="normal" in2="BackgroundImageFix" result="effect1_dropShadow"/>
<feBlend mode="normal" in="SourceGraphic" in2="effect1_dropShadow" result="shape"/>
</filter>
<linearGradient id="paint0_linear" x1="17" y1="20" x2="127" y2="114" gradientUnits="userSpaceOnUse">
<stop stop-color="#FEFEFF"/>
</linearGradient>
<clipPath id="clip0">
<rect width="52" height="59" fill="white" transform="translate(32 24)"/>
</clipPath>
</defs>
</svg>
