<svg width="117" height="113" viewBox="0 0 117 113" fill="none" xmlns="http://www.w3.org/2000/svg">
<g filter="url(#filter0_d)">
<path fill-rule="evenodd" clip-rule="evenodd" d="M7 18C7 9.71573 13.7157 3 22 3H95C103.284 3 110 9.71573 110 18V87C110 95.2843 103.284 102 95 102H22C13.7157 102 7 95.2843 7 87V18Z" fill="url(#paint0_linear)"/>
</g>
<path d="M33.6822 53.9757C36.6402 56.5015 39.9928 59.3647 46.4771 59.3647C52.9615 59.3647 56.3141 56.5015 59.2721 53.9757C62.0689 51.587 64.485 49.5239 69.524 49.5239C74.5631 49.5239 76.9791 51.587 79.776 53.9757C80.5953 54.6747 81.8277 54.5814 82.5299 53.7657C83.232 52.95 83.1383 51.7231 82.3189 51.024C79.3609 48.4982 76.0084 45.635 69.524 45.635C63.0396 45.635 59.6871 48.4982 56.7291 51.024C53.9322 53.4128 51.5162 55.4758 46.4771 55.4758C41.4381 55.4758 39.023 53.4128 36.2262 51.024C35.4078 50.325 34.1744 50.4183 33.4723 51.234C32.7691 52.0488 32.8639 53.2767 33.6822 53.9757Z" fill="#437FEC"/>
<path d="M33.6822 43.3407C36.6402 45.8665 39.9918 48.7297 46.4771 48.7297C52.9615 48.7297 56.3141 45.8665 59.2721 43.3407C62.0689 40.9519 64.485 38.8889 69.524 38.8889C74.5631 38.8889 76.9781 40.9519 79.776 43.3407C80.5953 44.0397 81.8277 43.9454 82.5299 43.1307C83.232 42.316 83.1373 41.0881 82.3189 40.389C79.3609 37.8622 76.0084 35 69.524 35C63.0396 35 59.6871 37.8632 56.7291 40.389C53.9322 42.7778 51.5162 44.8408 46.4771 44.8408C41.4381 44.8408 39.023 42.7778 36.2262 40.389C35.4078 39.69 34.1744 39.7833 33.4723 40.599C32.7691 41.4137 32.8639 42.6417 33.6822 43.3407Z" fill="#437FEC"/>
<path d="M82.3181 61.6595C79.3601 59.1337 76.0076 56.2705 69.5232 56.2705C63.0388 56.2705 59.6863 59.1337 56.7283 61.6595C53.9304 64.0483 51.5144 66.1113 46.4763 66.1113C41.4382 66.1113 39.0222 64.0483 36.2254 61.6595C35.407 60.9605 34.1736 61.0548 33.4714 61.8695C32.7693 62.6843 32.864 63.9122 33.6824 64.6112C36.6394 67.137 39.992 70.0002 46.4763 70.0002C52.9607 70.0002 56.3132 67.137 59.2712 64.6112C62.0681 62.2225 64.4841 60.1594 69.5232 60.1594C74.5622 60.1594 76.9783 62.2225 79.7751 64.6112C80.5945 65.3102 81.8269 65.2169 82.529 64.4012C83.2312 63.5865 83.1374 62.3586 82.3181 61.6595Z" fill="#437FEC"/>
<defs>
<filter id="filter0_d" x="0" y="0" width="117" height="113" filterUnits="userSpaceOnUse" color-interpolation-filters="sRGB">
<feFlood flood-opacity="0" result="BackgroundImageFix"/>
<feColorMatrix in="SourceAlpha" type="matrix" values="0 0 0 0 0 0 0 0 0 0 0 0 0 0 0 0 0 0 127 0"/>
<feOffset dy="4"/>
<feGaussianBlur stdDeviation="3.5"/>
<feColorMatrix type="matrix" values="0 0 0 0 0.717647 0 0 0 0 0.752941 0 0 0 0 0.921569 0 0 0 1 0"/>
<feBlend mode="normal" in2="BackgroundImageFix" result="effect1_dropShadow"/>
<feBlend mode="normal" in="SourceGraphic" in2="effect1_dropShadow" result="shape"/>
</filter>
<linearGradient id="paint0_linear" x1="17" y1="20" x2="127" y2="114" gradientUnits="userSpaceOnUse">
<stop stop-color="white"/>
</linearGradient>
</defs>
</svg>
