<?xml version="1.0" encoding="utf-8"?>
<!-- Generator: Adobe Illustrator 25.0.0, SVG Export Plug-In . SVG Version: 6.00 Build 0)  -->
<svg version="1.1" id="Layer_1" xmlns="http://www.w3.org/2000/svg" xmlns:xlink="http://www.w3.org/1999/xlink" x="0px" y="0px"
	 viewBox="0 0 100 100" style="enable-background:new 0 0 100 100;" xml:space="preserve">
<style type="text/css">
	.st0{fill:#9E9E9E;}
	.st1{fill:#7A7A7A;}
	.st2{fill:none;stroke:#7A7A7A;stroke-width:4;}
	.st3{fill:#9E9E9E;stroke:#FFFFFF;stroke-width:3;}
	.st4{fill:#707070;}
	.st5{fill:#565656;}
	.st6{fill:#437FEC;}
	.st7{fill:#FFFFFF;}
	.st8{fill:none;stroke:#437FEC;stroke-width:3;}
	.st9{fill:#00C3FF;}
</style>
<g>
	<path class="st6" d="M34.93,32.52h27.46c2.32,0,4.19,1.88,4.19,4.19v27.46c0,2.32-1.88,4.19-4.19,4.19H34.93
		c-2.32,0-4.19-1.88-4.19-4.19V36.72C30.73,34.4,32.61,32.52,34.93,32.52z"/>
	<path class="st7" d="M42.09,39.69h13.12c2.32,0,4.19,1.88,4.19,4.19v13.12c0,2.32-1.88,4.19-4.19,4.19H42.09
		c-2.32,0-4.19-1.88-4.19-4.19V43.89C37.9,41.57,39.78,39.69,42.09,39.69z"/>
	<path class="st8" d="M54.93,32.52V18.18h22.4"/>
	<path class="st8" d="M30.73,45.97H18.18V26.25"/>
	<path class="st8" d="M44.17,66.58v15.24H25.35"/>
	<path class="st8" d="M65.68,53.14h16.13v19.72"/>
	<rect x="8.33" y="8.33" class="st9" width="18.82" height="18.82"/>
	<rect x="72.85" y="8.33" class="st9" width="18.82" height="18.82"/>
	<rect x="72.85" y="68.37" class="st9" width="18.82" height="18.82"/>
	<rect x="9.22" y="72.85" class="st9" width="18.82" height="18.82"/>
</g>
</svg>
