<?xml version="1.0" encoding="utf-8"?>
<!-- Generator: Adobe Illustrator 25.0.0, SVG Export Plug-In . SVG Version: 6.00 Build 0)  -->
<svg version="1.1" id="Layer_1" xmlns="http://www.w3.org/2000/svg" xmlns:xlink="http://www.w3.org/1999/xlink" x="0px" y="0px"
	 viewBox="0 0 100 100" style="enable-background:new 0 0 100 100;" xml:space="preserve">
<style type="text/css">
	.st0{fill:#9E9E9E;}
	.st1{fill:#7A7A7A;}
	.st2{fill:none;stroke:#7A7A7A;stroke-width:4;}
	.st3{fill:#9E9E9E;stroke:#FFFFFF;stroke-width:3;}
	.st4{fill:#707070;}
	.st5{fill:#565656;}
	.st6{fill:#437FEC;}
	.st7{fill:#FFFFFF;}
	.st8{fill:none;stroke:#437FEC;stroke-width:3;}
	.st9{fill:#00C3FF;}
	.st10{fill:#0160E7;}
	.st11{fill:#4592EC;}
</style>
<g>
	<path class="st9" d="M78.62,66.84c13.07-13.97,12.4-35.95-1.5-49.09c-13.9-13.14-35.76-12.46-48.83,1.5
		c-5.87,6.27-9.2,14.5-9.37,23.11l-6.67,16.76c-0.67,1.68,0.06,3.59,1.66,4.4l5,2.51v15.22c0,1.92,1.55,3.47,3.45,3.47h18.59
		l2.5,5.03c0.58,1.18,1.78,1.92,3.09,1.92h34.54c1.91,0,3.45-1.55,3.45-3.47c0-0.32-0.05-0.64-0.13-0.96L78.62,66.84z"/>
	<path class="st7" d="M64.09,22.21h6.95v20.84h-6.95V22.21z"/>
	<path class="st7" d="M36.31,46.52h6.94v20.83h-6.95L36.31,46.52L36.31,46.52z"/>
	<path class="st10" d="M46.73,43.05c-5.75,0-10.42-4.66-10.42-10.42c0-5.75,4.66-10.42,10.42-10.42c5.75,0,10.42,4.66,10.42,10.42
		C57.14,38.38,52.48,43.04,46.73,43.05z M46.73,29.16c-1.92,0-3.47,1.55-3.47,3.47c0,1.92,1.55,3.47,3.47,3.47
		c1.92,0,3.47-1.55,3.47-3.47C50.2,30.71,48.64,29.16,46.73,29.16z"/>
	<path class="st11" d="M60.62,67.36c-5.75,0-10.42-4.66-10.42-10.42c0-5.75,4.66-10.42,10.42-10.42c5.75,0,10.42,4.66,10.42,10.42
		C71.03,62.69,66.37,67.35,60.62,67.36z M60.62,53.47c-1.92,0-3.47,1.55-3.47,3.47c0,1.92,1.55,3.47,3.47,3.47
		c1.92,0,3.47-1.55,3.47-3.47C64.09,55.02,62.54,53.47,60.62,53.47z"/>
</g>
</svg>
