<svg width="117" height="114" viewBox="0 0 117 114" fill="none" xmlns="http://www.w3.org/2000/svg">
<g filter="url(#filter0_d)">
<path fill-rule="evenodd" clip-rule="evenodd" d="M7 18.8157C7 10.5314 13.7157 3.81567 22 3.81567H95C103.284 3.81567 110 10.5314 110 18.8157V87.8157C110 96.0999 103.284 102.816 95 102.816H22C13.7157 102.816 7 96.0999 7 87.8157V18.8157Z" fill="white"/>
</g>
<g clip-path="url(#clip0)">
<path d="M80.4672 80.7139C80.4129 80.7238 80.1593 80.7689 79.7465 80.843C63.4834 83.7617 60.4917 84.2625 60.1564 84.302C59.3554 84.3951 58.7574 84.3478 58.3263 84.1581C58.0572 84.0396 57.9113 83.8957 57.8726 83.8322C57.8916 83.7193 58.0346 83.4506 58.122 83.287C58.2072 83.1276 58.303 82.9463 58.3875 82.7537C58.9476 81.4749 58.5559 80.1778 57.3654 79.3681C56.4778 78.7643 55.3014 78.5196 53.8665 78.6395C53.0106 78.7114 38.0014 81.2309 29.7574 82.6204L25.7119 85.8065C35.1491 84.2117 53.1276 81.1914 54.0736 81.0997C54.9189 81.0285 55.5783 81.1364 55.9805 81.4101C56.2144 81.5695 56.1911 81.6217 56.1298 81.7627C56.0834 81.8685 56.0171 81.9927 55.9467 82.1253C55.6769 82.6324 55.3064 83.3265 55.4289 84.187C55.5635 85.13 56.2566 85.9433 57.3316 86.418C57.936 86.6846 58.6299 86.8165 59.4343 86.8165C59.752 86.8165 60.0866 86.7961 60.4402 86.7552C61.0869 86.6797 67.729 85.5088 80.1812 83.2743C80.5911 83.2009 80.8433 83.1551 80.8976 83.1459C81.5682 83.0267 82.0148 82.3862 81.8957 81.7148C81.7767 81.0433 81.1378 80.5947 80.4672 80.7139Z" fill="#437FEC"/>
<path d="M36.8262 68.7189L26.3542 79.6877C25.2011 80.8953 24.3881 82.3885 24 84.0136L38.8698 72.3049C43.5246 74.3716 47.2433 75.0304 50.0927 75.0304C55.0991 75.0304 57.423 72.9968 57.423 72.9968C52.7625 70.5684 52.0982 66.0358 52.0982 66.0358C55.6676 67.5467 63.1042 69.3284 63.1042 69.3284C72.9796 62.7292 78.1403 48.4403 78.1403 48.4403C77.1174 48.7218 76.1397 48.8388 75.219 48.8388C70.5846 48.8388 67.3998 45.8672 67.3998 45.8672L80.3008 43.0536C84.59 34.2425 85 18.8159 85 18.8159L45.7753 53.7487C41.3332 57.7043 38.2097 62.9295 36.8262 68.7189Z" fill="#437FEC"/>
</g>
<defs>
<filter id="filter0_d" x="0" y="0.815674" width="117" height="113" filterUnits="userSpaceOnUse" color-interpolation-filters="sRGB">
<feFlood flood-opacity="0" result="BackgroundImageFix"/>
<feColorMatrix in="SourceAlpha" type="matrix" values="0 0 0 0 0 0 0 0 0 0 0 0 0 0 0 0 0 0 127 0"/>
<feOffset dy="4"/>
<feGaussianBlur stdDeviation="3.5"/>
<feColorMatrix type="matrix" values="0 0 0 0 0.717647 0 0 0 0 0.752941 0 0 0 0 0.921569 0 0 0 1 0"/>
<feBlend mode="normal" in2="BackgroundImageFix" result="effect1_dropShadow"/>
<feBlend mode="normal" in="SourceGraphic" in2="effect1_dropShadow" result="shape"/>
</filter>
<clipPath id="clip0">
<rect width="61" height="68" fill="white" transform="translate(24 18.8159)"/>
</clipPath>
</defs>
</svg>
