<?xml version="1.0" encoding="utf-8"?>
<!-- Generator: Adobe Illustrator 25.0.0, SVG Export Plug-In . SVG Version: 6.00 Build 0)  -->
<svg version="1.1" id="Layer_1" xmlns="http://www.w3.org/2000/svg" xmlns:xlink="http://www.w3.org/1999/xlink" x="0px" y="0px"
	 viewBox="0 0 90 90" style="enable-background:new 0 0 90 90;" xml:space="preserve">
<style type="text/css">
	.st0{clip-path:url(#SVGID_2_);}
	.st1{fill:#0160E7;}
	.st2{fill:#00C3FF;}
	.st3{fill:#FFFFFF;}
	.st4{fill:#4592EC;}
	.st5{clip-path:url(#SVGID_4_);}
	.st6{fill:#565656;}
	.st7{fill:#9E9E9E;}
	.st8{fill:#888888;}
	.st9{fill:#EBEBEB;}
	.st10{fill:#CCF2FE;}
</style>
<g>
	<path class="st2" d="M74.28,89.18H29.91L12.07,70.77V15.55c0-2.03,1.64-3.68,3.66-3.68h58.55c2.02,0,3.66,1.65,3.66,3.68V85.5
		C77.93,87.53,76.3,89.18,74.28,89.18z"/>
	<path class="st4" d="M19.39,15.55c0-2.03,1.64-3.68,3.66-3.68h-7.32c-2.02,0-3.66,1.65-3.66,3.68v55.22l7.32,7.55V15.55z"/>
	<path class="st1" d="M52.32,0.82H37.68c-4.04,0-7.32,3.3-7.32,7.36v7.36c0,2.03,1.64,3.68,3.66,3.68h21.96
		c2.02,0,3.66-1.65,3.66-3.68V8.18C59.64,4.12,56.36,0.82,52.32,0.82z"/>
	<path class="st3" d="M26.7,33.96c2.02,0,3.66-1.65,3.66-3.68s-1.64-3.68-3.66-3.68c-2.02,0-3.66,1.65-3.66,3.68
		S24.68,33.96,26.7,33.96z"/>
	<path class="st3" d="M37.68,26.59h29.28v7.36H37.68V26.59z"/>
	<path class="st3" d="M26.7,48.68c2.02,0,3.66-1.65,3.66-3.68s-1.64-3.68-3.66-3.68c-2.02,0-3.66,1.65-3.66,3.68
		S24.68,48.68,26.7,48.68z"/>
	<path class="st3" d="M37.68,41.32h29.28v7.36H37.68V41.32z"/>
	<path class="st3" d="M26.7,63.41c2.02,0,3.66-1.65,3.66-3.68c0-2.03-1.64-3.68-3.66-3.68c-2.02,0-3.66,1.65-3.66,3.68
		C23.04,61.76,24.68,63.41,26.7,63.41z"/>
	<path class="st3" d="M37.68,56.04h29.28v7.36H37.68V56.04z"/>
	<path class="st3" d="M48.66,70.77h18.3v7.36h-18.3V70.77z"/>
	<path class="st4" d="M12.07,70.77H26.7c2.02,0,3.66,1.65,3.66,3.68v14.73L12.07,70.77z"/>
	<path class="st10" d="M45,15.55c2.02,0,3.66-1.65,3.66-3.68S47.02,8.18,45,8.18s-3.66,1.65-3.66,3.68S42.98,15.55,45,15.55z"/>
</g>
</svg>
