<?xml version="1.0" encoding="utf-8"?>
<!-- Generator: Adobe Illustrator 25.0.0, SVG Export Plug-In . SVG Version: 6.00 Build 0)  -->
<svg version="1.1" id="Layer_1" xmlns="http://www.w3.org/2000/svg" xmlns:xlink="http://www.w3.org/1999/xlink" x="0px" y="0px"
	 viewBox="0 0 48 48" style="enable-background:new 0 0 48 48;" xml:space="preserve">
<style type="text/css">
	.st0{fill:#437FEC;}
</style>
<g>
	<path class="st0" d="M24,19.56c4.34,0,7.86-3.5,7.86-7.82c0-4.32-3.52-7.82-7.86-7.82s-7.86,3.5-7.86,7.82
		C16.14,16.06,19.66,19.56,24,19.56z"/>
	<path class="st0" d="M39.91,19.56c2.75,0,4.97-2.21,4.97-4.94c0-2.73-2.23-4.94-4.97-4.94c-2.75,0-4.97,2.21-4.97,4.94
		C34.94,17.35,37.16,19.56,39.91,19.56z"/>
	<path class="st0" d="M8.09,19.56c2.75,0,4.97-2.21,4.97-4.94c0-2.73-2.23-4.94-4.97-4.94c-2.75,0-4.97,2.21-4.97,4.94
		C3.12,17.35,5.35,19.56,8.09,19.56z"/>
	<path class="st0" d="M12.99,24c-1.96-1.59-3.73-1.38-5.99-1.38c-3.38,0-6.14,2.72-6.14,6.07v9.82c0,1.45,1.19,2.63,2.66,2.63
		c6.33,0,5.57,0.11,5.57-0.27C9.09,33.91,8.26,28.81,12.99,24z"/>
	<path class="st0" d="M26.15,22.65c-3.95-0.33-7.39,0-10.35,2.44c-4.96,3.95-4,9.27-4,15.78c0,1.72,1.41,3.15,3.17,3.15
		c19.08,0,19.84,0.61,20.97-1.88c0.37-0.84,0.27-0.58,0.27-8.64C36.2,27.09,30.63,22.65,26.15,22.65z"/>
	<path class="st0" d="M41,22.62c-2.27,0-4.04-0.21-5.99,1.38c4.7,4.77,3.9,9.52,3.9,16.86c0,0.39-0.63,0.27,5.47,0.27
		c1.52,0,2.75-1.22,2.75-2.73v-9.72C47.14,25.34,44.38,22.62,41,22.62z"/>
</g>
</svg>
