<?xml version="1.0" encoding="utf-8"?>
<!-- Generator: Adobe Illustrator 25.0.0, SVG Export Plug-In . SVG Version: 6.00 Build 0)  -->
<svg version="1.1" id="Layer_1" xmlns="http://www.w3.org/2000/svg" xmlns:xlink="http://www.w3.org/1999/xlink" x="0px" y="0px"
	 viewBox="0 0 100 100" style="enable-background:new 0 0 100 100;" xml:space="preserve">
<style type="text/css">
	.st0{clip-path:url(#SVGID_2_);}
	.st1{fill:#437FEC;}
	.st2{fill:#4CD9ED;}
	.st3{clip-path:url(#SVGID_4_);}
	.st4{fill:#2C79E6;}
	.st5{fill:#00C3FF;}
	.st6{fill:#32393F;}
	.st7{fill:#FFFFFF;}
	.st8{fill:#4CB3ED;fill-opacity:0.56;}
	.st9{fill:#EFE2DD;}
</style>
<g>
	<path class="st4" d="M83.28,16.07c-0.19,0-19.46-0.08-28.65-6.22c-1.14-0.76-2.62-0.76-3.76,0c-9.19,6.13-28.46,6.22-28.65,6.22
		c-1.87,0-3.39,1.52-3.39,3.39v37.32c0,0.9,0.36,1.76,0.99,2.4l30.53,30.53c1.32,1.32,3.47,1.32,4.8,0l30.53-30.53
		c0.64-0.64,0.99-1.5,0.99-2.4V19.46C86.67,17.59,85.15,16.07,83.28,16.07z M79.88,55.38L52.74,82.52L25.6,55.38V22.76
		c6.01-0.3,18.65-1.47,27.14-6.12c8.49,4.65,21.13,5.82,27.14,6.12V55.38z"/>
	<path class="st4" d="M64.21,44.15h-5.74v-5.74c0-3.17-2.57-5.74-5.74-5.74c-3.17,0-5.74,2.57-5.74,5.74v5.74h-5.73v-5.74
		c0-6.34,5.14-11.47,11.47-11.47c6.33,0,11.47,5.14,11.47,11.47L64.21,44.15L64.21,44.15z"/>
	<path class="st5" d="M41.27,41.28h22.94c1.58,0,2.87,1.28,2.87,2.87v14.34c0,1.58-1.28,2.87-2.87,2.87H41.27
		c-1.58,0-2.87-1.28-2.87-2.87V44.15C38.4,42.56,39.69,41.28,41.27,41.28z"/>
	<path class="st4" d="M58.48,49.88c0-3.17-2.56-5.74-5.73-5.74c-3.17,0-5.74,2.56-5.74,5.73c0,2.05,1.09,3.95,2.87,4.97v3.64h5.74
		v-3.64C57.38,53.82,58.48,51.93,58.48,49.88z"/>
</g>
</svg>
