<svg width="117" height="114" viewBox="0 0 117 114" fill="none" xmlns="http://www.w3.org/2000/svg">
<g filter="url(#filter0_d)">
<path fill-rule="evenodd" clip-rule="evenodd" d="M7 18.8157C7 10.5314 13.7157 3.81567 22 3.81567H95C103.284 3.81567 110 10.5314 110 18.8157V87.8157C110 96.0999 103.284 102.816 95 102.816H22C13.7157 102.816 7 96.0999 7 87.8157V18.8157Z" fill="white"/>
</g>
<g clip-path="url(#clip0)">
<g clip-path="url(#clip1)">
<path d="M88.8103 31.9069L75.6128 45.1044L83.5653 48.5528C83.8319 48.6688 83.9885 48.9489 83.9478 49.235C83.9087 49.5226 83.6798 49.7485 83.3922 49.7847L63.584 52.3748C63.3852 52.4004 63.1849 52.3326 63.0434 52.191C62.9018 52.0495 62.8325 51.8507 62.8596 51.6504L65.4497 31.8422C65.4678 31.6976 65.5341 31.5666 65.6335 31.4702C65.7313 31.3738 65.8578 31.3076 66.0009 31.2865C66.287 31.2459 66.5671 31.4025 66.683 31.669L70.1315 39.623L83.3289 26.4256C83.5819 26.1741 83.99 26.1756 84.2415 26.4271L88.8103 30.9944C89.0632 31.2459 89.0632 31.6539 88.8103 31.9069ZM56.4175 57.2568L36.6094 59.8469C36.3202 59.8845 36.0928 60.1104 36.0537 60.398C36.013 60.6842 36.1696 60.9642 36.4362 61.0802L44.3902 64.5286L31.1912 77.7261C30.9398 77.9791 30.9398 78.3872 31.1912 78.6402L35.76 83.2075C36.013 83.4605 36.4211 83.4605 36.6741 83.209L49.8715 70.0115L53.32 77.9656C53.4344 78.2321 53.7145 78.3872 54.0021 78.348C54.1467 78.327 54.2732 78.2622 54.3696 78.1658C54.4689 78.068 54.5352 77.9384 54.5533 77.7924L57.1434 57.9841C57.1675 57.7854 57.0997 57.5851 56.9597 57.4435C56.8166 57.3005 56.6163 57.2297 56.4175 57.2568ZM74.7756 64.9458L82.7281 61.4973C82.9946 61.3829 83.1497 61.1028 83.1105 60.8167C83.091 60.6721 83.0247 60.5441 82.9268 60.4492C82.8305 60.3499 82.6994 60.2836 82.5549 60.2655L62.7467 57.6754C62.5479 57.6498 62.3476 57.7176 62.2061 57.8591C62.0645 57.9992 61.9953 58.201 62.0224 58.3997L64.611 78.208C64.6486 78.4956 64.8745 78.723 65.1621 78.7637C65.4482 78.8043 65.7298 78.6477 65.8443 78.3812L69.2927 70.4272L82.4886 83.6246C82.7416 83.8776 83.1497 83.8776 83.4027 83.6246L87.97 79.0558C88.223 78.8028 88.223 78.3932 87.9715 78.1432L74.7756 64.9458ZM44.3872 44.6858L36.4332 48.1342C36.1666 48.2487 36.0115 48.5288 36.0507 48.8149C36.0718 48.9579 36.1365 49.0859 36.2329 49.1823C36.3323 49.2817 36.4603 49.3479 36.6063 49.366L56.4145 51.9561C56.6148 51.9817 56.8136 51.914 56.9551 51.7724C57.0952 51.6308 57.1645 51.4306 57.1389 51.2318L54.5503 31.4235C54.5126 31.1359 54.2867 30.9085 54.0006 30.8679C53.713 30.8272 53.4344 30.9838 53.3185 31.2504L49.8685 39.2029L36.6711 26.0054C36.4196 25.7524 36.01 25.7524 35.757 26.0054L31.1897 30.5742C30.9368 30.8272 30.9368 31.2353 31.1897 31.4868L44.3872 44.6858Z" fill="#437FEC"/>
</g>
</g>
<defs>
<filter id="filter0_d" x="0" y="0.815674" width="117" height="113" filterUnits="userSpaceOnUse" color-interpolation-filters="sRGB">
<feFlood flood-opacity="0" result="BackgroundImageFix"/>
<feColorMatrix in="SourceAlpha" type="matrix" values="0 0 0 0 0 0 0 0 0 0 0 0 0 0 0 0 0 0 127 0"/>
<feOffset dy="4"/>
<feGaussianBlur stdDeviation="3.5"/>
<feColorMatrix type="matrix" values="0 0 0 0 0.717647 0 0 0 0 0.752941 0 0 0 0 0.921569 0 0 0 1 0"/>
<feBlend mode="normal" in2="BackgroundImageFix" result="effect1_dropShadow"/>
<feBlend mode="normal" in="SourceGraphic" in2="effect1_dropShadow" result="shape"/>
</filter>
<clipPath id="clip0">
<rect width="58" height="58.0002" fill="white" transform="matrix(-1 0 0 1 89 25.8157)"/>
</clipPath>
<clipPath id="clip1">
<rect width="58" height="58.0002" fill="white" transform="translate(31 25.8157)"/>
</clipPath>
</defs>
</svg>
