<?xml version="1.0" encoding="utf-8"?>
<!-- Generator: Adobe Illustrator 25.0.0, SVG Export Plug-In . SVG Version: 6.00 Build 0)  -->
<svg version="1.1" id="Layer_1" xmlns="http://www.w3.org/2000/svg" xmlns:xlink="http://www.w3.org/1999/xlink" x="0px" y="0px"
	 viewBox="0 0 90 90" style="enable-background:new 0 0 90 90;" xml:space="preserve">
<style type="text/css">
	.st0{clip-path:url(#SVGID_2_);}
	.st1{fill:#0160E7;}
	.st2{fill:#00C3FF;}
	.st3{fill:#FFFFFF;}
	.st4{fill:#4592EC;}
	.st5{clip-path:url(#SVGID_4_);}
	.st6{fill:#565656;}
	.st7{fill:#9E9E9E;}
	.st8{fill:#888888;}
	.st9{fill:#EBEBEB;}
	.st10{fill:#CCF2FE;}
	.st11{clip-path:url(#SVGID_6_);}
	.st12{fill:#C3C3C3;}
	.st13{fill:#67D9FB;}
</style>
<g>
	<path class="st2" d="M9.42,2.05h56.93c1.97,0,3.56,1.6,3.56,3.58v71.59c0,1.98-1.59,3.58-3.56,3.58H9.42
		c-1.96,0-3.56-1.6-3.56-3.58V5.62C5.86,3.65,7.46,2.05,9.42,2.05z"/>
	<path class="st4" d="M20.09,70.06c-1.96,0-3.56-1.6-3.56-3.58V2.05H9.42c-1.96,0-3.56,1.6-3.56,3.58v71.59
		c0,1.98,1.59,3.58,3.56,3.58h56.93c1.96,0,3.56-1.6,3.56-3.58v-7.16H20.09z"/>
	<path class="st1" d="M52.12,34.26V27.1h-4.01c-0.33-1.3-0.85-2.54-1.53-3.69l2.84-2.86l-5.03-5.06l-2.84,2.86
		c-1.14-0.68-2.38-1.2-3.67-1.54v-4.03h-7.12v4.03c-1.29,0.34-2.52,0.85-3.67,1.54l-2.84-2.86l-5.03,5.06l2.84,2.86
		c-0.68,1.15-1.19,2.39-1.53,3.69h-4.01v7.16h4.01c0.33,1.3,0.85,2.54,1.53,3.69l-2.84,2.86l5.03,5.06l2.84-2.86
		c1.14,0.68,2.38,1.2,3.67,1.54v4.03h7.12v-4.03c1.29-0.34,2.52-0.85,3.67-1.54l2.84,2.86l5.03-5.06l-2.84-2.86
		c0.68-1.15,1.19-2.39,1.53-3.69H52.12z M34.33,37.84c-3.93,0-7.12-3.2-7.12-7.16c0-3.95,3.19-7.16,7.12-7.16
		c3.93,0,7.12,3.2,7.12,7.16C41.44,34.63,38.25,37.84,34.33,37.84z"/>
	<path class="st1" d="M16.54,52.16h14.23v7.16H16.54V52.16z"/>
	<path class="st1" d="M16.54,62.9h21.35v7.16H16.54V62.9z"/>
	<path class="st1" d="M80.58,66.48h-7.12v-7.16c0-3.95-3.19-7.16-7.12-7.16c-3.93,0-7.12,3.2-7.12,7.16v7.16h-7.12v-7.16
		c0-7.91,6.37-14.32,14.23-14.32c7.86,0,14.23,6.41,14.23,14.32V66.48z"/>
	<path class="st13" d="M52.12,62.9h28.46c1.96,0,3.56,1.6,3.56,3.58v17.9c0,1.98-1.59,3.58-3.56,3.58H52.12
		c-1.96,0-3.56-1.6-3.56-3.58v-17.9C48.56,64.5,50.15,62.9,52.12,62.9z"/>
	<path class="st3" d="M73.46,73.64c0-3.95-3.18-7.16-7.11-7.17c-3.93,0-7.12,3.2-7.12,7.15c0,2.56,1.35,4.93,3.56,6.21v4.55h7.12
		v-4.55C72.11,78.55,73.46,76.19,73.46,73.64z"/>
</g>
</svg>
