<?xml version="1.0" encoding="utf-8"?>
<!-- Generator: Adobe Illustrator 25.0.0, SVG Export Plug-In . SVG Version: 6.00 Build 0)  -->
<svg version="1.1" id="Layer_1" xmlns="http://www.w3.org/2000/svg" xmlns:xlink="http://www.w3.org/1999/xlink" x="0px" y="0px"
	 viewBox="0 0 100 100" style="enable-background:new 0 0 100 100;" xml:space="preserve">
<style type="text/css">
	.st0{clip-path:url(#SVGID_2_);}
	.st1{fill:#437FEC;}
	.st2{fill:#4CD9ED;}
	.st3{clip-path:url(#SVGID_4_);}
	.st4{fill:#2C79E6;}
	.st5{fill:#00C3FF;}
	.st6{fill:#32393F;}
	.st7{fill:#FFFFFF;}
	.st8{fill:#4CB3ED;fill-opacity:0.56;}
	.st9{fill:#EFE2DD;}
</style>
<g>
	<defs>
		<rect id="SVGID_1_" x="12.06" y="12.06" width="75.88" height="75.88"/>
	</defs>
	<clipPath id="SVGID_2_">
		<use xlink:href="#SVGID_1_"  style="overflow:visible;"/>
	</clipPath>
	<g class="st0">
		<path class="st1" d="M58.15,41.85c1.39,0,2.52-1.13,2.52-2.52c0-1.39-1.13-2.52-2.52-2.52s-2.52,1.13-2.52,2.52
			C55.63,40.72,56.76,41.85,58.15,41.85z"/>
		<path class="st1" d="M72.38,63.19c1.39,0,2.52-1.13,2.52-2.52c0-1.39-1.13-2.52-2.52-2.52s-2.52,1.13-2.52,2.52
			C69.86,62.06,70.99,63.19,72.38,63.19z"/>
		<path class="st2" d="M85.72,12.06H44.05c-1.23,0-2.22,1-2.22,2.22v73.66h43.89c1.23,0,2.22-1,2.22-2.22V14.28
			C87.94,13.06,86.94,12.06,85.72,12.06z M60.37,45.93V74.9c0,1.23-1,2.22-2.22,2.22s-2.22-1-2.22-2.22V45.93
			c-2.75-0.93-4.74-3.54-4.74-6.6c0-3.06,1.99-5.67,4.74-6.6V25.1c0-1.23,1-2.22,2.22-2.22s2.22,1,2.22,2.22v7.63
			c2.75,0.93,4.74,3.54,4.74,6.6C65.12,42.39,63.13,45,60.37,45.93z M74.6,67.27v7.63c0,1.23-1,2.22-2.22,2.22s-2.22-1-2.22-2.22
			v-7.63c-2.75-0.93-4.74-3.54-4.74-6.6c0-3.06,1.99-5.67,4.74-6.6V25.1c0-1.23,1-2.22,2.22-2.22s2.22,1,2.22,2.22v28.97
			c2.75,0.93,4.74,3.54,4.74,6.6C79.34,63.73,77.35,66.34,74.6,67.27z"/>
		<path class="st1" d="M30.02,40.04v3.78c-0.25,0.1-0.49,0.2-0.73,0.31l-2.67-2.67c-0.75-0.75-1.92-0.87-2.8-0.28
			c-1.56,1.03-3.02,2.22-4.34,3.55c-1.33,1.33-2.52,2.79-3.55,4.34c-0.58,0.88-0.46,2.05,0.28,2.8l2.67,2.67
			c-0.11,0.24-0.21,0.49-0.31,0.74H14.8c-1.06,0-1.97,0.74-2.18,1.78c-0.37,1.83-0.56,3.7-0.56,5.58c0,1.87,0.19,3.75,0.56,5.58
			c0.21,1.04,1.12,1.78,2.18,1.78h3.78c0.1,0.25,0.2,0.49,0.31,0.74l-2.67,2.67c-0.75,0.75-0.87,1.92-0.28,2.8
			c1.03,1.55,2.22,3.01,3.55,4.34c1.33,1.32,2.78,2.52,4.34,3.55c0.88,0.58,2.05,0.47,2.8-0.28l2.67-2.67
			c0.24,0.11,0.49,0.21,0.74,0.31v3.78c0,1.06,0.74,1.97,1.78,2.18c1.83,0.37,3.7,0.56,5.58,0.56V68.1c-3.02,0-5.48-2.46-5.48-5.48
			c0-3.02,2.46-5.48,5.48-5.48V37.31c-1.88,0-3.75,0.18-5.58,0.55C30.77,38.08,30.02,38.99,30.02,40.04z"/>
	</g>
</g>
</svg>
