<?xml version="1.0" encoding="utf-8"?>
<!-- Generator: Adobe Illustrator 25.0.0, SVG Export Plug-In . SVG Version: 6.00 Build 0)  -->
<svg version="1.1" id="Layer_1" xmlns="http://www.w3.org/2000/svg" xmlns:xlink="http://www.w3.org/1999/xlink" x="0px" y="0px"
	 viewBox="0 0 100 100" style="enable-background:new 0 0 100 100;" xml:space="preserve">
<style type="text/css">
	.st0{clip-path:url(#SVGID_2_);}
	.st1{fill:#437FEC;}
	.st2{fill:#4CD9ED;}
	.st3{clip-path:url(#SVGID_4_);}
	.st4{fill:#2C79E6;}
	.st5{fill:#00C3FF;}
	.st6{fill:#32393F;}
	.st7{fill:#FFFFFF;}
	.st8{fill:#4CB3ED;fill-opacity:0.56;}
	.st9{fill:#EFE2DD;}
</style>
<g>
	<path class="st4" d="M55.21,42.79L50,42.7l-5.25-0.13L21.59,15.7c-0.58-0.67-0.71-1.6-0.31-2.4c0.36-0.8,1.11-1.29,2-1.29h7.35
		c0.62,0,1.25,0.27,1.65,0.76L50,33.35l5.43,6.28C56.28,40.56,56.15,41.98,55.21,42.79z"/>
	<path class="st6" d="M55.21,42.79L50,42.7v-9.35l5.43,6.28C56.28,40.56,56.15,41.98,55.21,42.79z"/>
	<path class="st4" d="M83.2,13.3c-0.36-0.79-1.15-1.3-2.02-1.3h-7.33c-0.65,0-1.26,0.28-1.68,0.77L49,39.63
		c-0.8,0.93-0.7,2.34,0.22,3.14l10.47-0.22l23.16-26.87C83.43,15.03,83.56,14.09,83.2,13.3z"/>
	<path class="st7" d="M85.77,38.87H14.23c-1.25,0-2.23,0.98-2.23,2.23v44.68c0,1.25,0.98,2.23,2.23,2.23h71.55
		c1.25,0,2.23-0.98,2.23-2.23V41.09C88,39.85,87.02,38.87,85.77,38.87z"/>
	<path class="st8" d="M88,41.09v44.68c0,1.25-0.98,2.23-2.23,2.23H50V38.87h35.77C87.02,38.87,88,39.85,88,41.09z"/>
	<path class="st9" d="M78.95,58.91c0,1.25-0.98,2.23-2.23,2.23H50c-1.25,0-2.23-0.98-2.23-2.23c0-1.25,0.98-2.23,2.23-2.23h26.72
		C77.97,56.68,78.95,57.66,78.95,58.91z"/>
	<path class="st9" d="M78.95,67.81c0,1.25-0.98,2.23-2.23,2.23H50c-1.25,0-2.23-0.98-2.23-2.23c0-1.25,0.98-2.23,2.23-2.23h26.72
		C77.97,65.59,78.95,66.57,78.95,67.81z"/>
	<path class="st9" d="M65.59,50c0,1.25-0.98,2.23-2.23,2.23H50c-1.25,0-2.23-0.98-2.23-2.23c0-1.25,0.98-2.23,2.23-2.23h13.36
		C64.61,47.77,65.59,48.75,65.59,50z"/>
	<path class="st1" d="M63.36,52.23H50v-4.45h13.36c1.25,0,2.23,0.98,2.23,2.23C65.59,51.25,64.61,52.23,63.36,52.23z"/>
	<path class="st1" d="M78.95,67.81c0,1.25-0.98,2.23-2.23,2.23H50v-4.45h26.72C77.97,65.59,78.95,66.57,78.95,67.81z"/>
	<path class="st1" d="M76.72,61.13H50v-4.45h26.72c1.25,0,2.23,0.98,2.23,2.23C78.95,60.15,77.97,61.13,76.72,61.13z"/>
	<path class="st1" d="M58.91,78.95c1.23,0,2.23-1,2.23-2.23c0-1.23-1-2.23-2.23-2.23c-1.23,0-2.23,1-2.23,2.23
		C56.68,77.95,57.68,78.95,58.91,78.95z"/>
	<path class="st1" d="M67.81,78.95c1.23,0,2.23-1,2.23-2.23c0-1.23-1-2.23-2.23-2.23s-2.23,1-2.23,2.23
		C65.59,77.95,66.58,78.95,67.81,78.95z"/>
	<path class="st1" d="M76.72,78.95c1.23,0,2.23-1,2.23-2.23c0-1.23-1-2.23-2.23-2.23c-1.23,0-2.23,1-2.23,2.23
		C74.49,77.95,75.49,78.95,76.72,78.95z"/>
	<path class="st5" d="M32.19,47.77c-3.7,0-6.68,2.98-6.68,6.68c0,3.7,2.98,6.68,6.68,6.68s6.68-2.98,6.68-6.68
		C38.87,50.76,35.88,47.77,32.19,47.77z"/>
	<path class="st5" d="M32.19,61.13c-6.15,0-11.13,4.99-11.13,11.13c0,1.25,0.98,2.23,2.23,2.23h17.81c1.25,0,2.23-0.98,2.23-2.23
		C43.32,66.12,38.33,61.13,32.19,61.13z"/>
</g>
</svg>
