<svg xmlns="http://www.w3.org/2000/svg" xmlns:xlink="http://www.w3.org/1999/xlink" viewBox="0 0 1359.06 894.22"><defs><style>.cls-1,.cls-10,.cls-11,.cls-12,.cls-13,.cls-14,.cls-15,.cls-16,.cls-2,.cls-3,.cls-37,.cls-38,.cls-39,.cls-4,.cls-40,.cls-41,.cls-5,.cls-7,.cls-8,.cls-9{fill:none;stroke-width:3px;}.cls-1,.cls-10,.cls-11,.cls-12,.cls-13,.cls-14,.cls-15,.cls-16,.cls-2,.cls-3,.cls-37,.cls-38,.cls-39,.cls-4,.cls-40,.cls-41,.cls-5,.cls-50,.cls-7,.cls-8,.cls-9{stroke-miterlimit:10;}.cls-1{stroke:url(#linear-gradient);}.cls-2{stroke:url(#linear-gradient-2);}.cls-3{stroke:url(#linear-gradient-3);}.cls-4{stroke:url(#linear-gradient-4);}.cls-5{stroke:url(#linear-gradient-5);}.cls-6{fill:#95d4ff;}.cls-10,.cls-37,.cls-7,.cls-8,.cls-9{opacity:0.6;}.cls-7{stroke:url(#linear-gradient-6);}.cls-8{stroke:url(#linear-gradient-7);}.cls-9{stroke:url(#linear-gradient-8);}.cls-10{stroke:url(#linear-gradient-9);}.cls-11{stroke:url(#linear-gradient-10);}.cls-12{stroke:url(#linear-gradient-11);}.cls-13{stroke:url(#linear-gradient-12);}.cls-14{stroke:url(#linear-gradient-13);}.cls-15{stroke:url(#linear-gradient-14);}.cls-16{stroke:url(#linear-gradient-15);}.cls-17{font-size:33px;fill:#3953ea;}.cls-17,.cls-53{font-family:Lato-Bold, Lato;font-weight:700;}.cls-18{letter-spacing:-0.02em;}.cls-19{letter-spacing:-0.07em;}.cls-20{letter-spacing:-0.03em;}.cls-21{letter-spacing:-0.01em;}.cls-22{letter-spacing:-0.02em;}.cls-23{letter-spacing:0em;}.cls-24{letter-spacing:-0.02em;}.cls-25{letter-spacing:-0.02em;}.cls-26{letter-spacing:-0.03em;}.cls-27{letter-spacing:-0.04em;}.cls-28{letter-spacing:-0.02em;}.cls-29{letter-spacing:-0.12em;}.cls-30{letter-spacing:-0.03em;}.cls-31{letter-spacing:-0.03em;}.cls-32{letter-spacing:-0.04em;}.cls-33{letter-spacing:0em;}.cls-34{letter-spacing:-0.01em;}.cls-35{letter-spacing:-0.04em;}.cls-36{letter-spacing:-0.02em;}.cls-37{stroke:url(#linear-gradient-16);}.cls-38{stroke:url(#linear-gradient-17);}.cls-39{stroke:url(#linear-gradient-18);}.cls-40{stroke:url(#linear-gradient-19);}.cls-41{stroke:url(#linear-gradient-20);}.cls-42{fill:url(#linear-gradient-21);}.cls-43,.cls-53{fill:#fff;}.cls-44{fill:url(#linear-gradient-22);}.cls-45{fill:url(#linear-gradient-23);}.cls-46{fill:url(#linear-gradient-24);}.cls-47{fill:url(#linear-gradient-25);}.cls-48{fill:url(#linear-gradient-26);}.cls-49{fill:url(#linear-gradient-27);}.cls-50{fill:#e3f6ff;stroke-width:5px;stroke:url(#linear-gradient-28);}.cls-51{fill:#66b4ff;}.cls-52{fill:url(#linear-gradient-29);}.cls-53{font-size:48.01px;letter-spacing:-0.02em;}.cls-54{letter-spacing:-0.12em;}.cls-55{letter-spacing:-0.03em;}.cls-56{fill:url(#linear-gradient-30);}</style><linearGradient id="linear-gradient" x1="221.82" y1="352.48" x2="583.03" y2="352.48" gradientUnits="userSpaceOnUse"><stop offset="0" stop-color="#00c9ff"/><stop offset="0.54" stop-color="#3a60ff"/><stop offset="1" stop-color="#8500ff"/></linearGradient><linearGradient id="linear-gradient-2" x1="262.68" y1="430.85" x2="543.13" y2="430.85" xlink:href="#linear-gradient"/><linearGradient id="linear-gradient-3" x1="377.71" y1="515.87" x2="542.31" y2="515.87" xlink:href="#linear-gradient"/><linearGradient id="linear-gradient-4" x1="147.87" y1="597.67" x2="552.63" y2="597.67" xlink:href="#linear-gradient"/><linearGradient id="linear-gradient-5" x1="262.68" y1="646.78" x2="583.03" y2="646.78" xlink:href="#linear-gradient"/><linearGradient id="linear-gradient-6" x1="537.32" y1="246.59" x2="606.48" y2="246.59" xlink:href="#linear-gradient"/><linearGradient id="linear-gradient-7" x1="587.03" y1="222.33" x2="656.19" y2="222.33" xlink:href="#linear-gradient"/><linearGradient id="linear-gradient-8" x1="683.96" y1="246.73" x2="753.13" y2="246.73" gradientTransform="matrix(-1, 0, 0, 1, 1562.94, 0)" xlink:href="#linear-gradient"/><linearGradient id="linear-gradient-9" x1="736.67" y1="221.46" x2="805.84" y2="221.46" gradientTransform="matrix(-1, 0, 0, 1, 1562.94, 0)" xlink:href="#linear-gradient"/><linearGradient id="linear-gradient-10" x1="706.03" y1="271.87" x2="709.03" y2="271.87" xlink:href="#linear-gradient"/><linearGradient id="linear-gradient-11" x1="539.07" y1="345" x2="910.33" y2="345" gradientTransform="matrix(-1, 0, 0, 1, 1737.8, 0)" xlink:href="#linear-gradient"/><linearGradient id="linear-gradient-12" x1="579.94" y1="423.37" x2="871.98" y2="423.37" gradientTransform="matrix(-1, 0, 0, 1, 1737.8, 0)" xlink:href="#linear-gradient"/><linearGradient id="linear-gradient-13" x1="694.97" y1="508.36" x2="862.16" y2="508.36" gradientTransform="matrix(-1, 0, 0, 1, 1737.8, 0)" xlink:href="#linear-gradient"/><linearGradient id="linear-gradient-14" x1="465.13" y1="590.19" x2="869.83" y2="590.19" gradientTransform="matrix(-1, 0, 0, 1, 1737.8, 0)" xlink:href="#linear-gradient"/><linearGradient id="linear-gradient-15" x1="579.94" y1="639.3" x2="897.2" y2="639.3" gradientTransform="matrix(-1, 0, 0, 1, 1737.8, 0)" xlink:href="#linear-gradient"/><linearGradient id="linear-gradient-16" x1="804.83" y1="715.58" x2="967.01" y2="715.58" xlink:href="#linear-gradient"/><linearGradient id="linear-gradient-17" x1="763.78" y1="753.29" x2="816.76" y2="753.29" xlink:href="#linear-gradient"/><linearGradient id="linear-gradient-18" x1="705.47" y1="722.17" x2="708.47" y2="722.17" xlink:href="#linear-gradient"/><linearGradient id="linear-gradient-19" x1="596.53" y1="730.98" x2="656.19" y2="730.98" xlink:href="#linear-gradient"/><linearGradient id="linear-gradient-20" x1="495.24" y1="725.08" x2="606.48" y2="725.08" xlink:href="#linear-gradient"/><linearGradient id="linear-gradient-21" x1="283.19" y1="505.05" x2="389.95" y2="505.05" gradientUnits="userSpaceOnUse"><stop offset="0" stop-color="#437fec"/><stop offset="0.36" stop-color="#336cd5"/><stop offset="1" stop-color="#184eae"/></linearGradient><linearGradient id="linear-gradient-22" x1="774.09" y1="53.38" x2="880.86" y2="53.38" xlink:href="#linear-gradient-21"/><linearGradient id="linear-gradient-23" x1="653.59" y1="167.54" x2="760.36" y2="167.54" xlink:href="#linear-gradient-21"/><linearGradient id="linear-gradient-24" x1="652.36" y1="777.91" x2="759.13" y2="777.91" xlink:href="#linear-gradient-21"/><linearGradient id="linear-gradient-25" x1="169.57" y1="692.68" x2="276.34" y2="692.68" xlink:href="#linear-gradient-21"/><linearGradient id="linear-gradient-26" x1="155.51" y1="299.44" x2="250.94" y2="299.44" xlink:href="#linear-gradient-21"/><linearGradient id="linear-gradient-27" x1="535.15" y1="56.73" x2="641.91" y2="56.73" xlink:href="#linear-gradient-21"/><linearGradient id="linear-gradient-28" x1="535.8" y1="508.86" x2="878.15" y2="508.86" xlink:href="#linear-gradient"/><linearGradient id="linear-gradient-29" x1="1125.86" y1="398.33" x2="1232.63" y2="398.33" xlink:href="#linear-gradient-21"/><linearGradient id="linear-gradient-30" x1="443.36" y1="839.6" x2="550.12" y2="839.6" xlink:href="#linear-gradient-21"/></defs><g id="Layer_2" data-name="Layer 2"><g id="Layer_1-2" data-name="Layer 1"><polyline class="cls-1" points="583.03 398.33 414.47 398.33 326.9 306.63 221.82 306.63"/><polyline class="cls-2" points="543.13 459.5 414.47 459.5 359.75 402.2 262.68 402.2"/><line class="cls-3" x1="542.3" y1="516.4" x2="377.72" y2="515.34"/><polyline class="cls-4" points="552.63 570.16 431.98 570.16 356.09 625.17 147.87 625.17"/><polyline class="cls-5" points="583.03 619.27 431.98 619.27 356.09 674.28 262.68 674.28"/><circle class="cls-6" cx="221.82" cy="306.63" r="9.5"/><circle class="cls-6" cx="272.18" cy="404.29" r="9.5"/><circle class="cls-6" cx="368.22" cy="515.25" r="9.5"/><circle class="cls-6" cx="262.68" cy="674.28" r="9.5"/><polyline class="cls-7" points="538.82 118.67 538.82 216.2 604.98 237.34 604.98 374.51"/><polyline class="cls-8" points="588.53 96.2 588.53 192.71 654.69 213.84 654.69 348.46"/><polyline class="cls-9" points="877.48 117.14 877.48 214.67 811.31 235.81 811.31 376.33"/><polyline class="cls-10" points="824.76 94.67 824.76 191.17 758.6 212.31 758.6 348.25"/><line class="cls-11" x1="707.53" y1="340.67" x2="707.53" y2="203.07"/><circle class="cls-6" cx="539.13" cy="123.42" r="9.5"/><circle class="cls-6" cx="143.87" cy="625.17" r="9.5"/><polyline class="cls-12" points="827.47 390.85 1006.08 390.85 1093.65 299.15 1198.73 299.15"/><polyline class="cls-13" points="865.82 452.02 1006.08 452.02 1060.79 394.73 1157.86 394.73"/><line class="cls-14" x1="875.65" y1="508.86" x2="1042.82" y2="507.86"/><polyline class="cls-15" points="867.98 562.68 988.57 562.68 1064.46 617.69 1272.67 617.69"/><polyline class="cls-16" points="840.6 611.79 988.57 611.79 1064.46 666.8 1157.86 666.8"/><circle class="cls-6" cx="1198.73" cy="299.15" r="9.5"/><circle class="cls-6" cx="1148.36" cy="396.81" r="9.5"/><circle class="cls-6" cx="1052.33" cy="507.77" r="9.5"/><circle class="cls-6" cx="1157.86" cy="666.8" r="9.5"/><circle class="cls-6" cx="1272.67" cy="617.69" r="9.5"/><circle class="cls-6" cx="588.53" cy="94.67" r="9.5"/><circle class="cls-6" cx="708.15" cy="203.07" r="9.5"/><circle class="cls-6" cx="824.77" cy="96.2" r="9.5"/><circle class="cls-6" cx="877.48" cy="113.92" r="9.5"/><text class="cls-17" transform="translate(915.27 124.85) scale(0.87 1)"><tspan class="cls-18">D</tspan><tspan class="cls-19" x="24.35" y="0">AT</tspan><tspan class="cls-20" x="62.42" y="0">A</tspan><tspan x="84.23" y="0" xml:space="preserve"> P</tspan><tspan class="cls-21" x="112.68" y="0">R</tspan><tspan class="cls-22" x="133.57" y="0">O</tspan><tspan class="cls-23" x="159.42" y="0">T</tspan><tspan class="cls-24" x="179.22" y="0">E</tspan><tspan x="197.69" y="0">CTION</tspan></text><text class="cls-17" transform="translate(335.24 132.92) scale(0.87 1)">SMA<tspan class="cls-25" x="72.2" y="0">R</tspan><tspan class="cls-26" x="92.79" y="0">T</tspan><tspan x="111.59" y="0" xml:space="preserve"> CIT</tspan><tspan class="cls-27" x="171.02" y="0">Y</tspan></text><text class="cls-17" transform="translate(1232.11 308.65) scale(0.87 1)">SENSORS</text><text class="cls-17" transform="translate(1296.76 624.55) scale(0.87 1)">I<tspan class="cls-28" x="9.78" y="0">I</tspan><tspan class="cls-29" x="19.06" y="0">o</tspan><tspan class="cls-30" x="34.02" y="0">T</tspan></text><text class="cls-17" transform="translate(1083.95 514.06) scale(0.87 1)">EMP<tspan class="cls-31" x="70.59" y="0">L</tspan><tspan class="cls-32" x="86.89" y="0">O</tspan><tspan class="cls-33" x="112.17" y="0">YEES</tspan></text><text class="cls-17" transform="translate(262.68 784.48) scale(0.87 1)">UTILITIES</text><text class="cls-17" transform="translate(989.24 793.98) scale(0.87 1)">NET<tspan class="cls-34" x="64.2" y="0">W</tspan><tspan x="98.41" y="0">ORK S</tspan><tspan class="cls-24" x="195.03" y="0">E</tspan><tspan x="213.49" y="0">CURIT</tspan><tspan class="cls-35" x="310.63" y="0">Y</tspan></text><text class="cls-17" transform="translate(564.58 860.69) scale(0.87 1)">DEVICES</text><text class="cls-17" transform="translate(758.6 884.81) scale(0.87 1)">CUS<tspan class="cls-36" x="64.43" y="0">T</tspan><tspan x="83.44" y="0">OMER</tspan></text><text class="cls-17" transform="translate(0 413.79) scale(0.87 1)">CYBER S<tspan class="cls-24" x="131.26" y="0">E</tspan><tspan x="149.72" y="0">CURIT</tspan><tspan class="cls-35" x="246.85" y="0">Y</tspan></text><polyline class="cls-37" points="806.33 645.17 806.33 741.67 863.41 784.48 967.01 784.48"/><polyline class="cls-38" points="765.28 667.19 765.28 784.48 815.26 819.93 815.26 839.39"/><line class="cls-39" x1="706.97" y1="676.3" x2="706.97" y2="768.04"/><polyline class="cls-40" points="654.69 669.27 654.69 717.44 598.03 757.85 598.03 792.69"/><polyline class="cls-41" points="604.98 643.21 604.98 705.77 496.74 777.12 496.74 806.96"/><circle class="cls-6" cx="964.87" cy="784.48" r="9.5"/><circle class="cls-6" cx="815.13" cy="839.39" r="9.5"/><circle class="cls-6" cx="708.15" cy="768.04" r="9.5"/><circle class="cls-6" cx="598.03" cy="792.69" r="9.5"/><circle class="cls-6" cx="496.74" cy="802.19" r="9.5"/><circle class="cls-42" cx="336.57" cy="505.05" r="53.38"/><path class="cls-43" d="M335.24,532.9c15.73,0,26.29-9.16,26.29-22.79,0-5.68-3.68-15.13-7.88-20.21a1.76,1.76,0,0,0-2.15-.45l-8.23,4.16-6.36-19.1a1.75,1.75,0,0,0-3.27-.13L323.93,497l-7.08-4.53a1.74,1.74,0,0,0-2.36.46c-3.17,4.39-5.53,12.69-5.53,17.17C309,523.74,319.52,532.9,335.24,532.9Zm0-31.55s10.52,11.72,10.52,17.53a10.52,10.52,0,0,1-21,0C324.73,513.07,335.24,501.35,335.24,501.35Z"/><circle class="cls-44" cx="827.47" cy="53.38" r="53.38"/><path class="cls-43" d="M856.94,66.73h-7.7V83.24h.48a2.25,2.25,0,0,0,1.93-1.09l7.21-12a2.24,2.24,0,0,0-1.92-3.4Z"/><path class="cls-43" d="M856.94,45.68h-7.7V62.2h.48a2.27,2.27,0,0,0,1.93-1.09l7.21-12a2.24,2.24,0,0,0-1.92-3.4Z"/><path class="cls-43" d="M851.65,40.06l7.21-12a2.24,2.24,0,0,0-1.92-3.4h-7.7V41.15h.48a2.25,2.25,0,0,0,1.93-1.09Z"/><path class="cls-43" d="M796.05,67.87a2.28,2.28,0,0,0,0,2.26l7.22,12a2.23,2.23,0,0,0,1.92,1.09h.48V66.73H798A2.24,2.24,0,0,0,796.05,67.87Z"/><path class="cls-43" d="M796.05,46.82a2.28,2.28,0,0,0,0,2.26l7.22,12a2.25,2.25,0,0,0,1.92,1.09h.48V45.68H798A2.24,2.24,0,0,0,796.05,46.82Z"/><path class="cls-43" d="M796.05,25.77a2.28,2.28,0,0,0,0,2.26l7.22,12a2.23,2.23,0,0,0,1.92,1.09h.48V24.63H798A2.26,2.26,0,0,0,796.05,25.77Z"/><path class="cls-43" d="M837.7,15.61H817.25a7.07,7.07,0,0,0-7.06,7.06V85.21a7.06,7.06,0,0,0,7.06,7.05H837.7a7.05,7.05,0,0,0,7-7.05V22.67A7.06,7.06,0,0,0,837.7,15.61ZM827.47,83.24A8.26,8.26,0,1,1,835.73,75,8.27,8.27,0,0,1,827.47,83.24Zm0-21a8.26,8.26,0,1,1,8.26-8.26A8.28,8.28,0,0,1,827.47,62.2Zm0-21.05a8.26,8.26,0,1,1,8.26-8.26A8.27,8.27,0,0,1,827.47,41.15Z"/><circle class="cls-45" cx="706.97" cy="167.54" r="53.38"/><path class="cls-43" d="M674,161.13l5.06,13.9a1.85,1.85,0,0,0,2.89.82l4.1-3.26,0-.09-3.23-8.87a9.15,9.15,0,0,1-5.67-5l-1.42,0a1.85,1.85,0,0,0-1.48.81A1.83,1.83,0,0,0,674,161.13Z"/><path class="cls-43" d="M687,164.18l2.57,7.06a5.54,5.54,0,0,0,7.11,3.31l31.29-11.38a5.57,5.57,0,0,0,3.32-7.12l-.7-1.91a9.55,9.55,0,0,1-1.67.81h0l-26.77,9.74a9,9,0,0,1-4.78.41Z"/><path class="cls-43" d="M679.72,155.12l.58,1.62a5.56,5.56,0,0,0,3.91,3.49l13.7,1.2a5.08,5.08,0,0,0,2.93-.22l26.76-9.74a5.55,5.55,0,0,0,3.32-7.11l-2.53-7a5.55,5.55,0,0,0-7.12-3.32L683,148A5.53,5.53,0,0,0,679.72,155.12Zm33.65-10.28,7-2.53a1.85,1.85,0,1,1,1.26,3.47l-7,2.53a1.85,1.85,0,1,1-1.27-3.47Z"/><path class="cls-43" d="M703.83,175.87v2.28a11.1,11.1,0,0,0,11.09,11.1h9.25v2.09a5.55,5.55,0,0,0,5.55,5.55,1.85,1.85,0,0,0,1.85-1.85V176.3a1.85,1.85,0,0,0-1.85-1.85,5.55,5.55,0,0,0-5.55,5.55v1.85h-9.25a3.7,3.7,0,0,1-3.7-3.7v-5Z"/><circle class="cls-46" cx="705.75" cy="777.91" r="53.38"/><path class="cls-43" d="M737,749.79a1.81,1.81,0,0,0-1.81-1.8H729v3.61h6.19A1.81,1.81,0,0,0,737,749.79Z"/><path class="cls-43" d="M735.15,759.6H729v3.61h6.19a1.81,1.81,0,1,0,0-3.61Z"/><path class="cls-43" d="M717.74,767.08h5.8a1.8,1.8,0,0,0,1.81-1.8V745.92a1.81,1.81,0,0,0-1.81-1.8h-5.8a11.48,11.48,0,1,0,0,23Z"/><path class="cls-43" d="M696.45,794.18a5.81,5.81,0,1,0,5.8,5.81,5.81,5.81,0,0,0-5.8-5.81Z"/><path class="cls-43" d="M726.45,782.83H683v3.87H681a2.07,2.07,0,0,1-2.06-2.07V759.47a2.06,2.06,0,0,1,2.06-2.06h21.79a14.95,14.95,0,0,1,0-3.62H681a5.67,5.67,0,0,0-5.67,5.68v25.16a5.67,5.67,0,0,0,5.67,5.68H683v7.87a1.81,1.81,0,0,0,1.8,1.81H687a9.42,9.42,0,0,1,18.84,0h6.32A9.42,9.42,0,1,1,731,800h4.12a1.81,1.81,0,0,0,1.81-1.81v-4.84a10.51,10.51,0,0,0-10.51-10.51Z"/><path class="cls-43" d="M719.35,775.94a9.55,9.55,0,0,0-6.76-2.79H706v6.06h16.61Z"/><path class="cls-43" d="M683,778.83v.38h19.35v-6.06H688.7a5.67,5.67,0,0,0-5.67,5.68Z"/><circle class="cls-43" cx="721.61" cy="799.99" r="5.81"/><circle class="cls-47" cx="222.95" cy="692.68" r="53.38"/><path class="cls-43" d="M223.32,661.2c-1.91-3.25-3.92-3.14-5.83,0-8.73,13-22,32.48-22,42.22a24.87,24.87,0,1,0,49.73,0C245.27,693.57,232.05,674.19,223.32,661.2Zm15,53.31a21.32,21.32,0,0,1-7.51,7.28,3,3,0,0,1-2.91-5.26,14.87,14.87,0,0,0,5.38-5.16,14.69,14.69,0,0,0,2.24-7.16,3,3,0,0,1,5.93.33A22.13,22.13,0,0,1,238.33,714.51Z"/><circle class="cls-48" cx="203.23" cy="299.44" r="47.71"/><path class="cls-43" d="M194.1,271.33h-4.34a2,2,0,0,0,0,3.95h4.34a2,2,0,0,0,0-3.95Z"/><path class="cls-43" d="M186.27,294a2,2,0,0,0-1.76,1.08l-5.86,11.6h24.52V294Z"/><path class="cls-43" d="M225.77,295A2,2,0,0,0,224,294h-16.9v12.68h24.52Z"/><path class="cls-43" d="M238.58,320.4l-5-9.83H207.11v12.69h29.71A2,2,0,0,0,238.58,320.4Z"/><path class="cls-43" d="M176.66,310.57l-5,9.83a2,2,0,0,0,1.76,2.86h29.71V310.57Z"/><path class="cls-43" d="M205.14,266.07a7.24,7.24,0,1,0,7.23,7.23A7.24,7.24,0,0,0,205.14,266.07Z"/><path class="cls-43" d="M205.14,256a2,2,0,0,0-2,2v4.34a2,2,0,0,0,3.94,0v-4.34A2,2,0,0,0,205.14,256Z"/><path class="cls-43" d="M205.14,282.38a2,2,0,0,0-2,2v4.34a2,2,0,0,0,3.94,0v-4.34A2,2,0,0,0,205.14,282.38Z"/><path class="cls-43" d="M198.73,264.1,195.66,261a2,2,0,1,0-2.79,2.79l3.07,3.07a2,2,0,0,0,2.79-2.79Z"/><path class="cls-43" d="M217.41,282.79l-3.07-3.07a2,2,0,1,0-2.79,2.79l3.07,3.07a2,2,0,0,0,2.79-2.79Z"/><path class="cls-43" d="M220.52,271.33h-4.34a2,2,0,0,0,0,3.95h4.34a2,2,0,0,0,0-3.95Z"/><path class="cls-43" d="M198.73,279.72a2,2,0,0,0-2.79,0l-3.07,3.07a2,2,0,1,0,2.79,2.79l3.07-3.07A2,2,0,0,0,198.73,279.72Z"/><path class="cls-43" d="M217.41,261a2,2,0,0,0-2.79,0l-3.07,3.07a2,2,0,1,0,2.79,2.79l3.07-3.07A2,2,0,0,0,217.41,261Z"/><circle class="cls-49" cx="588.53" cy="56.73" r="53.38"/><path class="cls-43" d="M578,89.87V78h17.76V89.87h13.37V25.72H564.58V89.87Zm17.76-58.26h7.48V39.1h-7.48Zm0,10.89h7.48V50h-7.48Zm0,10.88h7.48v7.49h-7.48Zm0,10.88h7.48v7.5h-7.48ZM583.1,31.61h7.49V39.1H583.1Zm0,10.89h7.49V50H583.1Zm0,10.88h7.49v7.49H583.1Zm0,10.88h7.49v7.5H583.1ZM570.48,31.61H578V39.1h-7.49Zm0,10.89H578V50h-7.49Zm0,10.88H578v7.49h-7.49Zm0,10.88H578v7.5h-7.49Z"/><circle class="cls-50" cx="706.97" cy="508.86" r="168.67"/><path class="cls-51" d="M776.65,466.41H764.7V451.09c0-31-25.9-56.3-57.73-56.3s-57.72,25.25-57.72,56.3v15.32H638.4A11.4,11.4,0,0,0,627,477.8V588.88a11.4,11.4,0,0,0,11.38,11.39H776.65A11.39,11.39,0,0,0,788,588.88V477.8A11.39,11.39,0,0,0,776.65,466.41Zm-57.74,83.84a11.38,11.38,0,0,1-22.76,0V516.44a11.38,11.38,0,1,1,22.76,0Zm23-83.84H672V451.09c0-18.49,15.68-33.54,35-33.54s35,15.05,35,33.54Z"/><circle class="cls-52" cx="1179.24" cy="398.33" r="53.38"/><text class="cls-53" transform="translate(1153.83 414.66) scale(0.87 1)">I<tspan class="cls-54" x="13.49" y="0">o</tspan><tspan class="cls-55" x="35.26" y="0">T</tspan></text><circle class="cls-56" cx="496.74" cy="839.6" r="53.38"/><path class="cls-43" d="M516.27,834.09l-.63,0v0c0-7.8-6.85-14.12-15.29-14.12-6.89,0-12.72,4.22-14.62,10a16.37,16.37,0,0,0-5.77-1c-8.44,0-15.28,6.36-15.28,14.16s6.84,14.16,15.28,14.16h36.31c6.92,0,12.52-5.2,12.52-11.59S523.19,834.09,516.27,834.09Z"/></g></g></svg>