<?xml version="1.0" encoding="utf-8"?>
<!-- Generator: Adobe Illustrator 25.0.0, SVG Export Plug-In . SVG Version: 6.00 Build 0)  -->
<svg version="1.1" id="Layer_1" xmlns="http://www.w3.org/2000/svg" xmlns:xlink="http://www.w3.org/1999/xlink" x="0px" y="0px"
	 viewBox="0 0 48 48" style="enable-background:new 0 0 48 48;" xml:space="preserve">
<style type="text/css">
	.st0{fill:#437FEC;}
	.st1{clip-path:url(#SVGID_2_);}
</style>
<g>
	<defs>
		<rect id="SVGID_1_" x="1" y="1" width="46" height="46"/>
	</defs>
	<clipPath id="SVGID_2_">
		<use xlink:href="#SVGID_1_"  style="overflow:visible;"/>
	</clipPath>
	<g class="st1">
		<path class="st0" d="M19.16,21c5.57,0,10.09-4.48,10.09-10c0-5.52-4.52-10-10.09-10C13.59,1,9.07,5.48,9.07,11
			C9.07,16.52,13.59,21,19.16,21z"/>
		<path class="st0" d="M24.27,42.6c-1.05-1.8-0.84-4.03,0.41-5.6c-1.25-1.57-1.46-3.79-0.41-5.6l1.63-2.8
			c0.9-1.54,2.57-2.5,4.37-2.5c0.25,0,0.49,0.02,0.73,0.05c0.07-0.16,0.15-0.32,0.23-0.47c-1.09-0.43-2.27-0.68-3.5-0.68H10.58
			C5.3,25,1,29.26,1,34.5v7C1,42.33,1.68,43,2.51,43H24.5L24.27,42.6z"/>
		<path class="st0" d="M44.78,37.94c0.04-0.31,0.09-0.62,0.09-0.94c0-0.32-0.06-0.63-0.09-0.94l1.82-1.36
			c0.41-0.3,0.52-0.86,0.26-1.3l-1.63-2.8c-0.25-0.44-0.8-0.62-1.27-0.42l-2.09,0.87c-0.51-0.39-1.05-0.73-1.65-0.97l-0.28-2.2
			c-0.06-0.5-0.49-0.88-1-0.88h-3.26c-0.51,0-0.94,0.38-1,0.88l-0.28,2.2c-0.6,0.25-1.14,0.59-1.65,0.97l-2.09-0.87
			c-0.47-0.2-1.01-0.02-1.27,0.42l-1.63,2.8c-0.25,0.44-0.14,0.99,0.26,1.3l1.82,1.36c-0.04,0.31-0.09,0.62-0.09,0.94
			c0,0.32,0.06,0.63,0.09,0.94l-1.82,1.36c-0.41,0.3-0.52,0.86-0.26,1.3l1.63,2.8c0.25,0.44,0.8,0.62,1.27,0.42l2.09-0.88
			c0.51,0.39,1.05,0.73,1.65,0.97l0.28,2.2c0.06,0.5,0.49,0.88,1,0.88h3.26c0.51,0,0.94-0.38,1-0.88l0.28-2.2
			c0.6-0.25,1.14-0.59,1.65-0.97l2.09,0.87c0.47,0.2,1.01,0.02,1.27-0.42l1.63-2.8c0.25-0.44,0.14-0.99-0.26-1.3L44.78,37.94z
			 M37.31,41c-2.23,0-4.04-1.79-4.04-4c0-2.21,1.81-4,4.04-4c2.23,0,4.03,1.79,4.03,4C41.35,39.21,39.54,41,37.31,41z"/>
	</g>
</g>
</svg>
