<svg width="117" height="114" viewBox="0 0 117 114" fill="none" xmlns="http://www.w3.org/2000/svg">
<g filter="url(#filter0_d)">
<path fill-rule="evenodd" clip-rule="evenodd" d="M7 18.8157C7 10.5314 13.7157 3.81567 22 3.81567H95C103.284 3.81567 110 10.5314 110 18.8157V87.8157C110 96.0999 103.284 102.816 95 102.816H22C13.7157 102.816 7 96.0999 7 87.8157V18.8157Z" fill="white"/>
</g>
<path d="M58.5 25.8157L36 35.7622V50.682C36 64.4828 45.6 77.3885 58.5 80.5216C71.4 77.3885 81 64.4828 81 50.682V35.7622L58.5 25.8157ZM58.5 53.1438H76C74.675 63.3887 67.8 72.5147 58.5 75.3743V53.1686H41V38.9948L58.5 31.2614V53.1438Z" fill="#437FEC"/>
<defs>
<filter id="filter0_d" x="0" y="0.815674" width="117" height="113" filterUnits="userSpaceOnUse" color-interpolation-filters="sRGB">
<feFlood flood-opacity="0" result="BackgroundImageFix"/>
<feColorMatrix in="SourceAlpha" type="matrix" values="0 0 0 0 0 0 0 0 0 0 0 0 0 0 0 0 0 0 127 0"/>
<feOffset dy="4"/>
<feGaussianBlur stdDeviation="3.5"/>
<feColorMatrix type="matrix" values="0 0 0 0 0.717647 0 0 0 0 0.752941 0 0 0 0 0.921569 0 0 0 1 0"/>
<feBlend mode="normal" in2="BackgroundImageFix" result="effect1_dropShadow"/>
<feBlend mode="normal" in="SourceGraphic" in2="effect1_dropShadow" result="shape"/>
</filter>
</defs>
</svg>
