<?xml version="1.0" encoding="utf-8"?>
<!-- Generator: Adobe Illustrator 25.0.0, SVG Export Plug-In . SVG Version: 6.00 Build 0)  -->
<svg version="1.1" id="Layer_1" xmlns="http://www.w3.org/2000/svg" xmlns:xlink="http://www.w3.org/1999/xlink" x="0px" y="0px"
	 viewBox="0 0 100 100" style="enable-background:new 0 0 100 100;" xml:space="preserve">
<style type="text/css">
	.st0{clip-path:url(#SVGID_2_);}
	.st1{fill:#437FEC;}
	.st2{fill:#4CD9ED;}
	.st3{clip-path:url(#SVGID_4_);}
	.st4{fill:#2C79E6;}
	.st5{fill:#00C3FF;}
	.st6{fill:#32393F;}
	.st7{fill:#FFFFFF;}
	.st8{fill:#4CB3ED;fill-opacity:0.56;}
	.st9{fill:#EFE2DD;}
</style>
<g>
	<defs>
		<rect id="SVGID_3_" x="16" y="16" width="68" height="68"/>
	</defs>
	<clipPath id="SVGID_2_">
		<use xlink:href="#SVGID_3_"  style="overflow:visible;"/>
	</clipPath>
	<g class="st0">
		<path class="st4" d="M76.46,69.39h-7.25v7.25h7.25V69.39z"/>
		<path class="st2" d="M48.15,52.26c0.47-0.47,0.47-1.24,0-1.71c-0.94-0.94-0.95-2.48,0-3.42c0.94-0.94,2.48-0.94,3.42,0
			c0.94,0.94,0.94,2.48,0,3.42c-0.47,0.47-0.47,1.24,0,1.71l0.78,0.78c1.6,1.6,2.81,3.54,3.56,5.68v0.08
			c-1.47,1.19-3.26,1.91-5.14,2.09c-0.3,0.03-0.6,0.05-0.9,0.05c-0.3,0-0.6-0.02-0.9-0.05c-1.88-0.18-3.67-0.91-5.14-2.09v-0.08
			c0.75-2.14,1.96-4.08,3.56-5.68L48.15,52.26z"/>
		<path class="st1" d="M49.86,39.17c4.3-0.01,8.2,2.52,9.94,6.45c1.75,3.93,1.02,8.51-1.87,11.7c-0.87-2.24-2.19-4.28-3.88-5.99
			l-0.03-0.03c1.2-2.03,0.75-4.63-1.05-6.15c-1.8-1.52-4.44-1.52-6.24,0c-1.8,1.52-2.24,4.12-1.05,6.15l-0.03,0.03
			c-1.69,1.71-3.01,3.75-3.88,5.99c-2.88-3.19-3.61-7.78-1.87-11.7C41.66,41.69,45.56,39.16,49.86,39.17z"/>
		<path class="st5" d="M69.21,27.07c0,2,1.62,3.63,3.63,3.63c2,0,3.63-1.62,3.63-3.63c0-2-1.62-3.63-3.63-3.63
			C70.83,23.45,69.21,25.07,69.21,27.07z"/>
		<path class="st4" d="M61.95,27.07c-0.01-5.09,3.5-9.52,8.47-10.66c4.96-1.14,10.06,1.3,12.27,5.89c2.21,4.59,0.96,10.1-3.03,13.27
			c-3.98,3.18-9.63,3.17-13.61-0.01l-2.49,2.49l-1.71-1.71l2.49-2.49C62.79,31.94,61.95,29.54,61.95,27.07z M72.83,33.12
			c3.34,0,6.05-2.71,6.05-6.05c0-3.34-2.71-6.05-6.05-6.05c-3.34,0-6.05,2.71-6.05,6.05C66.79,30.41,69.5,33.12,72.83,33.12z"/>
		<path class="st2" d="M30.51,71.21v3.63l-3.63,2.72l-3.63-2.72v-3.63l3.63-2.72L30.51,71.21z"/>
		<path class="st4" d="M26.88,62.14c2.47,0,4.86,0.84,6.78,2.39l3.7-3.7l1.71,1.71l-3.7,3.7c3.16,3.97,3.16,9.59-0.01,13.56
			c-3.17,3.96-8.65,5.21-13.22,3.01c-4.57-2.2-7.01-7.28-5.87-12.22C17.41,65.64,21.81,62.14,26.88,62.14z M20.84,75.44
			c0,0.38,0.18,0.74,0.48,0.97l4.84,3.63c0.43,0.32,1.02,0.32,1.45,0l4.84-3.63c0.3-0.23,0.48-0.59,0.48-0.97V70.6
			c0-0.38-0.18-0.74-0.48-0.97l-4.84-3.63c-0.43-0.32-1.02-0.32-1.45,0l-4.84,3.63c-0.3,0.23-0.48,0.59-0.48,0.97V75.44z"/>
		<path class="st1" d="M76.46,44h-2.42v2.42h2.42V44z"/>
		<path class="st1" d="M76.46,48.84h-2.42v2.42h2.42V48.84z"/>
		<path class="st1" d="M76.46,53.68h-2.42v2.42h2.42V53.68z"/>
		<path class="st1" d="M22.05,44h-2.42v2.42h2.42V44z"/>
		<path class="st1" d="M22.05,48.84h-2.42v2.42h2.42V48.84z"/>
		<path class="st1" d="M22.05,53.68h-2.42v2.42h2.42V53.68z"/>
		<path class="st1" d="M55.9,19.82h-2.42v2.42h2.42V19.82z"/>
		<path class="st1" d="M51.07,19.82h-2.42v2.42h2.42V19.82z"/>
		<path class="st1" d="M46.23,19.82h-2.42v2.42h2.42V19.82z"/>
		<path class="st1" d="M55.9,77.86h-2.42v2.42h2.42V77.86z"/>
		<path class="st1" d="M51.07,77.86h-2.42v2.42h2.42V77.86z"/>
		<path class="st1" d="M46.23,77.86h-2.42v2.42h2.42V77.86z"/>
		<path class="st2" d="M26.88,24.68l2.75,4.82h-5.51L26.88,24.68z"/>
		<path class="st4" d="M35.74,33.98l0.56,3.63l-3.92-0.85c-0.08-0.02-0.17-0.02-0.25-0.02c-0.18,0-0.36,0.04-0.53,0.12
			c-1.47,0.72-3.08,1.09-4.72,1.09c-4.99,0-9.34-3.39-10.56-8.24c-1.21-4.84,1.02-9.89,5.42-12.24c4.4-2.35,9.84-1.41,13.19,2.29
			c3.35,3.7,3.76,9.2,0.99,13.35C35.76,33.37,35.69,33.68,35.74,33.98z M32.77,30.1l-4.84-8.46c-0.23-0.35-0.63-0.57-1.05-0.57
			c-0.42,0-0.82,0.21-1.05,0.57L21,30.1c-0.22,0.37-0.22,0.84,0,1.21c0.22,0.37,0.62,0.6,1.05,0.6h9.67c0.43,0,0.83-0.23,1.05-0.6
			C32.99,30.93,32.99,30.47,32.77,30.1z"/>
		<path class="st2" d="M63.56,60.83l3.18,3.18c4.83-3.31,11.4-2.27,14.97,2.37c3.57,4.64,2.9,11.26-1.54,15.08
			c-4.43,3.82-11.08,3.51-15.14-0.71c-4.06-4.22-4.12-10.87-0.13-15.16l-3.05-3.05L63.56,60.83z M66.79,77.86
			c0,0.67,0.54,1.21,1.21,1.21h9.67c0.67,0,1.21-0.54,1.21-1.21v-9.67c0-0.67-0.54-1.21-1.21-1.21H68c-0.67,0-1.21,0.54-1.21,1.21
			V77.86z"/>
	</g>
</g>
</svg>
