<?xml version="1.0" encoding="utf-8"?>
<!-- Generator: Adobe Illustrator 25.0.0, SVG Export Plug-In . SVG Version: 6.00 Build 0)  -->
<svg version="1.1" id="Layer_1" xmlns="http://www.w3.org/2000/svg" xmlns:xlink="http://www.w3.org/1999/xlink" x="0px" y="0px"
	 viewBox="0 0 100 100" style="enable-background:new 0 0 100 100;" xml:space="preserve">
<style type="text/css">
	.st0{clip-path:url(#SVGID_2_);}
	.st1{fill:#00C3FF;}
	.st2{fill:#2C79E6;}
</style>
<g>
	<defs>
		<rect id="SVGID_1_" x="4.6" y="4.6" width="90.8" height="90.8"/>
	</defs>
	<clipPath id="SVGID_2_">
		<use xlink:href="#SVGID_1_"  style="overflow:visible;"/>
	</clipPath>
	<g class="st0">
		<path class="st1" d="M47.32,52.16l-5.6-0.48l-3.63-3.62l-4.33-4.33C31.21,51.83,35.71,60.46,43.8,63
			c2.84,0.89,5.88,0.94,8.74,0.14l29.68,29.79c2.73,3.05,7.42,3.31,10.47,0.57c3.05-2.73,3.3-7.43,0.57-10.47
			c-0.18-0.2-0.37-0.39-0.57-0.57L63.07,52.83c2.49-8.12-2.07-16.72-10.18-19.21c-2.88-0.88-5.95-0.9-8.83-0.06l4.23,4.23l3.65,3.65
			l0.48,5.6l-2.54,2.54L47.32,52.16z M59.85,58.62l26.03,26.04c0.51,0.48,0.54,1.28,0.06,1.8c-0.48,0.52-1.28,0.54-1.8,0.06
			c-0.02-0.02-0.04-0.04-0.06-0.06L58.07,60.41L59.85,58.62z"/>
		<path class="st2" d="M20.09,64.88l-5.53,11.32l6.48,6.48l11.18-5.68c2.48,1.41,5.14,2.5,7.9,3.22l4.09,11.9h9.17l3.89-11.9
			c2.18-0.58,4.29-1.39,6.3-2.42l-8.36-8.37c-11.61,3.62-23.95-2.87-27.56-14.47c-3.61-11.61,2.87-23.95,14.47-27.56
			c11.61-3.61,23.95,2.87,27.56,14.47c1.4,4.5,1.32,9.34-0.24,13.79l8.26,8.28c1.2-2.24,2.14-4.6,2.8-7.05l11.91-4.08v-9.18
			l-11.94-3.9c-0.74-2.76-1.84-5.41-3.28-7.88l5.52-11.3l-6.48-6.5l-11.18,5.68c-2.49-1.42-5.14-2.51-7.9-3.25L53.09,4.6h-9.18
			l-3.89,11.95c-2.75,0.74-5.4,1.84-7.87,3.27L20.83,14.3l-6.49,6.49l5.69,11.18c-1.42,2.48-2.52,5.12-3.27,7.88L4.91,43.95v9.19
			l11.95,3.89C17.58,59.78,18.67,62.42,20.09,64.88z"/>
	</g>
</g>
</svg>
