<?xml version="1.0" encoding="utf-8"?>
<!-- Generator: Adobe Illustrator 25.0.0, SVG Export Plug-In . SVG Version: 6.00 Build 0)  -->
<svg version="1.1" id="Layer_1" xmlns="http://www.w3.org/2000/svg" xmlns:xlink="http://www.w3.org/1999/xlink" x="0px" y="0px"
	 viewBox="0 0 100 100" style="enable-background:new 0 0 100 100;" xml:space="preserve">
<style type="text/css">
	.st0{clip-path:url(#SVGID_2_);}
	.st1{fill:#00C3FF;}
	.st2{fill:#2C79E6;}
	.st3{fill:#00C0F1;}
	.st4{fill:#FFFFFF;}
	.st5{fill:none;stroke:#2C79E6;stroke-width:4;}
	.st6{fill:#00C3FF;stroke:#FFFFFF;stroke-width:3;}
</style>
<g>
	<ellipse class="st1" cx="50" cy="33.76" rx="17.28" ry="4.71"/>
	<path class="st2" d="M32.72,39.83v-1.36c12.79,4.85,29.23,2.02,34.56,0v1.44c0,2.5-1.55,4.76-3.98,5.35
		c-6.22,1.52-16.27,2.63-26.52,0.03C34.31,44.67,32.72,42.37,32.72,39.83z"/>
	<path class="st2" d="M32.72,47.68v-1.36c12.79,4.85,29.23,2.02,34.56,0v1.44c0,2.5-1.55,4.76-3.98,5.35
		c-6.22,1.52-16.27,2.63-26.52,0.03C34.31,52.52,32.72,50.22,32.72,47.68z"/>
	<path class="st2" d="M32.72,55.53v-1.36c12.79,4.85,29.23,2.02,34.56,0v1.44c0,2.5-1.55,4.76-3.98,5.35
		C57.08,62.49,47.04,63.6,36.78,61C34.31,60.38,32.72,58.08,32.72,55.53z"/>
	<rect x="48.95" y="62.56" class="st2" width="2.09" height="7.85"/>
	<circle class="st2" cx="42.15" cy="68.84" r="2.62"/>
	<circle class="st2" cx="57.85" cy="68.84" r="2.62"/>
	<rect x="43.19" y="67.27" class="st2" width="13.61" height="3.14"/>
	<circle class="st5" cx="50.4" cy="49.6" r="40.92"/>
	<circle class="st6" cx="50.8" cy="8.67" r="6.05"/>
	<circle class="st6" cx="50.8" cy="91.33" r="6.05"/>
	<circle class="st6" cx="7.87" cy="49.2" r="6.05"/>
	<circle class="st6" cx="92.13" cy="49.2" r="6.05"/>
</g>
</svg>
